<svg width="130" height="41" viewBox="0 0 130 41" fill="none" xmlns="http://www.w3.org/2000/svg">
<circle cx="2" cy="2.74219" r="2" fill="#00CC61"/>
<circle cx="16" cy="2.74219" r="2" fill="#00CC61"/>
<circle cx="30" cy="2.74219" r="2" fill="#00CC61"/>
<circle cx="44" cy="2.74219" r="2" fill="#00CC61"/>
<circle cx="58" cy="2.74219" r="2" fill="#00CC61"/>
<circle cx="72" cy="2.74219" r="2" fill="#00CC61"/>
<circle cx="86" cy="2.74219" r="2" fill="#00CC61"/>
<circle cx="100" cy="2.74219" r="2" fill="#00CC61"/>
<circle cx="114" cy="2.74219" r="2" fill="#00CC61"/>
<circle cx="128" cy="2.74219" r="2" fill="#00CC61"/>
<circle cx="16" cy="14.7422" r="2" fill="#00CC61"/>
<circle cx="30" cy="14.7422" r="2" fill="#00CC61"/>
<circle cx="44" cy="14.7422" r="2" fill="#00CC61"/>
<circle cx="58" cy="14.7422" r="2" fill="#00CC61"/>
<circle cx="72" cy="14.7422" r="2" fill="#00CC61"/>
<circle cx="86" cy="14.7422" r="2" fill="#00CC61"/>
<circle cx="100" cy="14.7422" r="2" fill="#00CC61"/>
<circle cx="114" cy="14.7422" r="2" fill="#00CC61"/>
<circle cx="30" cy="26.7422" r="2" fill="#00CC61"/>
<circle cx="44" cy="26.7422" r="2" fill="#00CC61"/>
<circle cx="58" cy="26.7422" r="2" fill="#00CC61"/>
<circle cx="72" cy="26.7422" r="2" fill="#00CC61"/>
<circle cx="86" cy="26.7422" r="2" fill="#00CC61"/>
<circle cx="100" cy="26.7422" r="2" fill="#00CC61"/>
<circle cx="44" cy="38.7422" r="2" fill="#00CC61"/>
<circle cx="58" cy="38.7422" r="2" fill="#00CC61"/>
<circle cx="72" cy="38.7422" r="2" fill="#00CC61"/>
<circle cx="86" cy="38.7422" r="2" fill="#00CC61"/>
</svg>
