<?xml version="1.0" encoding="UTF-8"?>
<!DOCTYPE svg PUBLIC "-//W3C//DTD SVG 1.1//EN" "http://www.w3.org/Graphics/SVG/1.1/DTD/svg11.dtd">
<!-- Creator: CorelDRAW -->
<svg xmlns="http://www.w3.org/2000/svg" xml:space="preserve" width="511px" height="670px" version="1.1" style="shape-rendering:geometricPrecision; text-rendering:geometricPrecision; image-rendering:optimizeQuality; fill-rule:evenodd; clip-rule:evenodd"
viewBox="0 0 74.76 98.07"
 xmlns:xlink="http://www.w3.org/1999/xlink"
 xmlns:xodm="http://www.corel.com/coreldraw/odm/2003">
 <defs>
  <style type="text/css">
   <![CDATA[
    .fil0 {fill:black;fill-rule:nonzero}
   ]]>
  </style>
 </defs>
 <g id="Layer_x0020_1">
  <metadata id="CorelCorpID_0Corel-Layer"/>
  <path class="fil0" d="M74.76 94.73c0,0.7 -0.09,1.39 -0.25,2.06 -0.16,0.6 -0.7,1.03 -1.33,1.04 -0.18,0 -18.07,0.14 -35.74,0.2 -6.62,0.03 -12.38,0.04 -17.23,0.04 -2.76,0 -5.23,0 -7.38,-0.01 -3.54,-0.01 -6.28,-0.04 -8.15,-0.07 -1.02,-0.02 -1.8,-0.05 -2.33,-0.07 -0.86,-0.05 -1.84,-0.09 -2.1,-1.13 -0.17,-0.67 -0.25,-1.36 -0.25,-2.05 0,-4.65 3.78,-8.43 8.42,-8.43 2.96,0 5.68,1.57 7.19,4.03 0.83,-0.36 1.74,-0.55 2.67,-0.55 0.79,0 1.58,0.14 2.31,0.41 1.43,-1.99 3.69,-3.89 8.02,-3.89 0.43,0 0.87,0.02 1.3,0.06 0.51,0.04 0.93,-0.1 1.3,-0.45 0.38,-0.35 0.55,-0.76 0.55,-1.27 -0.01,-0.92 -0.78,-1.68 -1.7,-1.68l-14.59 0c-0.59,0 -1.12,-0.38 -1.31,-0.95 -0.18,-0.57 0.02,-1.19 0.51,-1.54l11.28 -8.15 0 -36.99c0,-2.19 0.82,-9.88 11.35,-16.5 0.45,-0.29 1.02,-0.29 1.47,0 10.52,6.62 11.34,14.31 11.34,16.5l0 36.99 11.29 8.15c0.48,0.35 0.69,0.97 0.5,1.54 -0.18,0.57 -0.71,0.95 -1.31,0.95l-14.59 0c-0.44,0 -0.78,0.15 -1.09,0.47 -0.3,0.32 -0.43,0.68 -0.41,1.12l0.02 0.32c0.04,0.8 0.7,1.43 1.5,1.43l0.12 0c4.33,0 6.6,1.9 8.02,3.89 0.74,-0.27 1.52,-0.41 2.32,-0.41 0.93,0 1.83,0.19 2.67,0.55 1.51,-2.46 4.23,-4.03 7.18,-4.03 4.65,0 8.43,3.78 8.43,8.42l0 0zm-44.7 -14.51l18.67 0c0,0 7.6,0 7.6,0l-8.4 -6.07c-0.36,-0.25 -0.57,-0.67 -0.57,-1.11l0 -37.7c0,-1.28 -0.46,-7.8 -9.33,-13.7 -8.86,5.9 -9.32,12.43 -9.32,13.7l0 37.7c0,0.44 -0.22,0.85 -0.58,1.11l-8.4 6.07 10.32 0 0.01 0zm41.95 14.51c0,-3.12 -2.55,-5.67 -5.68,-5.67 -2.35,0 -4.49,1.49 -5.31,3.7 -0.16,0.41 -0.5,0.72 -0.92,0.84 -0.42,0.12 -0.88,0.03 -1.22,-0.24 -0.69,-0.53 -1.52,-0.82 -2.4,-0.82 -0.74,0 -1.45,0.2 -2.07,0.59 -0.32,0.2 -0.7,0.26 -1.06,0.18 -0.36,-0.09 -0.67,-0.32 -0.86,-0.64 -1.29,-2.16 -2.86,-3.61 -6.35,-3.61l-0.09 0c-2.28,0.02 -4.17,-1.76 -4.29,-4.04l-0.01 -0.32c-0.03,-0.61 0.06,-1.19 0.26,-1.73l-7.84 0c0.21,0.51 0.33,1.07 0.34,1.65 0.01,1.29 -0.48,2.43 -1.42,3.31 -0.95,0.88 -2.12,1.29 -3.41,1.18 -0.35,-0.03 -0.71,-0.05 -1.07,-0.05 -3.48,0 -5.05,1.45 -6.35,3.61 -0.19,0.32 -0.5,0.55 -0.86,0.64 -0.36,0.08 -0.74,0.02 -1.05,-0.17 -0.62,-0.39 -1.34,-0.6 -2.07,-0.6 -0.88,0 -1.71,0.29 -2.4,0.83 -0.35,0.27 -0.8,0.35 -1.22,0.24 -0.43,-0.13 -0.77,-0.44 -0.92,-0.85 -0.82,-2.21 -2.96,-3.7 -5.32,-3.7 -3.12,0 -5.67,2.55 -5.67,5.68 0,0.15 0.01,0.3 0.02,0.45 6.39,0.26 43.54,0.09 69.23,-0.1 0,-0.12 0.01,-0.24 0.01,-0.35l0 -0.01zm-27.26 -26.55c0,3.7 -3.02,6.71 -6.72,6.71 -3.7,0 -6.71,-3.01 -6.71,-6.71 0,-3.71 3.01,-6.72 6.71,-6.72 3.7,0 6.72,3.02 6.72,6.72zm-2.76 0c0,-2.19 -1.77,-3.96 -3.96,-3.96 -2.18,0 -3.96,1.77 -3.96,3.96 0,2.18 1.78,3.96 3.96,3.96 2.19,0 3.96,-1.78 3.96,-3.96z"/>
  <path class="fil0" d="M55.85 13.43c-0.57,-0.69 -1.18,-1.35 -1.82,-1.97 -0.5,-0.48 -1.02,-0.94 -1.55,-1.37l0.68 -4.85c0.11,-0.83 -0.18,-1.67 -0.78,-2.25 -0.24,-0.23 -0.53,-0.42 -0.84,-0.55l-5.57 -2.25c-0.99,-0.4 -2.13,-0.16 -2.87,0.61 -0.09,0.09 -0.16,0.18 -0.24,0.28l-2.84 3.91c-1.58,-0.16 -3.17,-0.16 -4.75,0.01l-2.95 -3.9c-0.08,-0.11 -0.17,-0.22 -0.27,-0.31 -0.76,-0.73 -1.88,-0.94 -2.85,-0.53l-5.53 2.35c-0.32,0.14 -0.62,0.34 -0.86,0.6 -0.57,0.59 -0.83,1.41 -0.71,2.23l0.76 4.76c-0.69,0.57 -1.36,1.18 -1.98,1.83 -0.48,0.49 -0.94,1.01 -1.37,1.55l-4.85 -0.68c-0.83,-0.12 -1.66,0.17 -2.25,0.78 -0.23,0.24 -0.42,0.52 -0.54,0.83l-2.25 5.58c-0.4,0.99 -0.16,2.13 0.6,2.87 0.09,0.08 0.19,0.16 0.29,0.23l3.9 2.84c-0.16,1.58 -0.15,3.18 0.02,4.75l-3.91 2.95c-0.11,0.09 -0.21,0.18 -0.31,0.28 -0.73,0.75 -0.93,1.87 -0.52,2.84l2.35 5.54c0.13,0.32 0.34,0.61 0.59,0.86 0.59,0.57 1.42,0.83 2.23,0.7l4.76 -0.75c0.57,0.69 1.17,1.37 1.83,1.98l0.87 0.8 0.01 -0.01 0.05 -0.03 0.87 -3.25c-0.64,-0.64 -1.23,-1.33 -1.78,-2.04 -0.04,-0.07 -0.1,-0.12 -0.15,-0.18 -0.34,-0.33 -0.82,-0.48 -1.29,-0.41l-5.33 0.85 -2.1 -4.95 4.35 -3.29c0.07,-0.04 0.13,-0.1 0.18,-0.16 0.33,-0.33 0.48,-0.8 0.41,-1.26 -0.28,-1.89 -0.28,-3.82 -0.02,-5.71 0.07,-0.48 -0.1,-0.97 -0.45,-1.3 -0.05,-0.05 -0.1,-0.1 -0.16,-0.14l-4.36 -3.17 2.01 -4.98 5.4 0.75c0.48,0.07 0.96,-0.1 1.3,-0.44 0.04,-0.05 0.09,-0.1 0.12,-0.15 0.52,-0.69 1.08,-1.35 1.68,-1.97 0.73,-0.76 1.52,-1.45 2.35,-2.09 0.06,-0.04 0.12,-0.1 0.17,-0.15 0.33,-0.35 0.48,-0.82 0.41,-1.29l-0.84 -5.33 4.94 -2.1 3.29 4.35c0.05,0.06 0.1,0.12 0.16,0.18 0.33,0.32 0.8,0.48 1.27,0.41 1.89,-0.28 3.82,-0.28 5.71,-0.02 0.48,0.07 0.96,-0.1 1.3,-0.45 0.05,-0.05 0.09,-0.11 0.13,-0.16l3.18 -4.37 4.98 2.02 -0.76 5.4c-0.06,0.48 0.1,0.96 0.45,1.3 0.05,0.04 0.1,0.09 0.15,0.12 0.69,0.52 1.35,1.08 1.97,1.68 0.75,0.72 1.45,1.51 2.08,2.34 0.05,0.07 0.1,0.13 0.16,0.18 0.34,0.33 0.82,0.48 1.29,0.41l5.32 -0.84 2.1 4.94 -4.35 3.29c-0.06,0.05 -0.12,0.1 -0.17,0.15 -0.33,0.34 -0.48,0.81 -0.41,1.28 0.27,1.89 0.28,3.81 0.02,5.71 -0.07,0.47 0.1,0.96 0.45,1.29 0.05,0.05 0.1,0.1 0.16,0.14l4.36 3.17 -2.01 4.98 -5.4 -0.75c-0.48,-0.07 -0.96,0.1 -1.3,0.44 -0.05,0.05 -0.09,0.1 -0.13,0.16 -0.39,0.53 -0.82,1.04 -1.27,1.54l0 3.91 0.16 0.15c0.56,-0.49 1.11,-1 1.62,-1.53 0.48,-0.49 0.93,-1.01 1.37,-1.55l4.85 0.68c0.82,0.12 1.66,-0.17 2.25,-0.77 0.23,-0.25 0.41,-0.53 0.54,-0.84l2.25 -5.58c0.4,-0.99 0.16,-2.12 -0.61,-2.87 -0.09,-0.08 -0.18,-0.16 -0.28,-0.23l-3.9 -2.84c0.15,-1.58 0.15,-3.18 -0.02,-4.75l3.91 -2.95c0.11,-0.08 0.21,-0.18 0.3,-0.27 0.73,-0.76 0.94,-1.88 0.53,-2.85l-2.35 -5.54c-0.14,-0.32 -0.34,-0.61 -0.59,-0.86 -0.59,-0.57 -1.42,-0.83 -2.23,-0.7l-4.77 0.75z"/>
  <path class="fil0" d="M37.74 12.82c4.25,0 8.1,1.72 10.89,4.51 2.78,2.78 4.51,6.63 4.51,10.89 0,1.49 -0.21,2.92 -0.61,4.29 -0.34,-1.74 -0.96,-3.45 -1.72,-4.98 -0.11,-0.21 -0.22,-0.42 -0.33,-0.62 -0.31,-3.02 -1.66,-5.72 -3.69,-7.75 -2.31,-2.32 -5.51,-3.75 -9.05,-3.75 -3.54,0 -6.74,1.43 -9.06,3.75 -2.31,2.32 -3.75,5.52 -3.75,9.06 -0.78,1.7 -1.36,3.6 -1.58,5.48 -0.65,-1.7 -1.01,-3.55 -1.01,-5.48 0,-4.26 1.72,-8.11 4.51,-10.89 2.79,-2.79 6.64,-4.51 10.89,-4.51z"/>
 </g>
</svg>
