<?xml version="1.0" encoding="UTF-8"?>
<svg version="1.1" xmlns="http://www.w3.org/2000/svg" width="130" height="130">
<path d="M0 0 C5.28 0 10.56 0 16 0 C16.495 2.475 16.495 2.475 17 5 C17.99 5.33 18.98 5.66 20 6 C20.99 5.34 21.98 4.68 23 4 C26.72774078 4.27331704 28.70418533 6.21321133 31.3125 8.75 C32.03050781 9.42546875 32.74851563 10.1009375 33.48828125 10.796875 C35 13 35 13 34.79296875 15.515625 C34.53128906 16.33546875 34.26960938 17.1553125 34 18 C33.66042311 19.33175689 33.32601087 20.66485739 33 22 C33.99797607 22.01401855 33.99797607 22.01401855 35.01611328 22.02832031 C38.05314019 22.08226019 41.08866579 22.16586062 44.125 22.25 C45.69507812 22.27126953 45.69507812 22.27126953 47.296875 22.29296875 C53.46834173 22.48826833 57.30711632 22.86285255 62 27 C65.52820425 31.2338451 65.35247761 34.71283585 65 40 C63.03177114 41.96822886 59.65191291 41.66248381 57 42 C57.15146484 42.61520508 57.30292969 43.23041016 57.45898438 43.86425781 C58.14407297 46.65836531 58.82210449 49.45413905 59.5 52.25 C59.85771484 53.70212891 59.85771484 53.70212891 60.22265625 55.18359375 C60.44824219 56.11816406 60.67382812 57.05273438 60.90625 58.015625 C61.11572266 58.87446289 61.32519531 59.73330078 61.54101562 60.61816406 C62 63 62 63 62 67 C65.96 67.33 69.92 67.66 74 68 C74.061875 66.411875 74.12375 64.82375 74.1875 63.1875 C74.71223306 58.27848414 74.71223306 58.27848414 76.9375 56.125 C77.948125 55.75375 78.95875 55.3825 80 55 C80.79664062 54.63003906 81.59328125 54.26007812 82.4140625 53.87890625 C89.32165958 50.77150638 89.32165958 50.77150638 92.2265625 51.75 C94.72898021 53.51381865 95.2481801 55.06106768 96 58 C95.875 60.6875 95.875 60.6875 95 63 C92.43689172 64.7941758 91.16880694 65 88 65 C88 66.98 88 68.96 88 71 C88.61488281 71.06058594 89.22976562 71.12117188 89.86328125 71.18359375 C91.07564453 71.30927734 91.07564453 71.30927734 92.3125 71.4375 C93.51326172 71.55931641 93.51326172 71.55931641 94.73828125 71.68359375 C97 72 97 72 100 73 C100.0093457 73.72590332 100.01869141 74.45180664 100.02832031 75.19970703 C100.08221281 78.50881214 100.16582439 81.81653238 100.25 85.125 C100.26417969 86.26710938 100.27835937 87.40921875 100.29296875 88.5859375 C100.48174945 95.07999362 100.81149975 98.98031876 105 104 C106.39559428 109.3830065 106.15772073 113.91537106 104 119 C100.94481412 124.17110853 97.23497441 127.11044966 91.43359375 128.6953125 C85.6828479 129.41530957 80.76471243 127.84967636 75.625 125.375 C72.30264122 122.36905634 70.53975583 119.18451291 69 115 C69 114.34 69 113.68 69 113 C60.75 113 52.5 113 44 113 C43.505 114.98 43.505 114.98 43 117 C39.61776449 122.3366761 35.16582686 126.39441488 29 128 C20.88495792 128.86216767 12.6376137 129.34169865 6 124 C0.42494356 119.06428489 -2.26733844 113.30162043 -3.28125 105.96484375 C-3.53517379 100.64302437 -2.0582682 95.87372314 0 91 C0.33 90.67 0.66 90.34 1 90 C1.05386629 87.87527424 1.09273071 85.75016348 1.125 83.625 C1.53089691 76.77374002 3.39282602 72.6925923 7.40625 67.20703125 C9.16507414 65.00315117 9.16507414 65.00315117 10 62 C6.7 62 3.4 62 0 62 C-0.33 60.02 -0.66 58.04 -1 56 C-1.53625 56.144375 -2.0725 56.28875 -2.625 56.4375 C-3.800625 56.7159375 -3.800625 56.7159375 -5 57 C-5.9075 57.350625 -6.815 57.70125 -7.75 58.0625 C-12.48052187 57.97152843 -14.23670148 55.52182511 -17.4609375 52.2734375 C-19.28933375 49.57260853 -19.34765438 48.19736684 -19 45 C-18.70955086 43.65667272 -18.39044206 42.31774196 -18 41 C-19.98 40.01 -21.96 39.02 -24 38 C-24 33.38 -24 28.76 -24 24 C-22.02 23.01 -20.04 22.02 -18 21 C-18.165 20.443125 -18.33 19.88625 -18.5 19.3125 C-19.32769594 15.48440628 -19.61186555 13.05623717 -17.6015625 9.5859375 C-14.83962639 6.49649908 -12.70286589 4.18338556 -8.4609375 3.7265625 C-6.21870979 3.97569891 -4.16097315 4.35971166 -2 5 C-1.34 3.35 -0.68 1.7 0 0 Z M4 5 C3.9071875 5.928125 3.9071875 5.928125 3.8125 6.875 C3 9 3 9 0.75 10.25 C-2.00706532 11.00192691 -4.16007769 11.1494696 -7 11 C-9.91382165 10.74051093 -9.91382165 10.74051093 -11.75 12.0625 C-13.67566945 15.04728764 -12.53048729 17.58130416 -12 21 C-12.625 23.8125 -12.625 23.8125 -14 26 C-16.625 27.3125 -16.625 27.3125 -19 28 C-19 29.98 -19 31.96 -19 34 C-18.21625 34.226875 -17.4325 34.45375 -16.625 34.6875 C-14 36 -14 36 -12.625 38.1875 C-12 41 -12 41 -12.6875 44.5625 C-12.8421875 46.2640625 -12.8421875 46.2640625 -13 48 C-10.69931981 50.49210521 -10.69931981 50.49210521 -8 52 C-7.505 51.505 -7.505 51.505 -7 51 C-3.158723 50.74391487 -0.16857417 50.65290802 3 53 C3.75 55.125 3.75 55.125 4 57 C6.31 57 8.62 57 11 57 C11.2475 56.38125 11.495 55.7625 11.75 55.125 C13.25755082 52.5621636 14.20917138 51.95685553 17 51 C19.5 50.875 19.5 50.875 22 51 C23.32 51 24.64 51 26 51 C27.72307707 47.65032943 27.72307707 47.65032943 27.4375 44.0625 C26.72469662 40.70214122 28.20441851 38.78624715 30 36 C32.1875 35.125 32.1875 35.125 34 35 C34 32.36 34 29.72 34 27 C33.38125 26.9175 32.7625 26.835 32.125 26.75 C30 26 30 26 28.75 24.3125 C27.81815269 21.43930412 27.87207784 19.0061708 28 16 C28 15.01 28 14.02 28 13 C26.23158859 10.79014712 26.23158859 10.79014712 23.9765625 10.875 C22.4140478 10.95805726 20.85154765 11.04138875 19.2890625 11.125 C16.68099162 10.98257975 15.19637948 10.39072063 13 9 C11.75 6.875 11.75 6.875 11 5 C8.69 5 6.38 5 4 5 Z M39 28 C39 30.64 39 33.28 39 36 C45.93 36 52.86 36 60 36 C58.75651983 30.15701769 58.75651983 30.15701769 55.83203125 28.6328125 C52.37411137 27.86014627 49.22889235 27.80880575 45.6875 27.875 C44.43324219 27.89304687 43.17898437 27.91109375 41.88671875 27.9296875 C40.45779297 27.96449219 40.45779297 27.96449219 39 28 Z M32 41 C32.350625 41.7425 32.70125 42.485 33.0625 43.25 C34.09476146 46.27796695 34.0901638 47.08367349 33 50 C31.4765625 51.88671875 31.4765625 51.88671875 29.625 53.6875 C29.01914062 54.28949219 28.41328125 54.89148438 27.7890625 55.51171875 C26 57 26 57 23 58 C23 59.65 23 61.3 23 63 C25.46120841 64.23060421 27.25776866 64.2057723 30.0078125 64.31640625 C30.99394531 64.35830078 31.98007812 64.40019531 32.99609375 64.44335938 C34.02863281 64.48267578 35.06117187 64.52199219 36.125 64.5625 C37.16527344 64.60568359 38.20554687 64.64886719 39.27734375 64.69335938 C41.85142528 64.7996288 44.42560508 64.90166583 47 65 C46.36062125 61.18638791 45.71242233 57.37432822 45.0625 53.5625 C44.88009766 52.47388672 44.69769531 51.38527344 44.50976562 50.26367188 C44.33251953 49.22919922 44.15527344 48.19472656 43.97265625 47.12890625 C43.72914429 45.69140015 43.72914429 45.69140015 43.48071289 44.22485352 C43.21847368 42.03786608 43.21847368 42.03786608 42 41 C40.31391034 40.92794489 38.62499341 40.91613932 36.9375 40.9375 C36.01839844 40.94652344 35.09929688 40.95554688 34.15234375 40.96484375 C33.44207031 40.97644531 32.73179688 40.98804688 32 41 Z M48 41 C48.48042403 47.53629533 49.24930716 53.87991436 50.59765625 60.296875 C51.08263469 63.55517674 51.06076208 66.71074593 51 70 C39.94722405 69.38052288 28.99225502 68.29690981 18 67 C17.67 63.7 17.34 60.4 17 57 C16.67 57 16.34 57 16 57 C15.84144531 57.7734375 15.68289062 58.546875 15.51953125 59.34375 C14.14928969 65.46062945 12.59349611 70.11058042 9.0078125 75.2421875 C7.5194521 77.83816495 7.63650354 80.09202831 8 83 C9.3303125 82.505 9.3303125 82.505 10.6875 82 C18.63335495 79.77580531 27.65544216 79.76187443 35.0625 83.6015625 C40.26484029 87.35647747 43.60321072 92.77793868 45 99 C45.495 103.455 45.495 103.455 46 108 C53.59 108 61.18 108 69 108 C71.475 103.05 71.475 103.05 74 98 C78.34042643 94.44085033 81.91747064 92.85639157 87.5 92.875 C88.2734375 92.87242188 89.046875 92.86984375 89.84375 92.8671875 C92 93 92 93 95 94 C95 88.39 95 82.78 95 77 C83.12 75.02 71.24 73.04 59 71 C54.39864865 54.89527027 54.39864865 54.89527027 52.75 48.125 C52.57726562 47.42503906 52.40453125 46.72507812 52.2265625 46.00390625 C51.81542118 44.33649979 51.40733505 42.66834038 51 41 C50.01 41 49.02 41 48 41 Z M89 57 C85.04 58.98 85.04 58.98 81 61 C81 63.97 81 66.94 81 70 C81.66 70 82.32 70 83 70 C83.04125 68.741875 83.0825 67.48375 83.125 66.1875 C83.37890625 63.98046875 83.37890625 63.98046875 84 62 C87.0625 60 87.0625 60 90 59 C89.67 58.34 89.34 57.68 89 57 Z M5.5625 92.625 C2.02440764 97.82580243 1.3683838 103.01651144 2.34375 109.16796875 C4.05804775 114.99883676 8.10886053 118.59789694 13 122 C18.08748695 123.69582898 23.95241374 123.99131523 29.1015625 122.31640625 C34.22084368 119.59890237 37.54308158 115.63632857 40.3125 110.625 C41.97427293 104.28004881 41.4161193 99.48362976 38.26953125 93.82421875 C35.25418163 89.4913933 31.14961681 86.31734384 26 85 C17.54060311 83.94257539 11.13536365 86.07025085 5.5625 92.625 Z M76.6875 102.5625 C73.82787249 106.69307307 73.8794097 108.85567739 74.4921875 113.7421875 C75.21929345 116.9750124 76.61111308 118.7476209 79 121 C83.25820389 123.54060904 87.15853297 123.55430034 92 123 C95.14847243 121.699544 96.61740061 120.4485648 98.8125 117.875 C100.48356594 113.8292614 100.67735912 110.31531033 100 106 C97.6301358 101.07797436 95.11486727 98.87893083 90 97 C84.44204099 96.16630615 80.36299665 98.48965236 76.6875 102.5625 Z " fill="#000000" transform="translate(24,1)"/>
<path d="M0 0 C3.3209853 2.14019052 4.94395019 3.29100229 6.8125 6.8125 C7.52555462 11.55731205 7.90001789 16.39219422 5.89453125 20.85546875 C3.15946565 24.44026347 0.17126939 26.0433054 -4.1875 26.8125 C-10.35410651 26.8125 -13.30013606 25.49853837 -17.83984375 21.3828125 C-20.67479764 18.07947492 -20.52536942 14.2335767 -20.46484375 10.09765625 C-20.02517775 6.47505607 -18.60541641 4.48493392 -16.1875 1.8125 C-10.79831585 -1.78028944 -6.06769354 -2.26051328 0 0 Z M-13.1875 6.8125 C-15.434931 10.1836465 -15.4752343 11.91527067 -14.85546875 15.8671875 C-14.2346044 18.16128954 -14.2346044 18.16128954 -11.5 20.375 C-7.67023497 22.03697351 -6.10557676 22.17530931 -2.1875 20.8125 C0.33256844 19.37588689 0.33256844 19.37588689 1.8125 16.8125 C2.3721966 14.03115055 2.3721966 11.59384945 1.8125 8.8125 C-0.23055692 5.74791462 -1.62829802 4.99096872 -5.125 3.875 C-8.81630732 3.7996672 -10.3001081 4.56675074 -13.1875 6.8125 Z " fill="#000000" transform="translate(38.1875,19.1875)"/>
<path d="M0 0 C3.10526323 2.68181824 4.45339826 4.48519479 5.75 8.375 C5.75 14.45932021 3.83106025 17.1944017 -0.25 21.375 C-3.73443422 23.11721711 -7.44887045 22.96175154 -11.25 22.375 C-14.32469523 20.67248281 -16.65613254 18.56273492 -18.25 15.375 C-18.77137294 10.54589 -18.98402673 6.63333154 -16.5 2.375 C-11.34556909 -2.20671637 -6.41534125 -3.20767063 0 0 Z M-10.9375 5.5625 C-13.38539633 8.12498899 -13.38539633 8.12498899 -13.875 10.9375 C-13.40046489 13.58780428 -13.40046489 13.58780428 -11.0625 15.75 C-8.41228939 17.6068195 -8.41228939 17.6068195 -5.625 17.3125 C-3.01535851 16.28237836 -1.79001643 15.72555139 -0.25 13.375 C0.41680368 10.41779372 0.41680368 10.41779372 -0.25 7.375 C-2.45488259 4.91083866 -2.45488259 4.91083866 -5.25 3.375 C-8.43975718 3.0593643 -8.43975718 3.0593643 -10.9375 5.5625 Z " fill="#000000" transform="translate(52.25,94.625)"/>
<path d="M0 0 C2.5625 1.5 2.5625 1.5 4 4 C4.70476018 8.93332128 4.77041398 10.84437903 2 15 C-2.17528818 17.78352545 -4.04621883 17.78631447 -9 17 C-11.6483191 14.88134472 -12.73807669 13.37782575 -13.375 10.02734375 C-13.57348726 6.70888486 -13.21962523 4.38195691 -11.5625 1.5 C-7.74317604 -0.73570183 -4.31481639 -0.76004105 0 0 Z M-7 5 C-7.67958603 7.39719432 -7.67958603 7.39719432 -8 10 C-7.34 10.66 -6.68 11.32 -6 12 C-3.89179203 11.6814823 -3.89179203 11.6814823 -2 11 C-1.3185177 9.10820797 -1.3185177 9.10820797 -1 7 C-1.66 6.34 -2.32 5.68 -3 5 C-4.32 5 -5.64 5 -7 5 Z " fill="#000000" transform="translate(116,103)"/>
</svg>
