<svg width="30" height="30" viewBox="0 0 30 30" fill="none" xmlns="http://www.w3.org/2000/svg">
<g clip-path="url(#clip0_210_8932)">
<mask id="mask0_210_8932" style="mask-type:luminance" maskUnits="userSpaceOnUse" x="0" y="0" width="30" height="31">
<path d="M0 0.00390625H30V30.0039H0V0.00390625Z" fill="white"/>
</mask>
<g mask="url(#mask0_210_8932)">
<path fill-rule="evenodd" clip-rule="evenodd" d="M29.6339 6.62002C30.122 7.10818 30.122 7.89963 29.6339 8.38779L17.7589 20.2628C17.2708 20.7509 16.4792 20.7509 15.9911 20.2628L10.625 14.8967L2.13389 23.3878C1.64573 23.8759 0.854271 23.8759 0.366116 23.3878C-0.122039 22.8997 -0.122039 22.1082 0.366116 21.62L9.74111 12.245C10.2293 11.7569 11.0207 11.7569 11.5089 12.245L16.875 17.6112L27.8661 6.62002C28.3542 6.13187 29.1458 6.13187 29.6339 6.62002Z" fill="#00CC61"/>
<path fill-rule="evenodd" clip-rule="evenodd" d="M20 7.50391C20 6.81356 20.5596 6.25391 21.25 6.25391H28.75C29.4404 6.25391 30 6.81356 30 7.50391V15.0039C30 15.6943 29.4404 16.2539 28.75 16.2539C28.0596 16.2539 27.5 15.6943 27.5 15.0039V8.75391H21.25C20.5596 8.75391 20 8.19426 20 7.50391Z" fill="#00CC61"/>
</g>
</g>
<defs>
<clipPath id="clip0_210_8932">
<rect width="30" height="30" fill="white" transform="translate(0 0.00390625)"/>
</clipPath>
</defs>
</svg>
