<svg width="31" height="31" viewBox="0 0 31 31" fill="none" xmlns="http://www.w3.org/2000/svg">
<g clip-path="url(#clip0_258_27944)">
<mask id="mask0_258_27944" style="mask-type:luminance" maskUnits="userSpaceOnUse" x="0" y="0" width="31" height="31">
<path d="M0.046875 0.970703H30.0469V30.9707H0.046875V0.970703Z" fill="white"/>
</mask>
<g mask="url(#mask0_258_27944)">
<path fill-rule="evenodd" clip-rule="evenodd" d="M29.6807 7.58682C30.1689 8.07498 30.1689 8.86643 29.6807 9.35459L17.8057 21.2296C17.3176 21.7177 16.5261 21.7177 16.038 21.2296L10.6719 15.8635L2.18076 24.3546C1.6926 24.8427 0.901146 24.8427 0.412991 24.3546C-0.0751638 23.8665 -0.0751638 23.075 0.412991 22.5868L9.78799 13.2118C10.2761 12.7237 11.0676 12.7237 11.5558 13.2118L16.9219 18.578L27.913 7.58682C28.4011 7.09867 29.1926 7.09867 29.6807 7.58682Z" fill="white"/>
<path fill-rule="evenodd" clip-rule="evenodd" d="M20.0469 8.4707C20.0469 7.78035 20.6065 7.2207 21.2969 7.2207H28.7969C29.4873 7.2207 30.0469 7.78035 30.0469 8.4707V15.9707C30.0469 16.6611 29.4873 17.2207 28.7969 17.2207C28.1065 17.2207 27.5469 16.6611 27.5469 15.9707V9.7207H21.2969C20.6065 9.7207 20.0469 9.16105 20.0469 8.4707Z" fill="white"/>
</g>
</g>
<defs>
<clipPath id="clip0_258_27944">
<rect width="30" height="30" fill="white" transform="translate(0.046875 0.970703)"/>
</clipPath>
</defs>
</svg>
