<svg width="20" height="21" viewBox="0 0 20 21" fill="none" xmlns="http://www.w3.org/2000/svg">
<g clip-path="url(#clip0_223_38277)">
<mask id="mask0_223_38277" style="mask-type:luminance" maskUnits="userSpaceOnUse" x="-1" y="0" width="21" height="21">
<path d="M-0.0078125 0.516602H19.9922V20.5166H-0.0078125V0.516602Z" fill="white"/>
</mask>
<g mask="url(#mask0_223_38277)">
<path fill-rule="evenodd" clip-rule="evenodd" d="M19.7481 4.92669C20.0735 5.25213 20.0735 5.77977 19.7481 6.10521L11.8314 14.0219C11.506 14.3473 10.9784 14.3473 10.6529 14.0219L7.07552 10.4445L1.41478 16.1052C1.08934 16.4306 0.561702 16.4306 0.236265 16.1052C-0.0891717 15.7798 -0.0891717 15.2521 0.236265 14.9267L6.48626 8.67669C6.8117 8.35126 7.33934 8.35126 7.66478 8.67669L11.2422 12.2541L18.5696 4.92669C18.895 4.60126 19.4227 4.60126 19.7481 4.92669Z" fill="#808080"/>
<path fill-rule="evenodd" clip-rule="evenodd" d="M13.3281 5.51595C13.3281 5.05572 13.7012 4.68262 14.1615 4.68262H19.1615C19.6217 4.68262 19.9948 5.05572 19.9948 5.51595V10.516C19.9948 10.9762 19.6217 11.3493 19.1615 11.3493C18.7012 11.3493 18.3281 10.9762 18.3281 10.516V6.34928H14.1615C13.7012 6.34928 13.3281 5.97618 13.3281 5.51595Z" fill="#808080"/>
</g>
</g>
<defs>
<clipPath id="clip0_223_38277">
<rect width="20" height="20" fill="white" transform="translate(-0.0078125 0.516602)"/>
</clipPath>
</defs>
</svg>
