<?xml version="1.0" encoding="UTF-8"?>
<!DOCTYPE svg PUBLIC "-//W3C//DTD SVG 1.1//EN" "http://www.w3.org/Graphics/SVG/1.1/DTD/svg11.dtd">
<!-- Creator: CorelDRAW -->
<svg xmlns="http://www.w3.org/2000/svg" xml:space="preserve" width="2557px" height="2133px" version="1.1" style="shape-rendering:geometricPrecision; text-rendering:geometricPrecision; image-rendering:optimizeQuality; fill-rule:evenodd; clip-rule:evenodd"
viewBox="0 0 595.14 496.59"
 xmlns:xlink="http://www.w3.org/1999/xlink"
 xmlns:xodm="http://www.corel.com/coreldraw/odm/2003">
 <defs>
  <style type="text/css">
   <![CDATA[
    .fil0 {fill:black;fill-rule:nonzero}
   ]]>
  </style>
 </defs>
 <g id="Layer_x0020_1">
  <metadata id="CorelCorpID_0Corel-Layer"/>
  <g id="_2245269785360">
   <path class="fil0" d="M582.49 358.5l-12.95 -14.91 5.57 0c9.64,0 17.47,-7.83 17.47,-17.46l0 -5.72c0,-9.64 -7.83,-17.47 -17.47,-17.47l-4.96 0c-4.22,0 -7.53,3.31 -7.53,7.53 0,4.21 3.31,7.52 7.53,7.52l4.96 0c1.36,0 2.41,1.06 2.41,2.41l0 5.72c0,1.36 -1.05,2.41 -2.41,2.41l-10.54 0.01 -11.29 -36.9c-7.37,-23.79 -28.91,-39.6 -53.76,-39.6l-121.98 0c-24.85,0 -46.38,15.96 -53.76,39.6l-11.29 36.9 -10.54 0c-1.35,0 -2.41,-1.06 -2.41,-2.41l0 -5.72c0,-1.36 1.06,-2.41 2.41,-2.41l4.97 -0.01c4.22,0 7.53,-3.31 7.53,-7.52 0,-4.22 -3.31,-7.53 -7.53,-7.53l-4.97 0c-9.64,0 -17.47,7.83 -17.47,17.46l0 5.72c0,9.64 7.83,17.47 17.47,17.47l5.57 0 -12.95 14.91c-8.13,9.33 -12.65,21.38 -12.65,33.88l0 43.22c0,9.19 5.12,17.17 12.8,21.38l0 17.02c0,12.5 10.09,22.59 22.59,22.59l25.9 0c12.5,0 22.59,-10.09 22.59,-22.59l0 -13.85 145.46 0 0 13.85c0,12.5 10.09,22.59 22.59,22.59l25.9 0c12.5,0 22.59,-10.09 22.59,-22.59l0 -17.02c7.53,-4.21 12.8,-12.04 12.8,-21.38l0 -43.22c0,-12.5 -4.52,-24.55 -12.65,-33.88zm-276.47 9.94l14.46 -16.56c0.75,-0.75 1.2,-1.65 1.5,-2.71l3.01 -9.79c0,0 0.31,-0.9 0.45,-1.35l12.95 -41.86c5.43,-17.32 21.24,-29.06 39.31,-29.06l121.82 -0.01c18.22,0 34.04,11.59 39.31,29.06l12.94 41.86c0,0 0.15,0.9 0.45,1.35l3.02 9.79c0.3,1.05 0.75,1.96 1.5,2.71l14.46 16.56c5.72,6.63 9.04,15.21 9.04,24.09l0 21.84 -34.34 0.01c-4.97,0 -9.19,-4.07 -9.19,-9.19l0 -9.63c0,-4.97 4.07,-9.19 9.19,-9.19l18.37 0c4.22,0 7.53,-3.31 7.53,-7.53 0,-4.22 -3.31,-7.53 -7.53,-7.53l-18.37 0c-13.4,0 -24.24,10.84 -24.24,24.25l0 9.63c0,13.4 10.84,24.25 24.24,24.25l34.33 0 0 6.32c0,5.12 -4.22,9.33 -9.33,9.33l-77.41 0.01 0 -25.75c0,-4.22 -3.31,-7.53 -7.53,-7.53l-94.56 0c-4.22,0 -7.53,3.31 -7.53,7.53l0 25.75 -77.4 0c-5.12,0 -9.34,-4.22 -9.34,-9.33l0 -6.33 34.34 0c13.4,0 24.24,-10.85 24.24,-24.25l0 -9.63c0,-13.41 -10.84,-24.25 -24.24,-24.25l-18.38 0c-4.21,0 -7.53,3.31 -7.53,7.53 0,4.22 3.32,7.53 7.53,7.53l18.38 0c4.96,0 9.18,4.06 9.18,9.19l0 9.63c0,4.97 -4.06,9.19 -9.18,9.19l-34.34 0 0 -21.83c0,-8.89 3.17,-17.32 9.04,-24.1l-0.15 0zm44.72 105.41c0,4.22 -3.31,7.53 -7.53,7.53l-25.9 0c-4.22,0 -7.53,-3.31 -7.53,-7.53l0 -13.85 40.96 0 0 13.85zm48.04 -28.91l0 -18.22 79.51 0 0 18.22 -79.51 0zm168.5 28.91c0,4.22 -3.31,7.53 -7.53,7.53l-25.9 0c-4.22,0 -7.53,-3.31 -7.53,-7.53l0 -13.85 40.96 0 0 13.85z"/>
   <path class="fil0" d="M348.03 343.45l181 0c4.22,0 7.53,-3.32 7.53,-7.53 0,-4.22 -3.31,-7.53 -7.53,-7.53l-181 0c-4.21,0 -7.53,3.31 -7.53,7.53 0,4.21 3.32,7.53 7.53,7.53z"/>
   <path class="fil0" d="M500.12 371.15l-123.17 0c-4.22,0 -7.53,3.32 -7.53,7.53 0,4.22 3.31,7.53 7.53,7.53l123.17 0c4.22,0 7.53,-3.31 7.53,-7.53 0,-4.21 -3.31,-7.53 -7.53,-7.53z"/>
  </g>
  <path id="path155" class="fil0" d="M373.92 77.11c0,4.01 -3.26,7.27 -7.28,7.27 -4.01,0 -7.27,-3.26 -7.27,-7.27 0,-4.02 3.26,-7.28 7.27,-7.28 4.02,0 7.28,3.26 7.28,7.28z"/>
  <path id="path159" class="fil0" d="M137.22 77.11c0,4.01 -3.26,7.27 -7.27,7.27 -4.02,0 -7.28,-3.26 -7.28,-7.27 0,-4.02 3.26,-7.28 7.28,-7.28 4.01,0 7.27,3.26 7.27,7.28z"/>
  <g id="_2245269785600">
   <path class="fil0" d="M175.8 442.76c0,-4.02 3.26,-7.27 7.28,-7.27 4.02,0 7.27,3.25 7.27,7.27l0 27.16c0,7.36 -2.98,14.03 -7.81,18.86 -4.83,4.83 -11.5,7.81 -18.86,7.81l-49 0c-7.36,0 -14.03,-2.98 -18.86,-7.81 -4.82,-4.83 -7.81,-11.5 -7.81,-18.86l0 -27.25c0,-4.01 3.26,-7.27 7.27,-7.27 4.02,0 7.28,3.26 7.28,7.27l0 27.25c0,3.35 1.36,6.38 3.55,8.57 2.19,2.2 5.22,3.55 8.57,3.55l49 0c3.35,0 6.38,-1.35 8.57,-3.55 2.2,-2.19 3.55,-5.22 3.55,-8.57l0 -27.16z"/>
   <path class="fil0" d="M75.65 172.98c0,4.02 -3.25,7.28 -7.27,7.28 -4.02,0 -7.28,-3.26 -7.28,-7.28l0 -95.87c0,-10.04 4.07,-19.14 10.66,-25.72 6.58,-6.58 15.67,-10.65 25.71,-10.65l0 0.02 301.65 0 0 -0.02c10.04,0 19.13,4.07 25.71,10.65 6.59,6.58 10.66,15.68 10.66,25.72l0 157.91c0,4.02 -3.26,7.28 -7.28,7.28 -4.01,0 -7.27,-3.26 -7.27,-7.28l0 -157.91c0,-6.03 -2.44,-11.49 -6.39,-15.43 -3.95,-3.95 -9.41,-6.4 -15.43,-6.4l0 -0.02 -301.65 0 0 0.03c-6.02,0 -11.48,2.44 -15.43,6.39 -3.95,3.95 -6.39,9.4 -6.39,15.43l0 95.87zm188.15 262.54c4,0 7.24,3.24 7.24,7.24 0,4 -3.24,7.25 -7.24,7.25l-166.32 0 0 0.03c-10.05,0 -19.14,-4.08 -25.72,-10.66 -6.58,-6.58 -10.66,-15.67 -10.66,-25.72l0.03 0 0 -206.73c0,-4 3.25,-7.25 7.25,-7.25 4,0 7.24,3.25 7.24,7.25l0 206.73 0.03 0c0,6.03 2.45,11.49 6.39,15.44 3.95,3.94 9.41,6.39 15.44,6.39l0 0.03 166.32 0z"/>
   <path class="fil0" d="M137.22 48.01c0,4.02 -3.26,7.27 -7.27,7.27 -4.02,0 -7.28,-3.25 -7.28,-7.27l0 -21.34c0,-7.36 2.99,-14.03 7.81,-18.86 4.83,-4.82 11.5,-7.81 18.86,-7.81l197.91 0c7.36,0 14.03,2.99 18.86,7.81 4.82,4.83 7.81,11.5 7.81,18.86l0 21.34c0,4.02 -3.26,7.27 -7.28,7.27 -4.01,0 -7.27,-3.25 -7.27,-7.27l0 -21.34c0,-3.35 -1.36,-6.38 -3.55,-8.57 -2.19,-2.19 -5.22,-3.55 -8.57,-3.55l-197.91 0c-3.34,0 -6.38,1.36 -8.57,3.55 -2.19,2.19 -3.55,5.22 -3.55,8.57l0 21.34z"/>
   <path class="fil0" d="M263.8 279.36c4.01,0 7.27,3.26 7.27,7.28 0,4.02 -3.26,7.27 -7.27,7.27l-156.63 0c-4.68,0 -8.93,-1.9 -12,-4.97 -3.07,-3.07 -4.97,-7.31 -4.97,-12l0 -161.04c0,-4.68 1.9,-8.93 4.97,-12 3.07,-3.07 7.32,-4.97 12,-4.97l282.25 0c4.68,0 8.93,1.9 12,4.97 3.07,3.07 4.97,7.32 4.97,12l0 119.12c0,4.02 -3.26,7.28 -7.27,7.28 -4.02,0 -7.28,-3.26 -7.28,-7.28l0 -119.12c0,-0.67 -0.27,-1.27 -0.71,-1.71 -0.44,-0.44 -1.04,-0.71 -1.71,-0.71l-282.25 0c-0.67,0 -1.27,0.27 -1.71,0.71 -0.44,0.44 -0.71,1.04 -0.71,1.71l0 161.04c0,0.67 0.27,1.28 0.71,1.71 0.44,0.44 1.04,0.71 1.71,0.71l156.63 0z"/>
   <path class="fil0" d="M170.88 84.38c-4.02,0 -7.27,-3.26 -7.27,-7.27 0,-4.02 3.25,-7.28 7.27,-7.28l154.83 0c4.02,0 7.27,3.26 7.27,7.28 0,4.01 -3.25,7.27 -7.27,7.27l-154.83 0z"/>
   <path class="fil0" d="M263.8 388.94c4.01,0 7.27,3.25 7.27,7.27 0,4.02 -3.26,7.27 -7.27,7.27l-68.38 0c-2.56,0 -5.03,-0.77 -7.13,-2.13 -2.1,-1.37 -3.8,-3.32 -4.84,-5.68l-23.96 -54.29c-0.77,-1.75 -1.13,-3.54 -1.13,-5.28 0,-2.56 0.78,-5.03 2.15,-7.12 1.36,-2.1 3.32,-3.82 5.67,-4.86 1.62,-0.71 3.4,-1.11 5.28,-1.11l89.1 0c4.02,0 7.28,3.26 7.28,7.27 0,4.02 -3.26,7.28 -7.28,7.28l-86.88 0 22.68 51.38 67.44 0z"/>
   <path class="fil0" d="M68.38 403.48c-4.02,0 -7.28,-3.25 -7.28,-7.27 0,-4.02 3.26,-7.27 7.28,-7.27l68.51 0 -11.98 -27.9 -56.53 -0.01c-4,0 -7.25,-3.24 -7.25,-7.24 0,-4 3.25,-7.25 7.25,-7.25l56.85 0 0 -0.03c2.77,0 5.44,0.85 7.71,2.35 2.26,1.49 4.1,3.62 5.2,6.2l15.12 35.21c0.06,0.12 0.11,0.24 0.17,0.36 0.51,1.21 0.75,2.44 0.75,3.64 0,1.8 -0.56,3.55 -1.54,5.05 -0.98,1.48 -2.38,2.69 -4.06,3.41 -1.13,0.48 -2.35,0.75 -3.61,0.75l-76.59 0zm56.81 -42.44l0.04 0.01 0 -0.01 -0.04 0z"/>
   <path class="fil0" d="M482.53 216.29l-15.52 0c-3.86,0 -7.37,-1.58 -9.93,-4.14l-0.01 0.02c-2.55,-2.55 -4.12,-6.06 -4.12,-9.94l0 -96.03c0,-4.01 3.25,-7.27 7.27,-7.27l22.31 0c3.88,0 7.4,1.57 9.94,4.12 0.19,0.19 0.37,0.39 0.53,0.59 2.23,2.5 3.59,5.78 3.59,9.35l-0.03 0 0 89.24 0.03 0c0,3.85 -1.58,7.36 -4.13,9.92l0.01 0.02c-2.54,2.54 -6.06,4.12 -9.94,4.12zm-15.04 -14.55l14.58 0 0 -88.26 -14.58 0 0 88.26z"/>
   <path class="fil0" d="M460.22 98.93c4.02,0 7.27,3.26 7.27,7.27 0,4.02 -3.25,7.28 -7.27,7.28l-32.01 0c-4.01,0 -7.27,-3.26 -7.27,-7.28 0,-4.01 3.26,-7.27 7.27,-7.27l32.01 0z"/>
   <path class="fil0" d="M14.52 201.74l14.58 0 0 -88.26 -14.58 0 0 88.26zm15.06 14.55l-15.52 0c-3.88,0 -7.39,-1.58 -9.94,-4.12l0.01 -0.02c-2.55,-2.56 -4.13,-6.07 -4.13,-9.92l0.03 0 0 -89.24 -0.03 0c0,-3.84 1.57,-7.34 4.1,-9.89l0.05 -0.05c2.56,-2.55 6.06,-4.12 9.91,-4.12l22.31 0c4.02,0 7.28,3.26 7.28,7.27l0 96.03c0,3.88 -1.58,7.39 -4.12,9.94 -2.55,2.54 -6.07,4.12 -9.95,4.12z"/>
   <path class="fil0" d="M36.37 113.48c-4.02,0 -7.27,-3.26 -7.27,-7.28 0,-4.01 3.25,-7.27 7.27,-7.27l32.01 0c4.02,0 7.27,3.26 7.27,7.27 0,4.02 -3.25,7.28 -7.27,7.28l-32.01 0z"/>
   <path class="fil0" d="M214.61 370.52c-4.02,0 -7.27,-3.26 -7.27,-7.27 0,-4.02 3.25,-7.28 7.27,-7.28l49.19 0c4.01,0 7.27,3.26 7.27,7.28 0,4.01 -3.26,7.27 -7.27,7.27l-49.19 0z"/>
  </g>
 </g>
</svg>
