<?xml version="1.0" encoding="UTF-8"?>
<!DOCTYPE svg PUBLIC "-//W3C//DTD SVG 1.1//EN" "http://www.w3.org/Graphics/SVG/1.1/DTD/svg11.dtd">
<!-- Creator: CorelDRAW -->
<svg xmlns="http://www.w3.org/2000/svg" xml:space="preserve" width="1350px" height="1550px" version="1.1" style="shape-rendering:geometricPrecision; text-rendering:geometricPrecision; image-rendering:optimizeQuality; fill-rule:evenodd; clip-rule:evenodd"
viewBox="0 0 1367.32 1569.89"
 xmlns:xlink="http://www.w3.org/1999/xlink"
 xmlns:xodm="http://www.corel.com/coreldraw/odm/2003">
 <defs>
  <style type="text/css">
   <![CDATA[
    .fil0 {fill:black;fill-rule:nonzero}
   ]]>
  </style>
 </defs>
 <g id="Layer_x0020_1">
  <metadata id="CorelCorpID_0Corel-Layer"/>
  <path class="fil0" d="M4.39 477.31c0,121.85 98.77,220.62 220.62,220.62 121.84,0 220.61,-98.77 220.61,-220.62 0,-121.84 -98.77,-220.62 -220.61,-220.62 -121.79,0.14 -220.49,98.83 -220.62,220.62zm54.27 11.44c2.49,36.53 16.98,71.21 41.22,98.65l-23.41 23.42c-30.4,-33.7 -48.37,-76.76 -50.94,-122.07l33.13 0zm55.93 113.39c27.12,24.1 61.4,38.65 97.58,41.43l0 33.12c-44.96,-2.86 -87.61,-20.89 -120.99,-51.14l23.41 -23.41zm118.4 41.72c37.39,-1.76 73.09,-16.11 101.3,-40.72l23.41 23.42c-34.45,30.76 -78.55,48.58 -124.71,50.39l0 -33.09zm-7.98 -20.62c-80.59,0 -145.93,-65.33 -145.93,-145.93 0,-80.59 65.33,-145.93 145.93,-145.93 80.59,0 145.93,65.34 145.93,145.93 -0.1,80.56 -65.38,145.84 -145.93,145.93zm110.08 -271.04c-28.32,-25.04 -64.35,-39.65 -102.1,-41.43l0 -33.09c46.52,1.83 90.94,19.91 125.51,51.11l-23.41 23.41zm-122.92 -41.13c-36.54,2.8 -71.14,17.61 -98.38,42.13l-23.41 -23.4c33.49,-30.68 76.47,-48.98 121.79,-51.86l0 33.13zm-112.99 56.96c-24.29,27.85 -38.59,63.01 -40.65,99.91l-33.11 0c2.12,-45.67 19.9,-89.22 50.34,-123.32l23.42 23.41zm273.34 243.91l-23.4 -23.41c24.83,-27.6 39.7,-62.73 42.22,-99.78l33.13 0c-2.6,45.82 -20.95,89.34 -51.95,123.19l0 0zm52.06 -144l-33.11 0c-2.08,-37.42 -16.76,-73.03 -41.65,-101.05l23.42 -23.41c31.06,34.26 49.21,78.26 51.34,124.46l0 0zm0 0z"/>
 </g>
 <g id="Layer_x0020_1_0">
  <metadata id="CorelCorpID_1Corel-Layer"/>
  <path class="fil0" d="M1358.05 256.07l-133.24 -222.09c-12.58,-20.94 -35.6,-33.98 -60.06,-33.98 -24.46,0 -47.47,13.04 -60.06,34.01l-133.23 222.06c-6.06,10.1 -9.27,21.65 -9.27,33.45 0,35.83 29.14,64.97 64.97,64.97l36.31 0 0 354.49 50.64 0 0 -405.13 -86.95 0c-7.9,0 -14.33,-6.43 -14.33,-14.33 0,-2.59 0.71,-5.14 2.05,-7.37l133.24 -222.09c6.96,-11.62 26.31,-11.62 33.27,0l133.24 222.09c1.34,2.23 2.05,4.78 2.05,7.37 0,7.9 -6.43,14.33 -14.33,14.33l-86.95 0 0 455.77 50.64 0 0 -405.13 36.31 0c35.83,0 64.97,-29.14 64.97,-64.97 0,-11.8 -3.22,-23.35 -9.27,-33.45z"/>
  <path class="fil0" d="M1088.79 810.26l-278.53 0 0 -75.96c0,-32.97 -21.24,-60.82 -50.64,-71.3l0 -156.58 -86.95 0c-7.9,0 -14.33,-6.44 -14.33,-14.34 0,-2.58 0.71,-5.14 2.05,-7.36l133.24 -222.09c6.96,-11.63 26.31,-11.63 33.27,0l133.24 222.09c1.34,2.22 2.05,4.78 2.05,7.36 0,7.9 -6.43,14.34 -14.33,14.34l-86.95 0 0 278.52 50.64 0 0 -227.88 36.31 0c35.83,0 64.97,-29.15 64.97,-64.98 0,-11.77 -3.22,-23.34 -9.27,-33.42l-133.24 -222.09c-12.58,-20.96 -35.6,-34 -60.06,-34 -24.46,0 -47.47,13.04 -60.06,34l-133.23 222.06c-6.06,10.11 -9.27,21.65 -9.27,33.45 0,35.83 29.14,64.98 64.97,64.98l36.31 0 0 101.28 -278.53 0c-41.88,0 -75.96,34.08 -75.96,75.96l0 75.96 -278.53 0c-41.88,0 -75.96,34.09 -75.96,75.97l0 607.69c0,41.88 34.08,75.97 75.96,75.97l1012.83 0c41.88,0 75.96,-34.09 75.96,-75.97l0 -607.69c0,-41.88 -34.08,-75.97 -75.96,-75.97zm-683.66 -75.96c0,-13.95 11.35,-25.32 25.32,-25.32l303.85 0c13.98,0 25.32,11.37 25.32,25.32l0 75.96 -354.49 0 0 -75.96zm430.45 481.1c117.31,0 220.22,-61.89 278.53,-154.56l0 433.08c0,13.96 -11.34,25.32 -25.32,25.32l-1012.83 0c-13.97,0 -25.32,-11.37 -25.32,-25.32l0 -433.08c58.31,92.67 161.22,154.55 278.53,154.55l126.6 0.01 0 -50.65 -126.6 0c-153.57,0 -278.53,-124.95 -278.53,-278.52 0,-13.96 11.35,-25.32 25.32,-25.32l1012.83 0c13.98,0 25.32,11.36 25.32,25.32 0,153.57 -124.96,278.52 -278.52,278.52l-126.61 0 0 50.65 126.6 0z"/>
  <polygon class="fil0" points="1012.83,1417.96 1063.47,1417.96 1063.47,1468.6 1012.83,1468.6 "/>
  <polygon class="fil0" points="810.26,1417.96 860.91,1417.96 860.91,1468.6 810.26,1468.6 "/>
  <polygon class="fil0" points="911.55,1417.96 962.19,1417.96 962.19,1468.6 911.55,1468.6 "/>
  <polygon class="fil0" points="1215.4,810.26 1266.04,810.26 1266.04,860.91 1215.4,860.91 "/>
  <polygon class="fil0" points="1215.4,911.55 1266.04,911.55 1266.04,962.19 1215.4,962.19 "/>
  <path class="fil0" d="M658.34 1114.11l-151.93 0c-27.92,0 -50.64,22.72 -50.64,50.64l0 50.65c0,27.92 22.72,50.64 50.64,50.64l151.93 0c27.93,0 50.64,-22.72 50.64,-50.64l0 -50.64c0,-27.93 -22.71,-50.65 -50.64,-50.65l0 0zm-151.93 101.29l0 -50.64 151.93 -0.01 0.02 50.65 -151.95 0z"/>
  <path class="fil0" d="M231.55 384.02l0 10.64c7.02,0.74 13.07,2.19 18.07,4.34 5.04,2.18 9.41,5.44 13.17,9.84 2.95,3.35 5.24,6.81 6.85,10.34 1.61,3.56 2.42,6.78 2.42,9.74 0,3.29 -1.21,6.14 -3.6,8.53 -2.42,2.38 -5.3,3.59 -8.73,3.59 -6.45,0 -10.65,-3.49 -12.53,-10.44 -2.18,-8.2 -7.38,-13.67 -15.65,-16.36l0 40.94c8.13,2.22 14.65,4.27 19.45,6.11 4.83,1.82 9.17,4.47 12.96,7.96 4.07,3.6 7.22,7.93 9.44,12.93 2.18,5.04 3.29,10.51 3.29,16.49 0,7.49 -1.75,14.48 -5.27,20.99 -3.53,6.55 -8.7,11.86 -15.52,16.02 -6.85,4.13 -14.94,6.58 -24.35,7.36l0 24.51c0,3.86 -0.37,6.68 -1.14,8.46 -0.74,1.78 -2.38,2.66 -4.97,2.66 -2.35,0 -3.99,-0.71 -4.97,-2.15 -0.94,-1.45 -1.41,-3.7 -1.41,-6.72l0 -26.56c-7.66,-0.84 -14.37,-2.66 -20.12,-5.41 -5.74,-2.75 -10.54,-6.18 -14.37,-10.28 -3.83,-4.13 -6.68,-8.39 -8.5,-12.79 -1.84,-4.44 -2.75,-8.8 -2.75,-13.07 0,-3.12 1.21,-5.97 3.69,-8.49 2.46,-2.52 5.51,-3.8 9.17,-3.8 2.96,0 5.44,0.67 7.49,2.05 2.02,1.38 3.43,3.33 4.23,5.81 1.75,5.37 3.29,9.5 4.6,12.36 1.35,2.85 3.33,5.47 5.98,7.82 2.66,2.36 6.18,4.17 10.58,5.41l0 -45.74c-8.8,-2.45 -16.12,-5.14 -22.03,-8.13 -5.91,-2.98 -10.71,-7.22 -14.37,-12.72 -3.66,-5.51 -5.51,-12.6 -5.51,-21.26 0,-11.29 3.59,-20.56 10.78,-27.74 7.19,-7.22 17.56,-11.42 31.13,-12.6l0 -10.44c0,-5.51 2.08,-8.26 6.21,-8.26 4.2,0 6.28,2.68 6.28,8.06zm-12.49 67.5l0 -37.68c-5.51,1.65 -9.81,3.79 -12.9,6.48 -3.08,2.69 -4.63,6.78 -4.63,12.23 0,5.17 1.44,9.1 4.33,11.75 2.89,2.65 7.29,5.07 13.2,7.22zm12.49 29.22l0 43.12c6.62,-1.31 11.73,-3.96 15.35,-7.96 3.6,-4.03 5.41,-8.67 5.41,-14 0,-5.71 -1.75,-10.11 -5.27,-13.24 -3.5,-3.12 -8.67,-5.77 -15.49,-7.92z"/>
 </g>
</svg>
