<svg id="Layer_5" enable-background="new 0 0 64 64" height="512" viewBox="0 0 64 64" width="512" xmlns="http://www.w3.org/2000/svg"><g><path d="m61 17v-9h-2v9h-2v-4h-2v4h-2v-6h-2v6h-1.618l-3.149 6.298-2.233-.957v-8l-8-3.429-2 .857v-4.769h1c1.654 0 3-1.346 3-3s-1.346-3-3-3h-22c-1.654 0-3 1.346-3 3s1.346 3 3 3h1v12.289c-7.919 3.829-13 11.888-13 20.711 0 12.683 10.318 23 23 23s23-10.317 23-23c0-1.176-.113-2.347-.289-3.502l4.289-1.839v-9.318l-2.925-1.254 2.543-5.087h12.382v-2zm-19-1.341v6.682l-3 1.286-3 1.286-3-1.286-3-1.286v-6.682l6-2.571zm-13 20.253-6-2.571v-6.682l6-2.571 3 1.286 3 1.286v6.682zm-17-31.912c0-.552.449-1 1-1h22c.551 0 1 .448 1 1s-.449 1-1 1h-22c-.551 0-1-.448-1-1zm12 57c-10.634 0-19.426-7.953-20.794-18.219 1.799-.509 3.416-.781 4.794-.781 4.183 0 8.186 2.825 12.423 5.817 4.306 3.039 8.76 6.183 13.577 6.183 2.37 0 4.688-.469 6.66-1.267-3.841 5.014-9.87 8.267-16.66 8.267zm18.944-11.997c-1.53 1.514-4.818 2.997-8.944 2.997-3.844 0-7.537-2.387-11.399-5.096 2.964-2.4 7.087-4.904 11.399-4.904 5.165 0 9.409 2.374 9.935 4.563-.277.84-.615 1.65-.991 2.44zm2.056-9.003c0 1.316-.137 2.598-.369 3.848-2.047-2.263-6.148-3.848-10.631-3.848-5.106 0-9.847 2.993-13.097 5.708-4.097-2.883-8.336-5.708-12.903-5.708-1.462 0-3.133.261-4.962.752-.009-.252-.038-.498-.038-.752 0-8.254 4.871-15.775 12.41-19.162l.59-.265v-13.573h16v5.626l-4 1.714v8l-7 3v9.318l8 3.429 7-3 7 3 1.808-.775c.114.891.192 1.787.192 2.688zm4-6.659-6 2.571-6-2.571v-6.682l3-1.286 3-1.286 6 2.571z"/><path d="m53 21h10v2h-10z"/><path d="m53 25h10v2h-10z"/><path d="m53 29h2v2h-2z"/><path d="m57 29h2v2h-2z"/><path d="m61 29h2v2h-2z"/><path d="m49 48h14v-6h-14zm12-2h-2v-2h2zm-10-2h6v2h-6z"/><path d="m49 56h14v-6h-14zm2-4h10v2h-10z"/><path d="m11 45c-1.654 0-3 1.346-3 3s1.346 3 3 3 3-1.346 3-3-1.346-3-3-3zm0 4c-.551 0-1-.448-1-1s.449-1 1-1 1 .448 1 1-.449 1-1 1z"/><path d="m34 44c-1.654 0-3 1.346-3 3s1.346 3 3 3 3-1.346 3-3-1.346-3-3-3zm0 4c-.551 0-1-.448-1-1s.449-1 1-1 1 .448 1 1-.449 1-1 1z"/><path d="m22 53c-1.654 0-3 1.346-3 3s1.346 3 3 3 3-1.346 3-3-1.346-3-3-3zm0 4c-.551 0-1-.448-1-1s.449-1 1-1 1 .448 1 1-.449 1-1 1z"/><path d="m11 32c-1.654 0-3 1.346-3 3s1.346 3 3 3v-2c-.551 0-1-.448-1-1s.449-1 1-1 1 .448 1 1h2c0-1.654-1.346-3-3-3z"/></g></svg>