<svg width="84" height="31" viewBox="0 0 84 31" fill="none" xmlns="http://www.w3.org/2000/svg">
<path fill-rule="evenodd" clip-rule="evenodd" d="M48.9489 0.3125C49.2213 0.374416 49.4938 0.467374 49.7661 0.508595C50.8963 0.69451 51.8044 1.31384 52.5812 2.12942C52.773 2.32552 52.9647 2.71771 52.884 2.92415C52.7932 3.15129 52.43 3.36807 52.1575 3.40946C49.6148 3.79131 47.1428 4.47272 44.7716 5.47405C43.3993 6.05216 42.0574 6.75409 40.7456 7.46638C37.8901 9.03547 35.5695 11.2961 33.2992 13.6189C30.8978 16.0759 28.6578 18.6772 26.7004 21.5161C25.4794 23.2813 24.3392 25.1084 23.2496 26.9666C22.7047 27.8956 22.3516 28.9383 21.9077 29.9293C21.8369 30.0739 21.6855 30.3319 21.6351 30.3113C21.4434 30.2493 21.161 30.1358 21.1104 29.9809C20.9894 29.5991 20.8683 29.1551 20.9389 28.7731C21.3224 26.6982 22.17 24.7885 23.1083 22.92C24.9345 19.3068 27.2251 16.0138 29.8988 13.0201C31.4225 11.3168 32.9966 9.65479 34.6211 8.06517C37.0629 5.6598 39.7872 3.62625 42.8242 2.05716C44.2268 1.33453 45.6797 0.7873 47.2234 0.488067C47.4858 0.436332 47.7381 0.374416 47.9903 0.322847C48.3234 0.3125 48.6361 0.3125 48.9489 0.3125Z" fill="white"/>
<path fill-rule="evenodd" clip-rule="evenodd" d="M0.265625 23.3763C0.40688 22.6021 0.517878 21.8898 0.659133 21.1776C1.38562 17.265 2.12218 13.363 2.84867 9.45041C2.89912 9.20275 2.96975 9.03753 3.21192 8.99631C5.09875 8.70726 6.99568 8.50081 8.88252 8.98596C10.5271 9.39884 11.6775 10.5861 11.8691 11.9796C12.2626 14.7565 10.6785 16.976 8.32756 17.7708C7.08649 18.1837 5.82524 18.287 4.5438 18.1632C4.24109 18.1322 4.15029 18.2148 4.09984 18.5142C3.82741 20.0317 3.54488 21.5387 3.25227 23.0459C3.2321 23.1699 3.1211 23.366 3.05047 23.366C2.13228 23.3867 1.23427 23.3763 0.265625 23.3763ZM4.60434 15.7063C5.21983 15.7063 5.77479 15.7578 6.30955 15.6959C7.35892 15.5824 8.1964 15.0973 8.67063 14.0752C9.2054 12.919 8.82199 11.6906 7.81297 11.3293C7.09659 11.0712 6.36 11.1228 5.62344 11.2261C5.53263 11.2365 5.41154 11.381 5.39136 11.4738C5.13911 12.8261 4.88685 14.1887 4.60434 15.7063Z" fill="white"/>
<path fill-rule="evenodd" clip-rule="evenodd" d="M18.1549 21.3919C17.6504 21.9287 17.2467 22.4759 16.7322 22.8784C15.6727 23.7145 14.4618 23.9005 13.241 23.3223C12.0302 22.7546 11.5357 21.65 11.4853 20.3492C11.3743 17.6137 12.3128 15.3529 14.5628 13.7838C15.9753 12.7928 17.5998 12.4934 19.2849 12.5864C20.1425 12.6379 20.9902 12.8444 21.8478 12.9682C22.1908 13.0199 22.2413 13.216 22.1808 13.5154C21.7972 15.5593 21.3937 17.593 21.0708 19.6369C20.8994 20.7209 20.8488 21.8357 20.7782 22.93C20.758 23.2604 20.6773 23.3946 20.3443 23.3843C19.7188 23.3636 19.0931 23.3636 18.4676 23.3843C18.1447 23.3946 18.0337 23.2706 18.0639 22.9507C18.1043 22.4552 18.1245 21.939 18.1549 21.3919ZM18.8612 15.0123C17.8824 14.7336 17.0651 14.9297 16.379 15.5181C15.0875 16.6329 14.5022 18.0782 14.6132 19.8022C14.6435 20.3287 14.8453 20.8344 15.3902 21.0615C15.9351 21.2886 16.4294 21.1234 16.8532 20.7519C17.1055 20.5248 17.3476 20.2666 17.5292 19.9776C18.4878 18.4807 18.508 16.7259 18.8612 15.0123Z" fill="white"/>
<path fill-rule="evenodd" clip-rule="evenodd" d="M37.9105 23.6231C35.2367 23.6231 33.713 22.6114 33.1581 20.7946C32.2399 17.8008 34.0058 13.1246 38.3242 12.6291C39.6157 12.4845 40.8265 12.6496 41.8859 13.4548C42.895 14.2187 43.3894 15.2923 43.46 16.5621C43.5408 17.8834 43.3188 19.1429 42.7134 20.3197C41.5732 22.5082 39.7469 23.5715 37.9105 23.6231ZM36.0338 19.1222C36.0338 19.2771 36.0236 19.4421 36.0338 19.597C36.1146 20.681 36.8712 21.3726 37.8702 21.2798C38.4252 21.228 38.8591 20.9288 39.202 20.4952C40.1001 19.3287 40.4432 17.9867 40.322 16.5311C40.2212 15.344 39.3434 14.7143 38.2738 14.962C37.7491 15.0858 37.3556 15.4163 37.0428 15.8499C36.3465 16.8305 36.064 17.9351 36.0338 19.1222Z" fill="white"/>
<path fill-rule="evenodd" clip-rule="evenodd" d="M45.8624 12.8431C46.72 12.8431 47.5374 12.8431 48.4253 12.8431C48.3849 13.4007 48.3445 13.9374 48.2941 14.4844C48.5867 14.2057 48.849 13.9374 49.1216 13.6999C50.1204 12.8122 51.2606 12.4199 52.5823 12.6366C53.6721 12.8226 54.429 13.638 54.55 14.7838C54.6911 16.0639 54.429 17.3027 54.1968 18.5415C53.9143 20.0384 53.6419 21.5352 53.3492 23.0217C53.319 23.1558 53.1676 23.3521 53.0668 23.3623C52.199 23.383 51.3312 23.3726 50.4635 23.3623C50.4231 23.3623 50.3827 23.3314 50.3021 23.29C50.4635 22.4332 50.6249 21.5661 50.7763 20.6991C51.0084 19.3673 51.2304 18.046 51.4321 16.7143C51.4725 16.4871 51.4523 16.2498 51.4221 16.0227C51.3413 15.2278 50.7662 14.8665 50.0196 15.1039C49.2931 15.3414 48.8592 15.9194 48.5061 16.5594C47.9814 17.4988 47.7998 18.5415 47.618 19.5841C47.4163 20.7299 47.2245 21.8655 47.0026 23.0113C46.9723 23.1455 46.821 23.3521 46.72 23.3623C45.8322 23.3933 44.9341 23.383 43.9453 23.383C44.6112 19.8319 45.2369 16.3529 45.8624 12.8431Z" fill="white"/>
<path fill-rule="evenodd" clip-rule="evenodd" d="M58.6968 19.2454C58.6262 20.319 59.3426 21.0829 60.4121 21.2171C61.4514 21.3411 62.4503 21.1758 63.4189 20.7938C63.5199 20.7526 63.6308 20.7112 63.7418 20.67C63.762 20.6597 63.7922 20.67 63.873 20.67C63.9336 21.2997 64.0042 21.9293 64.0344 22.559C64.0446 22.683 63.9032 22.8791 63.7822 22.9307C62.0971 23.6326 60.3516 23.8804 58.5758 23.416C56.9209 22.9824 56.0128 21.7643 55.8313 20.0609C55.5689 17.6556 56.255 15.5497 58.0813 13.9601C59.5848 12.649 61.3505 12.2361 63.2675 12.8245C64.5491 13.2167 65.2654 14.1974 65.3561 15.5497C65.4471 16.8814 64.882 17.9035 63.6712 18.5228C62.7228 19.008 61.7036 19.1835 60.6644 19.2454C60.0185 19.2763 59.3628 19.2454 58.6968 19.2454ZM58.9895 17.0053C59.7664 17.1705 61.3605 16.9744 61.9761 16.644C62.3999 16.4168 62.6117 16.0555 62.5411 15.6219C62.4705 15.1782 62.1779 14.9614 61.7742 14.8581C60.5736 14.5587 59.1509 15.6323 58.9895 17.0053Z" fill="white"/>
<path fill-rule="evenodd" clip-rule="evenodd" d="M68.778 19.2867C68.6872 20.2982 69.3935 21.0725 70.4731 21.2171C71.4821 21.3409 72.4507 21.186 73.3992 20.8351C73.5607 20.7731 73.7121 20.7112 73.9239 20.6286C73.9844 21.2995 74.0652 21.9294 74.0954 22.559C74.1054 22.6829 73.9643 22.879 73.8533 22.9307C72.138 23.6532 70.3721 23.901 68.566 23.3951C66.9415 22.9409 66.0941 21.7331 65.8921 20.0814C65.64 17.9652 66.1747 16.0555 67.6176 14.4864C69.1715 12.8037 71.0786 12.2051 73.2782 12.8244C74.6201 13.2064 75.3366 14.1974 75.4172 15.5909C75.498 16.9536 74.8925 17.9756 73.6313 18.5742C72.3599 19.173 71.0078 19.266 69.6356 19.2968C69.3633 19.2867 69.0807 19.2867 68.778 19.2867ZM69.0706 17.0877C69.7164 17.0465 70.3217 17.0362 70.917 16.9536C71.3207 16.902 71.7243 16.7781 72.0876 16.6026C72.4809 16.4272 72.6727 16.0555 72.6121 15.6012C72.5517 15.1677 72.2692 14.9612 71.8756 14.8579C70.685 14.5277 69.2017 15.6425 69.0706 17.0877Z" fill="white"/>
<path fill-rule="evenodd" clip-rule="evenodd" d="M75.5859 23.3719C75.7171 22.608 75.8381 21.9162 75.9693 21.2143C76.494 18.5407 77.0289 15.867 77.2508 13.1314C77.2608 13.0179 77.4122 12.832 77.493 12.8218C78.2598 12.8011 79.0267 12.8114 79.854 12.8114C79.7935 13.5442 79.743 14.236 79.6926 14.9172C80.6208 13.5237 81.6904 12.3882 83.6075 12.5946C83.4159 13.5753 83.2543 14.4837 83.0626 15.3819C83.0425 15.4541 82.9114 15.5469 82.8306 15.5573C80.8428 15.8258 80.0053 16.5483 79.511 18.6335C79.1679 20.0788 78.9359 21.5653 78.6432 23.0312C78.623 23.1551 78.512 23.3512 78.4414 23.3512C77.5132 23.3822 76.5848 23.3719 75.5859 23.3719Z" fill="white"/>
<path fill-rule="evenodd" clip-rule="evenodd" d="M26.9121 10.2925C26.8817 11.7377 26.6395 13.1314 26.1552 14.4734C26.1048 14.6179 26.0039 14.7418 25.9031 14.8656C25.6809 15.165 25.4388 15.196 25.2674 14.8656C25.0454 14.432 24.8637 13.9676 24.7527 13.5029C24.4298 12.0475 24.1272 10.5815 23.8547 9.1054C23.5015 7.22656 23.1888 5.33754 22.8658 3.4587C22.8154 3.19034 22.7952 2.91164 22.775 2.64311C22.7549 2.33353 22.9264 2.17866 23.1888 2.2818C23.4511 2.37476 23.7135 2.52963 23.9052 2.72573C25.5095 4.47039 26.5185 6.50393 26.7909 8.89896C26.8515 9.36341 26.8717 9.82803 26.9121 10.2925Z" fill="white"/>
</svg>
