<svg width="143" height="31" viewBox="0 0 143 31" fill="none" xmlns="http://www.w3.org/2000/svg">
<path d="M48.783 1.76817C47.3725 0.798506 45.5319 0.3125 43.2612 0.3125H34.4705C33.7744 0.3125 33.3898 0.660629 33.3167 1.35605L29.7456 23.7721C29.7085 23.9923 29.7636 24.1936 29.9103 24.3767C30.0563 24.5603 30.2398 24.6514 30.4596 24.6514H34.6352C35.3676 24.6514 35.7701 24.3041 35.844 23.6075L36.8328 17.5644C36.8689 17.2715 36.9977 17.0334 37.2176 16.85C37.4372 16.6669 37.712 16.547 38.0416 16.4923C38.3713 16.4379 38.6821 16.4105 38.9757 16.4105C39.2684 16.4105 39.6162 16.429 40.0197 16.4654C40.4223 16.502 40.6789 16.5198 40.7889 16.5198C43.9387 16.5198 46.411 15.6323 48.2061 13.8553C50.0003 12.0791 50.8984 9.61598 50.8984 6.4655C50.8984 4.3045 50.1928 2.73867 48.783 1.76749V1.76817ZM44.2504 8.49903C44.0666 9.78122 43.5911 10.6233 42.8219 11.0263C42.0526 11.4299 40.9538 11.6304 39.5255 11.6304L37.7123 11.6855L38.6465 5.80652C38.7194 5.40398 38.9574 5.20245 39.3606 5.20245H40.4048C41.8692 5.20245 42.9321 5.41355 43.5914 5.83406C44.2504 6.25558 44.4702 7.1443 44.2504 8.49903Z" fill="white"/>
<path d="M141.555 0.3125H137.489C137.085 0.3125 136.848 0.514025 136.775 0.916904L133.204 23.773L133.148 23.8828C133.148 24.0669 133.222 24.24 133.369 24.4049C133.514 24.5693 133.698 24.6519 133.918 24.6519H137.544C138.239 24.6519 138.624 24.3047 138.698 23.6082L142.27 1.13673V1.08215C142.269 0.569443 142.03 0.313005 141.555 0.313005V0.3125Z" fill="white"/>
<path d="M92.4372 9.15977C92.4372 8.97706 92.3637 8.80274 92.2179 8.63816C92.071 8.47342 91.906 8.39062 91.7233 8.39062H87.4929C87.0891 8.39062 86.7596 8.57468 86.5037 8.93994L80.6799 17.5114L78.2626 9.26994C78.0785 8.68418 77.676 8.39062 77.0538 8.39062H72.9326C72.7491 8.39062 72.5842 8.47325 72.4386 8.63816C72.2916 8.80274 72.2188 8.97723 72.2188 9.15977C72.2188 9.23366 72.576 10.3137 73.29 12.4014C74.0041 14.4896 74.7734 16.7422 75.5976 19.1599C76.4219 21.5771 76.8518 22.8596 76.8887 23.0052C73.885 27.1079 72.3837 29.3059 72.3837 29.5984C72.3837 30.075 72.6216 30.3128 73.0979 30.3128H77.3284C77.7312 30.3128 78.0607 30.1301 78.3175 29.7635L92.3279 9.54401C92.4006 9.47129 92.4372 9.34366 92.4372 9.1596V9.15977Z" fill="white"/>
<path d="M131.83 8.39255H127.654C127.141 8.39255 126.831 8.99695 126.721 10.2058C125.768 8.74136 124.029 8.00781 121.501 8.00781C118.864 8.00781 116.62 8.99695 114.771 10.9749C112.921 12.953 111.996 15.2793 111.996 17.9528C111.996 20.1143 112.628 21.8357 113.891 23.1172C115.155 24.4 116.849 25.0402 118.974 25.0402C120.036 25.0402 121.116 24.82 122.215 24.3809C123.314 23.9414 124.174 23.3556 124.798 22.6228C124.798 22.6595 124.761 22.824 124.688 23.1168C124.614 23.4104 124.578 23.6307 124.578 23.7762C124.578 24.3629 124.815 24.6551 125.292 24.6551H129.084C129.779 24.6551 130.182 24.3078 130.292 23.6112L132.545 9.27136C132.581 9.05153 132.526 8.85035 132.38 8.66696C132.233 8.48441 132.05 8.39255 131.83 8.39255ZM124.66 19.2164C123.726 20.1321 122.6 20.5899 121.281 20.5899C120.219 20.5899 119.359 20.2974 118.699 19.7109C118.039 19.126 117.71 18.3201 117.71 17.2933C117.71 15.9391 118.168 14.7938 119.084 13.8597C119.998 12.9256 121.135 12.4586 122.49 12.4586C123.515 12.4586 124.367 12.7609 125.045 13.365C125.722 13.9694 126.062 14.803 126.062 15.8652C126.061 17.1837 125.594 18.3011 124.66 19.2164Z" fill="white"/>
<path d="M69.4125 8.39255H65.237C64.7234 8.39255 64.4127 8.99695 64.3027 10.2058C63.3138 8.74136 61.5738 8.00781 59.0831 8.00781C56.4459 8.00781 54.2021 8.99695 52.3526 10.9749C50.5026 12.953 49.5781 15.2793 49.5781 17.9528C49.5781 20.1143 50.2101 21.8357 51.4738 23.1172C52.7375 24.4 54.4311 25.0402 56.5559 25.0402C57.5809 25.0402 58.6438 24.82 59.7424 24.3809C60.8412 23.9414 61.7204 23.3556 62.3797 22.6228C62.2328 23.0621 62.1599 23.4468 62.1599 23.7762C62.1599 24.3629 62.3978 24.6551 62.8741 24.6551H66.6651C67.3605 24.6551 67.7639 24.3078 67.8739 23.6112L70.1264 9.27136C70.1625 9.05153 70.1076 8.85035 69.9617 8.66696C69.8151 8.48441 69.6322 8.39255 69.4125 8.39255ZM62.2425 19.2436C61.3083 20.1422 60.1631 20.5899 58.8087 20.5899C57.7459 20.5899 56.8942 20.2974 56.2537 19.7109C55.6124 19.126 55.2921 18.3201 55.2921 17.2933C55.2921 15.9391 55.7498 14.7938 56.6659 13.8597C57.5809 12.9256 58.7165 12.4586 60.0723 12.4586C61.0973 12.4586 61.949 12.7609 62.6272 13.3651C63.3044 13.9695 63.6436 14.8032 63.6436 15.8654C63.6436 17.2204 63.1766 18.3471 62.2425 19.2436Z" fill="white"/>
<path d="M111.197 1.76817C109.787 0.798506 107.947 0.3125 105.676 0.3125H96.9396C96.2067 0.3125 95.8035 0.660629 95.731 1.35605L92.1597 23.7721C92.1225 23.9925 92.1775 24.1938 92.3244 24.3769C92.4697 24.5602 92.6539 24.6514 92.8737 24.6514H97.3788C97.8183 24.6514 98.1111 24.4136 98.2579 23.9374L99.2471 17.5644C99.2833 17.2715 99.4116 17.0334 99.6316 16.85C99.8515 16.6669 100.126 16.5472 100.456 16.4923C100.785 16.4379 101.096 16.4105 101.39 16.4105C101.683 16.4105 102.03 16.429 102.433 16.4654C102.836 16.502 103.094 16.5198 103.203 16.5198C106.353 16.5198 108.825 15.6323 110.62 13.8553C112.415 12.0791 113.312 9.61598 113.312 6.4655C113.313 4.30467 112.607 2.73884 111.197 1.76766V1.76817ZM105.566 10.8065C104.76 11.3558 103.551 11.6304 101.94 11.6304L100.181 11.6855L101.115 5.80652C101.188 5.40398 101.426 5.20245 101.829 5.20245H102.818C103.624 5.20245 104.265 5.23906 104.742 5.31212C105.217 5.38601 105.676 5.61423 106.115 5.99881C106.555 6.38355 106.774 6.94227 106.774 7.67481C106.774 9.2131 106.371 10.2568 105.566 10.8065Z" fill="white"/>
<path fill-rule="evenodd" clip-rule="evenodd" d="M7.56572 0.3125C5.34866 0.3125 3.46194 1.92731 3.11968 4.1178L0.0366283 23.8493C-0.247667 25.6688 1.15915 27.3125 3.00066 27.3125H5.53487C5.5316 28.9385 6.85189 30.3125 8.53553 30.3125H11.4992C12.9771 30.3125 14.235 29.2359 14.4632 27.7757L15.2387 22.8125H17.4177C21.6354 22.8125 25.2873 19.8834 26.2031 15.7662L26.2755 15.4407C27.0474 11.9692 25.2897 8.62965 22.3746 7.13314C21.6164 3.32859 18.2654 0.3125 14.0592 0.3125H7.56572ZM9.94178 18.3125H12.7067C17.2308 18.3125 21.1754 15.2357 22.2768 10.8476C22.2815 10.8292 22.286 10.8108 22.2905 10.7924C23.2259 11.8271 23.681 13.2876 23.3469 14.7894L23.2746 15.1151C22.6641 17.8598 20.2295 19.8125 17.4177 19.8125H15.2387C13.7606 19.8125 12.5028 20.889 12.2747 22.3493L11.4992 27.3125H8.53553L9.94178 18.3125Z" fill="white"/>
</svg>
