<svg width="45" height="44" viewBox="0 0 45 44" fill="none" xmlns="http://www.w3.org/2000/svg">
<path d="M34.7679 21.1567C33.6789 21.0481 31.283 21.0481 31.283 19.5232C31.283 17.4545 34.3321 14.732 39.2326 11.7916C40.7568 10.8112 43.9158 9.28701 43.9158 7.21764C43.9158 5.58414 42.7175 4.38651 40.2129 4.71308C37.817 5.03964 34.1141 6.67314 29.2143 10.8112C24.0959 15.0586 19.3047 22.1371 19.3047 29.1063C19.3047 36.1848 24.0959 43.2633 31.8282 43.2633C38.0349 43.2633 43.3713 38.5807 43.3713 32.1553C43.3706 27.2548 39.995 21.5926 34.7679 21.1567Z" fill="#00CC61"/>
<path d="M19.4568 18.0953C18.5623 17.6278 17.5813 17.3218 16.5225 17.2339C15.4335 17.1252 13.0376 17.1252 13.0376 15.6004C13.0376 13.5317 16.0867 10.8092 20.9872 7.86872C22.512 6.88835 25.6697 5.36416 25.6697 3.29479C25.6697 1.66129 24.4714 0.463662 21.9668 0.790225C19.5709 1.11679 15.868 2.75029 10.9682 6.88835C5.85047 11.1357 1.05859 18.2142 1.05859 25.1841C1.05859 32.2626 5.84978 39.3411 13.5821 39.3411C15.3998 39.3411 17.142 38.9369 18.6978 38.2074C17.1722 35.4492 16.3589 32.2578 16.3589 29.1077C16.3596 25.2178 17.6122 21.4455 19.4568 18.0953Z" fill="#00CC61"/>
</svg>
