<svg width="242" height="60" viewBox="0 0 242 60" fill="none" xmlns="http://www.w3.org/2000/svg">
<path d="M78.6117 39.9004V20.3004H91.4917V23.3524H82.3917V28.4764H90.6517V31.4164H82.3917V36.8484H91.4917V39.9004H78.6117ZM94.8519 39.9004V19.7404H98.6319V39.9004H94.8519ZM102.401 39.9004V25.7884H106.181V39.9004H102.401ZM104.305 23.8564C103.633 23.8564 103.073 23.6604 102.625 23.2684C102.195 22.8577 101.981 22.3444 101.981 21.7284C101.981 21.1124 102.195 20.6084 102.625 20.2164C103.073 19.8057 103.633 19.6004 104.305 19.6004C104.995 19.6004 105.555 19.8057 105.985 20.2164C106.433 20.6084 106.657 21.1124 106.657 21.7284C106.657 22.3444 106.433 22.8577 105.985 23.2684C105.555 23.6604 104.995 23.8564 104.305 23.8564ZM116.356 39.9004C115.367 39.9004 114.499 39.7511 113.752 39.4524C113.024 39.1351 112.455 38.6217 112.044 37.9124C111.634 37.1844 111.428 36.1951 111.428 34.9444V28.9524H109.02V25.7884H111.428L111.848 21.9524H115.208V25.7884H118.932V28.9524H115.208V35.0004C115.208 35.6351 115.348 36.0737 115.628 36.3164C115.908 36.5591 116.384 36.6804 117.056 36.6804H118.904V39.9004H116.356ZM128.534 40.2364C127.115 40.2364 125.855 39.9377 124.754 39.3404C123.671 38.7244 122.822 37.8751 122.206 36.7924C121.609 35.6911 121.31 34.4217 121.31 32.9844C121.31 31.5097 121.609 30.2124 122.206 29.0924C122.803 27.9537 123.643 27.0671 124.726 26.4324C125.827 25.7791 127.097 25.4524 128.534 25.4524C129.934 25.4524 131.157 25.7604 132.202 26.3764C133.247 26.9924 134.059 27.8231 134.638 28.8684C135.217 29.9137 135.506 31.0991 135.506 32.4244C135.506 32.6111 135.506 32.8257 135.506 33.0684C135.506 33.2924 135.487 33.5257 135.45 33.7684H123.998V31.4724H131.698C131.642 30.5577 131.315 29.8391 130.718 29.3164C130.139 28.7937 129.411 28.5324 128.534 28.5324C127.899 28.5324 127.311 28.6817 126.77 28.9804C126.229 29.2604 125.799 29.6991 125.482 30.2964C125.183 30.8937 125.034 31.6497 125.034 32.5644V33.3764C125.034 34.1417 125.174 34.8137 125.454 35.3924C125.753 35.9524 126.163 36.3911 126.686 36.7084C127.209 37.0071 127.815 37.1564 128.506 37.1564C129.197 37.1564 129.766 37.0071 130.214 36.7084C130.681 36.4097 131.026 36.0271 131.25 35.5604H135.114C134.853 36.4377 134.414 37.2311 133.798 37.9404C133.182 38.6497 132.426 39.2097 131.53 39.6204C130.634 40.0311 129.635 40.2364 128.534 40.2364ZM149.224 39.9004L144.072 20.3004H148.104L151.52 35.6164L155.552 20.3004H159.724L163.644 35.6164L167.088 20.3004H171.148L165.856 39.9004H161.348L157.596 25.6204L153.704 39.9004H149.224ZM178.956 40.2364C177.537 40.2364 176.277 39.9377 175.176 39.3404C174.093 38.7244 173.244 37.8751 172.628 36.7924C172.031 35.6911 171.732 34.4217 171.732 32.9844C171.732 31.5097 172.031 30.2124 172.628 29.0924C173.225 27.9537 174.065 27.0671 175.148 26.4324C176.249 25.7791 177.519 25.4524 178.956 25.4524C180.356 25.4524 181.579 25.7604 182.624 26.3764C183.669 26.9924 184.481 27.8231 185.06 28.8684C185.639 29.9137 185.928 31.0991 185.928 32.4244C185.928 32.6111 185.928 32.8257 185.928 33.0684C185.928 33.2924 185.909 33.5257 185.872 33.7684H174.42V31.4724H182.12C182.064 30.5577 181.737 29.8391 181.14 29.3164C180.561 28.7937 179.833 28.5324 178.956 28.5324C178.321 28.5324 177.733 28.6817 177.192 28.9804C176.651 29.2604 176.221 29.6991 175.904 30.2964C175.605 30.8937 175.456 31.6497 175.456 32.5644V33.3764C175.456 34.1417 175.596 34.8137 175.876 35.3924C176.175 35.9524 176.585 36.3911 177.108 36.7084C177.631 37.0071 178.237 37.1564 178.928 37.1564C179.619 37.1564 180.188 37.0071 180.636 36.7084C181.103 36.4097 181.448 36.0271 181.672 35.5604H185.536C185.275 36.4377 184.836 37.2311 184.22 37.9404C183.604 38.6497 182.848 39.2097 181.952 39.6204C181.056 40.0311 180.057 40.2364 178.956 40.2364ZM193.784 40.2364C192.608 40.2364 191.637 40.0497 190.872 39.6764C190.106 39.2844 189.537 38.7711 189.164 38.1364C188.809 37.4831 188.632 36.7644 188.632 35.9804C188.632 35.1217 188.846 34.3657 189.276 33.7124C189.724 33.0591 190.386 32.5457 191.264 32.1724C192.16 31.7991 193.28 31.6124 194.624 31.6124H198.124C198.124 30.9217 198.03 30.3524 197.844 29.9044C197.657 29.4377 197.368 29.0924 196.976 28.8684C196.584 28.6444 196.061 28.5324 195.408 28.5324C194.698 28.5324 194.092 28.6911 193.588 29.0084C193.102 29.3071 192.804 29.7737 192.692 30.4084H189.024C189.117 29.4004 189.444 28.5324 190.004 27.8044C190.582 27.0577 191.338 26.4791 192.272 26.0684C193.224 25.6577 194.278 25.4524 195.436 25.4524C196.761 25.4524 197.909 25.6764 198.88 26.1244C199.85 26.5724 200.597 27.2164 201.12 28.0564C201.642 28.8964 201.904 29.9324 201.904 31.1644V39.9004H198.712L198.292 37.7444C198.086 38.1177 197.844 38.4537 197.564 38.7524C197.284 39.0511 196.957 39.3124 196.584 39.5364C196.21 39.7604 195.79 39.9284 195.324 40.0404C194.857 40.1711 194.344 40.2364 193.784 40.2364ZM194.68 37.3244C195.165 37.3244 195.594 37.2404 195.968 37.0724C196.36 36.8857 196.696 36.6431 196.976 36.3444C197.256 36.0271 197.47 35.6724 197.62 35.2804C197.788 34.8697 197.9 34.4311 197.956 33.9644V33.9364H195.072C194.493 33.9364 194.017 34.0111 193.644 34.1604C193.289 34.2911 193.028 34.4871 192.86 34.7484C192.692 35.0097 192.608 35.3084 192.608 35.6444C192.608 36.0177 192.692 36.3257 192.86 36.5684C193.028 36.8111 193.27 36.9977 193.588 37.1284C193.905 37.2591 194.269 37.3244 194.68 37.3244ZM205.43 39.9004V19.7404H209.21V39.9004H205.43ZM219.251 39.9004C218.262 39.9004 217.394 39.7511 216.647 39.4524C215.919 39.1351 215.35 38.6217 214.939 37.9124C214.528 37.1844 214.323 36.1951 214.323 34.9444V28.9524H211.915V25.7884H214.323L214.743 21.9524H218.103V25.7884H221.827V28.9524H218.103V35.0004C218.103 35.6351 218.243 36.0737 218.523 36.3164C218.803 36.5591 219.279 36.6804 219.951 36.6804H221.799V39.9004H219.251ZM225.008 39.9004V19.7404H228.788V27.8884C229.255 27.1604 229.871 26.5724 230.636 26.1244C231.42 25.6764 232.325 25.4524 233.352 25.4524C234.528 25.4524 235.517 25.7044 236.32 26.2084C237.123 26.6937 237.729 27.4031 238.14 28.3364C238.551 29.2697 238.756 30.4271 238.756 31.8084V39.9004H235.004V32.1444C235.004 31.0244 234.771 30.1657 234.304 29.5684C233.837 28.9524 233.1 28.6444 232.092 28.6444C231.476 28.6444 230.916 28.7937 230.412 29.0924C229.908 29.3911 229.507 29.8297 229.208 30.4084C228.928 30.9684 228.788 31.6404 228.788 32.4244V39.9004H225.008Z" fill="#040303"/>
<path d="M38.5597 1.63005L32.6696 0.0517578L27.7058 18.5768L23.2245 1.85227L17.3341 3.43056L22.176 21.5001L10.1161 9.44036L5.80416 13.7523L19.0323 26.9806L2.55876 22.5665L0.980469 28.4566L18.9799 33.2796C18.7738 32.3908 18.6648 31.4646 18.6648 30.513C18.6648 23.7773 24.1251 18.3169 30.8609 18.3169C37.5966 18.3169 43.057 23.7773 43.057 30.513C43.057 31.4585 42.9493 32.3789 42.7458 33.2625L59.1039 37.6456L60.6821 31.7555L42.6111 26.9133L59.0858 22.4989L57.5074 16.6087L39.4372 21.4506L51.497 9.39085L47.185 5.07889L34.1404 18.1236L38.5597 1.63005Z" fill="#004050"/>
<path d="M42.7294 33.332C42.2244 35.4671 41.1582 37.3851 39.6953 38.9218L51.546 50.7727L55.858 46.4607L42.7294 33.332Z" fill="#004050"/>
<path d="M39.5747 39.0459C38.0942 40.5581 36.2232 41.6865 34.125 42.268L38.4373 58.3616L44.3274 56.7832L39.5747 39.0459Z" fill="#004050"/>
<path d="M33.9074 42.3259C32.934 42.5762 31.9136 42.7092 30.8621 42.7092C29.7356 42.7092 28.6447 42.5564 27.6091 42.2705L23.293 58.3787L29.1831 59.9569L33.9074 42.3259Z" fill="#004050"/>
<path d="M27.3981 42.2112C25.332 41.6007 23.4943 40.4579 22.044 38.9414L10.1641 50.8213L14.476 55.1333L27.3981 42.2112Z" fill="#004050"/>
<path d="M21.9476 38.836C20.5222 37.3099 19.4839 35.4175 18.9897 33.3154L2.57812 37.7129L4.1564 43.6031L21.9476 38.836Z" fill="#004050"/>
</svg>
