<svg width="306" height="61" viewBox="0 0 306 61" fill="none" xmlns="http://www.w3.org/2000/svg">
<path d="M78.2172 40.2246V20.6246H86.2532C87.6158 20.6246 88.7638 20.8393 89.6972 21.2686C90.6305 21.6979 91.3305 22.2953 91.7972 23.0606C92.2825 23.8073 92.5252 24.6753 92.5252 25.6646C92.5252 26.6539 92.3105 27.4846 91.8812 28.1566C91.4518 28.8286 90.8825 29.3513 90.1732 29.7246C89.4825 30.0793 88.7172 30.2846 87.8772 30.3406L88.3252 30.0326C89.2212 30.0699 90.0145 30.3126 90.7052 30.7606C91.4145 31.1899 91.9652 31.7686 92.3572 32.4966C92.7678 33.2246 92.9732 34.0179 92.9732 34.8766C92.9732 35.9219 92.7212 36.8459 92.2172 37.6486C91.7132 38.4513 90.9852 39.0859 90.0332 39.5526C89.0812 40.0006 87.9145 40.2246 86.5332 40.2246H78.2172ZM81.9972 37.1446H85.9172C86.9438 37.1446 87.7372 36.9113 88.2972 36.4446C88.8572 35.9779 89.1372 35.3059 89.1372 34.4286C89.1372 33.5513 88.8478 32.8699 88.2692 32.3846C87.6905 31.8806 86.8878 31.6286 85.8612 31.6286H81.9972V37.1446ZM81.9972 28.8006H85.6372C86.6265 28.8006 87.3732 28.5766 87.8772 28.1286C88.3998 27.6806 88.6612 27.0459 88.6612 26.2246C88.6612 25.4219 88.3998 24.7966 87.8772 24.3486C87.3732 23.8819 86.6172 23.6486 85.6092 23.6486H81.9972V28.8006ZM102.765 40.5606C101.346 40.5606 100.086 40.2619 98.9846 39.6646C97.902 39.0486 97.0526 38.1993 96.4366 37.1166C95.8393 36.0153 95.5406 34.7459 95.5406 33.3086C95.5406 31.8339 95.8393 30.5366 96.4366 29.4166C97.034 28.2779 97.874 27.3913 98.9566 26.7566C100.058 26.1033 101.327 25.7766 102.765 25.7766C104.165 25.7766 105.387 26.0846 106.433 26.7006C107.478 27.3166 108.29 28.1473 108.869 29.1926C109.447 30.2379 109.737 31.4233 109.737 32.7486C109.737 32.9353 109.737 33.1499 109.737 33.3926C109.737 33.6166 109.718 33.8499 109.681 34.0926H98.2286V31.7966H105.929C105.873 30.8819 105.546 30.1633 104.949 29.6406C104.37 29.1179 103.642 28.8566 102.765 28.8566C102.13 28.8566 101.542 29.0059 101.001 29.3046C100.459 29.5846 100.03 30.0233 99.7126 30.6206C99.414 31.2179 99.2646 31.9739 99.2646 32.8886V33.7006C99.2646 34.4659 99.4046 35.1379 99.6846 35.7166C99.9833 36.2766 100.394 36.7153 100.917 37.0326C101.439 37.3313 102.046 37.4806 102.737 37.4806C103.427 37.4806 103.997 37.3313 104.445 37.0326C104.911 36.7339 105.257 36.3513 105.481 35.8846H109.345C109.083 36.7619 108.645 37.5553 108.029 38.2646C107.413 38.9739 106.657 39.5339 105.761 39.9446C104.865 40.3553 103.866 40.5606 102.765 40.5606ZM117.592 40.5606C116.416 40.5606 115.446 40.3739 114.68 40.0006C113.915 39.6086 113.346 39.0953 112.972 38.4606C112.618 37.8073 112.44 37.0886 112.44 36.3046C112.44 35.4459 112.655 34.6899 113.084 34.0366C113.532 33.3833 114.195 32.8699 115.072 32.4966C115.968 32.1233 117.088 31.9366 118.432 31.9366H121.932C121.932 31.2459 121.839 30.6766 121.652 30.2286C121.466 29.7619 121.176 29.4166 120.784 29.1926C120.392 28.9686 119.87 28.8566 119.216 28.8566C118.507 28.8566 117.9 29.0153 117.396 29.3326C116.911 29.6313 116.612 30.0979 116.5 30.7326H112.832C112.926 29.7246 113.252 28.8566 113.812 28.1286C114.391 27.3819 115.147 26.8033 116.08 26.3926C117.032 25.9819 118.087 25.7766 119.244 25.7766C120.57 25.7766 121.718 26.0006 122.688 26.4486C123.659 26.8966 124.406 27.5406 124.928 28.3806C125.451 29.2206 125.712 30.2566 125.712 31.4886V40.2246H122.52L122.1 38.0686C121.895 38.4419 121.652 38.7779 121.372 39.0766C121.092 39.3753 120.766 39.6366 120.392 39.8606C120.019 40.0846 119.599 40.2526 119.132 40.3646C118.666 40.4953 118.152 40.5606 117.592 40.5606ZM118.488 37.6486C118.974 37.6486 119.403 37.5646 119.776 37.3966C120.168 37.2099 120.504 36.9673 120.784 36.6686C121.064 36.3513 121.279 35.9966 121.428 35.6046C121.596 35.1939 121.708 34.7553 121.764 34.2886V34.2606H118.88C118.302 34.2606 117.826 34.3353 117.452 34.4846C117.098 34.6153 116.836 34.8113 116.668 35.0726C116.5 35.3339 116.416 35.6326 116.416 35.9686C116.416 36.3419 116.5 36.6499 116.668 36.8926C116.836 37.1353 117.079 37.3219 117.396 37.4526C117.714 37.5833 118.078 37.6486 118.488 37.6486ZM136.071 40.5606C134.652 40.5606 133.392 40.2433 132.291 39.6086C131.189 38.9739 130.331 38.1059 129.715 37.0046C129.099 35.9033 128.791 34.6433 128.791 33.2246C128.791 31.7686 129.099 30.4899 129.715 29.3886C130.331 28.2686 131.189 27.3913 132.291 26.7566C133.392 26.1033 134.652 25.7766 136.071 25.7766C137.881 25.7766 139.403 26.2526 140.635 27.2046C141.867 28.1566 142.651 29.4633 142.987 31.1246H138.983C138.815 30.4713 138.46 29.9579 137.919 29.5846C137.396 29.2113 136.771 29.0246 136.043 29.0246C135.389 29.0246 134.801 29.1926 134.279 29.5286C133.775 29.8459 133.373 30.3219 133.075 30.9566C132.795 31.5726 132.655 32.3099 132.655 33.1686C132.655 33.8219 132.739 34.4099 132.907 34.9326C133.075 35.4366 133.308 35.8753 133.607 36.2486C133.905 36.6033 134.26 36.8739 134.671 37.0606C135.1 37.2473 135.557 37.3406 136.043 37.3406C136.528 37.3406 136.967 37.2566 137.359 37.0886C137.769 36.9206 138.115 36.6873 138.395 36.3886C138.675 36.0713 138.871 35.6886 138.983 35.2406H142.987C142.651 36.8646 141.857 38.1619 140.607 39.1326C139.375 40.0846 137.863 40.5606 136.071 40.5606ZM152.91 40.5606C151.566 40.5606 150.353 40.2526 149.27 39.6366C148.206 39.0019 147.357 38.1339 146.722 37.0326C146.106 35.9126 145.798 34.6339 145.798 33.1966C145.798 31.7219 146.106 30.4339 146.722 29.3326C147.357 28.2126 148.216 27.3446 149.298 26.7286C150.381 26.0939 151.594 25.7766 152.938 25.7766C154.301 25.7766 155.514 26.0939 156.578 26.7286C157.661 27.3446 158.51 28.2126 159.126 29.3326C159.761 30.4339 160.078 31.7126 160.078 33.1686C160.078 34.6246 159.761 35.9126 159.126 37.0326C158.51 38.1339 157.661 39.0019 156.578 39.6366C155.496 40.2526 154.273 40.5606 152.91 40.5606ZM152.91 37.2846C153.545 37.2846 154.105 37.1353 154.59 36.8366C155.094 36.5379 155.486 36.0806 155.766 35.4646C156.065 34.8486 156.214 34.0833 156.214 33.1686C156.214 32.2539 156.065 31.4979 155.766 30.9006C155.486 30.2846 155.094 29.8273 154.59 29.5286C154.105 29.2113 153.554 29.0526 152.938 29.0526C152.341 29.0526 151.79 29.2113 151.286 29.5286C150.782 29.8273 150.381 30.2846 150.082 30.9006C149.802 31.4979 149.662 32.2539 149.662 33.1686C149.662 34.0833 149.802 34.8486 150.082 35.4646C150.381 36.0806 150.773 36.5379 151.258 36.8366C151.762 37.1353 152.313 37.2846 152.91 37.2846ZM163.336 40.2246V26.1126H166.668L166.948 28.4086C167.378 27.6246 167.984 26.9899 168.768 26.5046C169.571 26.0193 170.523 25.7766 171.624 25.7766C172.8 25.7766 173.79 26.0193 174.592 26.5046C175.395 26.9899 176.002 27.6993 176.412 28.6326C176.842 29.5659 177.056 30.7139 177.056 32.0766V40.2246H173.304V32.4406C173.304 31.3206 173.062 30.4619 172.576 29.8646C172.11 29.2673 171.382 28.9686 170.392 28.9686C169.758 28.9686 169.188 29.1179 168.684 29.4166C168.199 29.7153 167.816 30.1446 167.536 30.7046C167.256 31.2459 167.116 31.9086 167.116 32.6926V40.2246H163.336ZM185.975 40.2246L193.143 20.6246H197.427L204.567 40.2246H200.563L195.271 24.9366L189.951 40.2246H185.975ZM189.139 35.7726L190.147 32.8326H200.115L201.095 35.7726H189.139ZM212.675 40.5606C211.387 40.5606 210.229 40.2433 209.203 39.6086C208.195 38.9739 207.401 38.0966 206.823 36.9766C206.244 35.8566 205.955 34.5966 205.955 33.1966C205.955 31.7593 206.244 30.4899 206.823 29.3886C207.42 28.2686 208.232 27.3913 209.259 26.7566C210.304 26.1033 211.471 25.7766 212.759 25.7766C213.767 25.7766 214.653 25.9633 215.419 26.3366C216.184 26.7099 216.8 27.2419 217.267 27.9326V20.0646H221.047V40.2246H217.687L217.267 38.2926C216.987 38.6846 216.632 39.0579 216.203 39.4126C215.792 39.7673 215.297 40.0473 214.719 40.2526C214.14 40.4579 213.459 40.5606 212.675 40.5606ZM213.571 37.2566C214.317 37.2566 214.971 37.0886 215.531 36.7526C216.109 36.3979 216.557 35.9126 216.875 35.2966C217.192 34.6806 217.351 33.9713 217.351 33.1686C217.351 32.3659 217.192 31.6566 216.875 31.0406C216.557 30.4246 216.109 29.9486 215.531 29.6126C214.971 29.2579 214.317 29.0806 213.571 29.0806C212.861 29.0806 212.217 29.2579 211.639 29.6126C211.06 29.9486 210.603 30.4246 210.267 31.0406C209.949 31.6566 209.791 32.3566 209.791 33.1406C209.791 33.9619 209.949 34.6806 210.267 35.2966C210.603 35.9126 211.051 36.3979 211.611 36.7526C212.189 37.0886 212.843 37.2566 213.571 37.2566ZM228.53 40.2246L223.35 26.1126H227.326L230.826 36.6686L234.326 26.1126H238.274L233.122 40.2246H228.53ZM240.666 40.2246V26.1126H244.446V40.2246H240.666ZM242.57 24.1806C241.898 24.1806 241.338 23.9846 240.89 23.5926C240.461 23.1819 240.246 22.6686 240.246 22.0526C240.246 21.4366 240.461 20.9326 240.89 20.5406C241.338 20.1299 241.898 19.9246 242.57 19.9246C243.261 19.9246 243.821 20.1299 244.25 20.5406C244.698 20.9326 244.922 21.4366 244.922 22.0526C244.922 22.6686 244.698 23.1819 244.25 23.5926C243.821 23.9846 243.261 24.1806 242.57 24.1806ZM254.034 40.5606C252.746 40.5606 251.626 40.3553 250.674 39.9446C249.722 39.5339 248.975 38.9646 248.434 38.2366C247.893 37.5086 247.585 36.6873 247.51 35.7726H251.262C251.355 36.1273 251.514 36.4539 251.738 36.7526C251.962 37.0326 252.261 37.2566 252.634 37.4246C253.007 37.5926 253.455 37.6766 253.978 37.6766C254.482 37.6766 254.893 37.6113 255.21 37.4806C255.527 37.3313 255.761 37.1353 255.91 36.8926C256.078 36.6499 256.162 36.3979 256.162 36.1366C256.162 35.7446 256.05 35.4459 255.826 35.2406C255.602 35.0166 255.275 34.8393 254.846 34.7086C254.417 34.5779 253.894 34.4473 253.278 34.3166C252.606 34.1859 251.943 34.0273 251.29 33.8406C250.655 33.6353 250.086 33.3833 249.582 33.0846C249.078 32.7859 248.677 32.4033 248.378 31.9366C248.079 31.4699 247.93 30.8913 247.93 30.2006C247.93 29.3606 248.154 28.6139 248.602 27.9606C249.05 27.2886 249.703 26.7566 250.562 26.3646C251.421 25.9726 252.457 25.7766 253.67 25.7766C255.369 25.7766 256.713 26.1593 257.702 26.9246C258.691 27.6899 259.279 28.7446 259.466 30.0886H255.91C255.798 29.6593 255.546 29.3233 255.154 29.0806C254.781 28.8193 254.277 28.6886 253.642 28.6886C252.97 28.6886 252.457 28.8099 252.102 29.0526C251.747 29.2953 251.57 29.6126 251.57 30.0046C251.57 30.2659 251.682 30.4993 251.906 30.7046C252.149 30.9099 252.485 31.0873 252.914 31.2366C253.343 31.3673 253.866 31.4979 254.482 31.6286C255.565 31.8526 256.517 32.1139 257.338 32.4126C258.159 32.6926 258.803 33.1033 259.27 33.6446C259.737 34.1673 259.97 34.9326 259.97 35.9406C259.97 36.8366 259.727 37.6393 259.242 38.3486C258.757 39.0393 258.066 39.5806 257.17 39.9726C256.293 40.3646 255.247 40.5606 254.034 40.5606ZM269.832 40.5606C268.488 40.5606 267.275 40.2526 266.192 39.6366C265.128 39.0019 264.279 38.1339 263.644 37.0326C263.028 35.9126 262.72 34.6339 262.72 33.1966C262.72 31.7219 263.028 30.4339 263.644 29.3326C264.279 28.2126 265.138 27.3446 266.22 26.7286C267.303 26.0939 268.516 25.7766 269.86 25.7766C271.223 25.7766 272.436 26.0939 273.5 26.7286C274.583 27.3446 275.432 28.2126 276.048 29.3326C276.683 30.4339 277 31.7126 277 33.1686C277 34.6246 276.683 35.9126 276.048 37.0326C275.432 38.1339 274.583 39.0019 273.5 39.6366C272.418 40.2526 271.195 40.5606 269.832 40.5606ZM269.832 37.2846C270.467 37.2846 271.027 37.1353 271.512 36.8366C272.016 36.5379 272.408 36.0806 272.688 35.4646C272.987 34.8486 273.136 34.0833 273.136 33.1686C273.136 32.2539 272.987 31.4979 272.688 30.9006C272.408 30.2846 272.016 29.8273 271.512 29.5286C271.027 29.2113 270.476 29.0526 269.86 29.0526C269.263 29.0526 268.712 29.2113 268.208 29.5286C267.704 29.8273 267.303 30.2846 267.004 30.9006C266.724 31.4979 266.584 32.2539 266.584 33.1686C266.584 34.0833 266.724 34.8486 267.004 35.4646C267.303 36.0806 267.695 36.5379 268.18 36.8366C268.684 37.1353 269.235 37.2846 269.832 37.2846ZM280.258 40.2246V26.1126H283.618L283.982 28.7166C284.318 28.1006 284.738 27.5779 285.242 27.1486C285.765 26.7193 286.353 26.3833 287.006 26.1406C287.678 25.8979 288.415 25.7766 289.218 25.7766V29.7806H287.93C287.37 29.7806 286.847 29.8459 286.362 29.9766C285.895 30.1073 285.485 30.3219 285.13 30.6206C284.775 30.9006 284.505 31.2926 284.318 31.7966C284.131 32.3006 284.038 32.9353 284.038 33.7006V40.2246H280.258ZM297.483 40.5606C296.195 40.5606 295.075 40.3553 294.123 39.9446C293.171 39.5339 292.425 38.9646 291.883 38.2366C291.342 37.5086 291.034 36.6873 290.959 35.7726H294.711C294.805 36.1273 294.963 36.4539 295.187 36.7526C295.411 37.0326 295.71 37.2566 296.083 37.4246C296.457 37.5926 296.905 37.6766 297.427 37.6766C297.931 37.6766 298.342 37.6113 298.659 37.4806C298.977 37.3313 299.21 37.1353 299.359 36.8926C299.527 36.6499 299.611 36.3979 299.611 36.1366C299.611 35.7446 299.499 35.4459 299.275 35.2406C299.051 35.0166 298.725 34.8393 298.295 34.7086C297.866 34.5779 297.343 34.4473 296.727 34.3166C296.055 34.1859 295.393 34.0273 294.739 33.8406C294.105 33.6353 293.535 33.3833 293.031 33.0846C292.527 32.7859 292.126 32.4033 291.827 31.9366C291.529 31.4699 291.379 30.8913 291.379 30.2006C291.379 29.3606 291.603 28.6139 292.051 27.9606C292.499 27.2886 293.153 26.7566 294.011 26.3646C294.87 25.9726 295.906 25.7766 297.119 25.7766C298.818 25.7766 300.162 26.1593 301.151 26.9246C302.141 27.6899 302.729 28.7446 302.915 30.0886H299.359C299.247 29.6593 298.995 29.3233 298.603 29.0806C298.23 28.8193 297.726 28.6886 297.091 28.6886C296.419 28.6886 295.906 28.8099 295.551 29.0526C295.197 29.2953 295.019 29.6126 295.019 30.0046C295.019 30.2659 295.131 30.4993 295.355 30.7046C295.598 30.9099 295.934 31.0873 296.363 31.2366C296.793 31.3673 297.315 31.4979 297.931 31.6286C299.014 31.8526 299.966 32.1139 300.787 32.4126C301.609 32.6926 302.253 33.1033 302.719 33.6446C303.186 34.1673 303.419 34.9326 303.419 35.9406C303.419 36.8366 303.177 37.6393 302.691 38.3486C302.206 39.0393 301.515 39.5806 300.619 39.9726C299.742 40.3646 298.697 40.5606 297.483 40.5606Z" fill="#040303"/>
<path fill-rule="evenodd" clip-rule="evenodd" d="M13.0646 5.70103C10.9165 7.20307 8.97397 8.97898 7.2877 10.9781C14.1785 10.3384 22.9331 11.383 33.0971 16.465C43.9508 21.8917 52.6908 22.0752 58.7734 20.902C58.2214 19.2309 57.5265 17.6249 56.7036 16.0982C49.7406 16.8326 40.8142 15.8605 30.4112 10.6592C23.8052 7.35615 17.9821 5.99553 13.0646 5.70103ZM52.6361 10.3088C47.1375 4.16519 39.1466 0.298828 30.2526 0.298828C27.6408 0.298828 25.1065 0.632322 22.6906 1.25901C25.9627 2.15181 29.4387 3.45797 33.0971 5.28722C40.7136 9.09542 47.2893 10.3216 52.6361 10.3088ZM60.0738 26.7674C52.7255 28.2185 42.5782 27.9204 30.4112 21.8369C19.0364 16.1495 9.98307 16.2212 3.87716 17.5781C3.562 17.648 3.25425 17.7216 2.95393 17.7982C2.15452 19.5368 1.5164 21.365 1.05855 23.2635C1.54756 23.1329 2.05288 23.0087 2.57425 22.8928C9.98178 21.2467 20.448 21.3182 33.0971 27.6428C44.472 33.3302 53.5253 33.2586 59.6313 31.9017C59.8405 31.8553 60.0466 31.8072 60.2493 31.7577C60.2716 31.2842 60.2827 30.8078 60.2827 30.3288C60.2827 29.1239 60.2118 27.9354 60.0738 26.7674ZM59.2689 38.0951C51.9918 39.3673 42.14 38.879 30.4112 33.0147C19.0364 27.3273 9.98307 27.399 3.87716 28.7559C2.52183 29.0569 1.3026 29.4237 0.227056 29.811C0.224123 29.9832 0.222656 30.1559 0.222656 30.3288C0.222656 46.914 13.6675 60.3589 30.2526 60.3589C44.1522 60.3589 55.8462 50.9158 59.2689 38.0951Z" fill="#004050"/>
</svg>
