<?xml version="1.0" encoding="UTF-8"?>
<!DOCTYPE svg PUBLIC "-//W3C//DTD SVG 1.1//EN" "http://www.w3.org/Graphics/SVG/1.1/DTD/svg11.dtd">
<!-- Creator: CorelDRAW -->
<svg xmlns="http://www.w3.org/2000/svg" xml:space="preserve" width="658px" height="658px" version="1.1" style="shape-rendering:geometricPrecision; text-rendering:geometricPrecision; image-rendering:optimizeQuality; fill-rule:evenodd; clip-rule:evenodd"
viewBox="0 0 141.47 141.47"
 xmlns:xlink="http://www.w3.org/1999/xlink"
 xmlns:xodm="http://www.corel.com/coreldraw/odm/2003">
 <defs>
  <style type="text/css">
   <![CDATA[
    .fil0 {fill:#242222}
   ]]>
  </style>
 </defs>
 <g id="Layer_x0020_1">
  <metadata id="CorelCorpID_0Corel-Layer"/>
  <path class="fil0" d="M137.54 114.71c0,-12.59 -10.24,-22.83 -22.84,-22.83 -12.6,0 -22.83,10.24 -22.83,22.83 0,4.96 1.6,9.56 4.31,13.31 1.15,-3.08 3.08,-5.86 5.61,-8.05 1.79,-1.53 3.82,-2.73 6,-3.54 -2.17,-1.92 -3.55,-4.72 -3.55,-7.83 0,-5.77 4.7,-10.46 10.46,-10.46 5.76,0 10.46,4.69 10.46,10.46 0,3.11 -1.37,5.91 -3.54,7.83 2.18,0.81 4.21,2.01 6,3.54 2.54,2.19 4.46,4.97 5.61,8.05 2.71,-3.75 4.31,-8.35 4.31,-13.31l0 0zm-16.31 -6.11c0,3.6 -2.93,6.52 -6.53,6.52 -3.6,0 -6.52,-2.92 -6.52,-6.52 0,-3.6 2.93,-6.53 6.52,-6.53 3.59,0 6.53,2.93 6.53,6.53zm-6.53 28.94c-5.96,0 -11.39,-2.3 -15.47,-6.06 1.61,-7.23 7.96,-12.37 15.47,-12.37 7.5,0 13.87,5.14 15.48,12.37 -4.07,3.76 -9.51,6.06 -15.48,6.06zm-43.97 -31.89c-6.29,0 -12.45,-1.69 -17.82,-4.89 -3.13,-1.85 -6.91,-1.51 -9.6,0.82l-3.43 -3.42c2.33,-2.7 2.68,-6.48 0.81,-9.6 -3.18,-5.38 -4.87,-11.54 -4.87,-17.83 0,-19.25 15.66,-34.91 34.91,-34.91 19.25,0 34.92,15.66 34.92,34.91 0,19.25 -15.67,34.92 -34.92,34.92l0 0zm-29.01 -0.1l-5.81 -5.8c-0.35,-0.35 -0.81,-0.55 -1.31,-0.55 -0.5,0 -0.98,0.2 -1.32,0.55l-21.37 21.37c-2.33,2.33 -2.33,6.11 0,8.44 2.33,2.33 6.11,2.33 8.44,0l21.37 -21.38c0.72,-0.72 0.72,-1.9 0,-2.63l0 0zm-14.97 -55.96c5.98,0 11.41,-2.3 15.49,-6.06 -1.63,-7.22 -7.98,-12.37 -15.49,-12.37 -7.5,0 -13.85,5.15 -15.47,12.37 4.08,3.76 9.51,6.06 15.47,6.06zm6.53 -28.94c0,-3.6 -2.92,-6.53 -6.53,-6.53 -3.6,0 -6.52,2.93 -6.52,6.53 0,3.6 2.93,6.53 6.52,6.53 3.59,0 6.53,-2.93 6.53,-6.53zm-29.35 6.11c0,4.97 1.6,9.56 4.29,13.31 1.17,-3.08 3.09,-5.86 5.62,-8.04 1.79,-1.54 3.82,-2.74 6.01,-3.55 -2.19,-1.91 -3.55,-4.72 -3.55,-7.83 0,-5.77 4.7,-10.46 10.45,-10.46 5.76,0 10.46,4.69 10.46,10.46 0,3.11 -1.37,5.92 -3.53,7.83 2.18,0.81 4.21,2.01 6,3.55 2.53,2.18 4.44,4.96 5.61,8.04 2.71,-3.75 4.3,-8.34 4.3,-13.31 0,-12.59 -10.25,-22.83 -22.84,-22.83 -12.58,0 -22.82,10.24 -22.82,22.83l0 0zm87.94 0c0,4.97 1.6,9.56 4.31,13.31 1.15,-3.08 3.08,-5.86 5.61,-8.04 1.79,-1.54 3.82,-2.74 6,-3.55 -2.17,-1.91 -3.55,-4.72 -3.55,-7.83 0,-5.77 4.7,-10.46 10.46,-10.46 5.76,0 10.46,4.69 10.46,10.46 0,3.11 -1.37,5.92 -3.54,7.83 2.18,0.81 4.21,2.01 6,3.55 2.54,2.18 4.46,4.96 5.61,8.04 2.71,-3.75 4.31,-8.34 4.31,-13.31 0,-12.59 -10.24,-22.83 -22.84,-22.83 -12.6,0 -22.83,10.24 -22.83,22.83l0 0zm29.36 -6.11c0,3.6 -2.93,6.53 -6.53,6.53 -3.6,0 -6.52,-2.93 -6.52,-6.53 0,-3.6 2.93,-6.53 6.52,-6.53 3.59,0 6.53,2.93 6.53,6.53zm-6.53 28.94c5.97,0 11.41,-2.3 15.48,-6.06 -1.61,-7.22 -7.96,-12.37 -15.48,-12.37 -7.52,0 -13.86,5.15 -15.47,12.37 4.08,3.76 9.51,6.06 15.47,6.06zm26.77 65.12c0,14.75 -12,26.76 -26.77,26.76 -14.77,0 -26.76,-12.01 -26.76,-26.76 0,-3.63 0.72,-7.09 2.04,-10.25 -5.68,3.26 -12.25,5.12 -19.25,5.12 -7.01,0 -13.85,-1.88 -19.84,-5.44 -1.66,-1 -3.71,-0.78 -5.13,0.52 0.85,2.1 0.45,4.6 -1.26,6.3l-21.38 21.38c-1.92,1.93 -4.47,2.89 -7,2.89 -2.53,0 -5.07,-0.96 -6.99,-2.89 -3.86,-3.86 -3.86,-10.14 0,-14l21.38 -21.37c1.08,-1.1 2.54,-1.7 4.09,-1.7 0.77,0 1.52,0.15 2.21,0.44 1.3,-1.43 1.51,-3.47 0.51,-5.15 -3.55,-5.97 -5.43,-12.83 -5.43,-19.83 0,-6.99 1.85,-13.57 5.11,-19.25 -3.16,1.31 -6.61,2.04 -10.25,2.04 -14.75,0 -26.75,-12 -26.75,-26.76 0,-14.76 12,-26.76 26.75,-26.76 14.76,0 26.77,12 26.77,26.76 0,3.63 -0.73,7.09 -2.04,10.25 5.67,-3.26 12.24,-5.12 19.25,-5.12 7,0 13.57,1.86 19.25,5.12 -1.32,-3.16 -2.04,-6.62 -2.04,-10.25 0,-14.76 12.01,-26.76 26.76,-26.76 14.75,0 26.77,12 26.77,26.76 0,14.76 -12,26.76 -26.77,26.76 -3.62,0 -7.09,-0.73 -10.24,-2.04 3.25,5.68 5.12,12.25 5.12,19.25 0,7 -1.87,13.58 -5.12,19.26 3.15,-1.32 6.62,-2.04 10.24,-2.04 14.77,0 26.77,12 26.77,26.76l0 0zm-55.44 -51.94l-3.72 0 0 20.14 3.72 0 0 -20.14zm3.93 -1.96c0,-1.09 -0.88,-1.97 -1.96,-1.97l-7.65 0c-1.09,0 -1.97,0.88 -1.97,1.97l0 24.06c0,1.09 0.88,1.97 1.97,1.97l7.65 0c1.08,0 1.96,-0.88 1.96,-1.97l0 -24.06zm-17.36 -6.46l-3.73 0 0 28.56 3.73 0 0 -28.56zm3.93 -1.96c0,-1.09 -0.89,-1.97 -1.97,-1.97l-7.65 0c-1.09,0 -1.97,0.88 -1.97,1.97l0 32.48c0,1.09 0.88,1.97 1.97,1.97l7.65 0c1.08,0 1.97,-0.88 1.97,-1.97l0 -32.48zm-17.39 17.96l-3.71 0 0 12.56 3.71 0 0 -12.56zm3.93 -1.97c0,-1.08 -0.86,-1.96 -1.96,-1.96l-7.64 0c-1.1,0 -1.98,0.88 -1.98,1.96l0 16.49c0,1.09 0.88,1.97 1.98,1.97l7.64 0c1.1,0 1.96,-0.88 1.96,-1.97l0 -16.49zm33.64 2.35c0,14.33 -11.66,25.98 -25.98,25.98 -14.32,0 -25.97,-11.65 -25.97,-25.98 0,-14.32 11.65,-25.97 25.97,-25.97 14.32,0 25.98,11.65 25.98,25.97zm3.93 0c0,16.49 -13.43,29.91 -29.91,29.91 -16.49,0 -29.9,-13.42 -29.9,-29.91 0,-16.48 13.41,-29.9 29.9,-29.9 16.48,0 29.91,13.42 29.91,29.9zm-19.25 57.96c1.08,-0.19 2.1,0.51 2.29,1.58 0.2,1.07 -0.52,2.09 -1.57,2.29 -3.74,0.68 -7.56,1.02 -11.38,1.02 -11.21,0 -22.21,-2.98 -31.81,-8.64 -0.94,-0.55 -1.25,-1.75 -0.71,-2.69 0.56,-0.93 1.77,-1.24 2.7,-0.69 9.01,5.29 19.32,8.1 29.82,8.1 3.59,0 7.18,-0.33 10.66,-0.97l0 0zm-70.13 -71.18c1.05,0.2 1.76,1.23 1.55,2.3 -0.66,3.57 -1,7.25 -1,10.92 0,10.51 2.79,20.82 8.1,29.83 0.55,0.93 0.23,2.14 -0.7,2.69 -0.93,0.55 -2.13,0.24 -2.68,-0.7 -5.67,-9.61 -8.65,-20.61 -8.65,-31.82 0,-3.91 0.36,-7.83 1.07,-11.65 0.21,-1.07 1.24,-1.77 2.31,-1.57l0 0zm49.06 -44.78c6.83,-1.22 14,-1.22 20.82,0 1.06,0.2 2.09,-0.54 2.28,-1.59 0.19,-1.07 -0.53,-2.09 -1.58,-2.28 -7.29,-1.3 -14.93,-1.3 -22.21,0 -1.07,0.19 -1.77,1.21 -1.58,2.28 0.19,1.07 1.2,1.78 2.27,1.59l0 0zm68.41 68.41c-0.19,1.07 0.53,2.09 1.59,2.28 1.07,0.18 2.09,-0.5 2.29,-1.59 0.65,-3.64 0.97,-7.37 0.97,-11.1 0,-3.72 -0.32,-7.45 -0.97,-11.09 -0.19,-1.07 -1.21,-1.78 -2.29,-1.6 -1.06,0.2 -1.78,1.22 -1.59,2.28 0.61,3.42 0.92,6.92 0.92,10.41 0,3.5 -0.31,7 -0.92,10.41z"/>
 </g>
</svg>
