<svg width="296" height="60" viewBox="0 0 296 60" fill="none" xmlns="http://www.w3.org/2000/svg">
<path d="M90.3855 39.9004V20.3004H94.1655V39.9004H90.3855ZM78.0375 39.9004V20.3004H81.8175V39.9004H78.0375ZM81.2855 31.4164V28.3644H91.0295V31.4164H81.2855ZM104.606 40.2364C103.262 40.2364 102.048 39.9284 100.966 39.3124C99.9018 38.6777 99.0524 37.8097 98.4178 36.7084C97.8018 35.5884 97.4938 34.3097 97.4938 32.8724C97.4938 31.3977 97.8018 30.1097 98.4178 29.0084C99.0524 27.8884 99.9111 27.0204 100.994 26.4044C102.076 25.7697 103.29 25.4524 104.634 25.4524C105.996 25.4524 107.21 25.7697 108.274 26.4044C109.356 27.0204 110.206 27.8884 110.822 29.0084C111.456 30.1097 111.774 31.3884 111.774 32.8444C111.774 34.3004 111.456 35.5884 110.822 36.7084C110.206 37.8097 109.356 38.6777 108.274 39.3124C107.191 39.9284 105.968 40.2364 104.606 40.2364ZM104.606 36.9604C105.24 36.9604 105.8 36.8111 106.286 36.5124C106.79 36.2137 107.182 35.7564 107.462 35.1404C107.76 34.5244 107.91 33.7591 107.91 32.8444C107.91 31.9297 107.76 31.1737 107.462 30.5764C107.182 29.9604 106.79 29.5031 106.286 29.2044C105.8 28.8871 105.25 28.7284 104.634 28.7284C104.036 28.7284 103.486 28.8871 102.982 29.2044C102.478 29.5031 102.076 29.9604 101.778 30.5764C101.498 31.1737 101.358 31.9297 101.358 32.8444C101.358 33.7591 101.498 34.5244 101.778 35.1404C102.076 35.7564 102.468 36.2137 102.954 36.5124C103.458 36.8111 104.008 36.9604 104.606 36.9604ZM115.032 39.9004V25.7884H118.392L118.756 28.3924C119.092 27.7764 119.512 27.2537 120.016 26.8244C120.538 26.3951 121.126 26.0591 121.78 25.8164C122.452 25.5737 123.189 25.4524 123.992 25.4524V29.4564H122.704C122.144 29.4564 121.621 29.5217 121.136 29.6524C120.669 29.7831 120.258 29.9977 119.904 30.2964C119.549 30.5764 119.278 30.9684 119.092 31.4724C118.905 31.9764 118.812 32.6111 118.812 33.3764V39.9004H115.032ZM126.573 39.9004V25.7884H130.353V39.9004H126.573ZM128.477 23.8564C127.805 23.8564 127.245 23.6604 126.797 23.2684C126.367 22.8577 126.153 22.3444 126.153 21.7284C126.153 21.1124 126.367 20.6084 126.797 20.2164C127.245 19.8057 127.805 19.6004 128.477 19.6004C129.167 19.6004 129.727 19.8057 130.157 20.2164C130.605 20.6084 130.829 21.1124 130.829 21.7284C130.829 22.3444 130.605 22.8577 130.157 23.2684C129.727 23.6604 129.167 23.8564 128.477 23.8564ZM133.248 39.9004V36.8764L140.36 28.9244H133.332V25.7884H144.7V28.8404L137.532 36.7644H144.84V39.9004H133.248ZM154.563 40.2364C153.219 40.2364 152.005 39.9284 150.923 39.3124C149.859 38.6777 149.009 37.8097 148.375 36.7084C147.759 35.5884 147.451 34.3097 147.451 32.8724C147.451 31.3977 147.759 30.1097 148.375 29.0084C149.009 27.8884 149.868 27.0204 150.951 26.4044C152.033 25.7697 153.247 25.4524 154.591 25.4524C155.953 25.4524 157.167 25.7697 158.231 26.4044C159.313 27.0204 160.163 27.8884 160.779 29.0084C161.413 30.1097 161.731 31.3884 161.731 32.8444C161.731 34.3004 161.413 35.5884 160.779 36.7084C160.163 37.8097 159.313 38.6777 158.231 39.3124C157.148 39.9284 155.925 40.2364 154.563 40.2364ZM154.563 36.9604C155.197 36.9604 155.757 36.8111 156.243 36.5124C156.747 36.2137 157.139 35.7564 157.419 35.1404C157.717 34.5244 157.867 33.7591 157.867 32.8444C157.867 31.9297 157.717 31.1737 157.419 30.5764C157.139 29.9604 156.747 29.5031 156.243 29.2044C155.757 28.8871 155.207 28.7284 154.591 28.7284C153.993 28.7284 153.443 28.8871 152.939 29.2044C152.435 29.5031 152.033 29.9604 151.735 30.5764C151.455 31.1737 151.315 31.9297 151.315 32.8444C151.315 33.7591 151.455 34.5244 151.735 35.1404C152.033 35.7564 152.425 36.2137 152.911 36.5124C153.415 36.8111 153.965 36.9604 154.563 36.9604ZM164.989 39.9004V25.7884H168.321L168.601 28.0844C169.03 27.3004 169.637 26.6657 170.421 26.1804C171.223 25.6951 172.175 25.4524 173.277 25.4524C174.453 25.4524 175.442 25.6951 176.245 26.1804C177.047 26.6657 177.654 27.3751 178.065 28.3084C178.494 29.2417 178.709 30.3897 178.709 31.7524V39.9004H174.957V32.1164C174.957 30.9964 174.714 30.1377 174.229 29.5404C173.762 28.9431 173.034 28.6444 172.045 28.6444C171.41 28.6444 170.841 28.7937 170.337 29.0924C169.851 29.3911 169.469 29.8204 169.189 30.3804C168.909 30.9217 168.769 31.5844 168.769 32.3684V39.9004H164.989ZM188.944 39.9004V20.3004H201.712V23.3524H192.724V28.5884H199.92V31.5564H192.724V39.9004H188.944ZM204.502 39.9004V25.7884H208.282V39.9004H204.502ZM206.406 23.8564C205.734 23.8564 205.174 23.6604 204.726 23.2684C204.297 22.8577 204.082 22.3444 204.082 21.7284C204.082 21.1124 204.297 20.6084 204.726 20.2164C205.174 19.8057 205.734 19.6004 206.406 19.6004C207.097 19.6004 207.657 19.8057 208.086 20.2164C208.534 20.6084 208.758 21.1124 208.758 21.7284C208.758 22.3444 208.534 22.8577 208.086 23.2684C207.657 23.6604 207.097 23.8564 206.406 23.8564ZM212.102 39.9004V25.7884H215.434L215.714 28.0844C216.143 27.3004 216.75 26.6657 217.534 26.1804C218.337 25.6951 219.289 25.4524 220.39 25.4524C221.566 25.4524 222.555 25.6951 223.358 26.1804C224.161 26.6657 224.767 27.3751 225.178 28.3084C225.607 29.2417 225.822 30.3897 225.822 31.7524V39.9004H222.07V32.1164C222.07 30.9964 221.827 30.1377 221.342 29.5404C220.875 28.9431 220.147 28.6444 219.158 28.6444C218.523 28.6444 217.954 28.7937 217.45 29.0924C216.965 29.3911 216.582 29.8204 216.302 30.3804C216.022 30.9217 215.882 31.5844 215.882 32.3684V39.9004H212.102ZM234.143 40.2364C232.967 40.2364 231.996 40.0497 231.231 39.6764C230.466 39.2844 229.896 38.7711 229.523 38.1364C229.168 37.4831 228.991 36.7644 228.991 35.9804C228.991 35.1217 229.206 34.3657 229.635 33.7124C230.083 33.0591 230.746 32.5457 231.623 32.1724C232.519 31.7991 233.639 31.6124 234.983 31.6124H238.483C238.483 30.9217 238.39 30.3524 238.203 29.9044C238.016 29.4377 237.727 29.0924 237.335 28.8684C236.943 28.6444 236.42 28.5324 235.767 28.5324C235.058 28.5324 234.451 28.6911 233.947 29.0084C233.462 29.3071 233.163 29.7737 233.051 30.4084H229.383C229.476 29.4004 229.803 28.5324 230.363 27.8044C230.942 27.0577 231.698 26.4791 232.631 26.0684C233.583 25.6577 234.638 25.4524 235.795 25.4524C237.12 25.4524 238.268 25.6764 239.239 26.1244C240.21 26.5724 240.956 27.2164 241.479 28.0564C242.002 28.8964 242.263 29.9324 242.263 31.1644V39.9004H239.071L238.651 37.7444C238.446 38.1177 238.203 38.4537 237.923 38.7524C237.643 39.0511 237.316 39.3124 236.943 39.5364C236.57 39.7604 236.15 39.9284 235.683 40.0404C235.216 40.1711 234.703 40.2364 234.143 40.2364ZM235.039 37.3244C235.524 37.3244 235.954 37.2404 236.327 37.0724C236.719 36.8857 237.055 36.6431 237.335 36.3444C237.615 36.0271 237.83 35.6724 237.979 35.2804C238.147 34.8697 238.259 34.4311 238.315 33.9644V33.9364H235.431C234.852 33.9364 234.376 34.0111 234.003 34.1604C233.648 34.2911 233.387 34.4871 233.219 34.7484C233.051 35.0097 232.967 35.3084 232.967 35.6444C232.967 36.0177 233.051 36.3257 233.219 36.5684C233.387 36.8111 233.63 36.9977 233.947 37.1284C234.264 37.2591 234.628 37.3244 235.039 37.3244ZM245.789 39.9004V25.7884H249.121L249.401 28.0844C249.831 27.3004 250.437 26.6657 251.221 26.1804C252.024 25.6951 252.976 25.4524 254.077 25.4524C255.253 25.4524 256.243 25.6951 257.045 26.1804C257.848 26.6657 258.455 27.3751 258.865 28.3084C259.295 29.2417 259.509 30.3897 259.509 31.7524V39.9004H255.757V32.1164C255.757 30.9964 255.515 30.1377 255.029 29.5404C254.563 28.9431 253.835 28.6444 252.845 28.6444C252.211 28.6444 251.641 28.7937 251.137 29.0924C250.652 29.3911 250.269 29.8204 249.989 30.3804C249.709 30.9217 249.569 31.5844 249.569 32.3684V39.9004H245.789ZM269.903 40.2364C268.484 40.2364 267.224 39.9191 266.123 39.2844C265.021 38.6497 264.163 37.7817 263.547 36.6804C262.931 35.5791 262.623 34.3191 262.623 32.9004C262.623 31.4444 262.931 30.1657 263.547 29.0644C264.163 27.9444 265.021 27.0671 266.123 26.4324C267.224 25.7791 268.484 25.4524 269.903 25.4524C271.713 25.4524 273.235 25.9284 274.467 26.8804C275.699 27.8324 276.483 29.1391 276.819 30.8004H272.815C272.647 30.1471 272.292 29.6337 271.751 29.2604C271.228 28.8871 270.603 28.7004 269.875 28.7004C269.221 28.7004 268.633 28.8684 268.111 29.2044C267.607 29.5217 267.205 29.9977 266.907 30.6324C266.627 31.2484 266.487 31.9857 266.487 32.8444C266.487 33.4977 266.571 34.0857 266.739 34.6084C266.907 35.1124 267.14 35.5511 267.439 35.9244C267.737 36.2791 268.092 36.5497 268.503 36.7364C268.932 36.9231 269.389 37.0164 269.875 37.0164C270.36 37.0164 270.799 36.9324 271.191 36.7644C271.601 36.5964 271.947 36.3631 272.227 36.0644C272.507 35.7471 272.703 35.3644 272.815 34.9164H276.819C276.483 36.5404 275.689 37.8377 274.439 38.8084C273.207 39.7604 271.695 40.2364 269.903 40.2364ZM286.854 40.2364C285.436 40.2364 284.176 39.9377 283.074 39.3404C281.992 38.7244 281.142 37.8751 280.526 36.7924C279.929 35.6911 279.63 34.4217 279.63 32.9844C279.63 31.5097 279.929 30.2124 280.526 29.0924C281.124 27.9537 281.964 27.0671 283.046 26.4324C284.148 25.7791 285.417 25.4524 286.854 25.4524C288.254 25.4524 289.477 25.7604 290.522 26.3764C291.568 26.9924 292.38 27.8231 292.958 28.8684C293.537 29.9137 293.826 31.0991 293.826 32.4244C293.826 32.6111 293.826 32.8257 293.826 33.0684C293.826 33.2924 293.808 33.5257 293.77 33.7684H282.318V31.4724H290.018C289.962 30.5577 289.636 29.8391 289.038 29.3164C288.46 28.7937 287.732 28.5324 286.854 28.5324C286.22 28.5324 285.632 28.6817 285.09 28.9804C284.549 29.2604 284.12 29.6991 283.802 30.2964C283.504 30.8937 283.354 31.6497 283.354 32.5644V33.3764C283.354 34.1417 283.494 34.8137 283.774 35.3924C284.073 35.9524 284.484 36.3911 285.006 36.7084C285.529 37.0071 286.136 37.1564 286.826 37.1564C287.517 37.1564 288.086 37.0071 288.534 36.7084C289.001 36.4097 289.346 36.0271 289.57 35.5604H293.434C293.173 36.4377 292.734 37.2311 292.118 37.9404C291.502 38.6497 290.746 39.2097 289.85 39.6204C288.954 40.0311 287.956 40.2364 286.854 40.2364Z" fill="#040303"/>
<path d="M37.9816 1.63005L32.0914 0.0517578L27.1277 18.5768L22.6463 1.85227L16.756 3.43056L21.5979 21.5001L9.53799 9.44036L5.22604 13.7523L18.4542 26.9806L1.98063 22.5665L0.402344 28.4566L18.4018 33.2796C18.1957 32.3908 18.0867 31.4646 18.0867 30.513C18.0867 23.7773 23.547 18.3169 30.2828 18.3169C37.0185 18.3169 42.4788 23.7773 42.4788 30.513C42.4788 31.4585 42.3712 32.3789 42.1676 33.2625L58.5258 37.6456L60.104 31.7555L42.033 26.9133L58.5077 22.4989L56.9293 16.6087L38.8591 21.4506L50.9189 9.39085L46.6069 5.07889L33.5623 18.1236L37.9816 1.63005Z" fill="#004050"/>
<path d="M42.1551 33.332C41.6501 35.4671 40.584 37.3851 39.1211 38.9218L50.9718 50.7727L55.2838 46.4607L42.1551 33.332Z" fill="#004050"/>
<path d="M39.0005 39.0459C37.5199 40.5581 35.649 41.6865 33.5508 42.268L37.8631 58.3616L43.7532 56.7832L39.0005 39.0459Z" fill="#004050"/>
<path d="M33.3293 42.3259C32.3558 42.5762 31.3355 42.7092 30.284 42.7092C29.1575 42.7092 28.0666 42.5564 27.031 42.2705L22.7148 58.3787L28.605 59.9569L33.3293 42.3259Z" fill="#004050"/>
<path d="M26.8239 42.2112C24.7578 41.6007 22.9201 40.4579 21.4698 38.9414L9.58984 50.8213L13.9018 55.1333L26.8239 42.2112Z" fill="#004050"/>
<path d="M21.3695 38.836C19.9441 37.3099 18.9058 35.4175 18.4116 33.3154L2 37.7129L3.57828 43.6031L21.3695 38.836Z" fill="#004050"/>
</svg>
