<svg width="301" height="62" viewBox="0 0 301 62" fill="none" xmlns="http://www.w3.org/2000/svg">
<path d="M78.9203 40.9004V21.3004H86.2563C87.8429 21.3004 89.1589 21.5711 90.2043 22.1124C91.2496 22.6537 92.0243 23.3817 92.5283 24.2964C93.0323 25.2111 93.2843 26.2564 93.2843 27.4324C93.2843 28.5151 93.0416 29.5137 92.5563 30.4284C92.0709 31.3431 91.3056 32.0897 90.2603 32.6684C89.2149 33.2284 87.8803 33.5084 86.2563 33.5084H82.7003V40.9004H78.9203ZM82.7003 30.4564H86.0323C87.2456 30.4564 88.1136 30.1857 88.6363 29.6444C89.1776 29.0844 89.4483 28.3471 89.4483 27.4324C89.4483 26.4617 89.1776 25.7151 88.6363 25.1924C88.1136 24.6511 87.2456 24.3804 86.0323 24.3804H82.7003V30.4564ZM96.1195 40.9004V26.7884H99.8995V40.9004H96.1195ZM98.0235 24.8564C97.3515 24.8564 96.7915 24.6604 96.3435 24.2684C95.9142 23.8577 95.6995 23.3444 95.6995 22.7284C95.6995 22.1124 95.9142 21.6084 96.3435 21.2164C96.7915 20.8057 97.3515 20.6004 98.0235 20.6004C98.7142 20.6004 99.2742 20.8057 99.7035 21.2164C100.152 21.6084 100.376 22.1124 100.376 22.7284C100.376 23.3444 100.152 23.8577 99.7035 24.2684C99.2742 24.6604 98.7142 24.8564 98.0235 24.8564ZM103.719 40.9004V26.7884H107.051L107.331 29.0844C107.76 28.3004 108.367 27.6657 109.151 27.1804C109.954 26.6951 110.906 26.4524 112.007 26.4524C113.183 26.4524 114.172 26.6951 114.975 27.1804C115.778 27.6657 116.384 28.3751 116.795 29.3084C117.224 30.2417 117.439 31.3897 117.439 32.7524V40.9004H113.687V33.1164C113.687 31.9964 113.444 31.1377 112.959 30.5404C112.492 29.9431 111.764 29.6444 110.775 29.6444C110.14 29.6444 109.571 29.7937 109.067 30.0924C108.582 30.3911 108.199 30.8204 107.919 31.3804C107.639 31.9217 107.499 32.5844 107.499 33.3684V40.9004H103.719ZM121 40.9004V26.7884H124.332L124.612 29.0844C125.042 28.3004 125.648 27.6657 126.432 27.1804C127.235 26.6951 128.187 26.4524 129.288 26.4524C130.464 26.4524 131.454 26.6951 132.256 27.1804C133.059 27.6657 133.666 28.3751 134.076 29.3084C134.506 30.2417 134.72 31.3897 134.72 32.7524V40.9004H130.968V33.1164C130.968 31.9964 130.726 31.1377 130.24 30.5404C129.774 29.9431 129.046 29.6444 128.056 29.6444C127.422 29.6444 126.852 29.7937 126.348 30.0924C125.863 30.3911 125.48 30.8204 125.2 31.3804C124.92 31.9217 124.78 32.5844 124.78 33.3684V40.9004H121ZM143.042 41.2364C141.866 41.2364 140.895 41.0497 140.13 40.6764C139.364 40.2844 138.795 39.7711 138.422 39.1364C138.067 38.4831 137.89 37.7644 137.89 36.9804C137.89 36.1217 138.104 35.3657 138.534 34.7124C138.982 34.0591 139.644 33.5457 140.522 33.1724C141.418 32.7991 142.538 32.6124 143.882 32.6124H147.382C147.382 31.9217 147.288 31.3524 147.102 30.9044C146.915 30.4377 146.626 30.0924 146.234 29.8684C145.842 29.6444 145.319 29.5324 144.666 29.5324C143.956 29.5324 143.35 29.6911 142.846 30.0084C142.36 30.3071 142.062 30.7737 141.95 31.4084H138.282C138.375 30.4004 138.702 29.5324 139.262 28.8044C139.84 28.0577 140.596 27.4791 141.53 27.0684C142.482 26.6577 143.536 26.4524 144.694 26.4524C146.019 26.4524 147.167 26.6764 148.138 27.1244C149.108 27.5724 149.855 28.2164 150.378 29.0564C150.9 29.8964 151.162 30.9324 151.162 32.1644V40.9004H147.97L147.55 38.7444C147.344 39.1177 147.102 39.4537 146.822 39.7524C146.542 40.0511 146.215 40.3124 145.842 40.5364C145.468 40.7604 145.048 40.9284 144.582 41.0404C144.115 41.1711 143.602 41.2364 143.042 41.2364ZM143.938 38.3244C144.423 38.3244 144.852 38.2404 145.226 38.0724C145.618 37.8857 145.954 37.6431 146.234 37.3444C146.514 37.0271 146.728 36.6724 146.878 36.2804C147.046 35.8697 147.158 35.4311 147.214 34.9644V34.9364H144.33C143.751 34.9364 143.275 35.0111 142.902 35.1604C142.547 35.2911 142.286 35.4871 142.118 35.7484C141.95 36.0097 141.866 36.3084 141.866 36.6444C141.866 37.0177 141.95 37.3257 142.118 37.5684C142.286 37.8111 142.528 37.9977 142.846 38.1284C143.163 38.2591 143.527 38.3244 143.938 38.3244ZM161.52 41.2364C160.101 41.2364 158.841 40.9191 157.74 40.2844C156.639 39.6497 155.78 38.7817 155.164 37.6804C154.548 36.5791 154.24 35.3191 154.24 33.9004C154.24 32.4444 154.548 31.1657 155.164 30.0644C155.78 28.9444 156.639 28.0671 157.74 27.4324C158.841 26.7791 160.101 26.4524 161.52 26.4524C163.331 26.4524 164.852 26.9284 166.084 27.8804C167.316 28.8324 168.1 30.1391 168.436 31.8004H164.432C164.264 31.1471 163.909 30.6337 163.368 30.2604C162.845 29.8871 162.22 29.7004 161.492 29.7004C160.839 29.7004 160.251 29.8684 159.728 30.2044C159.224 30.5217 158.823 30.9977 158.524 31.6324C158.244 32.2484 158.104 32.9857 158.104 33.8444C158.104 34.4977 158.188 35.0857 158.356 35.6084C158.524 36.1124 158.757 36.5511 159.056 36.9244C159.355 37.2791 159.709 37.5497 160.12 37.7364C160.549 37.9231 161.007 38.0164 161.492 38.0164C161.977 38.0164 162.416 37.9324 162.808 37.7644C163.219 37.5964 163.564 37.3631 163.844 37.0644C164.124 36.7471 164.32 36.3644 164.432 35.9164H168.436C168.1 37.5404 167.307 38.8377 166.056 39.8084C164.824 40.7604 163.312 41.2364 161.52 41.2364ZM171.696 40.9004V20.7404H175.476V40.9004H171.696ZM185.937 41.2364C184.518 41.2364 183.258 40.9377 182.157 40.3404C181.074 39.7244 180.225 38.8751 179.609 37.7924C179.011 36.6911 178.713 35.4217 178.713 33.9844C178.713 32.5097 179.011 31.2124 179.609 30.0924C180.206 28.9537 181.046 28.0671 182.129 27.4324C183.23 26.7791 184.499 26.4524 185.937 26.4524C187.337 26.4524 188.559 26.7604 189.605 27.3764C190.65 27.9924 191.462 28.8231 192.041 29.8684C192.619 30.9137 192.909 32.0991 192.909 33.4244C192.909 33.6111 192.909 33.8257 192.909 34.0684C192.909 34.2924 192.89 34.5257 192.853 34.7684H181.401V32.4724H189.101C189.045 31.5577 188.718 30.8391 188.121 30.3164C187.542 29.7937 186.814 29.5324 185.937 29.5324C185.302 29.5324 184.714 29.6817 184.173 29.9804C183.631 30.2604 183.202 30.6991 182.885 31.2964C182.586 31.8937 182.437 32.6497 182.437 33.5644V34.3764C182.437 35.1417 182.577 35.8137 182.857 36.3924C183.155 36.9524 183.566 37.3911 184.089 37.7084C184.611 38.0071 185.218 38.1564 185.909 38.1564C186.599 38.1564 187.169 38.0071 187.617 37.7084C188.083 37.4097 188.429 37.0271 188.653 36.5604H192.517C192.255 37.4377 191.817 38.2311 191.201 38.9404C190.585 39.6497 189.829 40.2097 188.933 40.6204C188.037 41.0311 187.038 41.2364 185.937 41.2364ZM206.626 40.9004L201.474 21.3004H205.506L208.922 36.6164L212.954 21.3004H217.126L221.046 36.6164L224.49 21.3004H228.55L223.258 40.9004H218.75L214.998 26.6204L211.106 40.9004H206.626ZM236.358 41.2364C234.94 41.2364 233.68 40.9377 232.578 40.3404C231.496 39.7244 230.646 38.8751 230.03 37.7924C229.433 36.6911 229.134 35.4217 229.134 33.9844C229.134 32.5097 229.433 31.2124 230.03 30.0924C230.628 28.9537 231.468 28.0671 232.55 27.4324C233.652 26.7791 234.921 26.4524 236.358 26.4524C237.758 26.4524 238.981 26.7604 240.026 27.3764C241.072 27.9924 241.884 28.8231 242.462 29.8684C243.041 30.9137 243.33 32.0991 243.33 33.4244C243.33 33.6111 243.33 33.8257 243.33 34.0684C243.33 34.2924 243.312 34.5257 243.274 34.7684H231.822V32.4724H239.522C239.466 31.5577 239.14 30.8391 238.542 30.3164C237.964 29.7937 237.236 29.5324 236.358 29.5324C235.724 29.5324 235.136 29.6817 234.594 29.9804C234.053 30.2604 233.624 30.6991 233.306 31.2964C233.008 31.8937 232.858 32.6497 232.858 33.5644V34.3764C232.858 35.1417 232.998 35.8137 233.278 36.3924C233.577 36.9524 233.988 37.3911 234.51 37.7084C235.033 38.0071 235.64 38.1564 236.33 38.1564C237.021 38.1564 237.59 38.0071 238.038 37.7084C238.505 37.4097 238.85 37.0271 239.074 36.5604H242.938C242.677 37.4377 242.238 38.2311 241.622 38.9404C241.006 39.6497 240.25 40.2097 239.354 40.6204C238.458 41.0311 237.46 41.2364 236.358 41.2364ZM251.186 41.2364C250.01 41.2364 249.039 41.0497 248.274 40.6764C247.509 40.2844 246.939 39.7711 246.566 39.1364C246.211 38.4831 246.034 37.7644 246.034 36.9804C246.034 36.1217 246.249 35.3657 246.678 34.7124C247.126 34.0591 247.789 33.5457 248.666 33.1724C249.562 32.7991 250.682 32.6124 252.026 32.6124H255.526C255.526 31.9217 255.433 31.3524 255.246 30.9044C255.059 30.4377 254.77 30.0924 254.378 29.8684C253.986 29.6444 253.463 29.5324 252.81 29.5324C252.101 29.5324 251.494 29.6911 250.99 30.0084C250.505 30.3071 250.206 30.7737 250.094 31.4084H246.426C246.519 30.4004 246.846 29.5324 247.406 28.8044C247.985 28.0577 248.741 27.4791 249.674 27.0684C250.626 26.6577 251.681 26.4524 252.838 26.4524C254.163 26.4524 255.311 26.6764 256.282 27.1244C257.253 27.5724 257.999 28.2164 258.522 29.0564C259.045 29.8964 259.306 30.9324 259.306 32.1644V40.9004H256.114L255.694 38.7444C255.489 39.1177 255.246 39.4537 254.966 39.7524C254.686 40.0511 254.359 40.3124 253.986 40.5364C253.613 40.7604 253.193 40.9284 252.726 41.0404C252.259 41.1711 251.746 41.2364 251.186 41.2364ZM252.082 38.3244C252.567 38.3244 252.997 38.2404 253.37 38.0724C253.762 37.8857 254.098 37.6431 254.378 37.3444C254.658 37.0271 254.873 36.6724 255.022 36.2804C255.19 35.8697 255.302 35.4311 255.358 34.9644V34.9364H252.474C251.895 34.9364 251.419 35.0111 251.046 35.1604C250.691 35.2911 250.43 35.4871 250.262 35.7484C250.094 36.0097 250.01 36.3084 250.01 36.6444C250.01 37.0177 250.094 37.3257 250.262 37.5684C250.43 37.8111 250.673 37.9977 250.99 38.1284C251.307 38.2591 251.671 38.3244 252.082 38.3244ZM262.832 40.9004V20.7404H266.612V40.9004H262.832ZM276.653 40.9004C275.664 40.9004 274.796 40.7511 274.049 40.4524C273.321 40.1351 272.752 39.6217 272.341 38.9124C271.931 38.1844 271.725 37.1951 271.725 35.9444V29.9524H269.317V26.7884H271.725L272.145 22.9524H275.505V26.7884H279.229V29.9524H275.505V36.0004C275.505 36.6351 275.645 37.0737 275.925 37.3164C276.205 37.5591 276.681 37.6804 277.353 37.6804H279.201V40.9004H276.653ZM282.41 40.9004V20.7404H286.191V28.8884C286.657 28.1604 287.273 27.5724 288.039 27.1244C288.823 26.6764 289.728 26.4524 290.755 26.4524C291.931 26.4524 292.92 26.7044 293.723 27.2084C294.525 27.6937 295.132 28.4031 295.543 29.3364C295.953 30.2697 296.159 31.4271 296.159 32.8084V40.9004H292.407V33.1444C292.407 32.0244 292.173 31.1657 291.707 30.5684C291.24 29.9524 290.503 29.6444 289.495 29.6444C288.879 29.6444 288.319 29.7937 287.815 30.0924C287.311 30.3911 286.909 30.8297 286.611 31.4084C286.331 31.9684 286.191 32.6404 286.191 33.4244V40.9004H282.41Z" fill="#040303"/>
<path fill-rule="evenodd" clip-rule="evenodd" d="M13.7716 6.37681C11.6235 7.87885 9.681 9.65476 7.99474 11.6539C14.8856 11.0141 23.6401 12.0588 33.8041 17.1408C44.6579 22.5675 53.3978 22.751 59.4804 21.5777C58.9284 19.9067 58.2336 18.3007 57.4106 16.774C50.4477 17.5084 41.5212 16.5363 31.1182 11.3349C24.5122 8.03193 18.6891 6.67132 13.7716 6.37681ZM53.3432 10.9846C47.8445 4.84097 39.8537 0.974609 30.9597 0.974609C28.3478 0.974609 25.8136 1.3081 23.3977 1.93479C26.6697 2.82759 30.1457 4.13375 33.8041 5.963C41.4206 9.7712 47.9963 10.9974 53.3432 10.9846ZM60.7809 27.4432C53.4325 28.8943 43.2852 28.5962 31.1182 22.5127C19.7435 16.8253 10.6901 16.897 4.58419 18.2539C4.26903 18.3238 3.96128 18.3974 3.66096 18.474C2.86155 20.2126 2.22343 22.0408 1.76558 23.9393C2.25459 23.8087 2.75991 23.6845 3.28128 23.5686C10.6888 21.9225 21.155 21.9939 33.8041 28.3186C45.179 34.006 54.2323 33.9343 60.3384 32.5774C60.5475 32.531 60.7537 32.483 60.9564 32.4334C60.9786 31.96 60.9897 31.4836 60.9897 31.0046C60.9897 29.7997 60.9188 28.6112 60.7809 27.4432ZM59.9759 38.7708C52.6989 40.0431 42.8471 39.5548 31.1182 33.6905C19.7435 28.0031 10.6901 28.0747 4.58419 29.4316C3.22886 29.7327 2.00963 30.0995 0.934087 30.4867C0.931154 30.659 0.929688 30.8316 0.929688 31.0046C0.929688 47.5898 14.3746 61.0347 30.9597 61.0347C44.8592 61.0347 56.5532 51.5916 59.9759 38.7708Z" fill="#004050"/>
</svg>
