<svg width="263" height="62" viewBox="0 0 263 62" fill="none" xmlns="http://www.w3.org/2000/svg">
<path d="M78.6508 40.3047V20.7047H85.9868C87.5734 20.7047 88.8894 20.9754 89.9348 21.5167C90.9801 22.058 91.7548 22.786 92.2588 23.7007C92.7628 24.6154 93.0148 25.6607 93.0148 26.8367C93.0148 27.9194 92.7721 28.918 92.2868 29.8327C91.8014 30.7474 91.0361 31.494 89.9908 32.0727C88.9454 32.6327 87.6108 32.9127 85.9868 32.9127H82.4308V40.3047H78.6508ZM82.4308 29.8607H85.7628C86.9761 29.8607 87.8441 29.59 88.3668 29.0487C88.9081 28.4887 89.1788 27.7514 89.1788 26.8367C89.1788 25.866 88.9081 25.1194 88.3668 24.5967C87.8441 24.0554 86.9761 23.7847 85.7628 23.7847H82.4308V29.8607ZM95.766 40.3047V26.1927H99.126L99.49 28.7967C99.826 28.1807 100.246 27.658 100.75 27.2287C101.273 26.7994 101.861 26.4634 102.514 26.2207C103.186 25.978 103.923 25.8567 104.726 25.8567V29.8607H103.438C102.878 29.8607 102.355 29.926 101.87 30.0567C101.403 30.1874 100.993 30.402 100.638 30.7007C100.283 30.9807 100.013 31.3727 99.826 31.8767C99.6393 32.3807 99.546 33.0154 99.546 33.7807V40.3047H95.766ZM107.307 40.3047V26.1927H111.087V40.3047H107.307ZM109.211 24.2607C108.539 24.2607 107.979 24.0647 107.531 23.6727C107.102 23.262 106.887 22.7487 106.887 22.1327C106.887 21.5167 107.102 21.0127 107.531 20.6207C107.979 20.21 108.539 20.0047 109.211 20.0047C109.902 20.0047 110.462 20.21 110.891 20.6207C111.339 21.0127 111.563 21.5167 111.563 22.1327C111.563 22.7487 111.339 23.262 110.891 23.6727C110.462 24.0647 109.902 24.2607 109.211 24.2607ZM114.907 40.3047V26.1927H118.239L118.547 28.0687C118.995 27.3967 119.583 26.8647 120.311 26.4727C121.057 26.062 121.907 25.8567 122.859 25.8567C123.568 25.8567 124.203 25.95 124.763 26.1367C125.323 26.3234 125.817 26.594 126.247 26.9487C126.695 27.3034 127.059 27.7514 127.339 28.2927C127.861 27.5274 128.543 26.93 129.383 26.5007C130.223 26.0714 131.137 25.8567 132.127 25.8567C133.359 25.8567 134.385 26.1087 135.207 26.6127C136.028 27.098 136.644 27.8074 137.055 28.7407C137.484 29.674 137.699 30.822 137.699 32.1847V40.3047H133.947V32.5207C133.947 31.4007 133.723 30.542 133.275 29.9447C132.845 29.3474 132.173 29.0487 131.259 29.0487C130.661 29.0487 130.129 29.198 129.663 29.4967C129.196 29.7954 128.832 30.2247 128.571 30.7847C128.328 31.3447 128.207 32.0167 128.207 32.8007V40.3047H124.427V32.5207C124.427 31.4007 124.203 30.542 123.755 29.9447C123.307 29.3474 122.616 29.0487 121.683 29.0487C121.104 29.0487 120.581 29.198 120.115 29.4967C119.667 29.7954 119.312 30.2247 119.051 30.7847C118.808 31.3447 118.687 32.0167 118.687 32.8007V40.3047H114.907ZM148.042 40.6407C146.623 40.6407 145.363 40.342 144.262 39.7447C143.179 39.1287 142.33 38.2794 141.714 37.1967C141.117 36.0954 140.818 34.826 140.818 33.3887C140.818 31.914 141.117 30.6167 141.714 29.4967C142.311 28.358 143.151 27.4714 144.234 26.8367C145.335 26.1834 146.605 25.8567 148.042 25.8567C149.442 25.8567 150.665 26.1647 151.71 26.7807C152.755 27.3967 153.567 28.2274 154.146 29.2727C154.725 30.318 155.014 31.5034 155.014 32.8287C155.014 33.0154 155.014 33.23 155.014 33.4727C155.014 33.6967 154.995 33.93 154.958 34.1727H143.506V31.8767H151.206C151.15 30.962 150.823 30.2434 150.226 29.7207C149.647 29.198 148.919 28.9367 148.042 28.9367C147.407 28.9367 146.819 29.086 146.278 29.3847C145.737 29.6647 145.307 30.1034 144.99 30.7007C144.691 31.298 144.542 32.054 144.542 32.9687V33.7807C144.542 34.546 144.682 35.218 144.962 35.7967C145.261 36.3567 145.671 36.7954 146.194 37.1127C146.717 37.4114 147.323 37.5607 148.014 37.5607C148.705 37.5607 149.274 37.4114 149.722 37.1127C150.189 36.814 150.534 36.4314 150.758 35.9647H154.622C154.361 36.842 153.922 37.6354 153.306 38.3447C152.69 39.054 151.934 39.614 151.038 40.0247C150.142 40.4354 149.143 40.6407 148.042 40.6407ZM173.576 40.6407C171.616 40.6407 169.926 40.2207 168.508 39.3807C167.108 38.522 166.025 37.3367 165.26 35.8247C164.513 34.294 164.14 32.53 164.14 30.5327C164.14 28.5354 164.513 26.7714 165.26 25.2407C166.025 23.71 167.108 22.5154 168.508 21.6567C169.926 20.798 171.616 20.3687 173.576 20.3687C175.946 20.3687 177.888 20.9567 179.4 22.1327C180.912 23.3087 181.854 24.97 182.228 27.1167H178.112C177.869 26.0714 177.356 25.2594 176.572 24.6807C175.806 24.0834 174.798 23.7847 173.548 23.7847C172.39 23.7847 171.392 24.0647 170.552 24.6247C169.73 25.166 169.096 25.9407 168.648 26.9487C168.2 27.938 167.976 29.1327 167.976 30.5327C167.976 31.914 168.2 33.1087 168.648 34.1167C169.096 35.1247 169.73 35.8994 170.552 36.4407C171.392 36.982 172.39 37.2527 173.548 37.2527C174.798 37.2527 175.806 36.982 176.572 36.4407C177.337 35.8807 177.841 35.106 178.084 34.1167H182.228C181.854 36.1514 180.912 37.7474 179.4 38.9047C177.888 40.062 175.946 40.6407 173.576 40.6407ZM190.131 40.6407C188.955 40.6407 187.985 40.454 187.219 40.0807C186.454 39.6887 185.885 39.1754 185.511 38.5407C185.157 37.8874 184.979 37.1687 184.979 36.3847C184.979 35.526 185.194 34.77 185.623 34.1167C186.071 33.4634 186.734 32.95 187.611 32.5767C188.507 32.2034 189.627 32.0167 190.971 32.0167H194.471C194.471 31.326 194.378 30.7567 194.191 30.3087C194.005 29.842 193.715 29.4967 193.323 29.2727C192.931 29.0487 192.409 28.9367 191.755 28.9367C191.046 28.9367 190.439 29.0954 189.935 29.4127C189.45 29.7114 189.151 30.178 189.039 30.8127H185.371C185.465 29.8047 185.791 28.9367 186.351 28.2087C186.93 27.462 187.686 26.8834 188.619 26.4727C189.571 26.062 190.626 25.8567 191.783 25.8567C193.109 25.8567 194.257 26.0807 195.227 26.5287C196.198 26.9767 196.945 27.6207 197.467 28.4607C197.99 29.3007 198.251 30.3367 198.251 31.5687V40.3047H195.059L194.639 38.1487C194.434 38.522 194.191 38.858 193.911 39.1567C193.631 39.4554 193.305 39.7167 192.931 39.9407C192.558 40.1647 192.138 40.3327 191.671 40.4447C191.205 40.5754 190.691 40.6407 190.131 40.6407ZM191.027 37.7287C191.513 37.7287 191.942 37.6447 192.315 37.4767C192.707 37.29 193.043 37.0474 193.323 36.7487C193.603 36.4314 193.818 36.0767 193.967 35.6847C194.135 35.274 194.247 34.8354 194.303 34.3687V34.3407H191.419C190.841 34.3407 190.365 34.4154 189.991 34.5647C189.637 34.6954 189.375 34.8914 189.207 35.1527C189.039 35.414 188.955 35.7127 188.955 36.0487C188.955 36.422 189.039 36.73 189.207 36.9727C189.375 37.2154 189.618 37.402 189.935 37.5327C190.253 37.6634 190.617 37.7287 191.027 37.7287ZM201.778 46.4647V26.1927H205.138L205.558 28.1527C205.856 27.742 206.211 27.3687 206.622 27.0327C207.032 26.678 207.518 26.398 208.078 26.1927C208.656 25.9687 209.328 25.8567 210.094 25.8567C211.419 25.8567 212.586 26.1834 213.594 26.8367C214.602 27.49 215.395 28.3767 215.974 29.4967C216.571 30.598 216.87 31.858 216.87 33.2767C216.87 34.6954 216.571 35.9647 215.974 37.0847C215.376 38.186 214.574 39.054 213.566 39.6887C212.558 40.3234 211.41 40.6407 210.122 40.6407C209.076 40.6407 208.171 40.454 207.406 40.0807C206.659 39.6887 206.043 39.1567 205.558 38.4847V46.4647H201.778ZM209.226 37.3367C209.972 37.3367 210.626 37.1687 211.186 36.8327C211.764 36.4967 212.212 36.0207 212.53 35.4047C212.847 34.7887 213.006 34.0794 213.006 33.2767C213.006 32.474 212.847 31.7647 212.53 31.1487C212.212 30.514 211.764 30.0287 211.186 29.6927C210.626 29.338 209.972 29.1607 209.226 29.1607C208.498 29.1607 207.844 29.338 207.266 29.6927C206.706 30.0287 206.258 30.5047 205.922 31.1207C205.604 31.7367 205.446 32.446 205.446 33.2487C205.446 34.0514 205.604 34.77 205.922 35.4047C206.258 36.0207 206.706 36.4967 207.266 36.8327C207.844 37.1687 208.498 37.3367 209.226 37.3367ZM220.209 40.3047V26.1927H223.989V40.3047H220.209ZM222.113 24.2607C221.441 24.2607 220.881 24.0647 220.433 23.6727C220.004 23.262 219.789 22.7487 219.789 22.1327C219.789 21.5167 220.004 21.0127 220.433 20.6207C220.881 20.21 221.441 20.0047 222.113 20.0047C222.804 20.0047 223.364 20.21 223.793 20.6207C224.241 21.0127 224.465 21.5167 224.465 22.1327C224.465 22.7487 224.241 23.262 223.793 23.6727C223.364 24.0647 222.804 24.2607 222.113 24.2607ZM234.165 40.3047C233.176 40.3047 232.308 40.1554 231.561 39.8567C230.833 39.5394 230.264 39.026 229.853 38.3167C229.442 37.5887 229.237 36.5994 229.237 35.3487V29.3567H226.829V26.1927H229.237L229.657 22.3567H233.017V26.1927H236.741V29.3567H233.017V35.4047C233.017 36.0394 233.157 36.478 233.437 36.7207C233.717 36.9634 234.193 37.0847 234.865 37.0847H236.713V40.3047H234.165ZM244.682 40.6407C243.506 40.6407 242.536 40.454 241.77 40.0807C241.005 39.6887 240.436 39.1754 240.062 38.5407C239.708 37.8874 239.53 37.1687 239.53 36.3847C239.53 35.526 239.745 34.77 240.174 34.1167C240.622 33.4634 241.285 32.95 242.162 32.5767C243.058 32.2034 244.178 32.0167 245.522 32.0167H249.022C249.022 31.326 248.929 30.7567 248.742 30.3087C248.556 29.842 248.266 29.4967 247.874 29.2727C247.482 29.0487 246.96 28.9367 246.306 28.9367C245.597 28.9367 244.99 29.0954 244.486 29.4127C244.001 29.7114 243.702 30.178 243.59 30.8127H239.922C240.016 29.8047 240.342 28.9367 240.902 28.2087C241.481 27.462 242.237 26.8834 243.17 26.4727C244.122 26.062 245.177 25.8567 246.334 25.8567C247.66 25.8567 248.808 26.0807 249.778 26.5287C250.749 26.9767 251.496 27.6207 252.018 28.4607C252.541 29.3007 252.802 30.3367 252.802 31.5687V40.3047H249.61L249.19 38.1487C248.985 38.522 248.742 38.858 248.462 39.1567C248.182 39.4554 247.856 39.7167 247.482 39.9407C247.109 40.1647 246.689 40.3327 246.222 40.4447C245.756 40.5754 245.242 40.6407 244.682 40.6407ZM245.578 37.7287C246.064 37.7287 246.493 37.6447 246.866 37.4767C247.258 37.29 247.594 37.0474 247.874 36.7487C248.154 36.4314 248.369 36.0767 248.518 35.6847C248.686 35.274 248.798 34.8354 248.854 34.3687V34.3407H245.97C245.392 34.3407 244.916 34.4154 244.542 34.5647C244.188 34.6954 243.926 34.8914 243.758 35.1527C243.59 35.414 243.506 35.7127 243.506 36.0487C243.506 36.422 243.59 36.73 243.758 36.9727C243.926 37.2154 244.169 37.402 244.486 37.5327C244.804 37.6634 245.168 37.7287 245.578 37.7287ZM256.328 40.3047V20.1447H260.108V40.3047H256.328Z" fill="#040303"/>
<path fill-rule="evenodd" clip-rule="evenodd" d="M13.5021 6.37583C11.354 7.87788 9.41147 9.65378 7.7252 11.6529C14.616 11.0132 23.3706 12.0578 33.5346 17.1398C44.3883 22.5665 53.1283 22.75 59.2109 21.5768C58.6589 19.9057 57.964 18.2997 57.1411 16.773C50.1781 17.5074 41.2517 16.5353 30.8487 11.334C24.2427 8.03096 18.4196 6.67034 13.5021 6.37583ZM53.0736 10.9836C47.575 4.83999 39.5841 0.973633 30.6901 0.973633C28.0783 0.973633 25.544 1.30713 23.1281 1.93381C26.4002 2.82661 29.8762 4.13277 33.5346 5.96202C41.1511 9.77022 47.7268 10.9964 53.0736 10.9836ZM60.5113 27.4422C53.163 28.8933 43.0157 28.5952 30.8487 22.5117C19.4739 16.8244 10.4206 16.896 4.31466 18.2529C3.9995 18.3229 3.69175 18.3964 3.39143 18.473C2.59202 20.2116 1.9539 22.0398 1.49605 23.9383C1.98506 23.8077 2.49038 23.6835 3.01175 23.5676C10.4193 21.9215 20.8855 21.993 33.5346 28.3176C44.9095 34.005 53.9628 33.9334 60.0688 32.5765C60.278 32.5301 60.4841 32.482 60.6868 32.4325C60.7091 31.959 60.7202 31.4826 60.7202 31.0036C60.7202 29.7987 60.6493 28.6102 60.5113 27.4422ZM59.7064 38.7699C52.4293 40.0421 42.5775 39.5538 30.8487 33.6895C19.4739 28.0021 10.4206 28.0738 4.31466 29.4307C2.95933 29.7317 1.7401 30.0985 0.664556 30.4858C0.661623 30.658 0.660156 30.8307 0.660156 31.0036C0.660156 47.5888 14.105 61.0337 30.6901 61.0337C44.5897 61.0337 56.2837 51.5906 59.7064 38.7699Z" fill="#004050"/>
</svg>
