<?xml version="1.0" encoding="utf-8"?>
<!-- Generator: Adobe Illustrator 27.3.1, SVG Export Plug-In . SVG Version: 6.00 Build 0)  -->
<svg version="1.1" id="c" xmlns="http://www.w3.org/2000/svg" xmlns:xlink="http://www.w3.org/1999/xlink" x="0px" y="0px"
	 viewBox="0 0 80 51.3" style="enable-background:new 0 0 80 51.3;" xml:space="preserve">
<style type="text/css">
	.st0{fill:#046489;}
	.st1{fill:#1B99C1;}
</style>
<path class="st0" d="M40.1,9c6.6,0,12.1,5.4,12.1,12.1c0,3.5-2,7.8-5.4,10l-1.7,1.1l1.9,0.7c7.5,2.8,12.6,9.8,13,17.6h-1.5
	c-0.5-9.7-8.6-17.4-18.4-17.4s-17.9,7.7-18.4,17.4h-1.5c0.4-7.9,5.5-14.9,13-17.6l1.9-0.7l-1.7-1.1c-3.4-2.2-5.4-6-5.4-10
	C28,14.5,33.4,9,40.1,9 M40.1,31.6c5.8,0,10.6-4.8,10.6-10.6s-4.8-10.6-10.6-10.6S29.5,15.2,29.5,21S34.3,31.6,40.1,31.6"/>
<path class="st1" d="M22.7,0.3c3.1,0,6,1.2,8.3,3.3c0.5,0.5,1,1.1,1.4,1.6c-0.4,0.2-0.9,0.4-1.3,0.7c-0.6-0.8-1.2-1.4-2-2
	c-1.9-1.4-4.1-2.2-6.4-2.2c-5.8,0-10.6,4.8-10.6,10.6s3.2,8.9,7.7,10.2c0.9,0.3,1.9,0.4,2.8,0.4c0,0.5,0.1,1,0.2,1.5
	c0,0-0.1,0-0.2,0c-0.7,0-1.4,0-2.2,0.1c-8.9,1.1-15.7,8.4-16.2,17.3H2.7c0.4-7.9,5.5-14.9,13-17.6l1.9-0.7l-1.7-1.1
	c-3.4-2.2-5.4-6-5.4-10C10.6,5.7,16,0.3,22.7,0.3"/>
<path class="st1" d="M57.1,0.3c6.7,0,12.1,5.4,12.2,12.1c0,4-2,7.8-5.4,10l-1.7,1.1l1.9,0.7c7.5,2.7,12.6,9.7,13,17.6h-1.5
	c-0.5-8.9-7.3-16.2-16.2-17.3c-0.8-0.1-1.5-0.1-2.2-0.1c-0.1,0-0.2,0-0.2,0c0.1-0.5,0.2-1,0.2-1.5c0.9,0,1.9-0.1,2.8-0.4
	c4.5-1.3,7.7-4.4,7.7-10.2S62.9,1.7,57.1,1.7c-2.3,0-4.5,0.8-6.4,2.2c-0.8,0.6-1.4,1.2-2,2c-0.4-0.3-0.9-0.5-1.3-0.7
	c0.4-0.5,0.9-1.1,1.4-1.6C51.1,1.5,54,0.3,57.1,0.3"/>
</svg>
