<svg width="273" height="60" viewBox="0 0 273 60" fill="none" xmlns="http://www.w3.org/2000/svg">
<path d="M76.4676 40.0039L83.6356 20.4039H87.9196L95.0596 40.0039H91.0556L85.7636 24.7159L80.4436 40.0039H76.4676ZM79.6316 35.5519L80.6396 32.6119H90.6076L91.5876 35.5519H79.6316ZM97.5511 46.1639V25.8919H100.911L101.331 27.8519C101.63 27.4412 101.984 27.0679 102.395 26.7319C102.806 26.3772 103.291 26.0972 103.851 25.8919C104.43 25.6679 105.102 25.5559 105.867 25.5559C107.192 25.5559 108.359 25.8826 109.367 26.5359C110.375 27.1892 111.168 28.0759 111.747 29.1959C112.344 30.2972 112.643 31.5572 112.643 32.9759C112.643 34.3946 112.344 35.6639 111.747 36.7839C111.15 37.8852 110.347 38.7532 109.339 39.3879C108.331 40.0226 107.183 40.3399 105.895 40.3399C104.85 40.3399 103.944 40.1532 103.179 39.7799C102.432 39.3879 101.816 38.8559 101.331 38.1839V46.1639H97.5511ZM104.999 37.0359C105.746 37.0359 106.399 36.8679 106.959 36.5319C107.538 36.1959 107.986 35.7199 108.303 35.1039C108.62 34.4879 108.779 33.7786 108.779 32.9759C108.779 32.1732 108.62 31.4639 108.303 30.8479C107.986 30.2132 107.538 29.7279 106.959 29.3919C106.399 29.0372 105.746 28.8599 104.999 28.8599C104.271 28.8599 103.618 29.0372 103.039 29.3919C102.479 29.7279 102.031 30.2039 101.695 30.8199C101.378 31.4359 101.219 32.1452 101.219 32.9479C101.219 33.7506 101.378 34.4692 101.695 35.1039C102.031 35.7199 102.479 36.1959 103.039 36.5319C103.618 36.8679 104.271 37.0359 104.999 37.0359ZM122.675 40.3399C121.256 40.3399 119.996 40.0412 118.895 39.4439C117.812 38.8279 116.963 37.9786 116.347 36.8959C115.749 35.7946 115.451 34.5252 115.451 33.0879C115.451 31.6132 115.749 30.3159 116.347 29.1959C116.944 28.0572 117.784 27.1706 118.867 26.5359C119.968 25.8826 121.237 25.5559 122.675 25.5559C124.075 25.5559 125.297 25.8639 126.343 26.4799C127.388 27.0959 128.2 27.9266 128.779 28.9719C129.357 30.0172 129.647 31.2026 129.647 32.5279C129.647 32.7146 129.647 32.9292 129.647 33.1719C129.647 33.3959 129.628 33.6292 129.591 33.8719H118.139V31.5759H125.839C125.783 30.6612 125.456 29.9426 124.859 29.4199C124.28 28.8972 123.552 28.6359 122.675 28.6359C122.04 28.6359 121.452 28.7852 120.911 29.0839C120.369 29.3639 119.94 29.8026 119.623 30.3999C119.324 30.9972 119.175 31.7532 119.175 32.6679V33.4799C119.175 34.2452 119.315 34.9172 119.595 35.4959C119.893 36.0559 120.304 36.4946 120.827 36.8119C121.349 37.1106 121.956 37.2599 122.647 37.2599C123.337 37.2599 123.907 37.1106 124.355 36.8119C124.821 36.5132 125.167 36.1306 125.391 35.6639H129.255C128.993 36.5412 128.555 37.3346 127.939 38.0439C127.323 38.7532 126.567 39.3132 125.671 39.7239C124.775 40.1346 123.776 40.3399 122.675 40.3399ZM130.442 40.0039L135.51 32.9479L130.442 25.8919H134.53L137.918 30.7359L141.306 25.8919H145.366L140.298 32.9479L145.366 40.0039H141.306L137.918 35.1319L134.53 40.0039H130.442ZM153.112 40.0039L160.28 20.4039H164.564L171.704 40.0039H167.7L162.408 24.7159L157.088 40.0039H153.112ZM156.276 35.5519L157.284 32.6119H167.252L168.232 35.5519H156.276ZM179.811 40.3399C178.523 40.3399 177.366 40.0226 176.339 39.3879C175.331 38.7532 174.538 37.8759 173.959 36.7559C173.381 35.6359 173.091 34.3759 173.091 32.9759C173.091 31.5386 173.381 30.2692 173.959 29.1679C174.557 28.0479 175.369 27.1706 176.395 26.5359C177.441 25.8826 178.607 25.5559 179.895 25.5559C180.903 25.5559 181.79 25.7426 182.555 26.1159C183.321 26.4892 183.937 27.0212 184.403 27.7119V19.8439H188.183V40.0039H184.823L184.403 38.0719C184.123 38.4639 183.769 38.8372 183.339 39.1919C182.929 39.5466 182.434 39.8266 181.855 40.0319C181.277 40.2372 180.595 40.3399 179.811 40.3399ZM180.707 37.0359C181.454 37.0359 182.107 36.8679 182.667 36.5319C183.246 36.1772 183.694 35.6919 184.011 35.0759C184.329 34.4599 184.487 33.7506 184.487 32.9479C184.487 32.1452 184.329 31.4359 184.011 30.8199C183.694 30.2039 183.246 29.7279 182.667 29.3919C182.107 29.0372 181.454 28.8599 180.707 28.8599C179.998 28.8599 179.354 29.0372 178.775 29.3919C178.197 29.7279 177.739 30.2039 177.403 30.8199C177.086 31.4359 176.927 32.1359 176.927 32.9199C176.927 33.7412 177.086 34.4599 177.403 35.0759C177.739 35.6919 178.187 36.1772 178.747 36.5319C179.326 36.8679 179.979 37.0359 180.707 37.0359ZM195.667 40.0039L190.487 25.8919H194.463L197.963 36.4479L201.463 25.8919H205.411L200.259 40.0039H195.667ZM207.803 40.0039V25.8919H211.583V40.0039H207.803ZM209.707 23.9599C209.035 23.9599 208.475 23.7639 208.027 23.3719C207.598 22.9612 207.383 22.4479 207.383 21.8319C207.383 21.2159 207.598 20.7119 208.027 20.3199C208.475 19.9092 209.035 19.7039 209.707 19.7039C210.398 19.7039 210.958 19.9092 211.387 20.3199C211.835 20.7119 212.059 21.2159 212.059 21.8319C212.059 22.4479 211.835 22.9612 211.387 23.3719C210.958 23.7639 210.398 23.9599 209.707 23.9599ZM221.171 40.3399C219.883 40.3399 218.763 40.1346 217.811 39.7239C216.859 39.3132 216.112 38.7439 215.571 38.0159C215.029 37.2879 214.721 36.4666 214.647 35.5519H218.399C218.492 35.9066 218.651 36.2332 218.875 36.5319C219.099 36.8119 219.397 37.0359 219.771 37.2039C220.144 37.3719 220.592 37.4559 221.115 37.4559C221.619 37.4559 222.029 37.3906 222.347 37.2599C222.664 37.1106 222.897 36.9146 223.047 36.6719C223.215 36.4292 223.299 36.1772 223.299 35.9159C223.299 35.5239 223.187 35.2252 222.963 35.0199C222.739 34.7959 222.412 34.6186 221.983 34.4879C221.553 34.3572 221.031 34.2266 220.415 34.0959C219.743 33.9652 219.08 33.8066 218.427 33.6199C217.792 33.4146 217.223 33.1626 216.719 32.8639C216.215 32.5652 215.813 32.1826 215.515 31.7159C215.216 31.2492 215.067 30.6706 215.067 29.9799C215.067 29.1399 215.291 28.3932 215.739 27.7399C216.187 27.0679 216.84 26.5359 217.699 26.1439C218.557 25.7519 219.593 25.5559 220.807 25.5559C222.505 25.5559 223.849 25.9386 224.839 26.7039C225.828 27.4692 226.416 28.5239 226.603 29.8679H223.047C222.935 29.4386 222.683 29.1026 222.291 28.8599C221.917 28.5986 221.413 28.4679 220.779 28.4679C220.107 28.4679 219.593 28.5892 219.239 28.8319C218.884 29.0746 218.707 29.3919 218.707 29.7839C218.707 30.0452 218.819 30.2786 219.043 30.4839C219.285 30.6892 219.621 30.8666 220.051 31.0159C220.48 31.1466 221.003 31.2772 221.619 31.4079C222.701 31.6319 223.653 31.8932 224.475 32.1919C225.296 32.4719 225.94 32.8826 226.407 33.4239C226.873 33.9466 227.107 34.7119 227.107 35.7199C227.107 36.6159 226.864 37.4186 226.379 38.1279C225.893 38.8186 225.203 39.3599 224.307 39.7519C223.429 40.1439 222.384 40.3399 221.171 40.3399ZM236.969 40.3399C235.625 40.3399 234.412 40.0319 233.329 39.4159C232.265 38.7812 231.416 37.9132 230.781 36.8119C230.165 35.6919 229.857 34.4132 229.857 32.9759C229.857 31.5012 230.165 30.2132 230.781 29.1119C231.416 27.9919 232.274 27.1239 233.357 26.5079C234.44 25.8732 235.653 25.5559 236.997 25.5559C238.36 25.5559 239.573 25.8732 240.637 26.5079C241.72 27.1239 242.569 27.9919 243.185 29.1119C243.82 30.2132 244.137 31.4919 244.137 32.9479C244.137 34.4039 243.82 35.6919 243.185 36.8119C242.569 37.9132 241.72 38.7812 240.637 39.4159C239.554 40.0319 238.332 40.3399 236.969 40.3399ZM236.969 37.0639C237.604 37.0639 238.164 36.9146 238.649 36.6159C239.153 36.3172 239.545 35.8599 239.825 35.2439C240.124 34.6279 240.273 33.8626 240.273 32.9479C240.273 32.0332 240.124 31.2772 239.825 30.6799C239.545 30.0639 239.153 29.6066 238.649 29.3079C238.164 28.9906 237.613 28.8319 236.997 28.8319C236.4 28.8319 235.849 28.9906 235.345 29.3079C234.841 29.6066 234.44 30.0639 234.141 30.6799C233.861 31.2772 233.721 32.0332 233.721 32.9479C233.721 33.8626 233.861 34.6279 234.141 35.2439C234.44 35.8599 234.832 36.3172 235.317 36.6159C235.821 36.9146 236.372 37.0639 236.969 37.0639ZM247.395 40.0039V25.8919H250.755L251.119 28.4959C251.455 27.8799 251.875 27.3572 252.379 26.9279C252.902 26.4986 253.49 26.1626 254.143 25.9199C254.815 25.6772 255.552 25.5559 256.355 25.5559V29.5599H255.067C254.507 29.5599 253.984 29.6252 253.499 29.7559C253.032 29.8866 252.622 30.1012 252.267 30.3999C251.912 30.6799 251.642 31.0719 251.455 31.5759C251.268 32.0799 251.175 32.7146 251.175 33.4799V40.0039H247.395ZM264.62 40.3399C263.332 40.3399 262.212 40.1346 261.26 39.7239C260.308 39.3132 259.561 38.7439 259.02 38.0159C258.479 37.2879 258.171 36.4666 258.096 35.5519H261.848C261.941 35.9066 262.1 36.2332 262.324 36.5319C262.548 36.8119 262.847 37.0359 263.22 37.2039C263.593 37.3719 264.041 37.4559 264.564 37.4559C265.068 37.4559 265.479 37.3906 265.796 37.2599C266.113 37.1106 266.347 36.9146 266.496 36.6719C266.664 36.4292 266.748 36.1772 266.748 35.9159C266.748 35.5239 266.636 35.2252 266.412 35.0199C266.188 34.7959 265.861 34.6186 265.432 34.4879C265.003 34.3572 264.48 34.2266 263.864 34.0959C263.192 33.9652 262.529 33.8066 261.876 33.6199C261.241 33.4146 260.672 33.1626 260.168 32.8639C259.664 32.5652 259.263 32.1826 258.964 31.7159C258.665 31.2492 258.516 30.6706 258.516 29.9799C258.516 29.1399 258.74 28.3932 259.188 27.7399C259.636 27.0679 260.289 26.5359 261.148 26.1439C262.007 25.7519 263.043 25.5559 264.256 25.5559C265.955 25.5559 267.299 25.9386 268.288 26.7039C269.277 27.4692 269.865 28.5239 270.052 29.8679H266.496C266.384 29.4386 266.132 29.1026 265.74 28.8599C265.367 28.5986 264.863 28.4679 264.228 28.4679C263.556 28.4679 263.043 28.5892 262.688 28.8319C262.333 29.0746 262.156 29.3919 262.156 29.7839C262.156 30.0452 262.268 30.2786 262.492 30.4839C262.735 30.6892 263.071 30.8666 263.5 31.0159C263.929 31.1466 264.452 31.2772 265.068 31.4079C266.151 31.6319 267.103 31.8932 267.924 32.1919C268.745 32.4719 269.389 32.8826 269.856 33.4239C270.323 33.9466 270.556 34.7119 270.556 35.7199C270.556 36.6159 270.313 37.4186 269.828 38.1279C269.343 38.8186 268.652 39.3599 267.756 39.7519C266.879 40.1439 265.833 40.3399 264.62 40.3399Z" fill="#040303"/>
<path d="M37.7277 1.62907L31.8375 0.0507812L26.8738 18.5758L22.3924 1.85129L16.5021 3.42958L21.344 21.4992L9.28409 9.43938L4.97213 13.7513L18.2003 26.9796L1.72672 22.5655L0.148438 28.4557L18.1479 33.2786C17.9418 32.3898 17.8328 31.4636 17.8328 30.512C17.8328 23.7763 23.2931 18.316 30.0288 18.316C36.7646 18.316 42.2249 23.7763 42.2249 30.512C42.2249 31.4575 42.1173 32.3779 41.9137 33.2615L58.2719 37.6447L59.8501 31.7545L41.7791 26.9123L58.2538 22.4979L56.6754 16.6078L38.6052 21.4496L50.665 9.38987L46.353 5.07791L33.3084 18.1226L37.7277 1.62907Z" fill="#004050"/>
<path d="M41.9012 33.3311C41.3962 35.4661 40.3301 37.3841 38.8672 38.9208L50.7179 50.7717L55.0299 46.4597L41.9012 33.3311Z" fill="#004050"/>
<path d="M38.7466 39.0449C37.266 40.5571 35.3951 41.6855 33.2969 42.2671L37.6091 58.3606L43.4993 56.7822L38.7466 39.0449Z" fill="#004050"/>
<path d="M33.0754 42.3249C32.1019 42.5752 31.0816 42.7082 30.0301 42.7082C28.9036 42.7082 27.8127 42.5554 26.7771 42.2695L22.4609 58.3777L28.3511 59.9559L33.0754 42.3249Z" fill="#004050"/>
<path d="M26.57 42.2102C24.5039 41.5998 22.6661 40.4569 21.2158 38.9404L9.33594 50.8204L13.6479 55.1323L26.57 42.2102Z" fill="#004050"/>
<path d="M21.1156 38.835C19.6902 37.3089 18.6519 35.4165 18.1576 33.3145L1.74609 37.7119L3.32437 43.6021L21.1156 38.835Z" fill="#004050"/>
</svg>
