<svg width="281" height="62" viewBox="0 0 281 62" fill="none" xmlns="http://www.w3.org/2000/svg">
<path d="M78.5492 40.5049V20.9049H82.3292V37.5649H90.9252V40.5049H78.5492ZM100.198 40.8409C98.7796 40.8409 97.5196 40.5422 96.4182 39.9449C95.3356 39.3289 94.4862 38.4795 93.8702 37.3969C93.2729 36.2955 92.9742 35.0262 92.9742 33.5889C92.9742 32.1142 93.2729 30.8169 93.8702 29.6969C94.4676 28.5582 95.3076 27.6715 96.3902 27.0369C97.4916 26.3835 98.7609 26.0569 100.198 26.0569C101.598 26.0569 102.821 26.3649 103.866 26.9809C104.912 27.5969 105.724 28.4275 106.302 29.4729C106.881 30.5182 107.17 31.7035 107.17 33.0289C107.17 33.2155 107.17 33.4302 107.17 33.6729C107.17 33.8969 107.152 34.1302 107.114 34.3729H95.6622V32.0769H103.362C103.306 31.1622 102.98 30.4435 102.382 29.9209C101.804 29.3982 101.076 29.1369 100.198 29.1369C99.5636 29.1369 98.9756 29.2862 98.4342 29.5849C97.8929 29.8649 97.4636 30.3035 97.1462 30.9009C96.8476 31.4982 96.6982 32.2542 96.6982 33.1689V33.9809C96.6982 34.7462 96.8382 35.4182 97.1182 35.9969C97.4169 36.5569 97.8276 36.9955 98.3502 37.3129C98.8729 37.6115 99.4796 37.7609 100.17 37.7609C100.861 37.7609 101.43 37.6115 101.878 37.3129C102.345 37.0142 102.69 36.6315 102.914 36.1649H106.778C106.517 37.0422 106.078 37.8355 105.462 38.5449C104.846 39.2542 104.09 39.8142 103.194 40.2249C102.298 40.6355 101.3 40.8409 100.198 40.8409ZM115.987 47.0009C114.643 47.0009 113.467 46.8329 112.459 46.4969C111.451 46.1795 110.667 45.6849 110.107 45.0129C109.565 44.3595 109.295 43.5475 109.295 42.5769C109.295 41.9235 109.463 41.3075 109.799 40.7289C110.135 40.1502 110.62 39.6275 111.255 39.1609C111.908 38.6755 112.72 38.2649 113.691 37.9289L115.119 39.7769C114.26 40.0569 113.635 40.4022 113.243 40.8129C112.869 41.2422 112.683 41.6995 112.683 42.1849C112.683 42.6142 112.823 42.9782 113.103 43.2769C113.401 43.5755 113.793 43.7902 114.279 43.9209C114.783 44.0702 115.343 44.1449 115.959 44.1449C116.556 44.1449 117.069 44.0702 117.499 43.9209C117.947 43.7715 118.292 43.5475 118.535 43.2489C118.796 42.9689 118.927 42.6329 118.927 42.2409C118.927 41.7369 118.749 41.3262 118.395 41.0089C118.04 40.6915 117.331 40.4955 116.267 40.4209C115.315 40.3462 114.465 40.2435 113.719 40.1129C112.991 39.9635 112.347 39.7955 111.787 39.6089C111.227 39.4035 110.751 39.1795 110.359 38.9369C109.985 38.6942 109.677 38.4515 109.435 38.2089V37.5649L112.431 34.3449L115.147 35.2129L111.619 38.6849L112.683 36.8369C112.888 36.9489 113.084 37.0609 113.271 37.1729C113.476 37.2662 113.728 37.3595 114.027 37.4529C114.325 37.5275 114.717 37.6022 115.203 37.6769C115.688 37.7515 116.304 37.8169 117.051 37.8729C118.283 37.9849 119.291 38.2182 120.075 38.5729C120.877 38.9275 121.465 39.4035 121.839 40.0009C122.212 40.5795 122.399 41.2982 122.399 42.1569C122.399 42.9969 122.165 43.7809 121.699 44.5089C121.251 45.2555 120.551 45.8529 119.599 46.3009C118.647 46.7675 117.443 47.0009 115.987 47.0009ZM115.987 36.3329C114.811 36.3329 113.793 36.1089 112.935 35.6609C112.095 35.1942 111.441 34.5782 110.975 33.8129C110.527 33.0289 110.303 32.1609 110.303 31.2089C110.303 30.2569 110.527 29.3982 110.975 28.6329C111.441 27.8489 112.095 27.2235 112.935 26.7569C113.793 26.2902 114.811 26.0569 115.987 26.0569C117.181 26.0569 118.199 26.2902 119.039 26.7569C119.897 27.2235 120.551 27.8489 120.999 28.6329C121.447 29.3982 121.671 30.2569 121.671 31.2089C121.671 32.1609 121.447 33.0289 120.999 33.8129C120.551 34.5782 119.897 35.1942 119.039 35.6609C118.199 36.1089 117.181 36.3329 115.987 36.3329ZM115.987 33.4489C116.715 33.4489 117.303 33.2622 117.751 32.8889C118.199 32.5155 118.423 31.9649 118.423 31.2369C118.423 30.5089 118.199 29.9582 117.751 29.5849C117.303 29.1929 116.715 28.9969 115.987 28.9969C115.277 28.9969 114.689 29.1929 114.223 29.5849C113.775 29.9582 113.551 30.5089 113.551 31.2369C113.551 31.9649 113.775 32.5155 114.223 32.8889C114.689 33.2622 115.277 33.4489 115.987 33.4489ZM118.339 29.0809L117.723 26.3929H123.519V28.6329L118.339 29.0809ZM131.35 40.8409C130.174 40.8409 129.204 40.6542 128.438 40.2809C127.673 39.8889 127.104 39.3755 126.73 38.7409C126.376 38.0875 126.198 37.3689 126.198 36.5849C126.198 35.7262 126.413 34.9702 126.842 34.3169C127.29 33.6635 127.953 33.1502 128.83 32.7769C129.726 32.4035 130.846 32.2169 132.19 32.2169H135.69C135.69 31.5262 135.597 30.9569 135.41 30.5089C135.224 30.0422 134.934 29.6969 134.542 29.4729C134.15 29.2489 133.628 29.1369 132.974 29.1369C132.265 29.1369 131.658 29.2955 131.154 29.6129C130.669 29.9115 130.37 30.3782 130.258 31.0129H126.59C126.684 30.0049 127.01 29.1369 127.57 28.4089C128.149 27.6622 128.905 27.0835 129.838 26.6729C130.79 26.2622 131.845 26.0569 133.002 26.0569C134.328 26.0569 135.476 26.2809 136.446 26.7289C137.417 27.1769 138.164 27.8209 138.686 28.6609C139.209 29.5009 139.47 30.5369 139.47 31.7689V40.5049H136.278L135.858 38.3489C135.653 38.7222 135.41 39.0582 135.13 39.3569C134.85 39.6555 134.524 39.9169 134.15 40.1409C133.777 40.3649 133.357 40.5329 132.89 40.6449C132.424 40.7755 131.91 40.8409 131.35 40.8409ZM132.246 37.9289C132.732 37.9289 133.161 37.8449 133.534 37.6769C133.926 37.4902 134.262 37.2475 134.542 36.9489C134.822 36.6315 135.037 36.2769 135.186 35.8849C135.354 35.4742 135.466 35.0355 135.522 34.5689V34.5409H132.638C132.06 34.5409 131.584 34.6155 131.21 34.7649C130.856 34.8955 130.594 35.0915 130.426 35.3529C130.258 35.6142 130.174 35.9129 130.174 36.2489C130.174 36.6222 130.258 36.9302 130.426 37.1729C130.594 37.4155 130.837 37.6022 131.154 37.7329C131.472 37.8635 131.836 37.9289 132.246 37.9289ZM149.828 40.8409C148.41 40.8409 147.15 40.5235 146.048 39.8889C144.947 39.2542 144.088 38.3862 143.472 37.2849C142.856 36.1835 142.548 34.9235 142.548 33.5049C142.548 32.0489 142.856 30.7702 143.472 29.6689C144.088 28.5489 144.947 27.6715 146.048 27.0369C147.15 26.3835 148.41 26.0569 149.828 26.0569C151.639 26.0569 153.16 26.5329 154.392 27.4849C155.624 28.4369 156.408 29.7435 156.744 31.4049H152.74C152.572 30.7515 152.218 30.2382 151.676 29.8649C151.154 29.4915 150.528 29.3049 149.8 29.3049C149.147 29.3049 148.559 29.4729 148.036 29.8089C147.532 30.1262 147.131 30.6022 146.832 31.2369C146.552 31.8529 146.412 32.5902 146.412 33.4489C146.412 34.1022 146.496 34.6902 146.664 35.2129C146.832 35.7169 147.066 36.1555 147.364 36.5289C147.663 36.8835 148.018 37.1542 148.428 37.3409C148.858 37.5275 149.315 37.6209 149.8 37.6209C150.286 37.6209 150.724 37.5369 151.116 37.3689C151.527 37.2009 151.872 36.9675 152.152 36.6689C152.432 36.3515 152.628 35.9689 152.74 35.5209H156.744C156.408 37.1449 155.615 38.4422 154.364 39.4129C153.132 40.3649 151.62 40.8409 149.828 40.8409ZM161.796 46.6649L165.212 38.9369H164.372L158.716 26.3929H162.832L166.864 35.4929L170.504 26.3929H174.508L165.8 46.6649H161.796ZM192.369 40.8409C190.409 40.8409 188.719 40.4209 187.301 39.5809C185.901 38.7222 184.818 37.5369 184.053 36.0249C183.306 34.4942 182.933 32.7302 182.933 30.7329C182.933 28.7355 183.306 26.9715 184.053 25.4409C184.818 23.9102 185.901 22.7155 187.301 21.8569C188.719 20.9982 190.409 20.5689 192.369 20.5689C194.739 20.5689 196.681 21.1569 198.193 22.3329C199.705 23.5089 200.647 25.1702 201.021 27.3169H196.905C196.662 26.2715 196.149 25.4595 195.365 24.8809C194.599 24.2835 193.591 23.9849 192.341 23.9849C191.183 23.9849 190.185 24.2649 189.345 24.8249C188.523 25.3662 187.889 26.1409 187.441 27.1489C186.993 28.1382 186.769 29.3329 186.769 30.7329C186.769 32.1142 186.993 33.3089 187.441 34.3169C187.889 35.3249 188.523 36.0995 189.345 36.6409C190.185 37.1822 191.183 37.4529 192.341 37.4529C193.591 37.4529 194.599 37.1822 195.365 36.6409C196.13 36.0809 196.634 35.3062 196.877 34.3169H201.021C200.647 36.3515 199.705 37.9475 198.193 39.1049C196.681 40.2622 194.739 40.8409 192.369 40.8409ZM208.924 40.8409C207.748 40.8409 206.778 40.6542 206.012 40.2809C205.247 39.8889 204.678 39.3755 204.304 38.7409C203.95 38.0875 203.772 37.3689 203.772 36.5849C203.772 35.7262 203.987 34.9702 204.416 34.3169C204.864 33.6635 205.527 33.1502 206.404 32.7769C207.3 32.4035 208.42 32.2169 209.764 32.2169H213.264C213.264 31.5262 213.171 30.9569 212.984 30.5089C212.798 30.0422 212.508 29.6969 212.116 29.4729C211.724 29.2489 211.202 29.1369 210.548 29.1369C209.839 29.1369 209.232 29.2955 208.728 29.6129C208.243 29.9115 207.944 30.3782 207.832 31.0129H204.164C204.258 30.0049 204.584 29.1369 205.144 28.4089C205.723 27.6622 206.479 27.0835 207.412 26.6729C208.364 26.2622 209.419 26.0569 210.576 26.0569C211.902 26.0569 213.05 26.2809 214.02 26.7289C214.991 27.1769 215.738 27.8209 216.26 28.6609C216.783 29.5009 217.044 30.5369 217.044 31.7689V40.5049H213.852L213.432 38.3489C213.227 38.7222 212.984 39.0582 212.704 39.3569C212.424 39.6555 212.098 39.9169 211.724 40.1409C211.351 40.3649 210.931 40.5329 210.464 40.6449C209.998 40.7755 209.484 40.8409 208.924 40.8409ZM209.82 37.9289C210.306 37.9289 210.735 37.8449 211.108 37.6769C211.5 37.4902 211.836 37.2475 212.116 36.9489C212.396 36.6315 212.611 36.2769 212.76 35.8849C212.928 35.4742 213.04 35.0355 213.096 34.5689V34.5409H210.212C209.634 34.5409 209.158 34.6155 208.784 34.7649C208.43 34.8955 208.168 35.0915 208 35.3529C207.832 35.6142 207.748 35.9129 207.748 36.2489C207.748 36.6222 207.832 36.9302 208 37.1729C208.168 37.4155 208.411 37.6022 208.728 37.7329C209.046 37.8635 209.41 37.9289 209.82 37.9289ZM220.571 46.6649V26.3929H223.931L224.351 28.3529C224.649 27.9422 225.004 27.5689 225.415 27.2329C225.825 26.8782 226.311 26.5982 226.871 26.3929C227.449 26.1689 228.121 26.0569 228.887 26.0569C230.212 26.0569 231.379 26.3835 232.387 27.0369C233.395 27.6902 234.188 28.5769 234.767 29.6969C235.364 30.7982 235.663 32.0582 235.663 33.4769C235.663 34.8955 235.364 36.1649 234.767 37.2849C234.169 38.3862 233.367 39.2542 232.359 39.8889C231.351 40.5235 230.203 40.8409 228.915 40.8409C227.869 40.8409 226.964 40.6542 226.199 40.2809C225.452 39.8889 224.836 39.3569 224.351 38.6849V46.6649H220.571ZM228.019 37.5369C228.765 37.5369 229.419 37.3689 229.979 37.0329C230.557 36.6969 231.005 36.2209 231.323 35.6049C231.64 34.9889 231.799 34.2795 231.799 33.4769C231.799 32.6742 231.64 31.9649 231.323 31.3489C231.005 30.7142 230.557 30.2289 229.979 29.8929C229.419 29.5382 228.765 29.3609 228.019 29.3609C227.291 29.3609 226.637 29.5382 226.059 29.8929C225.499 30.2289 225.051 30.7049 224.715 31.3209C224.397 31.9369 224.239 32.6462 224.239 33.4489C224.239 34.2515 224.397 34.9702 224.715 35.6049C225.051 36.2209 225.499 36.6969 226.059 37.0329C226.637 37.3689 227.291 37.5369 228.019 37.5369ZM239.002 40.5049V26.3929H242.782V40.5049H239.002ZM240.906 24.4609C240.234 24.4609 239.674 24.2649 239.226 23.8729C238.797 23.4622 238.582 22.9489 238.582 22.3329C238.582 21.7169 238.797 21.2129 239.226 20.8209C239.674 20.4102 240.234 20.2049 240.906 20.2049C241.597 20.2049 242.157 20.4102 242.586 20.8209C243.034 21.2129 243.258 21.7169 243.258 22.3329C243.258 22.9489 243.034 23.4622 242.586 23.8729C242.157 24.2649 241.597 24.4609 240.906 24.4609ZM252.958 40.5049C251.969 40.5049 251.101 40.3555 250.354 40.0569C249.626 39.7395 249.057 39.2262 248.646 38.5169C248.235 37.7889 248.03 36.7995 248.03 35.5489V29.5569H245.622V26.3929H248.03L248.45 22.5569H251.81V26.3929H255.534V29.5569H251.81V35.6049C251.81 36.2395 251.95 36.6782 252.23 36.9209C252.51 37.1635 252.986 37.2849 253.658 37.2849H255.506V40.5049H252.958ZM263.475 40.8409C262.299 40.8409 261.329 40.6542 260.563 40.2809C259.798 39.8889 259.229 39.3755 258.855 38.7409C258.501 38.0875 258.323 37.3689 258.323 36.5849C258.323 35.7262 258.538 34.9702 258.967 34.3169C259.415 33.6635 260.078 33.1502 260.955 32.7769C261.851 32.4035 262.971 32.2169 264.315 32.2169H267.815C267.815 31.5262 267.722 30.9569 267.535 30.5089C267.349 30.0422 267.059 29.6969 266.667 29.4729C266.275 29.2489 265.753 29.1369 265.099 29.1369C264.39 29.1369 263.783 29.2955 263.279 29.6129C262.794 29.9115 262.495 30.3782 262.383 31.0129H258.715C258.809 30.0049 259.135 29.1369 259.695 28.4089C260.274 27.6622 261.03 27.0835 261.963 26.6729C262.915 26.2622 263.97 26.0569 265.127 26.0569C266.453 26.0569 267.601 26.2809 268.571 26.7289C269.542 27.1769 270.289 27.8209 270.811 28.6609C271.334 29.5009 271.595 30.5369 271.595 31.7689V40.5049H268.403L267.983 38.3489C267.778 38.7222 267.535 39.0582 267.255 39.3569C266.975 39.6555 266.649 39.9169 266.275 40.1409C265.902 40.3649 265.482 40.5329 265.015 40.6449C264.549 40.7755 264.035 40.8409 263.475 40.8409ZM264.371 37.9289C264.857 37.9289 265.286 37.8449 265.659 37.6769C266.051 37.4902 266.387 37.2475 266.667 36.9489C266.947 36.6315 267.162 36.2769 267.311 35.8849C267.479 35.4742 267.591 35.0355 267.647 34.5689V34.5409H264.763C264.185 34.5409 263.709 34.6155 263.335 34.7649C262.981 34.8955 262.719 35.0915 262.551 35.3529C262.383 35.6142 262.299 35.9129 262.299 36.2489C262.299 36.6222 262.383 36.9302 262.551 37.1729C262.719 37.4155 262.962 37.6022 263.279 37.7329C263.597 37.8635 263.961 37.9289 264.371 37.9289ZM275.121 40.5049V20.3449H278.901V40.5049H275.121Z" fill="#040303"/>
<path fill-rule="evenodd" clip-rule="evenodd" d="M13.0841 6.37681C10.936 7.87885 8.9935 9.65476 7.30724 11.6539C14.1981 11.0141 22.9526 12.0588 33.1166 17.1408C43.9704 22.5675 52.7103 22.751 58.7929 21.5777C58.2409 19.9067 57.5461 18.3007 56.7231 16.774C49.7602 17.5084 40.8337 16.5363 30.4307 11.3349C23.8247 8.03193 18.0016 6.67132 13.0841 6.37681ZM52.6557 10.9846C47.157 4.84097 39.1662 0.974609 30.2722 0.974609C27.6603 0.974609 25.1261 1.3081 22.7102 1.93479C25.9822 2.82759 29.4582 4.13375 33.1166 5.963C40.7331 9.7712 47.3088 10.9974 52.6557 10.9846ZM60.0934 27.4432C52.745 28.8943 42.5977 28.5962 30.4307 22.5127C19.056 16.8253 10.0026 16.897 3.89669 18.2539C3.58153 18.3238 3.27378 18.3974 2.97346 18.474C2.17405 20.2126 1.53593 22.0408 1.07808 23.9393C1.56709 23.8087 2.07241 23.6845 2.59378 23.5686C10.0013 21.9225 20.4675 21.9939 33.1166 28.3186C44.4915 34.006 53.5448 33.9343 59.6509 32.5774C59.86 32.531 60.0662 32.483 60.2689 32.4334C60.2911 31.96 60.3022 31.4836 60.3022 31.0046C60.3022 29.7997 60.2313 28.6112 60.0934 27.4432ZM59.2884 38.7708C52.0114 40.0431 42.1596 39.5548 30.4307 33.6905C19.056 28.0031 10.0026 28.0747 3.89669 29.4316C2.54136 29.7327 1.32213 30.0995 0.246587 30.4867C0.243654 30.659 0.242188 30.8316 0.242188 31.0046C0.242188 47.5898 13.6871 61.0347 30.2722 61.0347C44.1717 61.0347 55.8657 51.5916 59.2884 38.7708Z" fill="#004050"/>
</svg>
