<svg width="297" height="60" viewBox="0 0 297 60" fill="none" xmlns="http://www.w3.org/2000/svg">
<path d="M84.1253 40.2354C82.7066 40.2354 81.4373 39.9927 80.3173 39.5074C79.216 39.0221 78.3386 38.3127 77.6853 37.3794C77.0506 36.4461 76.724 35.3167 76.7053 33.9914H80.7093C80.728 34.5701 80.8773 35.0927 81.1573 35.5594C81.4373 36.0261 81.82 36.3994 82.3053 36.6794C82.8093 36.9407 83.4066 37.0714 84.0973 37.0714C84.6946 37.0714 85.208 36.9781 85.6373 36.7914C86.0853 36.5861 86.4306 36.3061 86.6733 35.9514C86.916 35.5967 87.0373 35.1767 87.0373 34.6914C87.0373 34.1314 86.8973 33.6647 86.6173 33.2914C86.356 32.9181 85.9826 32.6007 85.4973 32.3394C85.0306 32.0781 84.48 31.8447 83.8453 31.6394C83.2293 31.4154 82.576 31.1821 81.8853 30.9394C80.336 30.4354 79.1506 29.7634 78.3293 28.9234C77.5266 28.0834 77.1253 26.9727 77.1253 25.5914C77.1253 24.4154 77.4053 23.4074 77.9653 22.5674C78.544 21.7274 79.3373 21.0834 80.3453 20.6354C81.3533 20.1874 82.5013 19.9634 83.7893 19.9634C85.1146 19.9634 86.272 20.1967 87.2613 20.6634C88.2693 21.1114 89.0626 21.7647 89.6413 22.6234C90.2386 23.4821 90.5466 24.4901 90.5653 25.6474H86.5333C86.5146 25.2181 86.384 24.8167 86.1413 24.4434C85.9173 24.0514 85.6 23.7434 85.1893 23.5194C84.7786 23.2767 84.2933 23.1554 83.7333 23.1554C83.248 23.1367 82.8 23.2114 82.3893 23.3794C81.9973 23.5474 81.68 23.7994 81.4373 24.1354C81.2133 24.4527 81.1013 24.8541 81.1013 25.3394C81.1013 25.8061 81.2133 26.1981 81.4373 26.5154C81.68 26.8327 82.0066 27.1127 82.4173 27.3554C82.828 27.5794 83.3133 27.7941 83.8733 27.9994C84.4333 28.1861 85.04 28.3821 85.6933 28.5874C86.664 28.9234 87.56 29.3247 88.3813 29.7914C89.2026 30.2394 89.856 30.8274 90.3413 31.5554C90.8266 32.2834 91.0693 33.2447 91.0693 34.4394C91.0693 35.4661 90.7986 36.4181 90.2573 37.2954C89.716 38.1727 88.932 38.8821 87.9053 39.4234C86.8973 39.9647 85.6373 40.2354 84.1253 40.2354ZM99.4558 40.2354C98.3171 40.2354 97.3371 40.0021 96.5158 39.5354C95.7131 39.0501 95.0971 38.3501 94.6678 37.4354C94.2384 36.5021 94.0238 35.3541 94.0238 33.9914V25.7874H97.8038V33.5994C97.8038 34.7381 98.0371 35.5967 98.5038 36.1754C98.9891 36.7541 99.7264 37.0434 100.716 37.0434C101.35 37.0434 101.91 36.9034 102.396 36.6234C102.881 36.3247 103.264 35.9047 103.544 35.3634C103.842 34.8034 103.992 34.1221 103.992 33.3194V25.7874H107.744V39.8994H104.44L104.132 37.6034C103.721 38.4061 103.114 39.0501 102.312 39.5354C101.509 40.0021 100.557 40.2354 99.4558 40.2354ZM111.446 39.8994V25.7874H114.778L115.086 27.6634C115.534 26.9914 116.122 26.4594 116.85 26.0674C117.596 25.6567 118.446 25.4514 119.398 25.4514C120.107 25.4514 120.742 25.5447 121.302 25.7314C121.862 25.9181 122.356 26.1887 122.786 26.5434C123.234 26.8981 123.598 27.3461 123.878 27.8874C124.4 27.1221 125.082 26.5247 125.922 26.0954C126.762 25.6661 127.676 25.4514 128.666 25.4514C129.898 25.4514 130.924 25.7034 131.746 26.2074C132.567 26.6927 133.183 27.4021 133.594 28.3354C134.023 29.2687 134.238 30.4167 134.238 31.7794V39.8994H130.486V32.1154C130.486 30.9954 130.262 30.1367 129.814 29.5394C129.384 28.9421 128.712 28.6434 127.798 28.6434C127.2 28.6434 126.668 28.7927 126.202 29.0914C125.735 29.3901 125.371 29.8194 125.11 30.3794C124.867 30.9394 124.746 31.6114 124.746 32.3954V39.8994H120.966V32.1154C120.966 30.9954 120.742 30.1367 120.294 29.5394C119.846 28.9421 119.155 28.6434 118.222 28.6434C117.643 28.6434 117.12 28.7927 116.654 29.0914C116.206 29.3901 115.851 29.8194 115.59 30.3794C115.347 30.9394 115.226 31.6114 115.226 32.3954V39.8994H111.446ZM137.805 39.8994V25.7874H141.137L141.445 27.6634C141.893 26.9914 142.481 26.4594 143.209 26.0674C143.956 25.6567 144.805 25.4514 145.757 25.4514C146.466 25.4514 147.101 25.5447 147.661 25.7314C148.221 25.9181 148.716 26.1887 149.145 26.5434C149.593 26.8981 149.957 27.3461 150.237 27.8874C150.76 27.1221 151.441 26.5247 152.281 26.0954C153.121 25.6661 154.036 25.4514 155.025 25.4514C156.257 25.4514 157.284 25.7034 158.105 26.2074C158.926 26.6927 159.542 27.4021 159.953 28.3354C160.382 29.2687 160.597 30.4167 160.597 31.7794V39.8994H156.845V32.1154C156.845 30.9954 156.621 30.1367 156.173 29.5394C155.744 28.9421 155.072 28.6434 154.157 28.6434C153.56 28.6434 153.028 28.7927 152.561 29.0914C152.094 29.3901 151.73 29.8194 151.469 30.3794C151.226 30.9394 151.105 31.6114 151.105 32.3954V39.8994H147.325V32.1154C147.325 30.9954 147.101 30.1367 146.653 29.5394C146.205 28.9421 145.514 28.6434 144.581 28.6434C144.002 28.6434 143.48 28.7927 143.013 29.0914C142.565 29.3901 142.21 29.8194 141.949 30.3794C141.706 30.9394 141.585 31.6114 141.585 32.3954V39.8994H137.805ZM164.248 39.8994V25.7874H168.028V39.8994H164.248ZM166.152 23.8554C165.48 23.8554 164.92 23.6594 164.472 23.2674C164.043 22.8567 163.828 22.3434 163.828 21.7274C163.828 21.1114 164.043 20.6074 164.472 20.2154C164.92 19.8047 165.48 19.5994 166.152 19.5994C166.843 19.5994 167.403 19.8047 167.832 20.2154C168.28 20.6074 168.504 21.1114 168.504 21.7274C168.504 22.3434 168.28 22.8567 167.832 23.2674C167.403 23.6594 166.843 23.8554 166.152 23.8554ZM178.204 39.8994C177.215 39.8994 176.347 39.7501 175.6 39.4514C174.872 39.1341 174.303 38.6207 173.892 37.9114C173.481 37.1834 173.276 36.1941 173.276 34.9434V28.9514H170.868V25.7874H173.276L173.696 21.9514H177.056V25.7874H180.78V28.9514H177.056V34.9994C177.056 35.6341 177.196 36.0727 177.476 36.3154C177.756 36.5581 178.232 36.6794 178.904 36.6794H180.752V39.8994H178.204ZM190.635 39.8994V20.2994H203.403V23.3514H194.415V28.5874H201.611V31.5554H194.415V39.8994H190.635ZM206.194 39.8994V25.7874H209.974V39.8994H206.194ZM208.098 23.8554C207.426 23.8554 206.866 23.6594 206.418 23.2674C205.988 22.8567 205.774 22.3434 205.774 21.7274C205.774 21.1114 205.988 20.6074 206.418 20.2154C206.866 19.8047 207.426 19.5994 208.098 19.5994C208.788 19.5994 209.348 19.8047 209.778 20.2154C210.226 20.6074 210.45 21.1114 210.45 21.7274C210.45 22.3434 210.226 22.8567 209.778 23.2674C209.348 23.6594 208.788 23.8554 208.098 23.8554ZM213.793 39.8994V25.7874H217.125L217.405 28.0834C217.835 27.2994 218.441 26.6647 219.225 26.1794C220.028 25.6941 220.98 25.4514 222.081 25.4514C223.257 25.4514 224.247 25.6941 225.049 26.1794C225.852 26.6647 226.459 27.3741 226.869 28.3074C227.299 29.2407 227.513 30.3887 227.513 31.7514V39.8994H223.761V32.1154C223.761 30.9954 223.519 30.1367 223.033 29.5394C222.567 28.9421 221.839 28.6434 220.849 28.6434C220.215 28.6434 219.645 28.7927 219.141 29.0914C218.656 29.3901 218.273 29.8194 217.993 30.3794C217.713 30.9207 217.573 31.5834 217.573 32.3674V39.8994H213.793ZM235.835 40.2354C234.659 40.2354 233.688 40.0487 232.923 39.6754C232.157 39.2834 231.588 38.7701 231.215 38.1354C230.86 37.4821 230.683 36.7634 230.683 35.9794C230.683 35.1207 230.897 34.3647 231.327 33.7114C231.775 33.0581 232.437 32.5447 233.315 32.1714C234.211 31.7981 235.331 31.6114 236.675 31.6114H240.175C240.175 30.9207 240.081 30.3514 239.895 29.9034C239.708 29.4367 239.419 29.0914 239.027 28.8674C238.635 28.6434 238.112 28.5314 237.459 28.5314C236.749 28.5314 236.143 28.6901 235.639 29.0074C235.153 29.3061 234.855 29.7727 234.743 30.4074H231.075C231.168 29.3994 231.495 28.5314 232.055 27.8034C232.633 27.0567 233.389 26.4781 234.323 26.0674C235.275 25.6567 236.329 25.4514 237.487 25.4514C238.812 25.4514 239.96 25.6754 240.931 26.1234C241.901 26.5714 242.648 27.2154 243.171 28.0554C243.693 28.8954 243.955 29.9314 243.955 31.1634V39.8994H240.763L240.343 37.7434C240.137 38.1167 239.895 38.4527 239.615 38.7514C239.335 39.0501 239.008 39.3114 238.635 39.5354C238.261 39.7594 237.841 39.9274 237.375 40.0394C236.908 40.1701 236.395 40.2354 235.835 40.2354ZM236.731 37.3234C237.216 37.3234 237.645 37.2394 238.019 37.0714C238.411 36.8847 238.747 36.6421 239.027 36.3434C239.307 36.0261 239.521 35.6714 239.671 35.2794C239.839 34.8687 239.951 34.4301 240.007 33.9634V33.9354H237.123C236.544 33.9354 236.068 34.0101 235.695 34.1594C235.34 34.2901 235.079 34.4861 234.911 34.7474C234.743 35.0087 234.659 35.3074 234.659 35.6434C234.659 36.0167 234.743 36.3247 234.911 36.5674C235.079 36.8101 235.321 36.9967 235.639 37.1274C235.956 37.2581 236.32 37.3234 236.731 37.3234ZM247.481 39.8994V25.7874H250.813L251.093 28.0834C251.522 27.2994 252.129 26.6647 252.913 26.1794C253.715 25.6941 254.667 25.4514 255.769 25.4514C256.945 25.4514 257.934 25.6941 258.737 26.1794C259.539 26.6647 260.146 27.3741 260.557 28.3074C260.986 29.2407 261.201 30.3887 261.201 31.7514V39.8994H257.449V32.1154C257.449 30.9954 257.206 30.1367 256.721 29.5394C256.254 28.9421 255.526 28.6434 254.537 28.6434C253.902 28.6434 253.333 28.7927 252.829 29.0914C252.343 29.3901 251.961 29.8194 251.681 30.3794C251.401 30.9207 251.261 31.5834 251.261 32.3674V39.8994H247.481ZM271.594 40.2354C270.175 40.2354 268.915 39.9181 267.814 39.2834C266.713 38.6487 265.854 37.7807 265.238 36.6794C264.622 35.5781 264.314 34.3181 264.314 32.8994C264.314 31.4434 264.622 30.1647 265.238 29.0634C265.854 27.9434 266.713 27.0661 267.814 26.4314C268.915 25.7781 270.175 25.4514 271.594 25.4514C273.405 25.4514 274.926 25.9274 276.158 26.8794C277.39 27.8314 278.174 29.1381 278.51 30.7994H274.506C274.338 30.1461 273.983 29.6327 273.442 29.2594C272.919 28.8861 272.294 28.6994 271.566 28.6994C270.913 28.6994 270.325 28.8674 269.802 29.2034C269.298 29.5207 268.897 29.9967 268.598 30.6314C268.318 31.2474 268.178 31.9847 268.178 32.8434C268.178 33.4967 268.262 34.0847 268.43 34.6074C268.598 35.1114 268.831 35.5501 269.13 35.9234C269.429 36.2781 269.783 36.5487 270.194 36.7354C270.623 36.9221 271.081 37.0154 271.566 37.0154C272.051 37.0154 272.49 36.9314 272.882 36.7634C273.293 36.5954 273.638 36.3621 273.918 36.0634C274.198 35.7461 274.394 35.3634 274.506 34.9154H278.51C278.174 36.5394 277.381 37.8367 276.13 38.8074C274.898 39.7594 273.386 40.2354 271.594 40.2354ZM288.546 40.2354C287.127 40.2354 285.867 39.9367 284.766 39.3394C283.683 38.7234 282.834 37.8741 282.218 36.7914C281.621 35.6901 281.322 34.4207 281.322 32.9834C281.322 31.5087 281.621 30.2114 282.218 29.0914C282.815 27.9527 283.655 27.0661 284.738 26.4314C285.839 25.7781 287.109 25.4514 288.546 25.4514C289.946 25.4514 291.169 25.7594 292.214 26.3754C293.259 26.9914 294.071 27.8221 294.65 28.8674C295.229 29.9127 295.518 31.0981 295.518 32.4234C295.518 32.6101 295.518 32.8247 295.518 33.0674C295.518 33.2914 295.499 33.5247 295.462 33.7674H284.01V31.4714H291.71C291.654 30.5567 291.327 29.8381 290.73 29.3154C290.151 28.7927 289.423 28.5314 288.546 28.5314C287.911 28.5314 287.323 28.6807 286.782 28.9794C286.241 29.2594 285.811 29.6981 285.494 30.2954C285.195 30.8927 285.046 31.6487 285.046 32.5634V33.3754C285.046 34.1407 285.186 34.8127 285.466 35.3914C285.765 35.9514 286.175 36.3901 286.698 36.7074C287.221 37.0061 287.827 37.1554 288.518 37.1554C289.209 37.1554 289.778 37.0061 290.226 36.7074C290.693 36.4087 291.038 36.0261 291.262 35.5594H295.126C294.865 36.4367 294.426 37.2301 293.81 37.9394C293.194 38.6487 292.438 39.2087 291.542 39.6194C290.646 40.0301 289.647 40.2354 288.546 40.2354Z" fill="#040303"/>
<path fill-rule="evenodd" clip-rule="evenodd" d="M29.6696 59.5637C45.9952 59.5637 59.2298 46.3292 59.2298 30.0035C59.2298 13.6779 45.9952 0.443359 29.6696 0.443359C13.3439 0.443359 0.109375 13.6779 0.109375 30.0035C0.109375 46.3292 13.3439 59.5637 29.6696 59.5637ZM38.8913 14.2137C39.3402 12.6193 37.7929 11.6764 36.3798 12.6832L16.6529 26.7365C15.1204 27.8283 15.3614 30.0035 17.015 30.0035H22.2096V29.9633H32.3337L24.0845 32.8739L20.4478 45.7934C19.999 47.3878 21.5462 48.3307 22.9594 47.3239L42.6863 33.2706C44.2188 32.1788 43.9776 30.0035 42.3242 30.0035H34.4467L38.8913 14.2137Z" fill="#004050"/>
</svg>
