<svg width="270" height="60" viewBox="0 0 270 60" fill="none" xmlns="http://www.w3.org/2000/svg">
<path d="M83.2045 39.9004L76.0645 20.3004H80.0965L85.5285 36.0364L90.9885 20.3004H94.9925L87.8525 39.9004H83.2045ZM97.3461 39.9004V25.7884H101.126V39.9004H97.3461ZM99.2501 23.8564C98.5781 23.8564 98.0181 23.6604 97.5701 23.2684C97.1407 22.8577 96.9261 22.3444 96.9261 21.7284C96.9261 21.1124 97.1407 20.6084 97.5701 20.2164C98.0181 19.8057 98.5781 19.6004 99.2501 19.6004C99.9407 19.6004 100.501 19.8057 100.93 20.2164C101.378 20.6084 101.602 21.1124 101.602 21.7284C101.602 22.3444 101.378 22.8577 100.93 23.2684C100.501 23.6604 99.9407 23.8564 99.2501 23.8564ZM110.714 40.2364C109.426 40.2364 108.306 40.0311 107.354 39.6204C106.402 39.2097 105.655 38.6404 105.114 37.9124C104.572 37.1844 104.264 36.3631 104.19 35.4484H107.942C108.035 35.8031 108.194 36.1297 108.418 36.4284C108.642 36.7084 108.94 36.9324 109.314 37.1004C109.687 37.2684 110.135 37.3524 110.658 37.3524C111.162 37.3524 111.572 37.2871 111.89 37.1564C112.207 37.0071 112.44 36.8111 112.59 36.5684C112.758 36.3257 112.842 36.0737 112.842 35.8124C112.842 35.4204 112.73 35.1217 112.506 34.9164C112.282 34.6924 111.955 34.5151 111.526 34.3844C111.096 34.2537 110.574 34.1231 109.958 33.9924C109.286 33.8617 108.623 33.7031 107.97 33.5164C107.335 33.3111 106.766 33.0591 106.262 32.7604C105.758 32.4617 105.356 32.0791 105.058 31.6124C104.759 31.1457 104.61 30.5671 104.61 29.8764C104.61 29.0364 104.834 28.2897 105.282 27.6364C105.73 26.9644 106.383 26.4324 107.242 26.0404C108.1 25.6484 109.136 25.4524 110.35 25.4524C112.048 25.4524 113.392 25.8351 114.382 26.6004C115.371 27.3657 115.959 28.4204 116.146 29.7644H112.59C112.478 29.3351 112.226 28.9991 111.834 28.7564C111.46 28.4951 110.956 28.3644 110.322 28.3644C109.65 28.3644 109.136 28.4857 108.782 28.7284C108.427 28.9711 108.25 29.2884 108.25 29.6804C108.25 29.9417 108.362 30.1751 108.586 30.3804C108.828 30.5857 109.164 30.7631 109.594 30.9124C110.023 31.0431 110.546 31.1737 111.162 31.3044C112.244 31.5284 113.196 31.7897 114.018 32.0884C114.839 32.3684 115.483 32.7791 115.95 33.3204C116.416 33.8431 116.65 34.6084 116.65 35.6164C116.65 36.5124 116.407 37.3151 115.922 38.0244C115.436 38.7151 114.746 39.2564 113.85 39.6484C112.972 40.0404 111.927 40.2364 110.714 40.2364ZM125.794 39.9004C124.805 39.9004 123.937 39.7511 123.19 39.4524C122.462 39.1351 121.893 38.6217 121.482 37.9124C121.071 37.1844 120.866 36.1951 120.866 34.9444V28.9524H118.458V25.7884H120.866L121.286 21.9524H124.646V25.7884H128.37V28.9524H124.646V35.0004C124.646 35.6351 124.786 36.0737 125.066 36.3164C125.346 36.5591 125.822 36.6804 126.494 36.6804H128.342V39.9004H125.794ZM136.311 40.2364C135.135 40.2364 134.164 40.0497 133.399 39.6764C132.634 39.2844 132.064 38.7711 131.691 38.1364C131.336 37.4831 131.159 36.7644 131.159 35.9804C131.159 35.1217 131.374 34.3657 131.803 33.7124C132.251 33.0591 132.914 32.5457 133.791 32.1724C134.687 31.7991 135.807 31.6124 137.151 31.6124H140.651C140.651 30.9217 140.558 30.3524 140.371 29.9044C140.184 29.4377 139.895 29.0924 139.503 28.8684C139.111 28.6444 138.588 28.5324 137.935 28.5324C137.226 28.5324 136.619 28.6911 136.115 29.0084C135.63 29.3071 135.331 29.7737 135.219 30.4084H131.551C131.644 29.4004 131.971 28.5324 132.531 27.8044C133.11 27.0577 133.866 26.4791 134.799 26.0684C135.751 25.6577 136.806 25.4524 137.963 25.4524C139.288 25.4524 140.436 25.6764 141.407 26.1244C142.378 26.5724 143.124 27.2164 143.647 28.0564C144.17 28.8964 144.431 29.9324 144.431 31.1644V39.9004H141.239L140.819 37.7444C140.614 38.1177 140.371 38.4537 140.091 38.7524C139.811 39.0511 139.484 39.3124 139.111 39.5364C138.738 39.7604 138.318 39.9284 137.851 40.0404C137.384 40.1711 136.871 40.2364 136.311 40.2364ZM137.207 37.3244C137.692 37.3244 138.122 37.2404 138.495 37.0724C138.887 36.8857 139.223 36.6431 139.503 36.3444C139.783 36.0271 139.998 35.6724 140.147 35.2804C140.315 34.8697 140.427 34.4311 140.483 33.9644V33.9364H137.599C137.02 33.9364 136.544 34.0111 136.171 34.1604C135.816 34.2911 135.555 34.4871 135.387 34.7484C135.219 35.0097 135.135 35.3084 135.135 35.6444C135.135 36.0177 135.219 36.3257 135.387 36.5684C135.555 36.8111 135.798 36.9977 136.115 37.1284C136.432 37.2591 136.796 37.3244 137.207 37.3244ZM154.631 39.9004V20.3004H161.967C163.554 20.3004 164.87 20.5711 165.915 21.1124C166.961 21.6537 167.735 22.3817 168.239 23.2964C168.743 24.2111 168.995 25.2564 168.995 26.4324C168.995 27.5151 168.753 28.5137 168.267 29.4284C167.782 30.3431 167.017 31.0897 165.971 31.6684C164.926 32.2284 163.591 32.5084 161.967 32.5084H158.411V39.9004H154.631ZM158.411 29.4564H161.743C162.957 29.4564 163.825 29.1857 164.347 28.6444C164.889 28.0844 165.159 27.3471 165.159 26.4324C165.159 25.4617 164.889 24.7151 164.347 24.1924C163.825 23.6511 162.957 23.3804 161.743 23.3804H158.411V29.4564ZM175.577 40.2364C174.401 40.2364 173.43 40.0497 172.665 39.6764C171.899 39.2844 171.33 38.7711 170.957 38.1364C170.602 37.4831 170.425 36.7644 170.425 35.9804C170.425 35.1217 170.639 34.3657 171.069 33.7124C171.517 33.0591 172.179 32.5457 173.057 32.1724C173.953 31.7991 175.073 31.6124 176.417 31.6124H179.917C179.917 30.9217 179.823 30.3524 179.637 29.9044C179.45 29.4377 179.161 29.0924 178.769 28.8684C178.377 28.6444 177.854 28.5324 177.201 28.5324C176.491 28.5324 175.885 28.6911 175.381 29.0084C174.895 29.3071 174.597 29.7737 174.485 30.4084H170.817C170.91 29.4004 171.237 28.5324 171.797 27.8044C172.375 27.0577 173.131 26.4791 174.065 26.0684C175.017 25.6577 176.071 25.4524 177.229 25.4524C178.554 25.4524 179.702 25.6764 180.673 26.1244C181.643 26.5724 182.39 27.2164 182.913 28.0564C183.435 28.8964 183.697 29.9324 183.697 31.1644V39.9004H180.505L180.085 37.7444C179.879 38.1177 179.637 38.4537 179.357 38.7524C179.077 39.0511 178.75 39.3124 178.377 39.5364C178.003 39.7604 177.583 39.9284 177.117 40.0404C176.65 40.1711 176.137 40.2364 175.577 40.2364ZM176.473 37.3244C176.958 37.3244 177.387 37.2404 177.761 37.0724C178.153 36.8857 178.489 36.6431 178.769 36.3444C179.049 36.0271 179.263 35.6724 179.413 35.2804C179.581 34.8697 179.693 34.4311 179.749 33.9644V33.9364H176.865C176.286 33.9364 175.81 34.0111 175.437 34.1604C175.082 34.2911 174.821 34.4871 174.653 34.7484C174.485 35.0097 174.401 35.3084 174.401 35.6444C174.401 36.0177 174.485 36.3257 174.653 36.5684C174.821 36.8111 175.063 36.9977 175.381 37.1284C175.698 37.2591 176.062 37.3244 176.473 37.3244ZM187.223 39.9004V25.7884H190.583L190.947 28.3924C191.283 27.7764 191.703 27.2537 192.207 26.8244C192.73 26.3951 193.318 26.0591 193.971 25.8164C194.643 25.5737 195.38 25.4524 196.183 25.4524V29.4564H194.895C194.335 29.4564 193.812 29.5217 193.327 29.6524C192.86 29.7831 192.45 29.9977 192.095 30.2964C191.74 30.5764 191.47 30.9684 191.283 31.4724C191.096 31.9764 191.003 32.6111 191.003 33.3764V39.9004H187.223ZM205.036 39.9004C204.047 39.9004 203.179 39.7511 202.432 39.4524C201.704 39.1351 201.135 38.6217 200.724 37.9124C200.313 37.1844 200.108 36.1951 200.108 34.9444V28.9524H197.7V25.7884H200.108L200.528 21.9524H203.888V25.7884H207.612V28.9524H203.888V35.0004C203.888 35.6351 204.028 36.0737 204.308 36.3164C204.588 36.5591 205.064 36.6804 205.736 36.6804H207.584V39.9004H205.036ZM210.793 39.9004V25.7884H214.125L214.405 28.0844C214.835 27.3004 215.441 26.6657 216.225 26.1804C217.028 25.6951 217.98 25.4524 219.081 25.4524C220.257 25.4524 221.247 25.6951 222.049 26.1804C222.852 26.6657 223.459 27.3751 223.869 28.3084C224.299 29.2417 224.513 30.3897 224.513 31.7524V39.9004H220.761V32.1164C220.761 30.9964 220.519 30.1377 220.033 29.5404C219.567 28.9431 218.839 28.6444 217.849 28.6444C217.215 28.6444 216.645 28.7937 216.141 29.0924C215.656 29.3911 215.273 29.8204 214.993 30.3804C214.713 30.9217 214.573 31.5844 214.573 32.3684V39.9004H210.793ZM234.851 40.2364C233.432 40.2364 232.172 39.9377 231.071 39.3404C229.988 38.7244 229.139 37.8751 228.523 36.7924C227.925 35.6911 227.627 34.4217 227.627 32.9844C227.627 31.5097 227.925 30.2124 228.523 29.0924C229.12 27.9537 229.96 27.0671 231.043 26.4324C232.144 25.7791 233.413 25.4524 234.851 25.4524C236.251 25.4524 237.473 25.7604 238.519 26.3764C239.564 26.9924 240.376 27.8231 240.955 28.8684C241.533 29.9137 241.823 31.0991 241.823 32.4244C241.823 32.6111 241.823 32.8257 241.823 33.0684C241.823 33.2924 241.804 33.5257 241.767 33.7684H230.315V31.4724H238.015C237.959 30.5577 237.632 29.8391 237.035 29.3164C236.456 28.7937 235.728 28.5324 234.851 28.5324C234.216 28.5324 233.628 28.6817 233.087 28.9804C232.545 29.2604 232.116 29.6991 231.799 30.2964C231.5 30.8937 231.351 31.6497 231.351 32.5644V33.3764C231.351 34.1417 231.491 34.8137 231.771 35.3924C232.069 35.9524 232.48 36.3911 233.003 36.7084C233.525 37.0071 234.132 37.1564 234.823 37.1564C235.513 37.1564 236.083 37.0071 236.531 36.7084C236.997 36.4097 237.343 36.0271 237.567 35.5604H241.431C241.169 36.4377 240.731 37.2311 240.115 37.9404C239.499 38.6497 238.743 39.2097 237.847 39.6204C236.951 40.0311 235.952 40.2364 234.851 40.2364ZM244.918 39.9004V25.7884H248.278L248.642 28.3924C248.978 27.7764 249.398 27.2537 249.902 26.8244C250.425 26.3951 251.013 26.0591 251.666 25.8164C252.338 25.5737 253.076 25.4524 253.878 25.4524V29.4564H252.59C252.03 29.4564 251.508 29.5217 251.022 29.6524C250.556 29.7831 250.145 29.9977 249.79 30.2964C249.436 30.5764 249.165 30.9684 248.978 31.4724C248.792 31.9764 248.698 32.6111 248.698 33.3764V39.9004H244.918ZM262.143 40.2364C260.855 40.2364 259.735 40.0311 258.783 39.6204C257.831 39.2097 257.085 38.6404 256.543 37.9124C256.002 37.1844 255.694 36.3631 255.619 35.4484H259.371C259.465 35.8031 259.623 36.1297 259.847 36.4284C260.071 36.7084 260.37 36.9324 260.743 37.1004C261.117 37.2684 261.565 37.3524 262.087 37.3524C262.591 37.3524 263.002 37.2871 263.319 37.1564C263.637 37.0071 263.87 36.8111 264.019 36.5684C264.187 36.3257 264.271 36.0737 264.271 35.8124C264.271 35.4204 264.159 35.1217 263.935 34.9164C263.711 34.6924 263.385 34.5151 262.955 34.3844C262.526 34.2537 262.003 34.1231 261.387 33.9924C260.715 33.8617 260.053 33.7031 259.399 33.5164C258.765 33.3111 258.195 33.0591 257.691 32.7604C257.187 32.4617 256.786 32.0791 256.487 31.6124C256.189 31.1457 256.039 30.5671 256.039 29.8764C256.039 29.0364 256.263 28.2897 256.711 27.6364C257.159 26.9644 257.813 26.4324 258.671 26.0404C259.53 25.6484 260.566 25.4524 261.779 25.4524C263.478 25.4524 264.822 25.8351 265.811 26.6004C266.801 27.3657 267.389 28.4204 267.575 29.7644H264.019C263.907 29.3351 263.655 28.9991 263.263 28.7564C262.89 28.4951 262.386 28.3644 261.751 28.3644C261.079 28.3644 260.566 28.4857 260.211 28.7284C259.857 28.9711 259.679 29.2884 259.679 29.6804C259.679 29.9417 259.791 30.1751 260.015 30.3804C260.258 30.5857 260.594 30.7631 261.023 30.9124C261.453 31.0431 261.975 31.1737 262.591 31.3044C263.674 31.5284 264.626 31.7897 265.447 32.0884C266.269 32.3684 266.913 32.7791 267.379 33.3204C267.846 33.8431 268.079 34.6084 268.079 35.6164C268.079 36.5124 267.837 37.3151 267.351 38.0244C266.866 38.7151 266.175 39.2564 265.279 39.6484C264.402 40.0404 263.357 40.2364 262.143 40.2364Z" fill="#040303"/>
<path fill-rule="evenodd" clip-rule="evenodd" d="M29.8688 59.5647C46.1945 59.5647 59.429 46.3301 59.429 30.0045C59.429 13.6789 46.1945 0.444336 29.8688 0.444336C13.5431 0.444336 0.308594 13.6789 0.308594 30.0045C0.308594 46.3301 13.5431 59.5647 29.8688 59.5647ZM39.0906 14.2147C39.5394 12.6203 37.9921 11.6774 36.579 12.6842L16.8521 26.7375C15.3196 27.8293 15.5606 30.0045 17.2142 30.0045H22.4089V29.9643H32.5329L24.2837 32.8749L20.6471 45.7943C20.1982 47.3888 21.7454 48.3316 23.1586 47.3248L42.8855 33.2716C44.418 32.1798 44.1768 30.0045 42.5234 30.0045H34.6459L39.0906 14.2147Z" fill="#004050"/>
</svg>
