<?xml version="1.0" encoding="UTF-8"?>
<!DOCTYPE svg PUBLIC "-//W3C//DTD SVG 1.1//EN" "http://www.w3.org/Graphics/SVG/1.1/DTD/svg11.dtd">
<!-- Creator: CorelDRAW -->
<svg xmlns="http://www.w3.org/2000/svg" xml:space="preserve" width="1314px" height="1356px" version="1.1" style="shape-rendering:geometricPrecision; text-rendering:geometricPrecision; image-rendering:optimizeQuality; fill-rule:evenodd; clip-rule:evenodd"
viewBox="0 0 541.67 558.92"
 xmlns:xlink="http://www.w3.org/1999/xlink"
 xmlns:xodm="http://www.corel.com/coreldraw/odm/2003">
 <defs>
  <style type="text/css">
   <![CDATA[
    .str1 {stroke:black;stroke-width:3.65;stroke-miterlimit:22.9256}
    .str0 {stroke:black;stroke-width:2.43;stroke-miterlimit:22.9256}
    .fil1 {fill:black}
    .fil0 {fill:black;fill-rule:nonzero}
   ]]>
  </style>
 </defs>
 <g id="Layer_x0020_1">
  <metadata id="CorelCorpID_0Corel-Layer"/>
  <g id="_2280526461168">
   <path class="fil0 str0" d="M164.62 507.97c16.51,0 29.93,-13.43 29.93,-29.93l0 -79.75c0,-16.5 -13.43,-29.92 -29.93,-29.92 -16.5,0 -29.93,13.42 -29.93,29.92l0 79.75c0,16.5 13.43,29.93 29.93,29.93zm-15.93 -109.68c0,-8.78 7.15,-15.93 15.93,-15.93 8.78,0 15.93,7.14 15.93,15.93l0 79.74c0,8.78 -7.15,15.93 -15.93,15.93 -8.78,0 -15.93,-7.15 -15.93,-15.93l0 -79.74zm122.99 109.68c16.5,0 29.92,-13.43 29.92,-29.93l0 -79.75c0,-16.5 -13.42,-29.92 -29.92,-29.92 -16.51,0 -29.93,13.42 -29.93,29.92l0 79.75c0,16.5 13.42,29.93 29.93,29.93zm-15.93 -109.68c0,-8.78 7.14,-15.93 15.93,-15.93 8.77,0 15.92,7.14 15.92,15.93l0 79.74c0,8.78 -7.14,15.93 -15.92,15.93 -8.78,0 -15.93,-7.15 -15.93,-15.93l0 -79.74zm122.98 109.68c16.5,0 29.92,-13.43 29.92,-29.93l0 -79.75c0,-16.5 -13.42,-29.92 -29.92,-29.92 -16.51,0 -29.93,13.42 -29.93,29.92l0 79.75c0,16.5 13.43,29.93 29.93,29.93zm-15.93 -109.68c0,-8.78 7.15,-15.93 15.93,-15.93 8.78,0 15.93,7.14 15.93,15.93l0 79.74c0,8.78 -7.15,15.93 -15.93,15.93 -8.78,0 -15.93,-7.15 -15.93,-15.93l0 -79.74zm170.63 -141.6l-53.61 0 51.3 -134.55c7.54,-19.77 -2.41,-42 -22.19,-49.53 -19.77,-7.54 -41.99,2.41 -49.53,22.18l-32.65 85.66 0 -31.21c0,-1.52 -0.5,-3 -1.42,-4.22l-29.07 -38.48 0 -19.46c7.94,-3.11 13.55,-12.33 13.55,-23.49 0,-13.81 -8.57,-24.62 -19.52,-24.62l-52.72 0c-10.94,0 -19.51,10.81 -19.51,24.62 0,11.16 5.61,20.38 13.55,23.49l0 19.46 -7.73 10.22c-5.91,-1.06 -12.04,-1.1 -18.17,-0.04 -13.77,2.36 -25.77,9.91 -33.79,21.24l-20.01 28.3 0 -40.87c0,-0.26 -0.02,-0.51 -0.04,-0.77 -0.01,-0.06 -0.02,-0.12 -0.03,-0.18 -0.03,-0.19 -0.06,-0.38 -0.11,-0.57 -0.01,-0.07 -0.03,-0.13 -0.04,-0.2 -0.05,-0.18 -0.1,-0.36 -0.16,-0.54 -0.02,-0.06 -0.05,-0.13 -0.07,-0.2 -0.07,-0.17 -0.13,-0.34 -0.21,-0.5 -0.02,-0.04 -0.03,-0.08 -0.05,-0.12l-15.55 -31.88 0 -44.46c0,-3.86 -3.13,-7 -7,-7l-92.48 0c-3.87,0 -7.01,3.14 -7.01,7.01l0 44.45 -15.56 31.89c-0.46,0.96 -0.7,2 -0.7,3.07l0 67.63 -37.45 -98.23c-3.63,-9.54 -10.81,-17.11 -20.18,-21.31 -9.38,-4.2 -19.8,-4.51 -29.35,-0.87 -19.77,7.53 -29.73,29.76 -22.19,49.53l51.3 134.55 -45.11 0c-3.87,0 -7.01,3.14 -7.01,7.01l0 61.94c0,3.86 3.14,7 7.01,7l18.98 0 70.67 220.2c0.93,2.9 3.62,4.86 6.67,4.86l330.89 0c3.04,0 5.74,-1.97 6.66,-4.86l70.67 -220.2 18.98 0c3.87,0 7.01,-3.13 7.01,-7l0 -61.94c-0.01,-3.87 -3.15,-7.01 -7.02,-7.01zm-60.94 -156.91c3.71,-9.71 12.98,-15.69 22.8,-15.69 2.88,0 5.81,0.52 8.66,1.6 12.56,4.79 18.88,18.9 14.09,31.46l-59.81 156.88c-4.79,12.56 -18.9,18.88 -31.46,14.09 -6.05,-2.31 -10.85,-6.86 -13.52,-12.82 -2.67,-5.96 -2.87,-12.58 -0.56,-18.63l59.8 -156.89zm-134.91 -46.8l52.72 0c2.19,0 5.51,4.24 5.51,10.61 0,6.38 -3.32,10.62 -5.51,10.62l-52.72 0c-2.19,0 -5.51,-4.23 -5.51,-10.61 0,-6.38 3.32,-10.62 5.51,-10.62zm6.63 60.14c0.91,-1.22 1.41,-2.7 1.41,-4.23l0 -20.68 36.63 0 0 20.68c0,1.52 0.5,3.01 1.41,4.22l29.08 38.48 0 65.6 -13.15 34.48c-0.63,1.65 -1.13,3.33 -1.52,5.02l-82.27 0 41.35 -58.48c8.02,-11.34 11.13,-25.17 8.77,-38.94 -2.36,-13.77 -9.91,-25.77 -21.24,-33.79 -2.17,-1.53 -4.43,-2.88 -6.75,-4.05l6.28 -8.31zm-60.84 32.93c5.86,-8.29 14.64,-13.8 24.72,-15.53 10.08,-1.73 20.2,0.55 28.49,6.4 8.29,5.86 13.8,14.64 15.53,24.73 1.73,10.08 -0.55,20.2 -6.41,28.48l-47.06 66.56 -92.71 0c0.98,-2.12 2.15,-4.16 3.52,-6.11l73.92 -104.53zm-140.2 -93.07l78.48 0 0 32.06 -78.48 0 0 -32.06zm-16.27 74.02l13.65 -27.95 83.72 0 9.44 19.34 -73.07 0c-3.87,0 -7.01,3.13 -7.01,7 0,3.87 3.14,7.01 7.01,7.01l77.28 0 0 53.67 -39.9 56.42c-3.07,4.34 -5.44,9.15 -7.06,14.2l-54.18 0c-0.39,-1.69 -0.89,-3.37 -1.52,-5.01l-8.36 -21.93 0 -102.75zm-96 -41.31l0 0c6.05,-2.3 12.67,-2.1 18.64,0.57 5.96,2.67 10.51,7.47 12.82,13.52l59.81 156.88c4.79,12.56 -1.53,26.67 -14.09,31.46 -12.56,4.78 -26.67,-1.54 -31.46,-14.1l-59.8 -156.87c-4.79,-12.56 1.53,-26.67 14.08,-31.46zm401.12 458l-320.68 0 -67.73 -211.06 456.14 0 -67.73 211.06zm94.41 -225.07l-17.08 0 -475.35 0 -17.08 0 0 -47.93 43.45 0 3.17 8.33c5.83,15.29 20.44,24.7 35.9,24.7 4.54,0 9.15,-0.8 13.63,-2.52 9.55,-3.63 17.12,-10.81 21.32,-20.18 1.5,-3.34 2.49,-6.81 3,-10.33l260.09 0c0.5,3.52 1.49,6.99 2.99,10.33 4.2,9.38 11.77,16.55 21.32,20.18 4.48,1.71 9.09,2.52 13.63,2.52 15.46,0 30.07,-9.42 35.9,-24.71l3.17 -8.32 51.94 0 0 47.93 0 0zm-428.47 -37.66c9.52,0 17.27,-7.75 17.27,-17.27 0,-9.52 -7.75,-17.27 -17.27,-17.27 -9.52,0 -17.27,7.75 -17.27,17.27 0,9.53 7.75,17.27 17.27,17.27zm0 -20.53c1.8,0 3.26,1.46 3.26,3.26 0,1.8 -1.46,3.26 -3.26,3.26 -1.8,0 -3.26,-1.47 -3.26,-3.26 -0.01,-1.8 1.46,-3.26 3.26,-3.26zm338.93 20.53c9.52,0 17.27,-7.75 17.27,-17.27 0,-9.52 -7.75,-17.27 -17.27,-17.27 -9.52,0 -17.26,7.75 -17.26,17.27 0,9.53 7.74,17.27 17.26,17.27zm0 -20.53c1.8,0 3.26,1.46 3.26,3.26 0,1.8 -1.46,3.26 -3.26,3.26 -1.8,0 -3.26,-1.47 -3.26,-3.26 0,-1.8 1.46,-3.26 3.26,-3.26zm-145.85 -105.36c2.23,-3.16 6.6,-3.9 9.76,-1.67l32.17 22.75c3.15,2.23 3.9,6.6 1.67,9.76 -1.37,1.93 -3.53,2.96 -5.73,2.96 -1.39,0 -2.81,-0.42 -4.03,-1.29l-32.17 -22.75c-3.16,-2.23 -3.91,-6.6 -1.67,-9.76zm-21.09 29.82c2.24,-3.15 6.61,-3.9 9.76,-1.67l32.17 22.75c3.16,2.23 3.91,6.6 1.67,9.76 -1.36,1.93 -3.53,2.96 -5.72,2.96 -1.4,0 -2.81,-0.42 -4.04,-1.29l-32.16 -22.75c-3.16,-2.23 -3.91,-6.6 -1.68,-9.76zm-21.08 29.81c2.23,-3.15 6.6,-3.9 9.76,-1.67l32.17 22.75c3.16,2.24 3.9,6.6 1.67,9.76 -1.37,1.93 -3.53,2.96 -5.72,2.96 -1.4,0 -2.81,-0.42 -4.04,-1.29l-32.17 -22.75c-3.15,-2.22 -3.9,-6.6 -1.67,-9.76z"/>
   <path class="fil1 str1" d="M281.91 31.86c16.69,0.36 32.52,10.06 39.91,26.23 10.3,22.54 0.37,49.2 -22.18,59.51 -22.53,10.29 -49.2,0.36 -59.5,-22.17 -9.77,-21.4 -1.33,-46.5 18.83,-57.8 -3.94,-5.91 -8.46,-10.15 -13.98,-11.87 -1.73,-0.54 -2.71,-2.4 -2.17,-4.15 0.54,-1.75 2.4,-2.73 4.15,-2.17 4.11,1.27 7.84,3.62 11.23,6.89 0.02,-3.24 0.64,-5.63 1.59,-7.5 1.44,-2.81 3.68,-4.66 6.34,-6.37 3.18,-2.04 7.15,-3.87 9.97,-8.94 0.6,-1.06 1.74,-1.72 2.98,-1.69 1.23,0.02 2.34,0.74 2.89,1.85 4.36,8.89 5.82,15.02 4.88,19.79 -0.63,3.16 -2.23,5.86 -4.94,8.39zm-16.81 10.08l-0.03 0.02 -0.03 0c-19.19,8.8 -27.63,31.51 -18.87,50.71 8.78,19.2 31.51,27.68 50.72,18.9 19.21,-8.78 27.67,-31.5 18.89,-50.72 -8.76,-19.2 -31.48,-27.67 -50.68,-18.91l0 0zm-2.59 16.79c-7.23,7.41 -9.56,18.79 -5,28.77 0.75,1.65 0.03,3.63 -1.65,4.37 -1.65,0.77 -3.63,0.03 -4.39,-1.63 -5.73,-12.53 -2.79,-26.83 6.28,-36.14 1.28,-1.31 3.38,-1.34 4.69,-0.07 1.31,1.29 1.34,3.39 0.07,4.7l0 0zm3.34 -24.56c4.06,-2.05 7.35,-3.86 9.83,-5.73 2.54,-1.92 4.18,-3.79 4.67,-6.26 0.54,-2.8 -0.19,-6.14 -2.02,-10.54 -1.87,1.99 -3.89,3.42 -5.84,4.67 -2.79,1.77 -5.55,2.89 -6.89,5.73 -1.18,2.49 -1.19,6.1 0.25,12.13l0 0z"/>
  </g>
 </g>
</svg>
