<svg id="Layer_1" enable-background="new 0 0 512 512" viewBox="0 0 512 512" xmlns="http://www.w3.org/2000/svg"><path d="m207.678 399.267c-13.156-11.898-28.606-20.624-45.244-25.756 17.648-11.61 29.33-31.581 29.33-54.24 0-35.781-29.11-64.891-64.892-64.891s-64.891 29.11-64.891 64.891c0 22.658 11.681 42.629 29.33 54.24-16.639 5.132-32.089 13.858-45.245 25.756-22.018 19.911-35.875 47.064-39.021 76.458-.242 2.257.487 4.51 2.004 6.199 1.517 1.688 3.68 2.652 5.95 2.652h223.744c2.27 0 4.433-.964 5.95-2.653 1.517-1.688 2.246-3.941 2.004-6.198-3.144-29.394-17.002-56.547-39.019-76.458zm-129.696-79.995c0-26.958 21.933-48.891 48.891-48.891 26.959 0 48.892 21.933 48.892 48.891 0 26.954-21.926 48.884-48.878 48.891-.004 0-.009 0-.013 0s-.009 0-.013 0c-26.954-.008-48.879-21.937-48.879-48.891zm-53.701 149.304c9.42-48.705 52.047-84.408 102.581-84.413h.01s.007 0 .01 0c50.534.005 93.16 35.708 102.581 84.413zm436.615-69.309c-13.156-11.898-28.606-20.625-45.245-25.756 17.648-11.61 29.329-31.581 29.329-54.239 0-35.781-29.11-64.891-64.891-64.891s-64.892 29.11-64.892 64.891c0 22.658 11.682 42.63 29.331 54.24-16.638 5.132-32.088 13.858-45.244 25.756-22.018 19.911-35.875 47.063-39.021 76.457-.242 2.257.487 4.51 2.004 6.198s3.68 2.653 5.95 2.653h223.744c2.27 0 4.433-.964 5.95-2.652s2.246-3.942 2.004-6.199c-3.144-29.394-17.002-56.547-39.019-76.458zm-129.699-79.995c0-26.958 21.933-48.891 48.892-48.891 26.958 0 48.891 21.933 48.891 48.891 0 26.954-21.925 48.883-48.878 48.891-.004 0-.009 0-.013 0s-.009 0-.013 0c-26.953-.007-48.879-21.937-48.879-48.891zm-53.699 149.303c9.42-48.705 52.046-84.408 102.58-84.413h.01.01c50.535.005 93.162 35.708 102.582 84.413zm196.562-441.151h-208.814c-15.958 0-28.94 12.983-28.94 28.94v48.927c-1.081.866-1.955 1.999-2.476 3.351l-4.277 11.111c-5.901 1.724-11.588 4.082-16.988 7.043l-1.567-.696v-63.4c0-16.001-13.018-29.019-29.019-29.019h-144.421c-16 0-29.018 13.018-29.018 29.019v102.565c0 16.001 13.018 29.019 29.018 29.019h11.007l35.263 35.708c1.533 1.553 3.595 2.379 5.694 2.379 1.022 0 2.053-.196 3.036-.6 3.002-1.232 4.962-4.156 4.962-7.4v-30.087h57.921v19.458c0 3.31 2.038 6.277 5.126 7.466l11.106 4.275c1.724 5.906 4.083 11.595 7.045 16.995l-4.833 10.883c-1.344 3.025-.686 6.564 1.654 8.904l17.233 17.233c2.339 2.34 5.878 2.998 8.904 1.655l10.889-4.836c5.399 2.961 11.086 5.32 16.988 7.043l4.276 11.11c1.188 3.089 4.156 5.126 7.466 5.126h24.371c3.31 0 6.277-2.038 7.466-5.126l4.275-11.106c5.906-1.724 11.595-4.083 16.995-7.045l10.883 4.833c3.026 1.343 6.564.686 8.904-1.654l17.233-17.233c2.34-2.34 2.998-5.879 1.655-8.904l-4.836-10.889c2.962-5.4 5.32-11.087 7.043-16.988l11.11-4.277c3.089-1.188 5.126-4.156 5.126-7.466v-24.371c0-.646-.099-1.272-.247-1.882h63.018v29.946c0 3.245 1.96 6.168 4.962 7.4.983.404 2.014.6 3.036.6 2.099 0 4.161-.826 5.694-2.379l35.123-35.567h10.954c15.958 0 28.94-12.982 28.94-28.94v-102.183c0-15.958-12.982-28.941-28.94-28.941zm-384.54 150.86c-4.418 0-8 3.582-8 8v18.601l-23.919-24.222c-1.503-1.522-3.553-2.379-5.692-2.379h-14.35c-7.178 0-13.018-5.84-13.018-13.019v-102.565c0-7.178 5.84-13.019 13.018-13.019h144.42c7.179 0 13.019 5.84 13.019 13.019v59.363c-.809.385-1.567.894-2.225 1.552l-17.232 17.233c-2.34 2.34-2.998 5.879-1.655 8.904l4.835 10.887c-2.962 5.4-5.32 11.087-7.044 16.99l-1.701.655zm246.001 29.965-9.794 3.77c-2.462.947-4.298 3.047-4.909 5.614-1.695 7.122-4.507 13.905-8.358 20.159-1.383 2.247-1.57 5.03-.499 7.441l4.265 9.602-9.465 9.465-9.597-4.262c-2.412-1.073-5.197-.885-7.443.5-6.251 3.851-13.036 6.663-20.164 8.359-2.566.611-4.667 2.447-5.614 4.909l-3.769 9.791h-13.385l-3.77-9.794c-.947-2.462-3.047-4.298-5.614-4.909-7.123-1.695-13.905-4.507-20.159-8.357-2.245-1.383-5.03-1.57-7.441-.5l-9.602 4.265-9.465-9.465 4.262-9.597c1.071-2.412.884-5.196-.5-7.443-3.851-6.251-6.663-13.036-8.359-20.164-.611-2.566-2.447-4.667-4.909-5.614l-9.791-3.769v-13.386l9.793-3.77c2.462-.947 4.298-3.047 4.909-5.614 1.695-7.124 4.508-13.907 8.358-20.16 1.383-2.247 1.57-5.031.5-7.442l-4.264-9.6 9.465-9.465 9.602 4.265c2.412 1.07 5.195.884 7.441-.5 6.254-3.851 13.037-6.663 20.159-8.358 2.566-.611 4.666-2.447 5.613-4.909l3.771-9.795h13.385l3.77 9.794c.947 2.462 3.047 4.298 5.613 4.909 7.123 1.695 13.906 4.507 20.16 8.358 2.246 1.382 5.029 1.569 7.441.5l9.602-4.265 9.465 9.465-4.262 9.597c-1.071 2.411-.884 5.196.5 7.442 3.851 6.253 6.663 13.037 8.359 20.164.611 2.566 2.447 4.667 4.909 5.614l9.791 3.769zm151.479-49.7c0 7.135-5.805 12.94-12.94 12.94h-14.297c-2.139 0-4.189.857-5.692 2.379l-23.779 24.08v-18.459c0-4.418-3.582-8-8-8h-89.06c-1.405-3.725-3.068-7.351-4.989-10.854l4.833-10.884c.525-1.181.735-2.439.668-3.675h127.356c4.418 0 8-3.582 8-8s-3.582-8-8-8h-140.45l-6.462-6.461c-2.34-2.34-5.879-2.997-8.904-1.655l-10.889 4.836c-5.399-2.962-11.086-5.32-16.988-7.043l-2.147-5.578c.912.361 1.903.566 2.944.566h182.895c4.418 0 8-3.582 8-8s-3.582-8-8-8h-182.894c-3.846 0-7.055 2.714-7.823 6.331-1.342-.982-2.978-1.556-4.716-1.556h-13.361v-47.151c0-7.135 5.805-12.94 12.94-12.94h208.815c7.135 0 12.94 5.805 12.94 12.94zm-17.899-83.143c0 4.418-3.582 8-8 8h-182.896c-4.418 0-8-3.582-8-8s3.582-8 8-8h182.895c4.419 0 8.001 3.581 8.001 8zm-325.806 18.501c0 11.271-7.665 18.178-13.823 23.728-5.923 5.338-9.57 8.885-9.889 14.306-.25 4.251-3.775 7.531-7.979 7.531-.158 0-.317-.004-.477-.014-4.411-.259-7.776-4.045-7.517-8.456.72-12.25 8.721-19.46 15.15-25.253 5.291-4.768 8.534-7.891 8.534-11.842 0-9.665-7.863-17.527-17.527-17.527s-17.527 7.862-17.527 17.527c0 4.418-3.582 8-8 8s-8-3.582-8-8c0-18.487 15.04-33.527 33.527-33.527s33.528 15.041 33.528 33.527zm-23.7 57.412c0 4.418-3.582 8-8 8s-8-3.582-8-8 3.582-8 8-8 8 3.581 8 8zm133.886.092c-27.65 0-50.146 22.495-50.146 50.145s22.495 50.146 50.146 50.146 50.146-22.495 50.146-50.146c-.001-27.65-22.496-50.145-50.146-50.145zm0 84.29c-18.828 0-34.146-15.317-34.146-34.146 0-18.828 15.317-34.145 34.146-34.145s34.146 15.317 34.146 34.145c-.001 18.829-15.318 34.146-34.146 34.146z"/></svg>