<svg width="155" height="155" viewBox="0 0 155 155" fill="none" xmlns="http://www.w3.org/2000/svg">
<circle cx="77.1094" cy="77.4414" r="76" fill="#00CC61" stroke="white" stroke-width="2"/>
<path d="M82.6476 21.7434C79.6243 21.4706 77.8891 19.26 78.1441 16.4339C78.3991 13.6077 80.5021 11.7435 83.5254 12.0163C86.2201 12.2595 87.8391 13.85 87.8931 16.0415L85.6322 15.8374C85.4893 14.7777 84.6811 14.0421 83.3666 13.9235C81.6315 13.7669 80.5281 14.8335 80.3656 16.6343C80.2031 18.4352 81.0977 19.6821 82.8328 19.8386C84.1473 19.9573 85.0741 19.3783 85.4044 18.3612L87.6653 18.5653C87.2199 20.7116 85.3423 21.9866 82.6476 21.7434Z" fill="white"/>
<path d="M91.0997 23.1521C88.9793 22.6012 88.0314 20.8958 88.5193 19.018C89.0072 17.1403 90.6653 16.112 92.7857 16.6629C94.8935 17.2105 95.8413 18.9159 95.3534 20.7937C94.8655 22.6714 93.2075 23.6997 91.0997 23.1521ZM91.5279 21.5043C92.4476 21.7432 93.1695 21.2217 93.4118 20.2892C93.654 19.3567 93.2773 18.5497 92.3576 18.3108C91.4251 18.0685 90.716 18.5933 90.4737 19.5258C90.2315 20.4583 90.5954 21.262 91.5279 21.5043Z" fill="white"/>
<path d="M98.0586 25.2516L96.2002 24.4617L98.6887 18.6071L100.547 19.397L100.186 20.2473C100.805 19.7359 101.622 19.6677 102.509 20.0445C103.93 20.6486 104.306 21.7549 103.63 23.3461L102.091 26.9657L100.221 26.1706L101.501 23.1583C101.919 22.1744 101.831 21.6063 101.078 21.2862C100.337 20.9712 99.7417 21.2919 99.3597 22.1907L98.0586 25.2516Z" fill="white"/>
<path d="M107.274 28.1182C107.469 28.229 107.728 28.361 107.902 28.4293L107.107 29.8293C106.828 29.7318 106.389 29.5431 105.884 29.2562C105.058 28.7869 104.026 27.9579 105.075 26.1103L106.327 23.9069L105.455 23.4115L106.244 22.0229L107.116 22.5183L108.048 20.8773L109.804 21.8747L108.872 23.5157L110.122 24.2263L109.334 25.6148L108.083 24.9043L107.04 26.7404C106.577 27.5552 106.838 27.8705 107.274 28.1182Z" fill="white"/>
<path d="M109.601 31.7912C108.062 30.6767 108.018 28.8691 109.141 27.3189C110.255 25.7795 112.058 25.2923 113.555 26.3759C114.303 26.9177 114.636 27.6961 114.534 28.4212L115.068 27.6836L116.693 28.86L112.963 34.0129L111.338 32.8364L111.864 32.1095C111.215 32.4214 110.318 32.3098 109.601 31.7912ZM111.055 30.7741C111.867 31.3623 112.725 31.0548 113.267 30.3064C113.801 29.5688 113.825 28.6576 113.013 28.0694C112.254 27.5198 111.373 27.7459 110.808 28.5263C110.243 29.3067 110.296 30.2246 111.055 30.7741Z" fill="white"/>
<path d="M115.857 36.986C114.344 35.5314 114.336 33.6554 115.726 32.2094C117.117 30.7633 118.992 30.6986 120.504 32.1532C121.874 33.4705 122.073 35.0534 121.09 36.3048L119.634 34.9052C119.941 34.3764 119.857 33.9113 119.325 33.3991C118.697 32.7953 117.914 32.848 117.182 33.609C116.45 34.3701 116.428 35.1546 117.056 35.7584C117.589 36.2707 118.047 36.3457 118.536 36.0468L119.992 37.4464C118.807 38.4497 117.227 38.3033 115.857 36.986Z" fill="white"/>
<path d="M122.741 41.9835C122.884 42.1559 123.08 42.3705 123.219 42.4955L121.982 43.5263C121.755 43.3371 121.411 43.0059 121.039 42.5597C120.431 41.8297 119.756 40.6907 121.389 39.3304L123.336 37.7082L122.693 36.9376L123.92 35.9153L124.562 36.6858L126.012 35.4776L127.305 37.0289L125.855 38.2371L126.776 39.3423L125.549 40.3647L124.628 39.2595L123.006 40.6114C122.286 41.2112 122.42 41.5982 122.741 41.9835Z" fill="white"/>
<path d="M126.128 50.4808C125.052 48.4816 125.434 46.6279 127.328 45.6087L132.71 42.7139L133.717 44.5852L128.451 47.4175C127.521 47.9177 127.298 48.757 127.755 49.6055C128.218 50.4656 129.034 50.7305 129.964 50.2304L135.23 47.398L136.243 49.281L130.861 52.1758C128.966 53.195 127.203 52.48 126.128 50.4808Z" fill="white"/>
<path d="M129.93 58.8312C129.334 57.124 129.736 55.7118 130.907 55.3031L131.568 57.1972C131.157 57.3407 131.009 57.8394 131.214 58.4251C131.357 58.8364 131.656 59.0534 132.005 58.9317C132.28 58.836 132.394 58.6424 132.34 58.088L132.212 56.7207C132.114 55.6786 132.534 54.9172 133.443 54.5998C134.577 54.2041 135.682 54.9651 136.221 56.5103C136.812 58.205 136.495 59.4199 135.299 59.8373L134.642 57.9557C135.066 57.8078 135.182 57.418 135.003 56.9071C134.86 56.4959 134.565 56.2913 134.278 56.3913C134.004 56.487 133.89 56.7223 133.935 57.2518L134.03 58.6446C134.111 59.6786 133.738 60.4519 132.828 60.7693C131.582 61.2041 130.486 60.4263 129.93 58.8312Z" fill="white"/>
<path d="M142.802 69.3122L140.413 69.3782L141.41 71.6646L139.832 72.0975L139.373 69.9494L137.676 71.638L136.702 70.2943L138.564 69.0225L136.455 68.4232L137.004 66.8144L139.096 67.9624L138.966 65.7818L140.595 65.8082L140.252 68.2279L142.569 67.639L142.802 69.3122Z" fill="white"/>
<path d="M132.753 82.566C133.003 79.5408 135.201 77.7893 138.029 78.0236C140.857 78.2579 142.736 80.3471 142.486 83.3723C142.262 86.0687 140.684 87.6993 138.493 87.7694L138.68 85.5071C139.739 85.3564 140.469 84.5428 140.578 83.2275C140.721 81.4913 139.647 80.3957 137.845 80.2465C136.043 80.0972 134.802 81.0009 134.659 82.7371C134.55 84.0524 135.135 84.975 136.155 85.2979L135.967 87.5602C133.818 87.1305 132.529 85.2624 132.753 82.566Z" fill="white"/>
<path d="M131.408 91.0269C131.943 88.9023 133.641 87.9418 135.523 88.4156C137.404 88.8895 138.445 90.5398 137.91 92.6644C137.378 94.7761 135.679 95.7367 133.798 95.2628C131.917 94.789 130.876 93.1386 131.408 91.0269ZM133.059 91.4427C132.827 92.3642 133.354 93.0821 134.288 93.3174C135.222 93.5528 136.026 93.17 136.259 92.2485C136.494 91.3143 135.964 90.6091 135.029 90.3738C134.095 90.1385 133.294 90.5084 133.059 91.4427Z" fill="white"/>
<path d="M129.36 98.0063L130.136 96.1421L136.009 98.5874L135.232 100.452L134.38 100.096C134.895 100.712 134.97 101.529 134.599 102.418C134.006 103.844 132.902 104.228 131.306 103.563L127.675 102.051L128.457 100.175L131.478 101.433C132.465 101.844 133.033 101.752 133.347 100.996C133.657 100.253 133.332 99.6601 132.43 99.2847L129.36 98.0063Z" fill="white"/>
<path d="M126.56 107.24C126.451 107.436 126.321 107.696 126.254 107.87L124.848 107.085C124.944 106.806 125.129 106.366 125.412 105.858C125.875 105.029 126.697 103.991 128.552 105.027L130.765 106.262L131.254 105.386L132.648 106.165L132.159 107.041L133.807 107.961L132.822 109.724L131.175 108.804L130.473 110.06L129.079 109.281L129.78 108.025L127.936 106.996C127.118 106.539 126.805 106.802 126.56 107.24Z" fill="white"/>
<path d="M122.906 109.594C124.009 108.046 125.816 107.989 127.375 109.1C128.922 110.203 129.423 112.002 128.35 113.507C127.814 114.259 127.038 114.598 126.312 114.502L127.054 115.03L125.889 116.664L120.709 112.971L121.873 111.338L122.604 111.859C122.288 111.212 122.393 110.314 122.906 109.594ZM123.934 111.04C123.351 111.856 123.665 112.712 124.418 113.249C125.159 113.777 126.071 113.795 126.653 112.978C127.197 112.215 126.964 111.336 126.18 110.777C125.395 110.217 124.478 110.277 123.934 111.04Z" fill="white"/>
<path d="M117.756 115.889C119.199 114.366 121.075 114.344 122.532 115.723C123.988 117.103 124.066 118.978 122.623 120.501C121.315 121.88 119.734 122.091 118.475 121.117L119.864 119.651C120.395 119.954 120.86 119.867 121.368 119.33C121.967 118.698 121.909 117.915 121.143 117.189C120.376 116.463 119.591 116.447 118.992 117.079C118.484 117.615 118.412 118.075 118.715 118.562L117.326 120.027C116.314 118.85 116.449 117.269 117.756 115.889Z" fill="white"/>
<path d="M112.809 122.808C112.638 122.953 112.424 123.15 112.3 123.29L111.261 122.06C111.448 121.832 111.777 121.485 112.22 121.11C112.946 120.497 114.08 119.814 115.452 121.436L117.088 123.371L117.854 122.723L118.886 123.943L118.12 124.591L119.339 126.032L117.797 127.336L116.578 125.895L115.48 126.824L114.448 125.604L115.547 124.675L114.183 123.063C113.578 122.348 113.192 122.484 112.809 122.808Z" fill="white"/>
<path d="M104.338 126.257C106.329 125.167 108.186 125.535 109.219 127.422L112.153 132.782L110.289 133.803L107.418 128.558C106.911 127.632 106.07 127.416 105.225 127.878C104.369 128.347 104.11 129.166 104.617 130.092L107.488 135.336L105.612 136.363L102.678 131.003C101.645 129.116 102.347 127.348 104.338 126.257Z" fill="white"/>
<path d="M96.0132 130.121C97.716 129.513 99.1312 129.904 99.5485 131.073L97.6593 131.748C97.5128 131.337 97.013 131.194 96.4288 131.402C96.0186 131.549 95.8038 131.85 95.9281 132.198C96.0258 132.471 96.2203 132.584 96.7743 132.526L98.1406 132.389C99.182 132.283 99.9464 132.697 100.271 133.604C100.675 134.735 99.9218 135.845 98.3806 136.395C96.6903 136.999 95.4731 136.691 95.0468 135.498L96.9236 134.827C97.0746 135.25 97.4652 135.363 97.9748 135.181C98.3849 135.034 98.5873 134.738 98.4852 134.452C98.3875 134.178 98.1514 134.067 97.6222 134.115L96.2302 134.22C95.1968 134.309 94.4208 133.942 94.0967 133.034C93.6527 131.791 94.4223 130.69 96.0132 130.121Z" fill="white"/>
<path d="M85.6265 143.069L85.543 140.681L83.264 141.695L82.8196 140.12L84.9643 139.645L83.2633 137.96L84.5998 136.977L85.8852 138.83L86.4691 136.716L88.0818 137.254L86.9492 139.354L89.1287 139.208L89.1142 140.837L86.6922 140.512L87.298 142.824L85.6265 143.069Z" fill="white"/>
<path d="M72.304 133.118C75.3309 133.347 77.0985 135.531 76.885 138.361C76.6715 141.191 74.5961 143.085 71.5691 142.857C68.8712 142.654 67.229 141.087 67.1428 138.897L69.4065 139.067C69.5649 140.125 70.3839 140.849 71.7 140.948C73.4372 141.079 74.5248 139.996 74.6608 138.193C74.7969 136.39 73.884 135.157 72.1468 135.025C70.8307 134.926 69.9125 135.519 69.5971 136.54L67.3335 136.37C67.7474 134.217 69.606 132.915 72.304 133.118Z" fill="white"/>
<path d="M63.8351 131.838C65.9636 132.357 66.9368 134.048 66.4771 135.933C66.0173 137.817 64.3748 138.87 62.2463 138.351C60.1306 137.835 59.1574 136.144 59.6172 134.259C60.0769 132.374 61.7195 131.321 63.8351 131.838ZM63.4317 133.492C62.5085 133.266 61.7945 133.799 61.5661 134.735C61.3378 135.671 61.7265 136.472 62.6497 136.697C63.5858 136.925 64.2869 136.39 64.5153 135.454C64.7436 134.518 64.3677 133.72 63.4317 133.492Z" fill="white"/>
<path d="M56.8343 129.838L58.7042 130.601L56.3021 136.492L54.4323 135.729L54.7811 134.874C54.1698 135.394 53.3531 135.474 52.461 135.11C51.0311 134.527 50.639 133.427 51.2918 131.826L52.7769 128.184L54.659 128.951L53.423 131.982C53.0194 132.972 53.1161 133.539 53.8738 133.848C54.6193 134.152 55.2097 133.823 55.5785 132.918L56.8343 129.838Z" fill="white"/>
<path d="M47.5835 127.11C47.3868 127.002 47.1259 126.874 46.9512 126.808L47.7258 125.396C48.0057 125.49 48.4477 125.672 48.9568 125.951C49.7899 126.408 50.8338 127.222 49.8116 129.085L48.5926 131.307L49.472 131.789L48.7038 133.189L47.8244 132.707L46.9165 134.361L45.1462 133.39L46.0541 131.735L44.7929 131.043L45.5611 129.643L46.8223 130.335L47.8381 128.484C48.2889 127.662 48.0232 127.351 47.5835 127.11Z" fill="white"/>
<path d="M45.2027 123.471C46.7584 124.562 46.8287 126.369 45.7294 127.936C44.6377 129.491 42.8422 130.005 41.3297 128.944C40.5735 128.413 40.2295 127.639 40.3201 126.913L39.797 127.658L38.1549 126.506L41.8092 121.299L43.4513 122.451L42.9357 123.186C43.5805 122.864 44.4789 122.963 45.2027 123.471ZM43.7645 124.509C42.9435 123.933 42.09 124.253 41.5593 125.009C41.0362 125.755 41.0254 126.666 41.8464 127.242C42.6135 127.781 43.4906 127.542 44.0441 126.753C44.5975 125.964 44.5316 125.047 43.7645 124.509Z" fill="white"/>
<path d="M38.8705 118.367C40.4042 119.8 40.4404 121.675 39.0712 123.142C37.702 124.608 35.8282 124.7 34.2945 123.268C32.9054 121.971 32.6833 120.391 33.6485 119.125L35.1243 120.503C34.8251 121.037 34.9157 121.5 35.4559 122.005C36.0925 122.599 36.8747 122.535 37.5953 121.763C38.316 120.992 38.3265 120.207 37.6898 119.612C37.1496 119.108 36.6897 119.04 36.2053 119.346L34.7294 117.968C35.8991 116.947 37.4814 117.07 38.8705 118.367Z" fill="white"/>
<path d="M31.9151 113.472C31.769 113.302 31.5699 113.09 31.4295 112.967L32.6512 111.918C32.8804 112.104 33.2299 112.43 33.6082 112.871C34.2272 113.592 34.918 114.721 33.3057 116.105L31.383 117.755L32.0363 118.517L30.8246 119.557L30.1713 118.796L28.7392 120.025L27.4239 118.493L28.8559 117.264L27.9189 116.172L29.1306 115.132L30.0677 116.223L31.67 114.848C32.381 114.237 32.2418 113.852 31.9151 113.472Z" fill="white"/>
<path d="M28.4015 105.027C29.5063 107.01 29.1521 108.87 27.2728 109.917L21.9346 112.891L20.9004 111.034L26.1233 108.125C27.0457 107.611 27.2562 106.768 26.7873 105.927C26.312 105.073 25.4913 104.821 24.5689 105.334L19.346 108.244L18.3054 106.376L23.6436 103.402C25.523 102.355 27.2967 103.044 28.4015 105.027Z" fill="white"/>
<path d="M24.4767 96.7291C25.0975 98.4273 24.7166 99.8453 23.5514 100.271L22.8626 98.3872C23.2716 98.2376 23.4117 97.7367 23.1987 97.1541C23.0492 96.7451 22.7466 96.5325 22.3995 96.6594C22.1268 96.759 22.0155 96.9543 22.0774 97.5079L22.2252 98.8731C22.3386 99.9137 21.9306 100.681 21.0257 101.012C19.8977 101.424 18.7824 100.68 18.2204 99.1428C17.6041 97.4569 17.9031 96.2375 19.0931 95.8024L19.7774 97.6742C19.3559 97.8283 19.2461 98.2197 19.4319 98.728C19.5814 99.137 19.8795 99.3372 20.1646 99.233C20.4373 99.1333 20.5474 98.8963 20.4946 98.3676L20.3794 96.9763C20.2829 95.9436 20.6447 95.1649 21.5496 94.8341C22.7892 94.3809 23.8966 95.1424 24.4767 96.7291Z" fill="white"/>
<path d="M11.4513 86.4336L13.8395 86.3327L12.8083 84.0612L14.3806 83.6052L14.8708 85.7464L16.5431 84.0331L17.5359 85.3624L15.6929 86.6613L17.8103 87.2297L17.2849 88.8464L15.1764 87.7291L15.3385 89.9075L13.709 89.9049L14.0164 87.4805L11.7086 88.1033L11.4513 86.4336Z" fill="white"/>
<path d="M21.3067 73.0462C21.1005 76.0747 18.9287 77.8583 16.0976 77.6656C13.2666 77.4729 11.3564 75.4115 11.5626 72.3829C11.7463 69.6836 13.3008 68.0299 15.4905 67.9276L15.3363 70.1925C14.28 70.3587 13.5624 71.183 13.4728 72.4997C13.3545 74.2379 14.4451 75.3175 16.2491 75.4403C18.0531 75.563 19.2799 74.6412 19.3983 72.903C19.4879 71.5863 18.8886 70.6724 17.8645 70.3646L18.0187 68.0997C20.1743 68.4978 21.4904 70.3468 21.3067 73.0462Z" fill="white"/>
<path d="M22.5244 64.5702C22.0211 66.7025 20.3375 67.6884 18.4492 67.2427C16.561 66.797 15.4958 65.1624 15.999 63.0301C16.4993 60.9107 18.1829 59.9248 20.0712 60.3705C21.9594 60.8162 23.0246 62.4508 22.5244 64.5702ZM20.8674 64.1791C21.0857 63.2543 20.5481 62.5443 19.6104 62.323C18.6727 62.1017 17.8743 62.4964 17.6561 63.4212C17.4347 64.3589 17.9754 65.0561 18.9131 65.2774C19.8508 65.4987 20.6461 65.1169 20.8674 64.1791Z" fill="white"/>
<path d="M24.4734 57.5479L23.7247 59.4233L17.8166 57.0646L18.5653 55.1892L19.4233 55.5318C18.8984 54.9243 18.8121 54.1082 19.1693 53.2134C19.7419 51.7793 20.8396 51.3791 22.4453 52.0201L26.098 53.4784L25.3444 55.3661L22.3046 54.1525C21.3117 53.7561 20.7456 53.857 20.4422 54.6169C20.1437 55.3646 20.4774 55.9526 21.3845 56.3147L24.4734 57.5479Z" fill="white"/>
<path d="M27.1327 48.2784C27.2392 48.0809 27.3654 47.819 27.4298 47.6439L28.8471 48.408C28.7558 48.6886 28.5768 49.1319 28.3012 49.6431C27.8502 50.4795 27.0443 51.5294 25.1739 50.521L22.9434 49.3185L22.4674 50.2014L21.0617 49.4435L21.5377 48.5606L19.8764 47.6649L20.8347 45.8875L22.496 46.7831L23.1787 45.5169L24.5844 46.2747L23.9017 47.541L25.7604 48.5431C26.5853 48.9878 26.8947 48.7198 27.1327 48.2784Z" fill="white"/>
<path d="M30.7514 45.8733C29.6712 47.4369 27.8649 47.5205 26.2904 46.4328C24.7267 45.3525 24.1999 43.5609 25.2501 42.0407C25.7752 41.2805 26.5462 40.9309 27.2733 41.0161L26.5241 40.4985L27.6643 38.8479L32.8983 42.4638L31.758 44.1143L31.0196 43.6042C31.3458 44.2466 31.2541 45.1457 30.7514 45.8733ZM29.7024 44.4427C30.2726 43.6175 29.9462 42.7664 29.1861 42.2413C28.4368 41.7236 27.5253 41.7195 26.9551 42.5448C26.4225 43.3158 26.668 44.1912 27.4607 44.7388C28.2534 45.2864 29.1698 45.2137 29.7024 44.4427Z" fill="white"/>
<path d="M35.8097 39.5031C34.3887 41.0473 32.5133 41.0972 31.0371 39.7388C29.5609 38.3803 29.4551 36.5073 30.8761 34.9631C32.163 33.5646 33.7412 33.3309 35.0139 34.2868L33.6465 35.7727C33.1111 35.4774 32.648 35.5713 32.1476 36.1152C31.5577 36.7562 31.6275 37.5379 32.4045 38.2528C33.1814 38.9678 33.9663 38.9726 34.5561 38.3316C35.0566 37.7877 35.1215 37.3273 34.8119 36.8451L36.1793 35.3592C37.2083 36.5214 37.0966 38.1046 35.8097 39.5031Z" fill="white"/>
<path d="M40.6548 32.5109C40.8239 32.3635 41.0342 32.1629 41.1562 32.0216L42.2139 33.2356C42.0297 33.4661 41.7061 33.8181 41.2682 34.1995C40.5518 34.8238 39.4279 35.5229 38.032 33.9208L36.3674 32.0102L35.6111 32.6691L34.5621 31.465L35.3183 30.8061L34.0785 29.3831L35.6011 28.0566L36.8409 29.4796L37.9255 28.5346L38.9746 29.7386L37.8899 30.6837L39.2771 32.2758C39.8927 32.9824 40.2766 32.8404 40.6548 32.5109Z" fill="white"/>
<path d="M49.0738 28.9371C47.0989 30.0565 45.2372 29.716 44.1763 27.8445L41.1631 22.5283L43.0117 21.4805L45.9599 26.6819C46.4805 27.6004 47.3245 27.8047 48.1627 27.3296C49.0124 26.848 49.2592 26.0254 48.7385 25.1069L45.7903 19.9055L47.6504 18.8512L50.6637 24.1674C51.7245 26.039 51.0487 27.8177 49.0738 28.9371Z" fill="white"/>
<path d="M57.3438 24.9495C55.6502 25.5828 54.2294 25.2124 53.7948 24.0503L55.6739 23.3476C55.8264 23.7556 56.3283 23.8919 56.9093 23.6747C57.3173 23.5221 57.5277 23.218 57.3982 22.8718C57.2965 22.5999 57.1004 22.49 56.5473 22.556L55.1832 22.7138C54.1435 22.8349 53.373 22.4326 53.0356 21.5302C52.6148 20.4053 53.3511 19.2844 54.884 18.7112C56.5653 18.0824 57.7869 18.3724 58.2307 19.5591L56.364 20.2572C56.2069 19.8369 55.8146 19.73 55.3077 19.9195C54.8998 20.0721 54.7018 20.3716 54.8081 20.6559C54.9098 20.9279 55.1476 21.0362 55.676 20.9795L57.0664 20.8541C58.0983 20.75 58.8796 21.106 59.2171 22.0084C59.6794 23.2446 58.9262 24.3577 57.3438 24.9495Z" fill="white"/>
<path d="M67.5442 11.847L67.6626 14.2344L69.9265 13.1867L70.394 14.7556L68.2564 15.2615L69.9819 16.9212L68.6599 17.9236L67.3475 16.0902L66.7947 18.2117L65.1742 17.6981L66.276 15.5815L64.0988 15.7596L64.0895 14.13L66.5161 14.4197L65.8765 12.1166L67.5442 11.847Z" fill="white"/>
<circle cx="77.1094" cy="77.4414" r="40" fill="white"/>
<path d="M77.1094 57.4414C73.1538 57.4414 69.287 58.6144 65.998 60.812C62.709 63.0096 60.1455 66.1332 58.6318 69.7877C57.118 73.4423 56.722 77.4636 57.4937 81.3432C58.2654 85.2228 60.1702 88.7865 62.9672 91.5835C65.7643 94.3806 69.328 96.2854 73.2076 97.0571C77.0872 97.8288 81.1085 97.4327 84.763 95.919C88.4176 94.4052 91.5411 91.8418 93.7388 88.5528C95.9364 85.2638 97.1094 81.397 97.1094 77.4414C97.1034 72.1389 94.9943 67.0553 91.2449 63.3059C87.4955 59.5565 82.4119 57.4474 77.1094 57.4414ZM77.1094 94.5358C73.7284 94.5358 70.4234 93.5332 67.6122 91.6549C64.8011 89.7765 62.6101 87.1067 61.3162 83.9831C60.0224 80.8596 59.6839 77.4224 60.3435 74.1065C61.003 70.7905 62.6311 67.7445 65.0218 65.3538C67.4125 62.9631 70.4584 61.3351 73.7744 60.6755C77.0904 60.0159 80.5275 60.3544 83.6511 61.6482C86.7747 62.9421 89.4445 65.1331 91.3228 67.9443C93.2012 70.7554 94.2038 74.0605 94.2038 77.4414C94.1986 81.9735 92.396 86.3186 89.1913 89.5233C85.9866 92.728 81.6415 94.5307 77.1094 94.5358Z" fill="#00CC61"/>
<path d="M77.1096 69.1762C77.9979 69.1772 78.8495 69.5305 79.4776 70.1586C80.1057 70.7868 80.459 71.6384 80.4599 72.5267C80.4599 72.912 80.613 73.2815 80.8855 73.554C81.1579 73.8264 81.5274 73.9795 81.9127 73.9795C82.298 73.9795 82.6676 73.8264 82.94 73.554C83.2125 73.2815 83.3655 72.912 83.3655 72.5267C83.3637 71.1207 82.889 69.7563 82.0178 68.6527C81.1466 67.5492 79.9295 66.7708 78.5624 66.4427V65.0934C78.5624 64.7081 78.4093 64.3386 78.1369 64.0661C77.8644 63.7937 77.4949 63.6406 77.1096 63.6406C76.7243 63.6406 76.3548 63.7937 76.0823 64.0661C75.8099 64.3386 75.6568 64.7081 75.6568 65.0934V66.4427C74.1662 66.7985 72.858 67.689 71.9805 68.9454C71.103 70.2019 70.7173 71.7367 70.8964 73.2586C71.0756 74.7806 71.8073 76.1839 72.9526 77.2021C74.0979 78.2204 75.5771 78.7828 77.1096 78.7826C77.7723 78.7826 78.4201 78.9791 78.9711 79.3472C79.5221 79.7153 79.9516 80.2386 80.2052 80.8508C80.4588 81.4631 80.5252 82.1368 80.3959 82.7867C80.2667 83.4367 79.9476 84.0337 79.479 84.5023C79.0104 84.9709 78.4134 85.29 77.7635 85.4193C77.1136 85.5486 76.4399 85.4822 75.8276 85.2287C75.2154 84.9751 74.6921 84.5456 74.3239 83.9946C73.9558 83.4436 73.7592 82.7958 73.7592 82.1332C73.7592 81.7479 73.6062 81.3783 73.3337 81.1059C73.0613 80.8334 72.6918 80.6804 72.3064 80.6804C71.9211 80.6804 71.5516 80.8334 71.2792 81.1059C71.0067 81.3783 70.8536 81.7479 70.8536 82.1332C70.8555 83.5391 71.3303 84.9035 72.2015 86.007C73.0726 87.1105 74.2897 87.8889 75.6568 88.2169V89.7911C75.6568 90.1764 75.8099 90.5459 76.0823 90.8183C76.3548 91.0908 76.7243 91.2439 77.1096 91.2439C77.4949 91.2439 77.8644 91.0908 78.1369 90.8183C78.4093 90.5459 78.5624 90.1764 78.5624 89.7911V88.2169C80.053 87.8612 81.3612 86.9706 82.2387 85.7142C83.1162 84.4578 83.5019 82.923 83.3227 81.401C83.1436 79.879 82.4119 78.4758 81.2666 77.4575C80.1213 76.4393 78.6421 75.8769 77.1096 75.877C76.221 75.877 75.3688 75.524 74.7404 74.8957C74.1121 74.2673 73.7591 73.4151 73.7591 72.5265C73.7591 71.6379 74.1121 70.7857 74.7404 70.1573C75.3688 69.529 76.221 69.1762 77.1096 69.1762Z" fill="#00CC61"/>
</svg>
