<svg width="84" height="21" viewBox="0 0 84 21" fill="none" xmlns="http://www.w3.org/2000/svg">
<path d="M22.1369 7.42383H30.5515V8.9903H27.2383V17.8208H25.4223V8.9903H22.123L22.1369 7.42383ZM30.1911 10.2934H31.7437V11.7489H31.7714C31.8268 11.541 31.9239 11.3469 32.0625 11.1529C32.2011 10.9588 32.3675 10.7786 32.5754 10.6261C32.7695 10.4597 32.9913 10.335 33.2408 10.2379C33.4765 10.1409 33.726 10.0854 33.9755 10.0854C34.1696 10.0854 34.3082 10.0993 34.3776 10.0993C34.4469 10.1132 34.53 10.127 34.5994 10.127V11.7212C34.4885 11.6935 34.3637 11.6796 34.2389 11.6658C34.1142 11.6519 34.0033 11.638 33.8785 11.638C33.6013 11.638 33.3379 11.6935 33.0883 11.8044C32.8388 11.9153 32.6309 12.0816 32.4368 12.2896C32.2566 12.5114 32.1041 12.7748 31.9932 13.0936C31.8823 13.4125 31.8268 13.7867 31.8268 14.2026V17.7792H30.1633L30.1911 10.2934ZM42.2238 17.8208H40.588V16.7672H40.5603C40.3523 17.1553 40.0473 17.4465 39.6453 17.6821C39.2433 17.9178 38.8274 18.0287 38.4116 18.0287C37.4273 18.0287 36.7065 17.793 36.2629 17.294C35.8193 16.8088 35.5975 16.0602 35.5975 15.076V10.2934H37.261V14.9096C37.261 15.575 37.3857 16.0463 37.6491 16.3097C37.8987 16.587 38.2591 16.7256 38.7165 16.7256C39.0631 16.7256 39.3542 16.6702 39.5899 16.5593C39.8255 16.4484 40.0196 16.3097 40.1583 16.1295C40.3107 15.9493 40.4078 15.7275 40.4771 15.478C40.5464 15.2285 40.5741 14.9512 40.5741 14.6601V10.2934H42.2376V17.8208H42.2238ZM45.0517 15.4087C45.1072 15.8939 45.2874 16.2266 45.6062 16.4345C45.9251 16.6286 46.3132 16.7256 46.7568 16.7256C46.9093 16.7256 47.0895 16.7117 47.2836 16.684C47.4777 16.6563 47.6718 16.6147 47.8381 16.5454C48.0183 16.4761 48.157 16.379 48.2679 16.2404C48.3788 16.1018 48.4342 15.9354 48.4203 15.7275C48.4065 15.5196 48.3372 15.3394 48.1847 15.2007C48.0322 15.0621 47.852 14.9651 47.6302 14.868C47.4084 14.7848 47.145 14.7155 46.8539 14.6601C46.5628 14.6046 46.2716 14.5353 45.9667 14.466C45.6617 14.3967 45.3567 14.3135 45.0656 14.2165C44.7745 14.1194 44.525 13.9947 44.2893 13.8145C44.0675 13.6481 43.8734 13.4402 43.7487 13.1768C43.61 12.9134 43.5407 12.6084 43.5407 12.2203C43.5407 11.8044 43.6378 11.4717 43.8457 11.1944C44.0398 10.9172 44.3032 10.6954 44.6081 10.529C44.9131 10.3627 45.2597 10.2379 45.634 10.1686C46.0083 10.0993 46.3687 10.0716 46.7014 10.0716C47.0895 10.0716 47.4638 10.1132 47.8104 10.1963C48.1569 10.2795 48.4897 10.4043 48.7669 10.5984C49.058 10.7786 49.2937 11.0281 49.4739 11.3192C49.668 11.6103 49.7789 11.9707 49.8343 12.3866H48.1015C48.0183 11.9846 47.8381 11.7212 47.5609 11.5826C47.2697 11.444 46.9509 11.3747 46.5766 11.3747C46.4657 11.3747 46.3132 11.3885 46.1607 11.4024C45.9944 11.4301 45.8558 11.4578 45.7033 11.5133C45.5647 11.5687 45.4399 11.6519 45.3429 11.7489C45.2458 11.846 45.1904 11.9846 45.1904 12.151C45.1904 12.3589 45.2597 12.5114 45.3983 12.6361C45.5369 12.7609 45.7171 12.858 45.9528 12.955C46.1746 13.0382 46.438 13.1075 46.7291 13.1629C47.0202 13.2184 47.3252 13.2877 47.6302 13.357C47.9352 13.4263 48.2263 13.5095 48.5174 13.6065C48.8085 13.7036 49.0719 13.8283 49.2937 14.0085C49.5155 14.1749 49.7096 14.3828 49.8482 14.6324C49.9868 14.8819 50.0561 15.2007 50.0561 15.5612C50.0561 16.0048 49.9591 16.379 49.7511 16.6979C49.5432 17.0029 49.2798 17.2663 48.961 17.4603C48.6421 17.6544 48.2679 17.793 47.8797 17.8901C47.4777 17.9732 47.0895 18.0287 46.7014 18.0287C46.2301 18.0287 45.7865 17.9732 45.3844 17.8623C44.9824 17.7514 44.622 17.5851 44.3309 17.3771C44.0398 17.1553 43.8041 16.892 43.6378 16.5593C43.4714 16.2404 43.3744 15.8523 43.3605 15.3948H45.0379V15.4087H45.0517ZM50.5275 10.2934H51.7889V8.01992H53.4525V10.2795H54.9496V11.5133H53.4525V15.5334C53.4525 15.7136 53.4663 15.8523 53.4802 15.9909C53.494 16.1157 53.5356 16.2266 53.5772 16.3097C53.6327 16.3929 53.7158 16.4622 53.8129 16.5038C53.9238 16.5454 54.0624 16.5731 54.2565 16.5731C54.3674 16.5731 54.4921 16.5731 54.603 16.5593C54.7139 16.5454 54.8387 16.5315 54.9496 16.5038V17.793C54.7694 17.8208 54.5892 17.8346 54.409 17.8485C54.2288 17.8762 54.0624 17.8762 53.8683 17.8762C53.4247 17.8762 53.0782 17.8346 52.8148 17.7514C52.5514 17.6683 52.3434 17.5435 52.191 17.391C52.0385 17.2247 51.9414 17.0306 51.886 16.7949C51.8305 16.5593 51.8028 16.2681 51.7889 15.9632V11.5271H50.5275V10.2657V10.2934ZM56.1141 10.2934H57.6805V11.3192H57.7083C57.9439 10.8756 58.2628 10.5706 58.6786 10.3766C59.0945 10.1825 59.5381 10.0854 60.0372 10.0854C60.6333 10.0854 61.1462 10.1825 61.5898 10.4043C62.0334 10.6122 62.3938 10.8895 62.6849 11.2638C62.976 11.6242 63.1978 12.0539 63.3365 12.5391C63.4751 13.0243 63.5583 13.5511 63.5583 14.0917C63.5583 14.6046 63.489 15.0898 63.3642 15.5612C63.2256 16.0325 63.0315 16.4622 62.7681 16.8226C62.5047 17.1831 62.172 17.4742 61.7561 17.696C61.3403 17.9178 60.8689 18.0287 60.3144 18.0287C60.0788 18.0287 59.8292 18.001 59.5936 17.9594C59.3579 17.9178 59.1222 17.8485 58.9004 17.7514C58.6786 17.6544 58.4707 17.5296 58.2905 17.3771C58.0964 17.2247 57.9439 17.0444 57.8192 16.8504H57.7914V20.6071H56.1279V10.2934H56.1141ZM61.9225 14.064C61.9225 13.7313 61.8809 13.3986 61.7839 13.0798C61.7007 12.7609 61.5621 12.4837 61.3818 12.2341C61.2016 11.9846 60.9798 11.7905 60.7303 11.638C60.4669 11.4856 60.1619 11.4162 59.8292 11.4162C59.1361 11.4162 58.6093 11.6519 58.2489 12.1371C57.9023 12.6223 57.7221 13.2738 57.7221 14.0779C57.7221 14.466 57.7637 14.8126 57.8607 15.1314C57.9578 15.4503 58.0826 15.7275 58.2766 15.9632C58.4568 16.1988 58.6786 16.379 58.942 16.5177C59.2054 16.6563 59.4965 16.7256 59.8431 16.7256C60.2313 16.7256 60.5362 16.6424 60.7996 16.4899C61.063 16.3375 61.2709 16.1295 61.4512 15.8939C61.6175 15.6443 61.7423 15.3671 61.8116 15.0482C61.8809 14.7155 61.9225 14.3967 61.9225 14.064ZM64.8475 7.42383H66.511V8.9903H64.8475V7.42383ZM64.8475 10.2934H66.511V17.8208H64.8475V10.2934ZM67.9943 7.42383H69.6578V17.8208H67.9943V7.42383ZM74.7315 18.0287C74.1354 18.0287 73.5948 17.9317 73.1234 17.7237C72.6521 17.5158 72.264 17.2524 71.9313 16.9058C71.6124 16.5593 71.3629 16.1295 71.1965 15.6443C71.0302 15.1591 70.9332 14.6185 70.9332 14.0501C70.9332 13.4818 71.0163 12.955 71.1965 12.4698C71.3629 11.9846 71.6124 11.5687 71.9313 11.2083C72.2501 10.8617 72.6521 10.5845 73.1234 10.3904C73.5948 10.1963 74.1354 10.0854 74.7315 10.0854C75.3276 10.0854 75.8682 10.1825 76.3396 10.3904C76.8109 10.5845 77.199 10.8617 77.5317 11.2083C77.8506 11.5549 78.1001 11.9846 78.2664 12.4698C78.4328 12.955 78.5298 13.4818 78.5298 14.0501C78.5298 14.6324 78.4467 15.1591 78.2664 15.6443C78.0862 16.1295 77.8506 16.5454 77.5317 16.9058C77.2129 17.2524 76.8109 17.5296 76.3396 17.7237C75.8682 17.9178 75.3414 18.0287 74.7315 18.0287ZM74.7315 16.7117C75.0919 16.7117 75.4246 16.6286 75.688 16.4761C75.9653 16.3236 76.1732 16.1157 76.3534 15.8661C76.5336 15.6166 76.6584 15.3255 76.7416 15.0205C76.8247 14.7017 76.8663 14.3828 76.8663 14.0501C76.8663 13.7313 76.8247 13.4125 76.7416 13.0936C76.6584 12.7748 76.5336 12.4975 76.3534 12.248C76.1732 11.9985 75.9514 11.8044 75.688 11.6519C75.4108 11.4994 75.0919 11.4162 74.7315 11.4162C74.3711 11.4162 74.0384 11.4994 73.775 11.6519C73.4977 11.8044 73.2898 12.0123 73.1096 12.248C72.9294 12.4975 72.8046 12.7748 72.7214 13.0936C72.6382 13.4125 72.5967 13.7313 72.5967 14.0501C72.5967 14.3828 72.6382 14.7017 72.7214 15.0205C72.8046 15.3394 72.9294 15.6166 73.1096 15.8661C73.2898 16.1157 73.5116 16.3236 73.775 16.4761C74.0522 16.6424 74.3711 16.7117 74.7315 16.7117ZM79.0289 10.2934H80.2904V8.01992H81.9539V10.2795H83.4511V11.5133H81.9539V15.5334C81.9539 15.7136 81.9678 15.8523 81.9816 15.9909C81.9955 16.1157 82.0371 16.2266 82.0787 16.3097C82.1341 16.3929 82.2173 16.4622 82.3143 16.5038C82.4252 16.5454 82.5638 16.5731 82.7579 16.5731C82.8688 16.5731 82.9936 16.5731 83.1045 16.5593C83.2154 16.5454 83.3402 16.5315 83.4511 16.5038V17.793C83.2708 17.8208 83.0906 17.8346 82.9104 17.8485C82.7302 17.8762 82.5639 17.8762 82.3698 17.8762C81.9262 17.8762 81.5796 17.8346 81.3162 17.7514C81.0528 17.6683 80.8449 17.5435 80.6924 17.391C80.5399 17.2247 80.4429 17.0306 80.3874 16.7949C80.332 16.5593 80.3043 16.2681 80.2904 15.9632V11.5271H79.0289V10.2657V10.2934Z" fill="white"/>
<path d="M20.1959 7.42401H12.5854L10.2426 0.187744L7.88594 7.42401L0.275391 7.41014L6.43037 11.8878L4.07373 19.124L10.2287 14.6464L16.3837 19.124L14.0409 11.8878L20.1959 7.42401Z" fill="white"/>
<path d="M14.5683 13.5242L14.0415 11.8884L10.2432 14.6471L14.5683 13.5242Z" fill="#127A7A"/>
</svg>
