<svg width="168" height="41" viewBox="0 0 168 41" fill="none" xmlns="http://www.w3.org/2000/svg">
<path d="M49.21 28.3043H61.162V24.7043H53.458V11.1443H49.21V28.3043Z" fill="white"/>
<path d="M68.2434 25.9054C66.5394 25.9054 65.6514 24.4174 65.6514 22.1854C65.6514 19.9534 66.5394 18.4414 68.2434 18.4414C69.9474 18.4414 70.8594 19.9534 70.8594 22.1854C70.8594 24.4174 69.9474 25.9054 68.2434 25.9054ZM68.2674 28.6894C72.2274 28.6894 74.8194 25.8814 74.8194 22.1854C74.8194 18.4894 72.2274 15.6814 68.2674 15.6814C64.3314 15.6814 61.6914 18.4894 61.6914 22.1854C61.6914 25.8814 64.3314 28.6894 68.2674 28.6894Z" fill="white"/>
<path d="M81.6742 32.552C83.4982 32.552 85.1062 32.144 86.1862 31.184C87.1702 30.296 87.8182 28.952 87.8182 27.104V16.016H84.0742V17.336H84.0262C83.3062 16.304 82.2022 15.656 80.5702 15.656C77.5222 15.656 75.4102 18.2 75.4102 21.8C75.4102 25.568 77.9782 27.632 80.7382 27.632C82.2262 27.632 83.1622 27.032 83.8822 26.216H83.9782V27.44C83.9782 28.928 83.2822 29.792 81.6262 29.792C80.3302 29.792 79.6822 29.24 79.4662 28.592H75.6742C76.0582 31.16 78.2902 32.552 81.6742 32.552ZM81.6502 24.728C80.1862 24.728 79.2262 23.528 79.2262 21.68C79.2262 19.808 80.1862 18.608 81.6502 18.608C83.2822 18.608 84.1462 20 84.1462 21.656C84.1462 23.384 83.3542 24.728 81.6502 24.728Z" fill="white"/>
<path d="M95.5159 25.9054C93.8119 25.9054 92.9239 24.4174 92.9239 22.1854C92.9239 19.9534 93.8119 18.4414 95.5159 18.4414C97.2199 18.4414 98.1319 19.9534 98.1319 22.1854C98.1319 24.4174 97.2199 25.9054 95.5159 25.9054ZM95.5399 28.6894C99.4999 28.6894 102.091 25.8814 102.091 22.1854C102.091 18.4894 99.4999 15.6814 95.5399 15.6814C91.6039 15.6814 88.9639 18.4894 88.9639 22.1854C88.9639 25.8814 91.6039 28.6894 95.5399 28.6894Z" fill="white"/>
<path d="M103.234 28.3043H107.146V16.0163H103.234V28.3043ZM103.234 14.3123H107.146V11.1443H103.234V14.3123Z" fill="white"/>
<path d="M108.844 32.36H112.756V27.032H112.804C113.572 28.064 114.7 28.688 116.284 28.688C119.5 28.688 121.636 26.144 121.636 22.16C121.636 18.464 119.644 15.656 116.38 15.656C114.7 15.656 113.5 16.4 112.66 17.504H112.588V16.016H108.844V32.36ZM115.276 25.664C113.596 25.664 112.636 24.296 112.636 22.304C112.636 20.312 113.5 18.8 115.204 18.8C116.884 18.8 117.676 20.192 117.676 22.304C117.676 24.392 116.764 25.664 115.276 25.664Z" fill="white"/>
<path d="M128.004 28.688C131.22 28.688 133.596 27.296 133.596 24.608C133.596 21.464 131.052 20.912 128.892 20.552C127.332 20.264 125.94 20.144 125.94 19.28C125.94 18.512 126.684 18.152 127.644 18.152C128.724 18.152 129.468 18.488 129.612 19.592H133.212C133.02 17.168 131.148 15.656 127.668 15.656C124.764 15.656 122.364 17 122.364 19.592C122.364 22.472 124.644 23.048 126.78 23.408C128.412 23.696 129.9 23.816 129.9 24.92C129.9 25.712 129.156 26.144 127.98 26.144C126.684 26.144 125.868 25.544 125.724 24.32H122.028C122.148 27.032 124.404 28.688 128.004 28.688Z" fill="white"/>
<path d="M138.911 28.6653C140.615 28.6653 141.695 27.9933 142.583 26.7933H142.655V28.3053H146.399V16.0173H142.487V22.8813C142.487 24.3453 141.671 25.3533 140.327 25.3533C139.079 25.3533 138.479 24.6093 138.479 23.2653V16.0173H134.591V24.0813C134.591 26.8173 136.079 28.6653 138.911 28.6653Z" fill="white"/>
<path d="M148.101 28.304H152.013V21.416C152.013 19.952 152.733 18.92 153.957 18.92C155.133 18.92 155.685 19.688 155.685 21.008V28.304H159.597V21.416C159.597 19.952 160.293 18.92 161.541 18.92C162.717 18.92 163.269 19.688 163.269 21.008V28.304H167.181V20.312C167.181 17.552 165.789 15.656 163.005 15.656C161.421 15.656 160.101 16.328 159.141 17.816H159.093C158.469 16.496 157.245 15.656 155.637 15.656C153.861 15.656 152.685 16.496 151.917 17.768H151.845V16.016H148.101V28.304Z" fill="white"/>
<path d="M25.3425 1.32901L21.4095 0.275146L18.0951 12.6447L15.1028 1.47739L11.1697 2.53125L14.4027 14.5967L6.35008 6.54413L3.47089 9.42332L12.3036 18.2561L1.30386 15.3087L0.25 19.2417L12.2686 22.4621C12.131 21.8686 12.0582 21.2502 12.0582 20.6148C12.0582 16.1172 15.7042 12.4712 20.2018 12.4712C24.6994 12.4712 28.3454 16.1172 28.3454 20.6148C28.3454 21.2461 28.2735 21.8607 28.1376 22.4507L39.0603 25.3774L40.1141 21.4444L28.0477 18.2112L39.0482 15.2636L37.9943 11.3306L25.9284 14.5636L33.981 6.51107L31.1018 3.63188L22.3916 12.3421L25.3425 1.32901Z" fill="white"/>
<path d="M28.1265 22.4968C27.7893 23.9224 27.0774 25.2031 26.1006 26.2292L34.0136 34.1423L36.8928 31.2631L28.1265 22.4968Z" fill="white"/>
<path d="M26.0207 26.3123C25.0321 27.322 23.7828 28.0755 22.3818 28.4638L25.2612 39.2098L29.1942 38.1559L26.0207 26.3123Z" fill="white"/>
<path d="M22.235 28.5026C21.585 28.6697 20.9037 28.7585 20.2016 28.7585C19.4494 28.7585 18.721 28.6565 18.0295 28.4656L15.1475 39.2214L19.0805 40.2752L22.235 28.5026Z" fill="white"/>
<path d="M17.8904 28.4262C16.5108 28.0186 15.2837 27.2555 14.3153 26.2429L6.38281 34.1754L9.262 37.0546L17.8904 28.4262Z" fill="white"/>
<path d="M14.2499 26.1723C13.2981 25.1533 12.6048 23.8897 12.2748 22.4861L1.31641 25.4224L2.37026 29.3554L14.2499 26.1723Z" fill="white"/>
</svg>
