<?xml version="1.0" encoding="UTF-8" standalone="no"?>
<!-- Created with Inkscape (http://www.inkscape.org/) -->

<svg
   version="1.1"
   id="svg4815"
   xml:space="preserve"
   width="682.66669"
   height="682.66669"
   viewBox="0 0 682.66669 682.66669"
   xmlns="http://www.w3.org/2000/svg"
   xmlns:svg="http://www.w3.org/2000/svg"><defs
     id="defs4819"><clipPath
       clipPathUnits="userSpaceOnUse"
       id="clipPath4829"><path
         d="M 0,512 H 512 V 0 H 0 Z"
         id="path4827" /></clipPath></defs><g
     id="g4821"
     transform="matrix(1.3333333,0,0,-1.3333333,0,682.66667)"><g
       id="g4823"><g
         id="g4825"
         clip-path="url(#clipPath4829)"><g
           id="g4831"
           transform="translate(169.3008,7.5)"><path
             d="M 0,0 V 49.942"
             style="fill:none;stroke:#000000;stroke-width:15;stroke-linecap:round;stroke-linejoin:round;stroke-miterlimit:10;stroke-dasharray:none;stroke-opacity:1"
             id="path4833" /></g><g
           id="g4835"
           transform="translate(414.501,7.5)"><path
             d="M 0,0 V 49.942"
             style="fill:none;stroke:#000000;stroke-width:15;stroke-linecap:round;stroke-linejoin:round;stroke-miterlimit:10;stroke-dasharray:none;stroke-opacity:1"
             id="path4837" /></g><g
           id="g4839"
           transform="translate(128.4326,136.7979)"><path
             d="m 0,0 c -17.753,-19.97 -30.545,-46.891 -30.545,-83.01 v -24.296 c 0,-12.145 9.846,-21.992 21.992,-21.992 h 340.86 c 12.146,0 21.992,9.847 21.992,21.992 v 24.296 c 0,118.012 -136.552,137.831 -136.552,137.831 L 173.276,11.227 c -6.332,-6.207 -16.466,-6.207 -22.798,0 l -44.471,43.594 c 0,0 -42.213,-6.127 -79.698,-31.851"
             style="fill:none;stroke:#000000;stroke-width:15;stroke-linecap:round;stroke-linejoin:round;stroke-miterlimit:10;stroke-dasharray:none;stroke-opacity:1"
             id="path4841" /></g><g
           id="g4843"
           transform="translate(346.1797,191.6191)"><path
             d="m 0,0 c -7.974,4.215 -12.962,12.494 -12.962,21.514 v 8.372"
             style="fill:none;stroke:#000000;stroke-width:15;stroke-linecap:round;stroke-linejoin:round;stroke-miterlimit:10;stroke-dasharray:none;stroke-opacity:1"
             id="path4845" /></g><g
           id="g4847"
           transform="translate(247.4023,223.6318)"><path
             d="m 0,0 v -10.499 c 0,-9.02 -4.989,-17.299 -12.962,-21.514"
             style="fill:none;stroke:#000000;stroke-width:15;stroke-linecap:round;stroke-linejoin:round;stroke-miterlimit:10;stroke-dasharray:none;stroke-opacity:1"
             id="path4849" /></g><g
           id="g4851"
           transform="translate(378.332,243.4746)"><path
             d="m 0,0 c -64.496,-46.754 -154.681,-32.371 -201.435,32.125 -46.753,64.495 -32.37,154.681 32.125,201.435 64.496,46.752 154.682,32.37 201.435,-32.126 C 78.878,136.938 64.496,46.753 0,0 Z"
             style="fill:none;stroke:#000000;stroke-width:15;stroke-linecap:round;stroke-linejoin:round;stroke-miterlimit:10;stroke-dasharray:none;stroke-opacity:1"
             id="path4853" /></g><g
           id="g4855"
           transform="translate(231.6851,452.792)"><path
             d="m 0,0 c 43.291,29.069 102.473,24.472 140.737,-13.793 38.264,-38.265 42.862,-97.446 13.793,-140.737"
             style="fill:none;stroke:#000000;stroke-width:15;stroke-linecap:round;stroke-linejoin:round;stroke-miterlimit:10;stroke-dasharray:none;stroke-opacity:1"
             id="path4857" /></g><g
           id="g4859"
           transform="translate(362.4683,272.665)"><path
             d="m 0,0 c -43.705,-34.413 -107.227,-31.466 -147.536,8.844 -40.301,40.301 -43.256,103.806 -8.865,147.51"
             style="fill:none;stroke:#000000;stroke-width:15;stroke-linecap:round;stroke-linejoin:round;stroke-miterlimit:10;stroke-dasharray:none;stroke-opacity:1"
             id="path4861" /></g><g
           id="g4863"
           transform="translate(298.6748,418.1211)"><path
             d="m 0,0 12.467,-29.722 c 0.782,-1.863 2.534,-3.136 4.548,-3.303 l 32.119,-2.673 c 4.788,-0.399 6.728,-6.369 3.089,-9.506 L 27.809,-66.245 c -1.531,-1.319 -2.201,-3.38 -1.738,-5.347 l 7.384,-31.373 c 1.101,-4.677 -3.978,-8.367 -8.086,-5.875 l -27.556,16.717 c -1.727,1.049 -3.894,1.049 -5.622,0 l -27.555,-16.717 c -4.108,-2.492 -9.187,1.198 -8.087,5.875 l 7.384,31.373 c 0.463,1.967 -0.206,4.028 -1.737,5.347 l -24.414,21.041 c -3.64,3.137 -1.7,9.107 3.089,9.506 l 32.119,2.673 c 2.013,0.167 3.766,1.44 4.548,3.303 L -9.995,0 C -8.137,4.431 -1.858,4.431 0,0 Z"
             style="fill:none;stroke:#000000;stroke-width:15;stroke-linecap:round;stroke-linejoin:round;stroke-miterlimit:10;stroke-dasharray:none;stroke-opacity:1"
             id="path4865" /></g><g
           id="g4867"
           transform="translate(54.5483,163.1035)"><path
             d="m 0,0 -22.623,31.208 c -4.742,6.542 -2.954,15.731 3.895,20.019 L 68.466,105.8 c 6.22,3.893 14.393,2.303 18.701,-3.639 l 14.416,-19.888 c 4.308,-5.941 3.277,-14.204 -2.358,-18.905 L 20.237,-2.524 C 14.032,-7.701 4.743,-6.541 0,0 Z"
             style="fill:none;stroke:#000000;stroke-width:15;stroke-linecap:round;stroke-linejoin:round;stroke-miterlimit:10;stroke-dasharray:none;stroke-opacity:1"
             id="path4869" /></g><g
           id="g4871"
           transform="translate(157.9072,242.0479)"><path
             d="M 0,0 29.112,21.104"
             style="fill:none;stroke:#000000;stroke-width:15;stroke-linecap:round;stroke-linejoin:round;stroke-miterlimit:10;stroke-dasharray:none;stroke-opacity:1"
             id="path4873" /></g><g
           id="g4875"
           transform="translate(168.2163,289.0908)"><path
             d="M 0,0 -29.113,-21.104"
             style="fill:none;stroke:#000000;stroke-width:15;stroke-linecap:round;stroke-linejoin:round;stroke-miterlimit:10;stroke-dasharray:none;stroke-opacity:1"
             id="path4877" /></g><g
           id="g4879"
           transform="translate(225.9751,189.9785)"><path
             d="m 0,0 c -9.013,-2.004 -13.399,-12.271 -8.644,-20.187 9.284,-15.453 22.307,-36.971 22.307,-36.971 3.743,-6.12 11.069,-9.044 17.998,-7.184 l 32.674,17.733 32.674,-17.733 c 6.929,-1.86 14.255,1.064 17.998,7.184 0,0 13.022,21.518 22.307,36.971 4.755,7.916 0.368,18.183 -8.645,20.187"
             style="fill:none;stroke:#000000;stroke-width:15;stroke-linecap:round;stroke-linejoin:round;stroke-miterlimit:10;stroke-dasharray:none;stroke-opacity:1"
             id="path4881" /></g></g></g></g></svg>
