<svg id="Layer_1" enable-background="new 0 0 512 512" viewBox="0 0 512 512" xmlns="http://www.w3.org/2000/svg"><path d="m477.211 36.954h-442.421c-18.632 0-33.79 15.159-33.79 33.79v310.45c0 18.631 15.158 33.79 33.79 33.79h114.206l-24.48 42.008c-2.193 3.764-2.221 8.242-.074 11.978 2.154 3.748 6.158 6.076 10.449 6.076h242.22c4.291 0 8.294-2.328 10.449-6.075 2.147-3.736 2.12-8.213-.074-11.979l-24.48-42.008h114.205c18.632 0 33.79-15.158 33.79-33.79v-310.45c-.001-18.631-15.158-33.79-33.79-33.79zm-442.421 16h442.421c9.809 0 17.79 7.98 17.79 17.79v285.058h-24.613v-149.56c0-4.418-3.582-8-8-8h-35.371c-4.418 0-8 3.582-8 8v149.559h-10.397v-92.529c0-4.418-3.582-8-8-8h-35.372c-4.418 0-8 3.582-8 8v92.529h-10.397v-121.893c0-4.418-3.582-8-8-8h-35.372c-4.418 0-8 3.582-8 8v121.894h-10.397v-53.613c0-4.418-3.582-8-8-8h-35.371c-4.418 0-8 3.582-8 8v53.613h-216.711v-285.058c0-9.809 7.98-17.79 17.79-17.79zm419.597 302.848h-19.371v-141.56h19.371zm-61.768 0h-19.372v-84.529h19.372zm-61.768 0h-19.372v-113.894h19.372zm-61.769 0h-19.371v-45.613h19.371zm101.082 103.244h-228.327l25.677-44.062h176.973zm107.047-60.062h-442.421c-9.81 0-17.79-7.98-17.79-17.79v-9.393h478v9.393c0 9.809-7.98 17.79-17.789 17.79zm-95.067-188.318 44.853-41.413-6.057-.285c-4.413-.208-7.822-3.954-7.615-8.368.208-4.413 3.938-7.809 8.368-7.615l26.039 1.227c2.304.108 4.448 1.206 5.884 3.011s2.022 4.142 1.61 6.411l-4.66 25.647c-.702 3.863-4.07 6.571-7.862 6.571-.475 0-.956-.042-1.439-.13-4.347-.79-7.23-4.954-6.441-9.301l.571-3.145-47.036 43.428c-2.72 2.51-6.806 2.827-9.88.768l-55.543-37.221-57.199 74.369c-1.576 2.048-3.948 3.123-6.347 3.123-1.702 0-3.417-.541-4.872-1.659-3.502-2.694-4.157-7.716-1.464-11.219l61.769-80.309c2.571-3.342 7.293-4.115 10.795-1.768zm-186.974 55.136c0 4.418-3.582 8-8 8h-129.855c-4.418 0-8-3.582-8-8s3.582-8 8-8h129.855c4.419 0 8 3.582 8 8zm0 32.978c0 4.418-3.582 8-8 8h-129.855c-4.418 0-8-3.582-8-8s3.582-8 8-8h129.855c4.418 0 8 3.582 8 8zm0 32.979c0 4.418-3.582 8-8 8h-129.855c-4.418 0-8-3.582-8-8s3.582-8 8-8h129.855c4.419 0 8 3.582 8 8zm-72.928-86.903c48.408 0 87.79-39.382 87.79-87.79 0-48.407-39.382-87.79-87.79-87.79-48.407 0-87.79 39.382-87.79 87.79s39.383 87.79 87.79 87.79zm0-16c-13.288 0-25.737-3.643-36.422-9.962l18.378-24.475c5.459 2.648 11.581 4.135 18.044 4.135 14.174 0 26.705-7.149 34.192-18.025l28.115 12.129c-12.39 21.603-35.669 36.198-62.307 36.198zm0-97.278c14.054 0 25.488 11.434 25.488 25.488s-11.434 25.488-25.488 25.488-25.488-11.434-25.488-25.488 11.434-25.488 25.488-25.488zm71.79 25.488c0 7.273-1.096 14.292-3.116 20.913l-28.129-12.135c.613-2.831.943-5.766.943-8.778 0-20.14-14.428-36.967-33.488-40.706v-30.627c35.832 3.993 63.79 34.453 63.79 71.333zm-79.79-71.333v30.627c-19.061 3.74-33.488 20.566-33.488 40.706 0 10.652 4.038 20.377 10.661 27.731l-18.377 24.473c-13.89-13.099-22.586-31.65-22.586-52.204 0-36.88 27.958-67.34 63.79-71.333zm119.469.094c0-4.418 3.582-8 8-8h120.676c4.418 0 8 3.582 8 8s-3.582 8-8 8h-120.676c-4.418 0-8-3.581-8-8zm0 32.979c0-4.418 3.582-8 8-8h120.676c4.418 0 8 3.582 8 8s-3.582 8-8 8h-120.676c-4.418 0-8-3.582-8-8zm0 32.979c0-4.418 3.582-8 8-8h120.676c4.418 0 8 3.582 8 8s-3.582 8-8 8h-120.676c-4.418 0-8-3.582-8-8z"/></svg>