<svg clip-rule="evenodd" fill-rule="evenodd" stroke-linejoin="round" stroke-miterlimit="2" viewBox="0 0 510 510" xmlns="http://www.w3.org/2000/svg"><path d="m116.089 416.875h-101.089c-4.418 0-8-3.582-8-8v-107.229c0-4.418 3.582-8 8-8h30.157c-2.298-12.535-3.499-25.451-3.499-38.646 0-58.979 23.983-112.4 62.721-151.034v-47.796c0-2.858 1.525-5.499 4-6.928l25.316-14.616 20.679-11.938 25.316-14.616c2.475-1.429 5.524-1.429 8 0l58.484 33.766c2.928-.12 5.87-.18 8.826-.18 59.642 0 113.601 24.525 152.331 64.033 3.515-.443 7.096-.671 10.732-.671 46.914 0 84.937 38.023 84.937 84.938 0 28.109-13.65 53.027-34.685 68.486-.63 39.718-12.137 76.814-31.669 108.438h28.243c7.894 0 13.86 4.384 17.679 10.607l18.463 30.102c.207.338.389.691.544 1.055.991 2.334 1.425 4.472 1.425 6.974v53.783c0 8.251-6.73 14.98-14.981 14.98h-8.4c-3.396 10.792-13.481 18.617-25.392 18.617-11.912 0-21.997-7.826-25.394-18.617h-83.118c-3.396 10.792-13.48 18.617-25.392 18.617-11.913 0-21.998-7.826-25.394-18.617h-21.46c-9.817 0-17.292-7.533-17.308-16.044-.387.002-.774.003-1.161.003-53.034 0-101.574-19.392-138.911-51.467zm-58.6-107.229h-34.489v91.229h34.489zm46.89-182.096c-29.139 34.395-46.721 78.885-46.721 127.45 0 8.39.524 16.658 1.542 24.774 1.465-1.861 3.738-3.055 6.289-3.055h1.984v-8.853c0-4.419 3.582-8 8-8h7.249v-4.866c0-4.415 3.584-8 8-8 4.415 0 8 3.585 8 8v4.866h7.249c4.418 0 8 3.581 8 8v8.853h1.995c4.419 0 8 3.582 8 8v8.927h42.478c4.418 0 8 3.582 8 8v107.229c0 4.418-3.582 8-8 8h-24.285c31.987 22.351 70.894 35.467 112.841 35.467.387 0 .774-.001 1.161-.003v-89.478c0-8.52 7.479-16.071 17.308-16.071h130.676c9.164 0 16.286 6.565 17.207 14.359 17.444-27.262 28.37-59.088 30.576-93.272-10.375 4.515-21.828 7.018-33.865 7.018-46.915 0-84.938-38.023-84.938-84.937 0-36.689 23.254-67.94 55.828-79.82-33.372-30.878-77.419-50.381-125.953-52.321v80.694c0 2.859-1.525 5.5-4 6.929l-71.31 41.17c-2.476 1.429-5.525 1.429-8 0l-71.311-41.17c-2.475-1.429-4-4.07-4-6.929zm16-57.523v63.866l55.311 31.933v-63.866zm17.317-19.235-9.316 5.378 55.31 31.933 9.316-5.378zm20.678-11.938-4.678 2.7 55.31 31.933 4.678-2.7zm80.626 17.316-55.31-31.932-9.316 5.378 55.31 31.933zm248 384.771v-25.321c0-.128-.012-.246-.037-.363l-18.032-29.4c-.929-1.515-2.12-2.975-4.042-2.975h-43.436v85.501h7.38c3.397-10.79 13.482-18.615 25.394-18.615 11.911 0 21.996 7.825 25.392 18.615h7.381v-11.442h-3.812c-4.415 0-7.999-3.585-7.999-8s3.584-8 7.999-8zm-141.285 27.442h59.738v-104.285c0-.613-.425-1.13-.995-1.27-.109-.024-.215-.038-.313-.038h-130.676c-.098 0-.204.014-.313.037-.57.141-.995.658-.995 1.271v102.978c0 .613.425 1.129.995 1.269.108.024.214.038.313.038h21.46c3.396-10.79 13.481-18.615 25.394-18.615 11.912 0 21.996 7.825 25.392 18.615zm-272.226-67.508h34.477v-108.156h-1.55c-.148.008-.296.012-.445.012h-30.498c-.149 0-.298-.004-.445-.012h-1.539zm118.201-298.915v63.866l55.31-31.933v-63.866l-9.316 5.378v27.811c0 2.859-1.525 5.5-4 6.929l-20.679 11.938c-2.475 1.428-5.525 1.428-8-.001s-4-4.07-4-6.928v-18.573zm-67.724 207.686v91.229h34.478v-91.229zm-25.995-32.927v-.853h-14.498v.853zm123.713-192.076-4.679 2.701v13.954l4.679-2.701zm253.713 143.609c7.329-10.953 11.603-24.124 11.603-38.294 0-38.078-30.86-68.938-68.937-68.938-38.078 0-68.938 30.86-68.938 68.938 0 14.17 4.274 27.341 11.604 38.294 5.955-14.924 17.563-26.98 32.175-33.517-6.188-6.347-10.012-15.007-10.012-24.521 0-19.35 15.82-35.171 35.171-35.171 19.35 0 35.171 15.821 35.171 35.171 0 9.514-3.825 18.174-10.013 24.521 14.612 6.537 26.22 18.593 32.176 33.517zm-102.197 14.052c12.057 10.343 27.729 16.591 44.863 16.591 17.133 0 32.805-6.248 44.862-16.591-4.102-21.038-22.635-36.919-44.862-36.919-22.228 0-40.761 15.881-44.863 36.919zm44.863-52.919c10.547 0 19.171-8.624 19.171-19.171s-8.624-19.171-19.171-19.171c-10.548 0-19.171 8.624-19.171 19.171s8.623 19.171 19.171 19.171zm36.164 276.383c-5.863 0-10.617 4.752-10.617 10.615 0 5.864 4.754 10.617 10.617 10.617s10.616-4.753 10.616-10.617c0-5.863-4.753-10.615-10.616-10.615zm-133.904 0c-5.864 0-10.617 4.752-10.617 10.615 0 5.864 4.753 10.617 10.617 10.617 5.863 0 10.616-4.753 10.616-10.617 0-5.863-4.753-10.615-10.616-10.615zm151.817-35.297h-38.831c-4.419 0-8-3.582-8-8v-27.622c0-4.419 3.581-8 8-8h27.1c3.21 0 6.109 1.918 7.363 4.872l11.732 27.623c1.049 2.471.789 5.303-.692 7.542-1.482 2.238-3.987 3.585-6.672 3.585zm-12.089-16-4.936-11.622h-13.807v11.622z"/></svg>