<svg id="Layer_1" viewBox="0 0 512 512" xmlns="http://www.w3.org/2000/svg" data-name="Layer 1"><path d="m193.938 463.029c.858.297 1.738.439 2.607.438 2.736 0 5.361-1.41 6.841-3.857l106.102-175.437c1.493-2.469 1.54-5.55.123-8.062-1.417-2.514-4.078-4.068-6.963-4.068h-44.892l16.345-134.56c.454-3.741-1.766-7.291-5.327-8.52s-7.499.195-9.448 3.419l-106.101 175.436c-1.493 2.469-1.54 5.55-.123 8.062 1.417 2.514 4.078 4.068 6.963 4.068h44.892l-16.346 134.561c-.454 3.74 1.766 7.29 5.327 8.52zm-19.696-159.068 79.5-131.452-12.944 106.564c-.275 2.271.435 4.552 1.952 6.265s3.695 2.693 5.983 2.693h39.738l-79.501 131.452 12.945-106.564c.275-2.271-.435-4.552-1.952-6.265s-3.695-2.693-5.983-2.693zm321.898-121.407h-16.242v-55.814c0-14.849-12.067-26.929-26.9-26.929s-26.93 12.081-26.93 26.929v55.814h-19.813v-55.814c0-14.849-12.081-26.929-26.93-26.929s-26.901 12.081-26.901 26.929v55.814h-16.242c-4.415 0-7.994 3.579-7.994 7.994v21.005c0 10.925 6.075 20.456 15.023 25.399v37.417c0 27.88 15.731 52.146 38.778 64.417v24.676c0 9.425 7.682 17.094 17.122 17.094h3.72c-36.71 61.673-102.568 99.438-175.018 99.438-112.304 0-203.669-91.378-203.669-203.697 0-27.122 5.229-53.397 15.541-78.18.004-.01.01-.018.015-.028 4.219-9.746 18.246-33.531 41.137-53.79 17.672-15.64 36.365-25.71 55.854-30.126-28.593 20.39-45.959 43.029-56.066 60.156-14.357 24.33-17.655 43.066-17.788 43.852-.393 2.312.25 4.681 1.759 6.478 1.508 1.796 3.729 2.84 6.074 2.854.521.003 1.034.004 1.552.004 85.907-.001 116.526-43.174 143.555-81.292 25.088-35.381 46.784-65.927 108.425-62.723 3.599.183 6.829-2.021 7.982-5.405s-.081-7.122-3.022-9.154c-54.061-37.354-107.27-55.085-158.205-52.715-42.274 1.972-81.854 18.642-111.45 46.938-20.363 19.47-35.106 43.675-41.515 68.156-6.208 23.719-4.239 46.341 5.494 64.231-10.166 25.683-15.331 52.798-15.331 80.744 0 58.675 22.848 113.841 64.335 155.335 41.488 41.497 96.649 64.351 155.322 64.351 41.322 0 81.589-11.545 116.446-33.387 32.338-20.262 58.825-48.558 76.921-82.04h12.031c9.44 0 17.121-7.669 17.121-17.094v-24.684c23.047-12.273 38.778-36.534 38.778-64.409v-37.417c8.948-4.943 15.023-14.474 15.023-25.399v-21.005c0-4.415-3.579-7.994-7.994-7.994zm-425.584-107.833c45.221-43.237 127.528-65.616 227.846-6.499-51.034 5.826-73.682 37.746-95.669 68.753-24.967 35.21-50.741 71.564-121.562 74.377 6.562-20.086 28.134-67.677 91.32-100.301 3.175-1.639 4.876-5.185 4.168-8.687-.707-3.501-3.652-6.108-7.213-6.386-3.128-.244-6.25-.365-9.364-.365-31.692 0-62.572 12.579-89.84 36.712-16.965 15.014-29.427 31.681-37.255 44.482-8.811-30.405 5.646-71.565 37.569-102.087zm371.5 52.019c0-6.033 4.908-10.942 10.941-10.942s10.912 4.909 10.912 10.942v55.814h-21.854v-55.814zm-73.645 0c0-6.033 4.896-10.942 10.913-10.942s10.941 4.909 10.941 10.942v55.814h-21.854zm-24.236 71.801h143.971v13.011c0 7.174-5.836 13.011-13.011 13.011h-117.949c-7.175 0-13.011-5.837-13.011-13.011zm90.169 164.92c0 .6-.519 1.105-1.133 1.105h-34.101c-.615 0-1.134-.506-1.134-1.105v-18.449c5.811 1.495 11.899 2.292 18.17 2.292s12.378-.798 18.197-2.296v18.454zm-18.197-32.146c-31.401 0-56.948-25.546-56.948-56.947v-33.817h113.924v33.817c0 31.401-25.559 56.947-56.976 56.947z"/></svg>