<?xml version="1.0" encoding="UTF-8"?>
<svg id="c" data-name="Text" xmlns="http://www.w3.org/2000/svg" viewBox="0 0 50 50">
  <defs>
    <style>
      .e {
        fill: #046489;
      }
    </style>
  </defs>
  <path class="e" d="m3.1,46.4c-.3,0-.6.2-.6.6s.2.5.6.5h43.9c.3,0,.5-.2.5-.5s-.2-.5-.4-.5h-1.8s0-3.8,0-3.8c0-.3-.2-.5-.6-.5h-1.6v-8.2c0-.2-.2-.5-.4-.5l-6.2-1.6V11.8c0-.3-.2-.5-.6-.5h-6V3.1c0-.3-.2-.5-.6-.5h-13.2c-.3,0-.6.2-.6.5v14.6l-6.3,2.5c-.2,0-.3.3-.3.5v12.6h-3.8c-.3,0-.5.2-.5.6v12.6h-1.6Zm41.2,0h-5.5v-3.3h5.5v3.3Zm-6.6,0h-3.3v-14.1l7.7,1.9v7.8h-3.8c-.3,0-.5.2-.5.5v3.8Zm-4.4,0h-3.3V12.4h5.5v3.3h-1.6c-.3,0-.6.2-.6.5s.2.6.6.6h1.6v3.3h-1.6c-.3,0-.6.2-.6.6s.2.5.6.5h1.6v3.3h-1.6c-.3,0-.6.2-.6.5s.2.5.6.5h1.6v5.9l-1.5-.4c-.2,0-.3,0-.5.1-.1,0-.2.3-.2.4v14.8Zm-4.4,0h-7.7v-30.2c0-.2,0-.3-.2-.4-.2-.1-.4-.1-.5,0l-3.6,1.5V3.6h12.1v42.8Zm-8.8,0h-9.3v-.5h-.5v-24.9l9.9-4v7.4h-3.8c-.3,0-.6.2-.6.5s.2.5.6.5h3.8v3.3h-3.8c-.3,0-.6.2-.6.5s.2.6.6.6h3.8v3.3h-3.8c-.3,0-.6.2-.6.6s.2.5.6.5h3.8v3.3h-3.8c-.3,0-.6.2-.6.5s.2.5.6.5h3.8v3.3h-3.8c-.3,0-.6.2-.6.5s.2.6.6.6h3.8v3.3Zm-11,0h-3.3v-12.1h3.3v12.1Z"/>
  <path class="e" d="m20.6,6.9c-.3,0-.6.2-.6.6v2.2c0,.3.2.6.6.6s.5-.2.5-.6v-2.2c0-.3-.2-.6-.5-.6Z"/>
  <path class="e" d="m25,6.9c-.3,0-.5.2-.5.6v2.2c0,.3.2.6.5.6s.6-.2.6-.6v-2.2c0-.3-.2-.6-.6-.6Z"/>
  <path class="e" d="m25,13.5c-.3,0-.5.2-.5.6v2.2c0,.3.2.6.5.6s.6-.2.6-.6v-2.2c0-.3-.2-.6-.6-.6Z"/>
  <path class="e" d="m25,20.1c-.3,0-.5.2-.5.6v2.2c0,.3.2.6.5.6s.6-.2.6-.6v-2.2c0-.3-.2-.6-.6-.6Z"/>
  <path class="e" d="m25,26.7c-.3,0-.5.2-.5.6v2.2c0,.3.2.6.5.6s.6-.2.6-.6v-2.2c0-.3-.2-.6-.6-.6Z"/>
  <path class="e" d="m25,33.2c-.3,0-.5.2-.5.6v2.2c0,.3.2.6.5.6s.6-.2.6-.6v-2.2c0-.3-.2-.6-.6-.6Z"/>
  <path class="e" d="m25,39.8c-.3,0-.5.2-.5.6v2.2c0,.3.2.6.5.6s.6-.2.6-.6v-2.2c0-.3-.2-.6-.6-.6Z"/>
</svg>