<?xml version="1.0" encoding="UTF-8"?>
<svg id="c" data-name="Text" xmlns="http://www.w3.org/2000/svg" viewBox="0 0 50 50">
  <defs>
    <style>
      .e {
        fill: #046489;
      }

      .f {
        fill: #1b99c1;
      }
    </style>
  </defs>
  <path class="e" d="m30.3.9h.6c.5.2.6.6.6,1.1,0,1,0,1.9,0,2.9.2,0,.4,0,.6,0,4.2,0,8.4,0,12.7,0,.3,0,.7,0,1,0,1.2.3,1.8,1.2,1.8,2.6,0,11.5,0,23.1,0,34.6,0,1.5-.9,2.8-2.8,2.8-4.2,0-8.4,0-12.7,0-.2,0-.4,0-.6,0,0,1.1,0,2.1,0,3.1,0,.7-.4,1-1.1.9-.3,0-.7-.1-1-.2-4-.6-7.9-1.2-11.9-1.8-4.2-.6-8.3-1.2-12.5-1.8-1.6-.2-2.4-1.1-2.4-2.8,0-11.7,0-23.4,0-35.1,0-1.7.8-2.6,2.5-2.8,3.3-.5,6.6-1,9.9-1.4,4.2-.6,8.4-1.2,12.6-1.8,1-.1,1.9-.3,2.9-.5Zm-.5,46.4V2.7c-.2,0-.3,0-.5,0-3,.4-6,.9-9.1,1.3-5,.7-10,1.5-15,2.2-.9.1-1.1.3-1.1,1.3,0,6.3,0,12.5,0,18.8,0,5.4,0,10.9,0,16.3,0,.7.2,1,.9,1.1,3,.4,6.1.9,9.1,1.3,4.2.6,8.3,1.2,12.5,1.8,1.1.2,2.1.3,3.2.5Zm1.7-28.8c.2,0,.4,0,.6,0,2.9,0,5.9,0,8.8,0,1.2,0,1.8.6,1.8,1.8,0,.4,0,.7,0,1.1,0,1.3-.6,1.9-1.9,1.9-2.9,0-5.8,0-8.8,0-.2,0-.4,0-.5,0v3.2c.2,0,.4,0,.6,0,3,0,5.9,0,8.9,0,1.1,0,1.7.6,1.8,1.7,0,.4,0,.8,0,1.2,0,1.3-.6,1.9-1.9,1.9-2.9,0-5.8,0-8.8,0-.2,0-.4,0-.5,0v3.2h.5c1.3,0,2.6,0,4,0,1.6,0,3.3,0,4.9,0,1.2,0,1.8.6,1.8,1.8,0,.3,0,.7,0,1,0,1.4-.6,2-2,2-2.9,0-5.8,0-8.7,0-.2,0-.4,0-.6,0v4c.1,0,.2,0,.3,0,4.4,0,8.8,0,13.2,0,.7,0,1-.3,1-1.1,0-11.6,0-23.1,0-34.7,0-.9-.3-1.1-1.2-1.1-4.3,0-8.5,0-12.8,0-.2,0-.3,0-.5,0v4c.2,0,.4,0,.6,0,2.9,0,5.7,0,8.6,0,1.4,0,2,.6,2,2,0,.2,0,.4,0,.7,0,1.6-.5,2.2-2.2,2.2-2.8,0-5.7,0-8.5,0-.2,0-.4,0-.6,0v3.2Zm5.6-4.9h4v-1.5h-4v1.5Zm0,24.1h4v-1.5h-4v1.5Zm-1.6-25.6h-4v1.5h4v-1.5Zm-4,25.6h4v-1.5h-4v1.5Zm4-16v-1.5h-4v1.5h4Zm5.6,0v-1.6h-4v1.6h4Zm-5.6,8v-1.5h-4v1.5h4Zm1.7,0h4v-1.5h-4v1.5Z"/>
  <path class="f" d="m16.6,26.3c-.8,1-1.6,1.9-2.3,2.8-.7.9-1.5,1.8-2.2,2.7-.2.3-.5.5-.9.4-.6-.1-.8-.8-.4-1.4.8-1,1.6-2,2.4-2.9.8-.9,1.6-1.9,2.4-2.9-.5-.6-.9-1.2-1.4-1.7-1.1-1.3-2.2-2.6-3.2-3.9,0-.1-.2-.2-.3-.4-.2-.4-.1-.7.2-1,.3-.3.7-.3,1,0,.1,0,.2.2.3.3,1.4,1.7,2.8,3.4,4.2,5,0,.1.2.2.3.3.1-.1.2-.2.3-.4,1.6-2,3.2-3.9,4.8-5.9,0-.1.2-.2.3-.3.3-.3.7-.3,1,0,.3.2.4.7.2,1-.2.4-.5.7-.8,1-1.5,1.8-3,3.7-4.5,5.5-.2.3-.2.4,0,.7,1.7,2,3.3,4,4.9,6,0,0,0,0,0,.1.5.6.5,1,.1,1.4-.4.3-.9.2-1.3-.4-1.6-1.9-3.2-3.9-4.8-5.8,0-.1-.2-.2-.3-.3Z"/>
</svg>