<svg width="212" height="49" viewBox="0 0 212 49" fill="none" xmlns="http://www.w3.org/2000/svg">
<circle cx="24.4777" cy="24.6766" r="24.2951" fill="#00CC61"/>
<g clip-path="url(#clip0_258_36322)">
<mask id="mask0_258_36322" style="mask-type:luminance" maskUnits="userSpaceOnUse" x="12" y="13" width="24" height="24">
<path d="M12.9697 13.1684H35.9861V36.1848H12.9697V13.1684Z" fill="white"/>
</mask>
<g mask="url(#mask0_258_36322)">
<path fill-rule="evenodd" clip-rule="evenodd" d="M35.7052 18.2444C36.0797 18.6189 36.0797 19.2261 35.7052 19.6006L26.5946 28.7113C26.2201 29.0858 25.6128 29.0858 25.2383 28.7113L21.1214 24.5943L14.6069 31.1088C14.2323 31.4833 13.6251 31.4833 13.2506 31.1088C12.8761 30.7343 12.8761 30.1271 13.2506 29.7526L20.4432 22.56C20.8178 22.1854 21.425 22.1854 21.7995 22.56L25.9164 26.6769L34.349 18.2444C34.7235 17.8699 35.3307 17.8699 35.7052 18.2444Z" fill="white"/>
<path fill-rule="evenodd" clip-rule="evenodd" d="M28.3145 18.9225C28.3145 18.3929 28.7438 17.9635 29.2735 17.9635H35.0276C35.5572 17.9635 35.9866 18.3929 35.9866 18.9225V24.6766C35.9866 25.2063 35.5572 25.6356 35.0276 25.6356C34.4979 25.6356 34.0685 25.2063 34.0685 24.6766V19.8815H29.2735C28.7438 19.8815 28.3145 19.4522 28.3145 18.9225Z" fill="white"/>
</g>
</g>
<path d="M207.904 37.5292C206.932 37.5292 206.152 37.2479 205.564 36.6852C204.976 36.0971 204.682 35.381 204.682 34.5371C204.682 33.6931 204.976 32.9898 205.564 32.4272C206.152 31.839 206.932 31.5449 207.904 31.5449C208.825 31.5449 209.579 31.839 210.167 32.4272C210.755 32.9898 211.05 33.6931 211.05 34.5371C211.05 35.381 210.755 36.0971 210.167 36.6852C209.579 37.2479 208.825 37.5292 207.904 37.5292Z" fill="#00CC61"/>
<path d="M181.851 37.3374V9.71777H187.029V20.8807C187.669 19.8833 188.513 19.0778 189.561 18.464C190.635 17.8502 191.875 17.5433 193.282 17.5433C194.893 17.5433 196.249 17.8886 197.348 18.5791C198.448 19.244 199.279 20.2158 199.842 21.4945C200.404 22.7732 200.686 24.3587 200.686 26.2512V37.3374H195.545V26.7115C195.545 25.1771 195.226 24.0007 194.586 23.1824C193.947 22.3384 192.937 21.9165 191.556 21.9165C190.712 21.9165 189.945 22.121 189.254 22.5302C188.564 22.9394 188.014 23.5404 187.605 24.3332C187.221 25.1004 187.029 26.021 187.029 27.0951V37.3374H181.851Z" fill="white"/>
<path d="M167.909 37.7978C165.966 37.7978 164.239 37.363 162.731 36.4935C161.222 35.624 160.045 34.4348 159.201 32.926C158.358 31.4171 157.936 29.6909 157.936 27.7473C157.936 25.7525 158.358 24.0007 159.201 22.4919C160.045 20.9574 161.222 19.7555 162.731 18.886C164.239 17.9909 165.966 17.5433 167.909 17.5433C170.39 17.5433 172.474 18.1955 174.162 19.4997C175.85 20.804 176.924 22.5942 177.384 24.8702H171.899C171.669 23.9751 171.183 23.2719 170.441 22.7604C169.725 22.2489 168.868 21.9932 167.871 21.9932C166.976 21.9932 166.17 22.2233 165.454 22.6837C164.764 23.1184 164.214 23.7705 163.805 24.6401C163.421 25.484 163.229 26.4942 163.229 27.6705C163.229 28.5656 163.344 29.3712 163.575 30.0873C163.805 30.7778 164.124 31.3787 164.534 31.8902C164.943 32.3761 165.429 32.7469 165.991 33.0027C166.579 33.2584 167.206 33.3863 167.871 33.3863C168.536 33.3863 169.137 33.2712 169.674 33.041C170.237 32.8109 170.71 32.4912 171.093 32.082C171.477 31.6473 171.745 31.123 171.899 30.5092H177.384C176.924 32.7341 175.837 34.5115 174.124 35.8414C172.436 37.1456 170.364 37.7978 167.909 37.7978Z" fill="white"/>
<path d="M144.756 37.7978C142.813 37.7978 141.087 37.3886 139.578 36.5702C138.094 35.7263 136.931 34.5627 136.087 33.0794C135.269 31.5705 134.859 29.8315 134.859 27.8623C134.859 25.842 135.269 24.0646 136.087 22.5302C136.905 20.9702 138.056 19.7555 139.539 18.886C141.048 17.9909 142.787 17.5433 144.756 17.5433C146.674 17.5433 148.35 17.9653 149.782 18.8092C151.214 19.6532 152.326 20.7912 153.119 22.2233C153.912 23.6555 154.308 25.2794 154.308 27.0951C154.308 27.3509 154.308 27.645 154.308 27.9774C154.308 28.2843 154.283 28.604 154.231 28.9364H138.542V25.7909H149.091C149.014 24.5378 148.567 23.5532 147.749 22.8371C146.956 22.121 145.958 21.763 144.756 21.763C143.887 21.763 143.081 21.9676 142.34 22.3768C141.598 22.7604 141.01 23.3614 140.575 24.1797C140.166 24.9981 139.961 26.0338 139.961 27.2869V28.3994C139.961 29.4479 140.153 30.3686 140.537 31.1614C140.946 31.9286 141.509 32.5296 142.225 32.9643C142.941 33.3735 143.772 33.5781 144.718 33.5781C145.664 33.5781 146.444 33.3735 147.058 32.9643C147.697 32.5551 148.171 32.0309 148.477 31.3915H153.771C153.413 32.5935 152.812 33.6804 151.968 34.6522C151.124 35.624 150.089 36.3912 148.861 36.9538C147.633 37.5164 146.265 37.7978 144.756 37.7978Z" fill="white"/>
<path d="M128.073 37.3374C126.718 37.3374 125.528 37.1328 124.505 36.7236C123.508 36.2889 122.728 35.5856 122.165 34.6138C121.603 33.6164 121.321 32.261 121.321 30.5476V22.3384H118.022V18.0036H121.321L121.897 12.7482H126.5V18.0036H131.602V22.3384H126.5V30.6243C126.5 31.4938 126.692 32.0948 127.076 32.4272C127.459 32.7597 128.111 32.9259 129.032 32.9259H131.564V37.3374H128.073Z" fill="white"/>
<path d="M95.6895 37.3374V18.0037H100.254L100.638 21.1492C101.226 20.0751 102.057 19.2056 103.131 18.5407C104.231 17.8758 105.535 17.5433 107.044 17.5433C108.655 17.5433 110.011 17.8758 111.11 18.5407C112.21 19.2056 113.041 20.1774 113.604 21.4561C114.192 22.7348 114.486 24.3076 114.486 26.1745V37.3374H109.346V26.6732C109.346 25.1387 109.013 23.9623 108.348 23.144C107.709 22.3256 106.712 21.9164 105.356 21.9164C104.487 21.9164 103.707 22.121 103.016 22.5302C102.351 22.9394 101.827 23.5276 101.444 24.2948C101.06 25.0364 100.868 25.9443 100.868 27.0184V37.3374H95.6895Z" fill="white"/>
<path d="M85.2776 37.3374V18.0036H90.4562V37.3374H85.2776ZM87.8861 15.3568C86.9654 15.3568 86.1982 15.0882 85.5844 14.5512C84.9962 13.9886 84.7021 13.2853 84.7021 12.4413C84.7021 11.5974 84.9962 10.9069 85.5844 10.3699C86.1982 9.80725 86.9654 9.52594 87.8861 9.52594C88.8323 9.52594 89.5995 9.80725 90.1877 10.3699C90.8015 10.9069 91.1084 11.5974 91.1084 12.4413C91.1084 13.2853 90.8015 13.9886 90.1877 14.5512C89.5995 15.0882 88.8323 15.3568 87.8861 15.3568Z" fill="white"/>
<path d="M63.9619 37.3374V10.485H81.4544V14.6663H69.1406V21.8397H78.9993V25.906H69.1406V37.3374H63.9619Z" fill="white"/>
<defs>
<clipPath id="clip0_258_36322">
<rect width="23.0164" height="23.0164" fill="white" transform="translate(12.9697 13.1684)"/>
</clipPath>
</defs>
</svg>
