<svg width="1920" height="628" viewBox="0 0 1920 628" fill="none" xmlns="http://www.w3.org/2000/svg">
<g clip-path="url(#clip0_203_472)">
<g clip-path="url(#clip1_203_472)">
<path fill-rule="evenodd" clip-rule="evenodd" d="M1766.39 213.236C1769.97 211.741 1773.31 209.805 1776.37 207.502L1785.58 198.381C1787.79 195.327 1789.73 191.979 1791.22 188.403L1766.39 213.236ZM1794.75 168.707L1746.93 216.766C1747.31 216.792 1747.93 216.804 1748.55 216.804C1749.36 216.804 1750.16 216.783 1750.97 216.741L1794.73 172.978C1794.77 172.177 1794.79 171.371 1794.79 170.56C1794.79 169.94 1794.78 169.322 1794.75 168.707ZM1792.66 155.066L1733.05 214.142C1734.11 214.521 1735.19 214.86 1736.28 215.157L1793.15 158.294C1793.25 157.688 1792.51 156.125 1792.66 155.066ZM1786.66 144.368L1722.36 208.675C1723.2 209.255 1724.06 209.808 1724.94 210.33L1788.32 147.48C1787.8 146.073 1787.24 145.211 1786.66 144.368ZM1721.12 133.329L1711.31 143.13C1709.1 146.126 1707.24 149.401 1705.8 152.889L1730.88 127.812C1727.39 129.256 1724.11 131.117 1721.12 133.329ZM1748.55 124.316C1747.99 124.316 1746.28 124.358 1745.16 124.439L1702.43 167.174C1702.35 168.293 1702.3 169.422 1702.3 170.56C1702.3 170.883 1702.31 171.206 1702.32 171.529L1749.52 124.328C1749.19 124.319 1749.38 124.316 1748.55 124.316ZM1759.2 125.553L1703.54 181.216C1703.8 182.343 1704.11 183.45 1704.46 184.542L1762.53 126.469C1761.44 126.121 1760.33 125.815 1759.2 125.553ZM1770.21 129.696L1707.68 192.228C1708.17 193.145 1708.69 194.044 1709.23 194.922L1772.91 131.245C1772.03 130.699 1771.13 130.183 1770.21 129.696ZM1779.06 135.809L1713.8 201.068C1714.52 202.328 1715.14 202.767 1715.85 203.258L1781.25 137.862C1780.54 137.154 1779.81 136.469 1779.06 135.809Z" fill="white" fill-opacity="0.1"/>
</g>
<g clip-path="url(#clip2_203_472)">
<path fill-rule="evenodd" clip-rule="evenodd" d="M155.39 535.236C158.968 533.741 162.314 531.805 165.369 529.502L174.576 520.381C176.794 517.327 178.728 513.979 180.224 510.403L155.39 535.236ZM183.755 490.707L135.926 538.766C136.31 538.792 136.928 538.804 137.548 538.804C138.359 538.804 139.165 538.783 139.966 538.741L183.729 494.978C183.771 494.177 183.792 493.371 183.792 492.56C183.792 491.94 183.78 491.322 183.755 490.707ZM181.664 477.066L122.054 536.142C123.113 536.521 124.189 536.86 125.283 537.157L182.145 480.294C182.25 479.688 181.509 478.125 181.664 477.066ZM175.662 466.368L111.356 530.675C112.199 531.255 113.061 531.808 113.941 532.33L177.321 469.48C176.796 468.073 176.243 467.211 175.662 466.368ZM110.116 455.329L100.314 465.13C98.1025 468.126 96.2447 471.401 94.7999 474.889L119.878 449.812C116.387 451.256 113.111 453.117 110.116 455.329ZM137.548 446.316C136.987 446.316 135.279 446.358 134.159 446.439L91.4277 489.174C91.3464 490.293 91.3047 491.422 91.3047 492.56C91.3047 492.883 91.3069 493.206 91.3164 493.529L138.516 446.328C138.194 446.319 138.379 446.316 137.548 446.316ZM148.202 447.553L92.54 503.216C92.8022 504.343 93.109 505.45 93.4576 506.542L151.531 448.469C150.439 448.121 149.329 447.815 148.202 447.553ZM159.214 451.696L96.6833 514.228C97.1717 515.145 97.6895 516.044 98.2328 516.922L161.91 453.245C161.03 452.699 160.131 452.183 159.214 451.696ZM168.056 457.809L102.796 523.068C103.522 524.328 104.142 524.767 104.85 525.258L170.246 459.862C169.538 459.154 168.809 458.469 168.056 457.809Z" fill="white" fill-opacity="0.1"/>
</g>
<g clip-path="url(#clip3_203_472)">
<path fill-rule="evenodd" clip-rule="evenodd" d="M1908.05 585.694V589.583C1908.05 590.656 1908.24 591.527 1909.8 591.527C1911.07 591.527 1911.42 590.656 1911.42 589.583V585.694H1915.83C1916.04 585.694 1917.77 584.824 1917.77 583.75C1917.77 582.677 1916.04 581.806 1915.83 581.806H1911.42V577.918C1911.42 576.844 1911.07 575.974 1909.8 575.974C1908.24 575.974 1908.05 576.844 1908.05 577.918V581.806H1904.16C1903.09 581.806 1902.22 582.677 1902.22 583.75C1902.22 584.824 1903.09 585.694 1904.16 585.694H1908.05ZM1892.86 574.386C1893.31 574.386 1894.8 573.516 1894.8 572.442V568.554H1898.69C1899.76 568.554 1900.63 567.683 1900.63 566.61C1900.63 565.536 1899.76 564.665 1898.69 564.665H1894.8V560.777C1894.8 559.703 1893.31 558.833 1892.86 558.833C1891.78 558.833 1890.13 559.703 1890.13 560.777V564.665H1887.02C1885.51 564.665 1885.08 565.536 1885.08 566.609C1885.08 567.683 1885.51 568.554 1887.02 568.554H1890.13V572.442C1890.13 573.515 1891.78 574.386 1892.86 574.386ZM1875.72 557.245C1876.79 557.245 1877.66 556.375 1877.66 555.301V551.413H1881.55C1882.62 551.413 1883.49 550.543 1883.49 549.469C1883.49 548.395 1882.62 547.525 1881.55 547.525H1877.66V543.636C1877.66 542.563 1876.79 541.692 1875.72 541.692C1874.64 541.692 1873.77 542.563 1873.77 543.636V547.525H1869.88C1868.81 547.525 1867.4 548.395 1867.4 549.469C1867.4 550.543 1868.81 551.413 1869.88 551.413H1873.77V555.301C1873.77 556.375 1874.64 557.245 1875.72 557.245ZM1858.58 539.285C1859.65 539.285 1860.52 539.234 1860.52 537.845V534.272H1864.41C1865.48 534.272 1866.35 533.402 1866.35 532.328C1866.35 531.254 1865.48 530.384 1864.41 530.384H1860.52V526.496C1860.52 525.422 1859.65 524.552 1858.58 524.552C1857.5 524.552 1856.63 525.422 1856.63 526.496V530.384H1852.74C1851.67 530.384 1850.8 531.254 1850.8 532.328C1850.8 533.402 1851.67 534.272 1852.74 534.272H1856.63V537.845C1856.63 539.234 1857.5 539.285 1858.58 539.285ZM1841.43 522.964C1842.51 522.964 1843.38 522.093 1843.38 521.02V516.555H1847.27C1848.34 516.555 1849.21 516.261 1849.21 514.395C1849.21 513.385 1848.34 513.243 1847.27 513.243H1843.38V509.355C1843.38 508.281 1842.51 507.411 1841.43 507.411C1840.36 507.411 1839.49 508.281 1839.49 509.355V513.243H1835.6C1834.53 513.243 1833.66 513.385 1833.66 514.395C1833.66 516.261 1834.53 516.555 1835.6 516.555H1839.49V521.02C1839.49 522.093 1840.36 522.964 1841.43 522.964ZM1824.29 505.823C1825.37 505.823 1826.24 504.953 1826.24 503.879V499.991H1830.13C1831.2 499.991 1832.07 498.445 1832.07 498.046C1832.07 496.973 1831.2 495.265 1830.13 495.265H1826.24V492.214C1826.24 490.655 1825.37 490.27 1824.29 490.27C1823.22 490.27 1822.35 490.655 1822.35 492.214V495.265H1818.46C1817.39 495.265 1816.52 496.973 1816.52 498.046C1816.52 498.445 1817.39 499.991 1818.46 499.991H1822.35V503.879C1822.35 504.953 1823.22 505.823 1824.29 505.823ZM1909.8 557.245C1911.07 557.245 1911.42 556.375 1911.42 555.301V551.413H1915.83C1916.04 551.413 1917.77 550.543 1917.77 549.469C1917.77 548.395 1916.04 547.525 1915.83 547.525H1911.42V543.636C1911.42 542.563 1911.07 541.692 1909.8 541.692C1908.24 541.692 1908.05 542.563 1908.05 543.636V547.525H1904.16C1903.09 547.525 1902.22 548.395 1902.22 549.469C1902.22 550.543 1903.09 551.413 1904.16 551.413H1908.05V555.301C1908.05 556.375 1908.24 557.245 1909.8 557.245ZM1892.86 539.285C1893.31 539.285 1894.8 539.234 1894.8 537.845V534.272H1898.69C1899.76 534.272 1900.63 533.402 1900.63 532.328C1900.63 531.254 1899.76 530.384 1898.69 530.384H1894.8V526.496C1894.8 525.422 1893.31 524.552 1892.86 524.552C1891.78 524.552 1890.13 525.422 1890.13 526.496V530.384H1887.02C1885.51 530.384 1885.08 531.254 1885.08 532.328C1885.08 533.402 1885.51 534.272 1887.02 534.272H1890.13V537.845C1890.13 539.234 1891.78 539.285 1892.86 539.285ZM1875.72 522.964C1876.79 522.964 1877.66 522.093 1877.66 521.02V516.555H1881.55C1882.62 516.555 1883.49 516.261 1883.49 514.395C1883.49 513.385 1882.62 513.243 1881.55 513.243H1877.66V509.355C1877.66 508.281 1876.79 507.411 1875.72 507.411C1874.64 507.411 1873.77 508.281 1873.77 509.355V513.243H1869.88C1868.81 513.243 1867.4 513.385 1867.4 514.395C1867.4 516.261 1868.81 516.555 1869.88 516.555H1873.77V521.02C1873.77 522.093 1874.64 522.964 1875.72 522.964ZM1858.58 505.823C1859.65 505.823 1860.52 504.953 1860.52 503.879V499.991H1864.41C1865.48 499.991 1866.35 498.445 1866.35 498.046C1866.35 496.973 1865.48 495.265 1864.41 495.265H1860.52V492.214C1860.52 490.655 1859.65 490.27 1858.58 490.27C1857.5 490.27 1856.63 490.655 1856.63 492.214V495.265L1852.74 495.275C1851.67 495.265 1850.8 496.973 1850.8 498.046C1850.8 498.445 1851.67 499.991 1852.74 499.991H1856.63V503.879C1856.63 504.953 1857.5 505.823 1858.58 505.823ZM1841.43 488.682C1842.51 488.682 1843.38 487.812 1843.38 486.738V482.85H1847.27C1848.34 482.85 1849.21 481.979 1849.21 480.906C1849.21 479.832 1848.34 478.962 1847.27 478.962H1843.38V475.073C1843.38 474 1842.51 472.535 1841.43 472.535C1840.36 472.535 1839.49 474 1839.49 475.073V478.962H1835.6C1834.53 478.962 1833.66 479.832 1833.66 480.906C1833.66 481.979 1834.53 482.85 1835.6 482.85H1839.49V486.738C1839.49 487.812 1840.36 488.682 1841.43 488.682ZM1909.8 522.964C1911.07 522.964 1911.42 522.093 1911.42 521.02V516.555H1915.83C1916.04 516.555 1917.77 516.261 1917.77 514.395C1917.77 513.385 1916.04 513.243 1915.83 513.243H1911.42V509.355C1911.42 508.281 1911.07 507.411 1909.8 507.411C1908.24 507.411 1908.05 508.281 1908.05 509.355V513.243H1904.16C1903.09 513.243 1902.22 513.385 1902.22 514.395C1902.22 516.261 1903.09 516.555 1904.16 516.555H1908.05V521.02C1908.05 522.093 1908.24 522.964 1909.8 522.964ZM1892.86 505.823C1893.31 505.823 1894.8 504.953 1894.8 503.879V499.991H1898.69C1899.76 499.991 1900.63 498.445 1900.63 498.046C1900.63 496.973 1899.76 495.265 1898.69 495.265H1894.8V492.214C1894.8 490.655 1893.31 490.27 1892.86 490.27C1891.78 490.27 1890.13 490.655 1890.13 492.214V495.265H1887.02C1885.51 495.265 1885.08 496.973 1885.08 498.046C1885.08 498.445 1885.51 499.991 1887.02 499.991H1890.13V503.879C1890.13 504.953 1891.78 505.823 1892.86 505.823ZM1875.72 488.682C1876.79 488.682 1877.66 487.812 1877.66 486.738V482.85H1881.55C1882.62 482.85 1883.49 481.98 1883.49 480.906C1883.49 479.832 1882.62 478.962 1881.55 478.962H1877.66V475.073C1877.66 474 1876.79 472.535 1875.72 472.535C1874.64 472.535 1873.77 474 1873.77 475.074V478.962H1869.88C1868.81 478.962 1867.4 479.832 1867.4 480.906C1867.4 481.98 1868.81 482.85 1869.88 482.85H1873.77V486.738C1873.77 487.812 1874.64 488.682 1875.72 488.682ZM1858.58 471.541C1859.65 471.541 1860.52 470.671 1860.52 469.597V465.709H1864.41C1865.48 465.709 1866.35 464.839 1866.35 463.765C1866.35 462.691 1865.48 461.821 1864.41 461.821H1860.52V457.933C1860.52 456.859 1859.65 455.989 1858.58 455.989C1857.5 455.989 1856.63 456.859 1856.63 457.933V461.821H1852.74C1851.67 461.821 1850.8 462.691 1850.8 463.765C1850.8 464.839 1851.67 465.709 1852.74 465.709H1856.63V469.597C1856.63 470.671 1857.5 471.541 1858.58 471.541ZM1909.8 488.682C1911.07 488.682 1911.42 487.812 1911.42 486.738V482.85H1915.83C1916.04 482.85 1917.77 481.98 1917.77 480.906C1917.77 479.832 1916.04 478.962 1915.83 478.962H1911.42V475.074C1911.42 474 1911.07 472.535 1909.8 472.535C1908.24 472.535 1908.05 474 1908.05 475.074V478.962H1904.16C1903.09 478.962 1902.22 479.832 1902.22 480.906C1902.22 481.98 1903.09 482.85 1904.16 482.85H1908.05V486.738C1908.05 487.812 1908.24 488.682 1909.8 488.682ZM1892.86 471.542C1893.31 471.542 1894.8 470.671 1894.8 469.597V465.709H1898.69C1899.76 465.709 1900.63 464.839 1900.63 463.765C1900.63 462.691 1899.76 461.821 1898.69 461.821H1894.8V457.933C1894.8 456.859 1893.31 455.989 1892.86 455.989C1891.78 455.989 1890.13 456.859 1890.13 457.933V461.821H1887.02C1885.51 461.821 1885.08 462.691 1885.08 463.765C1885.08 464.839 1885.51 465.709 1887.02 465.709H1890.13V469.597C1890.13 470.671 1891.78 471.541 1892.86 471.542ZM1875.72 454.401C1876.79 454.401 1877.66 453.53 1877.66 452.457V448.568H1881.55C1882.62 448.568 1883.49 447.698 1883.49 446.624C1883.49 445.551 1882.62 444.68 1881.55 444.68H1877.66V440.792C1877.66 439.718 1876.79 438.848 1875.72 438.848C1874.64 438.848 1873.77 439.718 1873.77 440.792V444.68H1869.88C1868.81 444.68 1867.4 445.551 1867.4 446.624C1867.4 447.698 1868.81 448.568 1869.88 448.568H1873.77V452.457C1873.77 453.53 1874.64 454.401 1875.72 454.401ZM1909.8 454.401C1911.07 454.401 1911.42 453.53 1911.42 452.457V448.568H1915.83C1916.04 448.568 1917.77 447.698 1917.77 446.624C1917.77 445.551 1916.04 444.68 1915.83 444.68H1911.42V440.792C1911.42 439.718 1911.07 438.848 1909.8 438.848C1908.24 438.848 1908.05 439.718 1908.05 440.792V444.68H1904.16C1903.09 444.68 1902.22 445.551 1902.22 446.624C1902.22 447.698 1903.09 448.568 1904.16 448.568H1908.05V452.457C1908.05 453.53 1908.24 454.401 1909.8 454.401ZM1892.86 437.26C1893.31 437.26 1894.8 436.39 1894.8 435.316V431.428H1898.69C1899.76 431.428 1900.63 430.557 1900.63 429.484C1900.63 428.41 1899.76 427.539 1898.69 427.539H1894.8V423.651C1894.8 422.578 1893.31 421.707 1892.86 421.707C1891.78 421.707 1890.13 422.577 1890.13 423.651V427.539H1887.02C1885.51 427.539 1885.08 428.41 1885.08 429.484C1885.08 430.557 1885.51 431.428 1887.02 431.428H1890.13V435.316C1890.13 436.39 1891.78 437.26 1892.86 437.26ZM1909.8 419.435C1911.07 419.435 1911.42 419.249 1911.42 417.995V414.287H1915.83C1916.04 414.287 1917.77 413.417 1917.77 412.343C1917.77 411.269 1916.04 410.399 1915.83 410.399H1911.42V406.51C1911.42 405.437 1911.07 404.566 1909.8 404.566C1908.24 404.566 1908.05 405.437 1908.05 406.51V410.399H1904.16C1903.09 410.399 1902.22 411.269 1902.22 412.343C1902.22 413.416 1903.09 414.287 1904.16 414.287H1908.05V417.995C1908.05 419.249 1908.24 419.435 1909.8 419.435Z" fill="white" fill-opacity="0.1"/>
</g>
<g clip-path="url(#clip4_203_472)">
<path fill-rule="evenodd" clip-rule="evenodd" d="M-1.84785 94.0436C2.08275 97.178 6.3695 99.7785 10.8944 101.817L26.9578 106.511C31.8701 107.559 36.8843 107.349 41.8879 106.826L-1.84785 94.0436ZM66.5095 98.596L-17.9949 73.86C-17.778 74.9233 -17.4059 75.2841 -17.02 75.9889C-16.5155 76.9094 -15.9896 77.8124 -15.4432 78.6965L61.6307 101.222C63.0142 100.771 63.4998 100.294 64.4221 99.7899C65.1283 99.4049 65.8246 99.0076 66.5095 98.596ZM80.404 87.1367L-23.6385 56.7304C-22.8349 58.1689 -23.1263 59.6013 -22.7831 61.0292L77.3607 90.2962C78.4208 89.2785 79.4345 88.3892 80.404 87.1367ZM89.3907 74.2755L-24.0761 41.7107C-23.9992 42.496 -24.3044 43.819 -24.3516 45.1436L87.2683 77.7669C87.9433 76.6231 88.5802 75.4595 89.3907 74.2755ZM60.9291 -7.05794L43.6672 -12.1033C38.8789 -12.2817 33.9933 -12.5855 29.1228 -12.3022L73.2878 0.605357C69.4691 -2.46376 65.3117 -5.02781 60.9291 -7.05794ZM88.2713 18.5097C87.5613 17.214 86.8102 15.957 86.021 14.7357L10.7605 -7.25692C9.43559 -6.65312 8.12438 -5.9992 6.82839 -5.29211C6.46158 -5.09085 6.09554 -4.88806 5.7333 -4.67692L88.8611 19.617C88.6708 19.2448 88.4722 18.8765 88.2713 18.5097ZM93.4986 31.3823L-4.53344 2.73498C-5.65212 3.73295 -6.64066 4.76966 -7.74869 5.84434L94.9308 35.7342C94.2437 34.2767 93.9012 33.379 93.4986 31.3823ZM95.6386 46.7689L-14.4889 14.2861C-15.2294 15.4102 -15.9303 16.5578 -16.2902 17.7205L95.5541 50.495C95.6279 49.156 95.6546 47.814 95.6386 46.7689ZM94.1858 60.3137L-20.7459 27.0676C-21.1919 27.9426 -21.596 29.1745 -21.9605 30.4193L93.2117 64.0785C93.577 62.8337 93.9035 61.579 94.1858 60.3137Z" fill="white" fill-opacity="0.1"/>
</g>
</g>
<defs>
<clipPath id="clip0_203_472">
<rect width="1920" height="628" fill="white"/>
</clipPath>
<clipPath id="clip1_203_472">
<rect width="93" height="93" fill="white" transform="translate(1702 124.195)"/>
</clipPath>
<clipPath id="clip2_203_472">
<rect width="93" height="93" fill="white" transform="translate(91 446.195)"/>
</clipPath>
<clipPath id="clip3_203_472">
<rect width="102" height="188" fill="white" transform="matrix(-1 0 0 -1 1918 592.195)"/>
</clipPath>
<clipPath id="clip4_203_472">
<rect width="121" height="120" fill="white" transform="translate(-25 -12.8047)"/>
</clipPath>
</defs>
</svg>
