<?xml version="1.0" encoding="UTF-8"?>
<svg xmlns="http://www.w3.org/2000/svg" id="Outline" viewBox="0 0 512 512" width="512" height="512"><path d="M488,224H464a8,8,0,0,0,0,16h7.355l-19.2,24H438.624a24,24,0,1,0-44.279,18.341l-16,16A23.99,23.99,0,0,0,345.376,312H296V192.049c.035-3.166.115-59.243-36.568-96.44C238.756,74.646,210.688,64.011,176.009,64h-.059c-34.039.01-61.75,10.5-82.364,31.167C56.265,132.592,55.993,189.613,56,192V350.047l-34.3,10.29A8,8,0,0,0,16,368V488a8,8,0,0,0,8,8H360a8,8,0,0,0,8-8V384a8,8,0,0,0-8-8H336v-8a8,8,0,0,0-5.7-7.663L296,350.047V328h49.377a24,24,0,1,0,44.279-18.341l16-16A23.99,23.99,0,0,0,438.624,280H456a8,8,0,0,0,6.247-3L480,254.806V256a8,8,0,0,0,16,0V232A8,8,0,0,0,488,224ZM175.98,142.91c9.8,14.252,29.413,38.987,55.984,53.894L232,236.62C221.39,262.425,200.192,288,176,288s-45.391-25.578-56-51.384V196.8C146.572,181.9,166.179,157.162,175.98,142.91ZM116.658,352.783,128,349.293V378.3ZM144,355.178a39.919,39.919,0,0,0,15.535,9.973L144,380.687Zm64,0v25.509l-15.535-15.536A39.919,39.919,0,0,0,208,355.178Zm2.343,50.479a8.039,8.039,0,0,0,1.1.908L184,468.3V379.314ZM224,349.293l11.342,3.49L224,378.3ZM200,336c0,8.673-10.991,16-24,16s-24-7.327-24-16V298.168a52.3,52.3,0,0,0,48,0ZM72,191.978c0-.524.232-52.739,32.916-85.513C120.816,90.521,142,81.712,167.96,80.226v45.641c-5.06,8.274-27.58,42.862-59.562,58.989A8,8,0,0,0,104,192v46.17a8.014,8.014,0,0,0,.562,2.947c6.634,16.74,16.546,32.027,27.912,43.041,1.162,1.126,2.34,2.189,3.526,3.223v42.711l-26.462,8.141a8.008,8.008,0,0,0-7.837-1.9L72,345.247ZM80,480V432a8,8,0,0,0-16,0v48H32V373.952l67.551-20.265L155.69,480Zm60.561-73.435a8.039,8.039,0,0,0,1.1-.908L168,379.314V468.3ZM352,392v88H336V392Zm-32-8v96H288V432a8,8,0,0,0-16,0v48H196.31l56.139-126.313L320,373.952Zm-69.7-47.663a8.009,8.009,0,0,0-7.836,1.9L216,330.092V287.381c1.186-1.034,2.364-2.1,3.526-3.223,11.366-11.014,21.279-26.3,27.912-43.041a8.009,8.009,0,0,0,.562-2.954l-.04-46.17a8,8,0,0,0-4.4-7.137c-31.986-16.129-54.508-50.724-59.562-58.989V80.22c26.5,1.478,47.987,10.389,63.961,26.546,32.256,32.624,32.044,84.612,32.039,85.123,0,.037,0,.074,0,.111V345.247ZM368,328a8,8,0,1,1,8-8A8.009,8.009,0,0,1,368,328Zm48-48a8,8,0,1,1,8-8A8.009,8.009,0,0,1,416,280Z"/><circle cx="152" cy="200" r="8"/><circle cx="200" cy="200" r="8"/><path d="M145.344,235.562a8,8,0,0,0,2.218,11.094,51.131,51.131,0,0,0,56.876,0,8,8,0,0,0-8.876-13.312,35.174,35.174,0,0,1-39.124,0A8,8,0,0,0,145.344,235.562Z"/><path d="M308.422,79.155a8,8,0,1,0,7.156-14.31l-16-8a8,8,0,0,0-7.156,14.31Z"/><path d="M320.509,122.809,344,185.45V216a8,8,0,0,0,8,8h48a8,8,0,0,0,8-8V185.459c1.573-4.169,6.529-17.3,11.487-30.48C432,121.724,432,121.724,432,120c0-17.592-4.961-31.472-14.744-41.256S393.592,64,376,64s-31.472,4.961-41.256,14.744S320,102.408,320,120A8,8,0,0,0,320.509,122.809ZM360,208V192h32v16ZM376,80c26.1,0,39.546,13.009,39.989,38.677-2.25,6.177-13.183,35.227-21.52,57.323H357.544l-21.531-57.416C336.487,92.979,349.934,80,376,80Z"/><path d="M384,40V24a8,8,0,0,0-16,0V40a8,8,0,0,0,16,0Z"/><path d="M336.006,56a8,8,0,0,0,7.149-11.58l-8-16a8,8,0,0,0-14.31,7.156l8,16A8,8,0,0,0,336.006,56Z"/><path d="M415.994,56a8,8,0,0,0,7.161-4.424l8-16a8,8,0,1,0-14.31-7.156l-8,16A8,8,0,0,0,415.994,56Z"/><path d="M440.006,80a7.976,7.976,0,0,0,3.572-.847l16-8a8,8,0,1,0-7.156-14.31l-16,8A8,8,0,0,0,440.006,80Z"/><path d="M488,296H456a8,8,0,0,0-8,8V488a8,8,0,0,0,8,8h32a8,8,0,0,0,8-8V304A8,8,0,0,0,488,296Zm-8,184H464V312h16Z"/><path d="M424,496a8,8,0,0,0,8-8V368a8,8,0,0,0-8-8H392a8,8,0,0,0-8,8V488a8,8,0,0,0,8,8ZM400,376h16V480H400Z"/></svg>
