<svg id="Layer_1" enable-background="new 0 0 512 512" viewBox="0 0 512 512" xmlns="http://www.w3.org/2000/svg"><path d="m70.53 378.46c13.76 0 24.96-11.2 24.96-24.97 0-5.94-2.09-11.41-5.57-15.7l51.84-68.57c3.02 1.3 6.34 2.02 9.83 2.02 6.85 0 13.06-2.77 17.57-7.26l39.67 24.13c-.74 2.36-1.14 4.87-1.14 7.47 0 13.77 11.2 24.97 24.96 24.97s24.96-11.2 24.96-24.97c0-6.35-2.38-12.15-6.3-16.56l72.74-105.82c10.83 6.73 23.6 10.63 37.26 10.63 32.31 0 60.52-21.83 68.6-53.08.83-3.21-1.1-6.48-4.31-7.31s-6.48 1.1-7.31 4.31c-6.71 25.96-30.15 44.08-56.98 44.08-32.45 0-58.85-26.42-58.85-58.88s26.4-58.88 58.85-58.88c26.84 0 50.27 18.13 56.98 44.08.83 3.21 4.1 5.14 7.31 4.31s5.14-4.1 4.31-7.31c-8.08-31.25-36.29-53.08-68.6-53.08-39.07 0-70.85 31.8-70.85 70.88 0 21.11 9.28 40.08 23.97 53.08l-73 106.18c-2.73-1.03-5.69-1.6-8.78-1.6-6.85 0-13.06 2.77-17.57 7.26l-39.67-24.13c.74-2.36 1.14-4.87 1.14-7.47 0-13.77-11.2-24.97-24.96-24.97s-24.96 11.2-24.96 24.97c0 5.94 2.09 11.41 5.57 15.7l-51.84 68.57c-3.02-1.3-6.34-2.02-9.83-2.02-13.76 0-24.96 11.2-24.96 24.97s11.2 24.97 24.96 24.97zm162.13-95.84c7.15 0 12.96 5.82 12.96 12.97s-5.81 12.97-12.96 12.97-12.96-5.82-12.96-12.97 5.81-12.97 12.96-12.97zm-81.06-49.31c7.15 0 12.96 5.82 12.96 12.97s-5.81 12.97-12.96 12.97-12.96-5.82-12.96-12.97c-.01-7.16 5.81-12.97 12.96-12.97zm-81.07 107.21c7.15 0 12.96 5.82 12.96 12.97s-5.81 12.97-12.96 12.97-12.96-5.82-12.96-12.97 5.81-12.97 12.96-12.97zm373.79 117.4h-183.18v-67.84c0-3.31-2.69-6-6-6h-44.95c-3.31 0-6 2.69-6 6v67.84h-24.11v-98.55c0-3.31-2.69-6-6-6h-44.96c-3.31 0-6 2.69-6 6v98.55h-24.11v-35.42c0-3.31-2.69-6-6-6h-44.96c-3.31 0-6 2.69-6 6v35.42h-21.05c-3.31 0-6 2.69-6 6s2.69 6 6 6h27.05 44.96 36.11 44.96 36.11 44.95 189.18c3.31 0 6-2.69 6-6s-2.69-6-6-6zm-390.27 0v-29.42h32.96v29.42zm81.07 0v-92.55h32.96v92.55zm81.06 0v-61.84h32.95v61.84zm145.15-383.6c-21.3 0-38.63 17.34-38.63 38.65s17.33 38.65 38.63 38.65c16.01 0 30.12-9.63 35.97-24.54 1.21-3.09 4.69-4.61 7.78-3.39 3.08 1.21 4.6 4.69 3.39 7.78-7.66 19.53-26.17 32.15-47.14 32.15-27.92 0-50.63-22.72-50.63-50.65s22.71-50.65 50.63-50.65c20.98 0 39.48 12.62 47.14 32.15 1.21 3.08-.31 6.57-3.39 7.78s-6.57-.31-7.78-3.39c-5.84-14.91-19.96-24.54-35.97-24.54zm-18.4 38.64c0 10.15 8.25 18.41 18.4 18.41 5.21 0 10.21-2.23 13.69-6.11 2.21-2.47 6.01-2.67 8.47-.46 2.47 2.21 2.67 6.01.46 8.47-5.76 6.42-14.01 10.1-22.62 10.1-16.76 0-30.4-13.64-30.4-30.41s13.64-30.41 30.4-30.41c8.62 0 16.86 3.68 22.62 10.1 2.21 2.47 2.01 6.26-.46 8.47s-6.26 2.01-8.47-.46c-3.49-3.89-8.48-6.11-13.69-6.11-10.15 0-18.4 8.26-18.4 18.41zm143.75-1.76 9.15-12.41c1.34-1.82 1.55-4.25.53-6.27s-3.09-3.3-5.36-3.3h-43.69c-1.91 0-3.7.91-4.83 2.44l-10.04 13.6-71.26 1.7c-3.31.08-5.93 2.83-5.86 6.14.08 3.26 2.75 5.86 6 5.86h.15l71.08-1.69 9.93 13.46c1.13 1.53 2.92 2.44 4.83 2.44h43.69c2.26 0 4.34-1.27 5.36-3.3 1.02-2.02.82-4.44-.53-6.27zm-36.34 9.96-7.35-9.97 7.35-9.97h28.78l-4.73 6.41c-1.56 2.12-1.56 5.01 0 7.12l4.73 6.41zm-96.32 202.33c3.94 3.99 9.21 6.21 14.82 6.24h.13c5.56 0 10.8-2.15 14.76-6.07 3.99-3.95 6.21-9.21 6.24-14.82s-2.12-10.9-6.06-14.9c-3.94-3.99-9.21-6.21-14.82-6.24-.04 0-.09 0-.13 0-5.56 0-10.8 2.15-14.76 6.07-3.99 3.95-6.21 9.21-6.24 14.82-.03 5.62 2.12 10.91 6.06 14.9zm8.62-21.18c1.7-1.68 3.94-2.6 6.33-2.6.02 0 .04.01.06 0 2.41.01 4.66.96 6.35 2.68 1.69 1.71 2.62 3.98 2.6 6.39-.01 2.41-.96 4.67-2.68 6.36-1.71 1.69-3.97 2.61-6.38 2.6s-4.66-.96-6.35-2.68c-1.69-1.71-2.62-3.98-2.6-6.39.01-2.41.96-4.67 2.67-6.36zm42.29 118.59c.74.3 1.51.45 2.28.45 1.65 0 3.26-.68 4.42-1.94 9.68-10.52 14.98-23.46 15.33-37.42.34-13.38-3.94-26.79-12.37-38.89.43-5.78.64-11.47.77-16.98 0-.07 0-.14 0-.21-.41-38.23-15-72.48-42.19-99.05-2.31-2.26-6-2.28-8.34-.05-33.66 32.11-41.56 72.77-42.27 101.22v.21c.05 4.92.21 10.02.59 15.22-8.26 12.01-12.45 25.28-12.12 38.54.35 13.96 5.65 26.9 15.33 37.42 1.16 1.26 2.77 1.94 4.42 1.94.77 0 1.54-.15 2.28-.45 2.32-.96 3.81-3.26 3.72-5.77-.36-9.91-.24-15.37.97-19.19 1.77 3.13 3.74 6.24 5.95 9.31.87 1.21 2.14 2.03 3.56 2.35-2.45 15.75 3.94 35.55 18.75 43.33.87.46 1.83.69 2.79.69.92 0 1.84-.21 2.69-.64 13.31-6.67 21.54-26.21 19.43-43.41 1.44-.3 2.74-1.11 3.62-2.31 2.16-2.93 4.09-5.93 5.81-8.99 1.12 3.8 1.21 9.22.86 18.85-.08 2.51 1.4 4.81 3.72 5.77zm-53.22-25.14c-1.18-1.76-2.27-3.53-3.29-5.32h41.44c-1.01 1.79-2.09 3.55-3.26 5.27zm17.23-156.09c7.29 7.77 13.45 16.19 18.47 25.16h-36.76c4.7-8.66 10.69-17.17 18.29-25.16zm-23.98 37.16h48.35c6.45 15.18 9.86 31.69 10.06 49.09-.42 16.85-1.56 35.42-7.95 52.52h-52.78c-6.58-16.64-7.89-33.78-8.07-50.23.37-14.74 2.84-33.01 10.39-51.38zm-19.43 118.52c-3.47-9.87-3.33-20.71.42-31.3 1.32 6.31 3.14 12.67 5.65 18.99-3.27 3.72-5.11 7.57-6.07 12.31zm43.29 43.16c-8.36-6.57-11.74-20.51-9.39-30.77l19.38-.02c1.93 11.25-2.44 24.81-9.99 30.79zm43.12-74.77c3.85 10.69 4.03 21.65.52 31.61-.95-4.7-2.76-8.51-5.97-12.2 2.43-6.37 4.19-12.89 5.45-19.41zm-37-22.93v16.73c0 3.31-2.69 6-6 6s-6-2.69-6-6v-16.73c0-3.31 2.69-6 6-6s6 2.69 6 6z"/></svg>