<svg width="1920" height="1003" viewBox="0 0 1920 1003" fill="none" xmlns="http://www.w3.org/2000/svg">
<g clip-path="url(#clip0_12_40)">
<path d="M1792.02 559.9H1790.23V555.423H1792.02V559.9Z" fill="white" fill-opacity="0.1"/>
<path d="M1792.02 559.9H1790.23V555.423H1792.02V559.9Z" fill="white" fill-opacity="0.1"/>
<path d="M1792.02 486.044H1790.23V481.567H1792.02V486.044Z" fill="white" fill-opacity="0.1"/>
<path d="M1756.43 521.63H1751.96V519.84H1756.43V521.63Z" fill="white" fill-opacity="0.1"/>
<path d="M1756.43 521.63H1751.96V519.84H1756.43V521.63Z" fill="white" fill-opacity="0.1"/>
<path d="M1830.29 521.63H1825.81V519.84H1830.29V521.63Z" fill="white" fill-opacity="0.1"/>
<path d="M1764.06 549.043L1762.8 547.777L1765.96 544.612L1767.23 545.878L1764.06 549.043Z" fill="white" fill-opacity="0.1"/>
<path d="M1764.06 549.043L1762.8 547.777L1765.96 544.612L1767.23 545.878L1764.06 549.043Z" fill="white" fill-opacity="0.1"/>
<path d="M1816.29 496.812L1815.02 495.546L1818.19 492.381L1819.46 493.647L1816.29 496.812Z" fill="white" fill-opacity="0.1"/>
<path d="M1765.95 496.837L1762.79 493.672L1764.06 492.406L1767.22 495.572L1765.95 496.837Z" fill="white" fill-opacity="0.1"/>
<path d="M1765.95 496.837L1762.79 493.672L1764.06 492.406L1767.22 495.572L1765.95 496.837Z" fill="white" fill-opacity="0.1"/>
<path d="M1818.18 549.064L1815.02 545.898L1816.28 544.632L1819.45 547.798L1818.18 549.064Z" fill="white" fill-opacity="0.1"/>
<path d="M1783.07 559.077L1781.33 558.669L1782.35 554.31L1784.09 554.718L1783.07 559.077Z" fill="white" fill-opacity="0.1"/>
<path d="M1783.07 559.077L1781.33 558.669L1782.35 554.31L1784.09 554.718L1783.07 559.077Z" fill="white" fill-opacity="0.1"/>
<path d="M1799.91 487.164L1798.17 486.756L1799.19 482.397L1800.93 482.805L1799.91 487.164Z" fill="white" fill-opacity="0.1"/>
<path d="M1757.13 513.699L1752.77 512.678L1753.18 510.935L1757.54 511.956L1757.13 513.699Z" fill="white" fill-opacity="0.1"/>
<path d="M1757.13 513.699L1752.77 512.678L1753.18 510.935L1757.54 511.956L1757.13 513.699Z" fill="white" fill-opacity="0.1"/>
<path d="M1829.04 530.545L1824.69 529.524L1825.09 527.781L1829.45 528.802L1829.04 530.545Z" fill="white" fill-opacity="0.1"/>
<path d="M1758.32 542.153L1757.37 540.632L1761.18 538.271L1762.12 539.792L1758.32 542.153Z" fill="white" fill-opacity="0.1"/>
<path d="M1758.32 542.153L1757.37 540.632L1761.18 538.271L1762.12 539.792L1758.32 542.153Z" fill="white" fill-opacity="0.1"/>
<path d="M1821.07 503.206L1820.13 501.685L1823.93 499.324L1824.88 500.845L1821.07 503.206Z" fill="white" fill-opacity="0.1"/>
<path d="M1772.06 491.741L1769.7 487.938L1771.22 486.993L1773.58 490.797L1772.06 491.741Z" fill="white" fill-opacity="0.1"/>
<path d="M1772.06 491.741L1769.7 487.938L1771.22 486.993L1773.58 490.797L1772.06 491.741Z" fill="white" fill-opacity="0.1"/>
<path d="M1811.01 554.485L1808.65 550.682L1810.17 549.737L1812.53 553.541L1811.01 554.485Z" fill="white" fill-opacity="0.1"/>
<path d="M1777.52 557.477L1775.85 556.816L1777.5 552.655L1779.17 553.316L1777.52 557.477Z" fill="white" fill-opacity="0.1"/>
<path d="M1777.52 557.477L1775.85 556.816L1777.5 552.655L1779.17 553.316L1777.52 557.477Z" fill="white" fill-opacity="0.1"/>
<path d="M1804.76 488.826L1803.1 488.165L1804.75 484.004L1806.41 484.665L1804.76 488.826Z" fill="white" fill-opacity="0.1"/>
<path d="M1758.56 508.766L1754.4 507.115L1755.06 505.451L1759.22 507.102L1758.56 508.766Z" fill="white" fill-opacity="0.1"/>
<path d="M1758.56 508.766L1754.4 507.115L1755.06 505.451L1759.22 507.102L1758.56 508.766Z" fill="white" fill-opacity="0.1"/>
<path d="M1827.21 536.007L1823.05 534.356L1823.71 532.691L1827.87 534.343L1827.21 536.007Z" fill="white" fill-opacity="0.1"/>
<path d="M1755.51 537.095L1754.8 535.452L1758.91 533.677L1759.62 535.321L1755.51 537.095Z" fill="white" fill-opacity="0.1"/>
<path d="M1755.51 537.095L1754.8 535.452L1758.91 533.677L1759.62 535.321L1755.51 537.095Z" fill="white" fill-opacity="0.1"/>
<path d="M1823.32 507.821L1822.61 506.177L1826.72 504.402L1827.43 506.046L1823.32 507.821Z" fill="white" fill-opacity="0.1"/>
<path d="M1776.54 489.236L1774.77 485.126L1776.41 484.417L1778.19 488.526L1776.54 489.236Z" fill="white" fill-opacity="0.1"/>
<path d="M1776.54 489.236L1774.77 485.126L1776.41 484.417L1778.19 488.526L1776.54 489.236Z" fill="white" fill-opacity="0.1"/>
<path d="M1805.82 557.044L1804.05 552.934L1805.69 552.225L1807.47 556.335L1805.82 557.044Z" fill="white" fill-opacity="0.1"/>
<path d="M1769.5 553.401L1768.03 552.379L1770.59 548.703L1772.06 549.726L1769.5 553.401Z" fill="white" fill-opacity="0.1"/>
<path d="M1769.5 553.401L1768.03 552.379L1770.59 548.703L1772.06 549.726L1769.5 553.401Z" fill="white" fill-opacity="0.1"/>
<path d="M1811.68 492.764L1810.21 491.742L1812.77 488.067L1814.24 489.089L1811.68 492.764Z" fill="white" fill-opacity="0.1"/>
<path d="M1762.14 501.674L1758.46 499.118L1759.48 497.648L1763.16 500.205L1762.14 501.674Z" fill="white" fill-opacity="0.1"/>
<path d="M1762.14 501.674L1758.46 499.118L1759.48 497.648L1763.16 500.205L1762.14 501.674Z" fill="white" fill-opacity="0.1"/>
<path d="M1822.75 543.827L1819.08 541.271L1820.1 539.801L1823.77 542.357L1822.75 543.827Z" fill="white" fill-opacity="0.1"/>
<path d="M1752.74 528.542L1752.42 526.78L1756.83 525.989L1757.14 527.751L1752.74 528.542Z" fill="white" fill-opacity="0.1"/>
<path d="M1752.74 528.542L1752.42 526.78L1756.83 525.989L1757.14 527.751L1752.74 528.542Z" fill="white" fill-opacity="0.1"/>
<path d="M1825.43 515.495L1825.11 513.733L1829.52 512.942L1829.84 514.704L1825.43 515.495Z" fill="white" fill-opacity="0.1"/>
<path d="M1784.1 486.762L1783.31 482.355L1785.07 482.039L1785.86 486.445L1784.1 486.762Z" fill="white" fill-opacity="0.1"/>
<path d="M1784.1 486.762L1783.31 482.355L1785.07 482.039L1785.86 486.445L1784.1 486.762Z" fill="white" fill-opacity="0.1"/>
<path d="M1797.16 559.451L1796.37 555.045L1798.13 554.728L1798.92 559.135L1797.16 559.451Z" fill="white" fill-opacity="0.1"/>
<path d="M1549.85 226.27L1545.68 232.681L1541.51 239.093L1538.04 232.274L1534.57 225.454L1542.21 225.862L1549.85 226.27Z" fill="white" fill-opacity="0.1"/>
<path d="M1553.94 233.892L1546.1 218.474L1563.37 219.395L1553.94 233.892ZM1548.03 219.731L1554.06 231.591L1561.32 220.44L1548.03 219.731Z" fill="white" fill-opacity="0.1"/>
<path d="M1575.36 213.303L1571.18 219.716L1567.01 226.127L1563.54 219.308L1560.08 212.488L1567.72 212.896L1575.36 213.303Z" fill="white" fill-opacity="0.1"/>
<path d="M1579.45 220.925L1571.61 205.508L1588.88 206.429L1579.45 220.925ZM1573.54 206.764L1579.57 218.624L1586.82 207.473L1573.54 206.764Z" fill="white" fill-opacity="0.1"/>
<path d="M1600.86 200.337L1596.69 206.749L1592.52 213.161L1589.05 206.342L1585.58 199.522L1593.22 199.929L1600.86 200.337Z" fill="white" fill-opacity="0.1"/>
<path d="M1604.95 207.959L1597.11 192.542L1614.38 193.463L1604.95 207.959ZM1599.05 193.798L1605.07 205.658L1612.33 194.507L1599.05 193.798Z" fill="white" fill-opacity="0.1"/>
<path d="M1013.73 299.698C1013.89 299.194 1014.61 299.194 1014.77 299.698L1018.6 311.572C1018.65 311.741 1018.79 311.873 1018.96 311.925L1031.07 315.657C1031.58 315.815 1031.58 316.541 1031.07 316.699L1018.96 320.43C1018.79 320.483 1018.65 320.615 1018.6 320.784L1014.77 332.658C1014.61 333.162 1013.89 333.162 1013.73 332.658L1009.9 320.784C1009.85 320.615 1009.71 320.483 1009.54 320.43L997.432 316.699C996.919 316.541 996.919 315.815 997.432 315.657L1009.54 311.925C1009.71 311.873 1009.85 311.741 1009.9 311.572L1013.73 299.698Z" fill="white" fill-opacity="0.1"/>
<path d="M965.381 528.788C965.469 528.515 965.855 528.515 965.943 528.788L968.018 535.219C968.047 535.311 968.12 535.382 968.212 535.411L974.771 537.432C975.049 537.517 975.049 537.911 974.771 537.997L968.212 540.018C968.12 540.046 968.047 540.118 968.018 540.209L965.943 546.641C965.855 546.914 965.469 546.914 965.381 546.641L963.306 540.209C963.276 540.118 963.204 540.046 963.111 540.018L956.552 537.997C956.274 537.911 956.274 537.517 956.552 537.432L963.111 535.411C963.204 535.382 963.276 535.311 963.306 535.219L965.381 528.788Z" fill="white" fill-opacity="0.1"/>
<g clip-path="url(#clip1_12_40)">
<path fill-rule="evenodd" clip-rule="evenodd" d="M141.85 800.489C144.119 799.541 146.242 798.313 148.18 796.851L154.021 791.065C155.428 789.128 156.656 787.004 157.605 784.735L141.85 800.489ZM159.844 772.24L129.501 802.729C129.745 802.745 130.137 802.753 130.531 802.753C131.045 802.753 131.556 802.74 132.065 802.713L159.828 774.949C159.855 774.441 159.868 773.93 159.868 773.415C159.868 773.022 159.861 772.63 159.844 772.24ZM158.518 763.586L120.701 801.064C121.373 801.304 122.055 801.519 122.749 801.708L158.823 765.634C158.89 765.249 158.42 764.258 158.518 763.586ZM154.711 756.799L113.914 797.596C114.449 797.964 114.996 798.315 115.554 798.646L155.763 758.773C155.43 757.88 155.079 757.334 154.711 756.799ZM113.127 749.795L106.909 756.013C105.506 757.914 104.327 759.992 103.411 762.205L119.32 746.296C117.106 747.212 115.028 748.392 113.127 749.795ZM130.531 744.078C130.175 744.078 129.091 744.105 128.381 744.156L101.271 771.267C101.22 771.977 101.193 772.694 101.193 773.415C101.193 773.62 101.195 773.825 101.201 774.03L131.145 744.085C130.94 744.079 131.058 744.078 130.531 744.078ZM137.29 744.862L101.977 780.176C102.143 780.89 102.338 781.593 102.559 782.286L139.401 745.444C138.709 745.223 138.004 745.029 137.29 744.862ZM144.275 747.491L104.606 787.162C104.915 787.744 105.244 788.314 105.589 788.871L145.986 748.473C145.428 748.127 144.858 747.8 144.275 747.491ZM149.885 751.369L108.484 792.77C108.944 793.569 109.337 793.848 109.786 794.159L151.275 752.672C150.825 752.222 150.363 751.788 149.885 751.369Z" fill="white" fill-opacity="0.1"/>
</g>
<g clip-path="url(#clip2_12_40)">
<path fill-rule="evenodd" clip-rule="evenodd" d="M1591.85 434.489C1594.12 433.541 1596.24 432.313 1598.18 430.851L1604.02 425.065C1605.43 423.128 1606.66 421.004 1607.6 418.735L1591.85 434.489ZM1609.84 406.24L1579.5 436.729C1579.75 436.745 1580.14 436.753 1580.53 436.753C1581.04 436.753 1581.56 436.74 1582.06 436.713L1609.83 408.949C1609.85 408.441 1609.87 407.93 1609.87 407.415C1609.87 407.022 1609.86 406.63 1609.84 406.24ZM1608.52 397.586L1570.7 435.064C1571.37 435.304 1572.06 435.519 1572.75 435.708L1608.82 399.634C1608.89 399.249 1608.42 398.258 1608.52 397.586ZM1604.71 390.799L1563.91 431.596C1564.45 431.964 1565 432.315 1565.55 432.646L1605.76 392.773C1605.43 391.88 1605.08 391.334 1604.71 390.799ZM1563.13 383.795L1556.91 390.013C1555.51 391.914 1554.33 393.992 1553.41 396.205L1569.32 380.296C1567.11 381.212 1565.03 382.392 1563.13 383.795ZM1580.53 378.078C1580.17 378.078 1579.09 378.105 1578.38 378.156L1551.27 405.267C1551.22 405.977 1551.19 406.693 1551.19 407.415C1551.19 407.62 1551.19 407.825 1551.2 408.03L1581.14 378.085C1580.94 378.079 1581.06 378.078 1580.53 378.078ZM1587.29 378.862L1551.98 414.176C1552.14 414.89 1552.34 415.593 1552.56 416.286L1589.4 379.444C1588.71 379.223 1588 379.029 1587.29 378.862ZM1594.28 381.491L1554.61 421.162C1554.92 421.744 1555.24 422.314 1555.59 422.871L1595.99 382.473C1595.43 382.127 1594.86 381.8 1594.28 381.491ZM1599.88 385.369L1558.48 426.77C1558.94 427.569 1559.34 427.848 1559.79 428.159L1601.27 386.672C1600.83 386.222 1600.36 385.788 1599.88 385.369Z" fill="white" fill-opacity="0.1"/>
</g>
<g clip-path="url(#clip3_12_40)">
<path fill-rule="evenodd" clip-rule="evenodd" d="M1914.05 831.499V835.388C1914.05 836.461 1914.24 837.332 1915.8 837.332C1917.07 837.332 1917.42 836.461 1917.42 835.388V831.499H1921.83C1922.04 831.499 1923.77 830.629 1923.77 829.555C1923.77 828.482 1922.04 827.611 1921.83 827.611H1917.42V823.723C1917.42 822.649 1917.07 821.779 1915.8 821.779C1914.24 821.779 1914.05 822.649 1914.05 823.723V827.611H1910.17C1909.09 827.611 1908.22 828.482 1908.22 829.555C1908.22 830.629 1909.09 831.499 1910.17 831.499H1914.05ZM1898.86 820.191C1899.31 820.191 1900.8 819.321 1900.8 818.247V814.359H1904.69C1905.76 814.359 1906.63 813.488 1906.63 812.415C1906.63 811.341 1905.76 810.47 1904.69 810.47H1900.8V806.582C1900.8 805.508 1899.31 804.638 1898.86 804.638C1897.78 804.638 1896.13 805.508 1896.13 806.582V810.47H1893.03C1891.51 810.47 1891.08 811.341 1891.08 812.414C1891.08 813.488 1891.51 814.359 1893.03 814.359H1896.13V818.247C1896.13 819.32 1897.78 820.191 1898.86 820.191ZM1881.72 803.05C1882.79 803.05 1883.66 802.18 1883.66 801.106V797.218H1887.55C1888.62 797.218 1889.49 796.348 1889.49 795.274C1889.49 794.2 1888.62 793.33 1887.55 793.33H1883.66V789.441C1883.66 788.368 1882.79 787.497 1881.72 787.497C1880.64 787.497 1879.77 788.368 1879.77 789.441V793.33H1875.88C1874.81 793.33 1873.4 794.2 1873.4 795.274C1873.4 796.348 1874.81 797.218 1875.88 797.218H1879.77V801.106C1879.77 802.18 1880.64 803.05 1881.72 803.05ZM1864.58 785.09C1865.65 785.09 1866.52 785.039 1866.52 783.65V780.077H1870.41C1871.48 780.077 1872.35 779.207 1872.35 778.133C1872.35 777.059 1871.48 776.189 1870.41 776.189H1866.52V772.301C1866.52 771.227 1865.65 770.357 1864.58 770.357C1863.5 770.357 1862.63 771.227 1862.63 772.301V776.189H1858.74C1857.67 776.189 1856.8 777.059 1856.8 778.133C1856.8 779.207 1857.67 780.077 1858.74 780.077H1862.63V783.65C1862.63 785.039 1863.5 785.09 1864.58 785.09ZM1847.44 768.769C1848.51 768.769 1849.38 767.898 1849.38 766.825V762.36H1853.27C1854.34 762.36 1855.21 762.066 1855.21 760.2C1855.21 759.19 1854.34 759.048 1853.27 759.048H1849.38V755.16C1849.38 754.086 1848.51 753.216 1847.44 753.216C1846.36 753.216 1845.49 754.086 1845.49 755.16V759.048H1841.6C1840.53 759.048 1839.66 759.19 1839.66 760.2C1839.66 762.066 1840.53 762.36 1841.6 762.36H1845.49V766.825C1845.49 767.898 1846.36 768.769 1847.44 768.769ZM1830.29 751.628C1831.37 751.628 1832.24 750.758 1832.24 749.684V745.796H1836.13C1837.2 745.796 1838.07 744.25 1838.07 743.851C1838.07 742.778 1837.2 741.07 1836.13 741.07H1832.24V738.019C1832.24 736.46 1831.37 736.075 1830.29 736.075C1829.22 736.075 1828.35 736.46 1828.35 738.019V741.07H1824.46C1823.39 741.07 1822.52 742.778 1822.52 743.851C1822.52 744.25 1823.39 745.796 1824.46 745.796H1828.35V749.684C1828.35 750.758 1829.22 751.628 1830.29 751.628ZM1915.8 803.05C1917.07 803.05 1917.42 802.18 1917.42 801.106V797.218H1921.83C1922.04 797.218 1923.77 796.348 1923.77 795.274C1923.77 794.2 1922.04 793.33 1921.83 793.33H1917.42V789.441C1917.42 788.368 1917.07 787.497 1915.8 787.497C1914.24 787.497 1914.05 788.368 1914.05 789.441V793.33H1910.17C1909.09 793.33 1908.22 794.2 1908.22 795.274C1908.22 796.348 1909.09 797.218 1910.17 797.218H1914.05V801.106C1914.05 802.18 1914.24 803.05 1915.8 803.05ZM1898.86 785.09C1899.31 785.09 1900.8 785.039 1900.8 783.65V780.077H1904.69C1905.76 780.077 1906.63 779.207 1906.63 778.133C1906.63 777.059 1905.76 776.189 1904.69 776.189H1900.8V772.301C1900.8 771.227 1899.31 770.357 1898.86 770.357C1897.78 770.357 1896.13 771.227 1896.13 772.301V776.189H1893.03C1891.51 776.189 1891.08 777.059 1891.08 778.133C1891.08 779.207 1891.51 780.077 1893.03 780.077H1896.13V783.65C1896.13 785.039 1897.78 785.09 1898.86 785.09ZM1881.72 768.769C1882.79 768.769 1883.66 767.898 1883.66 766.825V762.36H1887.55C1888.62 762.36 1889.49 762.066 1889.49 760.2C1889.49 759.19 1888.62 759.048 1887.55 759.048H1883.66V755.16C1883.66 754.086 1882.79 753.216 1881.72 753.216C1880.64 753.216 1879.77 754.086 1879.77 755.16V759.048H1875.88C1874.81 759.048 1873.4 759.19 1873.4 760.2C1873.4 762.066 1874.81 762.36 1875.88 762.36H1879.77V766.825C1879.77 767.898 1880.64 768.769 1881.72 768.769ZM1864.58 751.628C1865.65 751.628 1866.52 750.758 1866.52 749.684V745.796H1870.41C1871.48 745.796 1872.35 744.25 1872.35 743.851C1872.35 742.778 1871.48 741.07 1870.41 741.07H1866.52V738.019C1866.52 736.46 1865.65 736.075 1864.58 736.075C1863.5 736.075 1862.63 736.46 1862.63 738.019V741.07L1858.74 741.08C1857.67 741.07 1856.8 742.778 1856.8 743.851C1856.8 744.25 1857.67 745.796 1858.74 745.796H1862.63V749.684C1862.63 750.758 1863.5 751.628 1864.58 751.628ZM1847.44 734.487C1848.51 734.487 1849.38 733.617 1849.38 732.543V728.655H1853.27C1854.34 728.655 1855.21 727.784 1855.21 726.711C1855.21 725.637 1854.34 724.767 1853.27 724.767H1849.38V720.878C1849.38 719.805 1848.51 718.34 1847.44 718.34C1846.36 718.34 1845.49 719.805 1845.49 720.878V724.767H1841.6C1840.53 724.767 1839.66 725.637 1839.66 726.711C1839.66 727.784 1840.53 728.655 1841.6 728.655H1845.49V732.543C1845.49 733.617 1846.36 734.487 1847.44 734.487ZM1915.8 768.769C1917.07 768.769 1917.42 767.898 1917.42 766.825V762.36H1921.83C1922.04 762.36 1923.77 762.066 1923.77 760.2C1923.77 759.19 1922.04 759.048 1921.83 759.048H1917.42V755.16C1917.42 754.086 1917.07 753.216 1915.8 753.216C1914.24 753.216 1914.05 754.086 1914.05 755.16V759.048H1910.17C1909.09 759.048 1908.22 759.19 1908.22 760.2C1908.22 762.066 1909.09 762.36 1910.17 762.36H1914.05V766.825C1914.05 767.898 1914.24 768.769 1915.8 768.769ZM1898.86 751.628C1899.31 751.628 1900.8 750.758 1900.8 749.684V745.796H1904.69C1905.76 745.796 1906.63 744.25 1906.63 743.851C1906.63 742.778 1905.76 741.07 1904.69 741.07H1900.8V738.019C1900.8 736.46 1899.31 736.075 1898.86 736.075C1897.78 736.075 1896.13 736.46 1896.13 738.019V741.07H1893.03C1891.51 741.07 1891.08 742.778 1891.08 743.851C1891.08 744.25 1891.51 745.796 1893.03 745.796H1896.13V749.684C1896.13 750.758 1897.78 751.628 1898.86 751.628ZM1881.72 734.487C1882.79 734.487 1883.66 733.617 1883.66 732.543V728.655H1887.55C1888.62 728.655 1889.49 727.785 1889.49 726.711C1889.49 725.637 1888.62 724.767 1887.55 724.767H1883.66V720.878C1883.66 719.805 1882.79 718.34 1881.72 718.34C1880.64 718.34 1879.77 719.805 1879.77 720.879V724.767H1875.88C1874.81 724.767 1873.4 725.637 1873.4 726.711C1873.4 727.785 1874.81 728.655 1875.88 728.655H1879.77V732.543C1879.77 733.617 1880.64 734.487 1881.72 734.487ZM1864.58 717.346C1865.65 717.346 1866.52 716.476 1866.52 715.402V711.514H1870.41C1871.48 711.514 1872.35 710.644 1872.35 709.57C1872.35 708.496 1871.48 707.626 1870.41 707.626H1866.52V703.738C1866.52 702.664 1865.65 701.794 1864.58 701.794C1863.5 701.794 1862.63 702.664 1862.63 703.738V707.626H1858.74C1857.67 707.626 1856.8 708.496 1856.8 709.57C1856.8 710.644 1857.67 711.514 1858.74 711.514H1862.63V715.402C1862.63 716.476 1863.5 717.346 1864.58 717.346ZM1915.8 734.487C1917.07 734.487 1917.42 733.617 1917.42 732.543V728.655H1921.83C1922.04 728.655 1923.77 727.785 1923.77 726.711C1923.77 725.637 1922.04 724.767 1921.83 724.767H1917.42V720.879C1917.42 719.805 1917.07 718.34 1915.8 718.34C1914.24 718.34 1914.05 719.805 1914.05 720.879V724.767H1910.17C1909.09 724.767 1908.22 725.637 1908.22 726.711C1908.22 727.785 1909.09 728.655 1910.17 728.655H1914.05V732.543C1914.05 733.617 1914.24 734.487 1915.8 734.487ZM1898.86 717.347C1899.31 717.347 1900.8 716.476 1900.8 715.402V711.514H1904.69C1905.76 711.514 1906.63 710.644 1906.63 709.57C1906.63 708.496 1905.76 707.626 1904.69 707.626H1900.8V703.738C1900.8 702.664 1899.31 701.794 1898.86 701.794C1897.78 701.794 1896.13 702.664 1896.13 703.738V707.626H1893.03C1891.51 707.626 1891.08 708.496 1891.08 709.57C1891.08 710.644 1891.51 711.514 1893.03 711.514H1896.13V715.402C1896.13 716.476 1897.78 717.346 1898.86 717.347ZM1881.72 700.206C1882.79 700.206 1883.66 699.335 1883.66 698.262V694.373H1887.55C1888.62 694.373 1889.49 693.503 1889.49 692.429C1889.49 691.356 1888.62 690.485 1887.55 690.485H1883.66V686.597C1883.66 685.523 1882.79 684.653 1881.72 684.653C1880.64 684.653 1879.77 685.523 1879.77 686.597V690.485H1875.88C1874.81 690.485 1873.4 691.356 1873.4 692.429C1873.4 693.503 1874.81 694.373 1875.88 694.373H1879.77V698.262C1879.77 699.335 1880.64 700.206 1881.72 700.206ZM1915.8 700.206C1917.07 700.206 1917.42 699.335 1917.42 698.262V694.373H1921.83C1922.04 694.373 1923.77 693.503 1923.77 692.429C1923.77 691.356 1922.04 690.485 1921.83 690.485H1917.42V686.597C1917.42 685.523 1917.07 684.653 1915.8 684.653C1914.24 684.653 1914.05 685.523 1914.05 686.597V690.485H1910.17C1909.09 690.485 1908.22 691.356 1908.22 692.429C1908.22 693.503 1909.09 694.373 1910.17 694.373H1914.05V698.262C1914.05 699.335 1914.24 700.206 1915.8 700.206ZM1898.86 683.065C1899.31 683.065 1900.8 682.195 1900.8 681.121V677.233H1904.69C1905.76 677.233 1906.63 676.362 1906.63 675.289C1906.63 674.215 1905.76 673.344 1904.69 673.344H1900.8V669.456C1900.8 668.383 1899.31 667.512 1898.86 667.512C1897.78 667.512 1896.13 668.382 1896.13 669.456V673.344H1893.03C1891.51 673.344 1891.08 674.215 1891.08 675.289C1891.08 676.362 1891.51 677.233 1893.03 677.233H1896.13V681.121C1896.13 682.195 1897.78 683.065 1898.86 683.065ZM1915.8 665.24C1917.07 665.24 1917.42 665.054 1917.42 663.8V660.092H1921.83C1922.04 660.092 1923.77 659.222 1923.77 658.148C1923.77 657.074 1922.04 656.204 1921.83 656.204H1917.42V652.315C1917.42 651.242 1917.07 650.371 1915.8 650.371C1914.24 650.371 1914.05 651.242 1914.05 652.315V656.204H1910.17C1909.09 656.204 1908.22 657.074 1908.22 658.148C1908.22 659.221 1909.09 660.092 1910.17 660.092H1914.05V663.8C1914.05 665.054 1914.24 665.24 1915.8 665.24Z" fill="white" fill-opacity="0.1"/>
</g>
<g clip-path="url(#clip4_12_40)">
<path fill-rule="evenodd" clip-rule="evenodd" d="M11.1482 263.849C15.0788 266.984 19.3656 269.584 23.8905 271.623L39.9539 276.317C44.8662 277.365 49.8804 277.155 54.884 276.632L11.1482 263.849ZM79.5056 268.402L-4.99878 243.666C-4.7819 244.729 -4.40976 245.09 -4.02393 245.795C-3.51939 246.715 -2.99353 247.618 -2.44713 248.502L74.6268 271.027C76.0103 270.577 76.4959 270.1 77.4182 269.596C78.1244 269.211 78.8207 268.813 79.5056 268.402ZM93.4001 256.943L-10.6424 226.536C-9.83878 227.975 -10.1302 229.407 -9.78703 230.835L90.3568 260.102C91.4169 259.084 92.4306 258.195 93.4001 256.943ZM102.387 244.081L-11.08 211.516C-11.0031 212.302 -11.3083 213.625 -11.3555 214.949L100.264 247.573C100.939 246.429 101.576 245.265 102.387 244.081ZM73.9252 162.748L56.6633 157.703C51.875 157.524 46.9894 157.22 42.1189 157.504L86.2839 170.411C82.4652 167.342 78.3078 164.778 73.9252 162.748ZM101.267 188.315C100.557 187.02 99.8062 185.763 99.0171 184.542L23.7566 162.549C22.4317 163.153 21.1205 163.807 19.8245 164.514C19.4577 164.715 19.0916 164.918 18.7294 165.129L101.857 189.423C101.667 189.051 101.468 188.682 101.267 188.315ZM106.495 201.188L8.46266 172.541C7.34398 173.539 6.35543 174.575 5.24741 175.65L107.927 205.54C107.24 204.083 106.897 203.185 106.495 201.188ZM108.635 216.575L-1.49283 184.092C-2.23329 185.216 -2.93417 186.364 -3.29413 187.526L108.55 220.301C108.624 218.962 108.651 217.62 108.635 216.575ZM107.182 230.119L-7.74982 196.873C-8.19577 197.748 -8.59986 198.98 -8.96439 200.225L106.208 233.884C106.573 232.639 106.9 231.385 107.182 230.119Z" fill="white" fill-opacity="0.1"/>
</g>
<g clip-path="url(#clip5_12_40)">
<path fill-rule="evenodd" clip-rule="evenodd" d="M1854.15 266.849C1858.08 269.984 1862.37 272.584 1866.89 274.623L1882.95 279.317C1887.87 280.365 1892.88 280.155 1897.88 279.632L1854.15 266.849ZM1922.51 271.402L1838 246.666C1838.22 247.729 1838.59 248.09 1838.98 248.795C1839.48 249.715 1840.01 250.618 1840.55 251.502L1917.63 274.027C1919.01 273.577 1919.5 273.1 1920.42 272.596C1921.12 272.211 1921.82 271.813 1922.51 271.402ZM1936.4 259.943L1832.36 229.536C1833.16 230.975 1832.87 232.407 1833.21 233.835L1933.36 263.102C1934.42 262.084 1935.43 261.195 1936.4 259.943ZM1945.39 247.081L1831.92 214.516C1832 215.302 1831.69 216.625 1831.64 217.949L1943.26 250.573C1943.94 249.429 1944.58 248.265 1945.39 247.081ZM1916.93 165.748L1899.66 160.703C1894.88 160.524 1889.99 160.22 1885.12 160.504L1929.28 173.411C1925.47 170.342 1921.31 167.778 1916.93 165.748ZM1944.27 191.315C1943.56 190.02 1942.81 188.763 1942.02 187.542L1866.76 165.549C1865.43 166.153 1864.12 166.807 1862.82 167.514C1862.46 167.715 1862.09 167.918 1861.73 168.129L1944.86 192.423C1944.67 192.051 1944.47 191.682 1944.27 191.315ZM1949.49 204.188L1851.46 175.541C1850.34 176.539 1849.36 177.575 1848.25 178.65L1950.93 208.54C1950.24 207.083 1949.9 206.185 1949.49 204.188ZM1951.63 219.575L1841.51 187.092C1840.77 188.216 1840.07 189.364 1839.71 190.526L1951.55 223.301C1951.62 221.962 1951.65 220.62 1951.63 219.575ZM1950.18 233.119L1835.25 199.873C1834.8 200.748 1834.4 201.98 1834.04 203.225L1949.21 236.884C1949.57 235.639 1949.9 234.385 1950.18 233.119Z" fill="white" fill-opacity="0.1"/>
</g>
</g>
<defs>
<clipPath id="clip0_12_40">
<rect width="1920" height="1003" fill="white"/>
</clipPath>
<clipPath id="clip1_12_40">
<rect width="59" height="59" fill="white" transform="translate(101 744)"/>
</clipPath>
<clipPath id="clip2_12_40">
<rect width="59" height="59" fill="white" transform="translate(1551 378)"/>
</clipPath>
<clipPath id="clip3_12_40">
<rect width="102" height="188" fill="white" transform="matrix(-1 0 0 -1 1924 838)"/>
</clipPath>
<clipPath id="clip4_12_40">
<rect width="121" height="120" fill="white" transform="translate(-12 157)"/>
</clipPath>
<clipPath id="clip5_12_40">
<rect width="121" height="120" fill="white" transform="translate(1831 160)"/>
</clipPath>
</defs>
</svg>
