<svg width="30" height="31" viewBox="0 0 30 31" fill="none" xmlns="http://www.w3.org/2000/svg">
<path d="M9.64272 27.9973C14.3766 27.9973 18.2141 24.1598 18.2141 19.4259C18.2141 14.6921 14.3766 10.8545 9.64272 10.8545C4.90885 10.8545 1.07129 14.6921 1.07129 19.4259C1.07129 24.1598 4.90885 27.9973 9.64272 27.9973Z" stroke="white" stroke-linecap="round" stroke-linejoin="round"/>
<path d="M20.3566 27.9973C25.0905 27.9973 28.928 24.1598 28.928 19.4259C28.928 14.6921 25.0905 10.8545 20.3566 10.8545C15.6227 10.8545 11.7852 14.6921 11.7852 19.4259C11.7852 24.1598 15.6227 27.9973 20.3566 27.9973Z" stroke="white" stroke-linecap="round" stroke-linejoin="round"/>
<path d="M15.0001 19.4261C19.734 19.4261 23.5716 15.5885 23.5716 10.8546C23.5716 6.12076 19.734 2.2832 15.0001 2.2832C10.2663 2.2832 6.42871 6.12076 6.42871 10.8546C6.42871 15.5885 10.2663 19.4261 15.0001 19.4261Z" stroke="white" stroke-linecap="round" stroke-linejoin="round"/>
</svg>
