<svg width="31" height="31" viewBox="0 0 31 31" fill="none" xmlns="http://www.w3.org/2000/svg">
<g clip-path="url(#clip0_258_27959)">
<path d="M15.0469 21.71V23.8742" stroke="white" stroke-linecap="round" stroke-linejoin="round"/>
<path d="M15.0469 10.9746V12.9889" stroke="white" stroke-linecap="round" stroke-linejoin="round"/>
<path d="M15.0466 29.1461C22.5466 29.1461 27.9037 26.489 27.9037 20.5747C27.9037 14.1461 24.6895 9.86038 18.2609 6.64609L20.7895 3.38895C20.9179 3.17525 20.9876 2.93138 20.9914 2.68206C20.9953 2.43275 20.9331 2.18686 20.8113 1.9693C20.6894 1.75175 20.5123 1.57027 20.2977 1.44327C20.0831 1.31626 19.8388 1.24824 19.5895 1.24609H10.5037C10.2544 1.24824 10.0101 1.31626 9.7955 1.44327C9.58093 1.57027 9.40375 1.75175 9.28192 1.9693C9.16009 2.18686 9.09794 2.43275 9.10177 2.68206C9.1056 2.93138 9.17528 3.17525 9.30374 3.38895L11.8323 6.66752C5.40374 9.90324 2.18945 14.189 2.18945 20.6175C2.18945 26.489 7.5466 29.1461 15.0466 29.1461Z" stroke="white" stroke-linecap="round" stroke-linejoin="round"/>
<path d="M12.9042 20.7245C13.1657 21.0348 13.4948 21.2812 13.8662 21.4446C14.2377 21.608 14.6416 21.6842 15.0471 21.6673C15.6668 21.7096 16.2788 21.5099 16.7543 21.1103C17.2299 20.7106 17.532 20.1422 17.5971 19.5245C17.532 18.9067 17.2299 18.3383 16.7543 17.9386C16.2788 17.539 15.6668 17.3393 15.0471 17.3816C14.4273 17.4238 13.8154 17.2242 13.3398 16.8245C12.8643 16.4249 12.5622 15.8565 12.4971 15.2387C12.557 14.6188 12.8576 14.0471 13.3344 13.6465C13.8112 13.2458 14.4261 13.0481 15.0471 13.0959C15.4454 13.0715 15.8442 13.1357 16.2147 13.284C16.5852 13.4322 16.9183 13.6607 17.1899 13.953" stroke="white" stroke-linecap="round" stroke-linejoin="round"/>
</g>
<defs>
<clipPath id="clip0_258_27959">
<rect width="30" height="30" fill="white" transform="translate(0.046875 0.239258)"/>
</clipPath>
</defs>
</svg>
