<svg width="31" height="31" viewBox="0 0 31 31" fill="none" xmlns="http://www.w3.org/2000/svg">
<g clip-path="url(#clip0_192_9771)">
<path d="M7.48563 13.814C10.7402 13.814 13.3785 11.1757 13.3785 7.92118C13.3785 4.66664 10.7402 2.02832 7.48563 2.02832C4.2311 2.02832 1.59277 4.66664 1.59277 7.92118C1.59277 11.1757 4.2311 13.814 7.48563 13.814Z" stroke="white" stroke-linecap="round" stroke-linejoin="round"/>
<path d="M23.5569 13.814C26.8115 13.814 29.4498 11.1757 29.4498 7.92118C29.4498 4.66664 26.8115 2.02832 23.5569 2.02832C20.3024 2.02832 17.6641 4.66664 17.6641 7.92118C17.6641 11.1757 20.3024 13.814 23.5569 13.814Z" stroke="white" stroke-linecap="round" stroke-linejoin="round"/>
<path d="M7.48563 29.8853C10.7402 29.8853 13.3785 27.247 13.3785 23.9925C13.3785 20.7379 10.7402 18.0996 7.48563 18.0996C4.2311 18.0996 1.59277 20.7379 1.59277 23.9925C1.59277 27.247 4.2311 29.8853 7.48563 29.8853Z" stroke="white" stroke-linecap="round" stroke-linejoin="round"/>
<path d="M23.5569 29.8853C26.8115 29.8853 29.4498 27.247 29.4498 23.9925C29.4498 20.7379 26.8115 18.0996 23.5569 18.0996C20.3024 18.0996 17.6641 20.7379 17.6641 23.9925C17.6641 27.247 20.3024 29.8853 23.5569 29.8853Z" stroke="white" stroke-linecap="round" stroke-linejoin="round"/>
</g>
<defs>
<clipPath id="clip0_192_9771">
<rect width="30" height="30" fill="white" transform="translate(0.521484 0.957031)"/>
</clipPath>
</defs>
</svg>
