<svg width="30" height="31" viewBox="0 0 30 31" fill="none" xmlns="http://www.w3.org/2000/svg">
<g clip-path="url(#clip0_322_99)">
<path d="M6.96415 12.9976C10.2187 12.9976 12.857 10.3593 12.857 7.10477C12.857 3.85024 10.2187 1.21191 6.96415 1.21191C3.70961 1.21191 1.07129 3.85024 1.07129 7.10477C1.07129 10.3593 3.70961 12.9976 6.96415 12.9976Z" stroke="white" stroke-linecap="round" stroke-linejoin="round"/>
<path d="M23.0354 12.9976C26.29 12.9976 28.9283 10.3593 28.9283 7.10477C28.9283 3.85024 26.29 1.21191 23.0354 1.21191C19.7809 1.21191 17.1426 3.85024 17.1426 7.10477C17.1426 10.3593 19.7809 12.9976 23.0354 12.9976Z" stroke="white" stroke-linecap="round" stroke-linejoin="round"/>
<path d="M6.96415 29.0689C10.2187 29.0689 12.857 26.4306 12.857 23.1761C12.857 19.9215 10.2187 17.2832 6.96415 17.2832C3.70961 17.2832 1.07129 19.9215 1.07129 23.1761C1.07129 26.4306 3.70961 29.0689 6.96415 29.0689Z" stroke="white" stroke-linecap="round" stroke-linejoin="round"/>
<path d="M23.0354 29.0689C26.29 29.0689 28.9283 26.4306 28.9283 23.1761C28.9283 19.9215 26.29 17.2832 23.0354 17.2832C19.7809 17.2832 17.1426 19.9215 17.1426 23.1761C17.1426 26.4306 19.7809 29.0689 23.0354 29.0689Z" stroke="white" stroke-linecap="round" stroke-linejoin="round"/>
</g>
<defs>
<clipPath id="clip0_322_99">
<rect width="30" height="30" fill="white" transform="translate(0 0.140625)"/>
</clipPath>
</defs>
</svg>
