<svg width="24" height="25" viewBox="0 0 24 25" fill="none" xmlns="http://www.w3.org/2000/svg">
<path d="M12 0.242188C9.62663 0.242187 7.30655 0.945976 5.33316 2.26455C3.35977 3.58313 1.8217 5.45727 0.91345 7.64999C0.00519874 9.8427 -0.23244 12.2555 0.230582 14.5833C0.693605 16.911 1.83649 19.0492 3.51472 20.7275C5.19295 22.4057 7.33115 23.5486 9.65892 24.0116C11.9867 24.4746 14.3995 24.237 16.5922 23.3287C18.7849 22.4205 20.6591 20.8824 21.9776 18.909C23.2962 16.9356 24 14.6156 24 12.2422C23.9964 9.06069 22.731 6.01054 20.4813 3.76089C18.2316 1.51123 15.1815 0.245792 12 0.242188ZM12 22.4988C9.97143 22.4988 7.98842 21.8973 6.30172 20.7703C4.61503 19.6433 3.30041 18.0414 2.52411 16.1672C1.74781 14.2931 1.54469 12.2308 1.94045 10.2412C2.3362 8.25163 3.31305 6.42407 4.74747 4.98965C6.18188 3.55523 8.00944 2.57838 9.99903 2.18263C11.9886 1.78687 14.0509 1.98999 15.925 2.76629C17.7992 3.54259 19.4011 4.85721 20.5281 6.5439C21.6551 8.2306 22.2566 10.2136 22.2566 12.2422C22.2536 14.9615 21.172 17.5685 19.2491 19.4913C17.3263 21.4141 14.7193 22.4957 12 22.4988Z" fill="#00CC61"/>
<path d="M11.9997 7.28324C12.5327 7.28384 13.0437 7.49584 13.4205 7.87272C13.7974 8.2496 14.0094 8.76058 14.0099 9.29355C14.0099 9.52474 14.1018 9.74645 14.2653 9.90992C14.4287 10.0734 14.6504 10.1652 14.8816 10.1652C15.1128 10.1652 15.3345 10.0734 15.498 9.90992C15.6615 9.74645 15.7533 9.52474 15.7533 9.29355C15.7522 8.44998 15.4674 7.63129 14.9447 6.96918C14.4219 6.30707 13.6917 5.84003 12.8714 5.64317V4.8336C12.8714 4.60241 12.7796 4.38069 12.6161 4.21722C12.4526 4.05375 12.2309 3.96191 11.9997 3.96191C11.7686 3.96191 11.5468 4.05375 11.3834 4.21722C11.2199 4.38069 11.1281 4.60241 11.1281 4.8336V5.64317C10.2337 5.85662 9.44878 6.39097 8.92228 7.14481C8.39579 7.89865 8.16434 8.81954 8.27185 9.73272C8.37936 10.6459 8.81835 11.4879 9.50553 12.0988C10.1927 12.7098 11.0802 13.0472 11.9997 13.0471C12.3973 13.0471 12.786 13.165 13.1166 13.3859C13.4473 13.6067 13.7049 13.9207 13.8571 14.288C14.0093 14.6554 14.0491 15.0596 13.9715 15.4496C13.894 15.8395 13.7025 16.1977 13.4214 16.4789C13.1403 16.7601 12.782 16.9515 12.3921 17.0291C12.0021 17.1067 11.5979 17.0669 11.2306 16.9147C10.8632 16.7626 10.5492 16.5049 10.3283 16.1743C10.1074 15.8437 9.98953 15.455 9.98953 15.0574C9.98953 14.8262 9.8977 14.6045 9.73422 14.4411C9.57075 14.2776 9.34904 14.1858 9.11785 14.1858C8.88667 14.1858 8.66495 14.2776 8.50148 14.4411C8.33801 14.6045 8.24617 14.8262 8.24617 15.0574C8.24731 15.901 8.53214 16.7197 9.05486 17.3817C9.57757 18.0438 10.3078 18.5109 11.1281 18.7077V19.6522C11.1281 19.8834 11.2199 20.1051 11.3834 20.2685C11.5468 20.432 11.7686 20.5239 11.9997 20.5239C12.2309 20.5239 12.4526 20.432 12.6161 20.2685C12.7796 20.1051 12.8714 19.8834 12.8714 19.6522V18.7077C13.7658 18.4943 14.5507 17.9599 15.0772 17.2061C15.6037 16.4522 15.8351 15.5313 15.7276 14.6182C15.6201 13.705 15.1811 12.863 14.494 12.2521C13.8068 11.6411 12.9192 11.3037 11.9997 11.3038C11.4666 11.3038 10.9552 11.092 10.5782 10.7149C10.2012 10.3379 9.98943 9.82661 9.98943 9.29344C9.98943 8.76027 10.2012 8.24894 10.5782 7.87193C10.9552 7.49493 11.4666 7.28324 11.9997 7.28324Z" fill="#00CC61"/>
</svg>
