<svg width="34" height="35" viewBox="0 0 34 35" fill="none" xmlns="http://www.w3.org/2000/svg">
<path d="M29.3375 23.9028C28.9155 23.671 28.3856 23.8252 28.1539 24.247C27.9221 24.6689 28.0762 25.1989 28.4981 25.4306C29.5364 26.001 30.1318 26.6333 30.1318 27.1654C30.1318 27.8162 29.2097 28.8249 26.6215 29.7043C24.0646 30.573 20.6476 31.0514 17 31.0514C13.3524 31.0514 9.93542 30.573 7.37849 29.7043C4.7903 28.825 3.86816 27.8162 3.86816 27.1654C3.86816 26.6333 4.46363 26.001 5.50186 25.4305C5.92376 25.1988 6.07786 24.6689 5.84607 24.247C5.61429 23.8251 5.08454 23.671 4.66252 23.9028C3.50495 24.5387 2.125 25.621 2.125 27.1654C2.125 28.3492 2.93917 30.0371 6.81771 31.3548C9.55053 32.2833 13.1667 32.7946 17 32.7946C20.8333 32.7946 24.4495 32.2833 27.1823 31.3548C31.0608 30.0371 31.875 28.3492 31.875 27.1654C31.875 25.621 30.4951 24.5387 29.3375 23.9028Z" fill="white"/>
<path d="M10.4184 28.4449C12.1877 28.9447 14.5247 29.22 16.9987 29.22C19.4728 29.22 21.8098 28.9448 23.5791 28.4449C25.7437 27.8335 26.8412 26.9483 26.8412 25.8142C26.8412 24.68 25.7437 23.795 23.5791 23.1835C23.0985 23.0478 22.5759 22.9287 22.0203 22.8271C21.7186 23.3485 21.4024 23.8851 21.0719 24.4371C21.6869 24.5294 22.2643 24.6425 22.7886 24.7761C24.3816 25.1819 24.9636 25.6386 25.0832 25.8142C24.9635 25.9899 24.3817 26.4467 22.7887 26.8523C21.2809 27.2364 19.341 27.4554 17.2978 27.475C17.1989 27.4823 17.0991 27.4865 16.9987 27.4865C16.8983 27.4865 16.7986 27.4823 16.6996 27.475C14.6564 27.4554 12.7165 27.2364 11.2088 26.8523C9.61574 26.4467 9.03381 25.9898 8.91417 25.8142C9.03381 25.6386 9.6158 25.1819 11.2088 24.7761C11.7332 24.6426 12.3106 24.5294 12.9256 24.4371C12.595 23.8851 12.2789 23.3484 11.9771 22.8271C11.4215 22.9288 10.8989 23.0478 10.4184 23.1835C8.2538 23.795 7.15625 24.6801 7.15625 25.8142C7.15625 26.9483 8.2538 27.8334 10.4184 28.4449Z" fill="white"/>
<path d="M16.9987 25.7429C17.7746 25.7429 18.4794 25.3475 18.8841 24.6853C21.7202 20.0452 25.1009 13.9298 25.1009 11.1471C25.1009 6.67953 21.4663 3.04492 16.9987 3.04492C12.5311 3.04492 8.89648 6.67953 8.89648 11.1471C8.89648 13.9298 12.2772 20.0452 15.1133 24.6853C15.5181 25.3475 16.2229 25.7429 16.9987 25.7429ZM13.7421 10.5908C13.7421 8.79516 15.203 7.33427 16.9987 7.33427C18.7944 7.33427 20.2553 8.79516 20.2553 10.5908C20.2553 12.3865 18.7944 13.8474 16.9987 13.8474C15.203 13.8474 13.7421 12.3865 13.7421 10.5908Z" fill="white"/>
</svg>
