<svg width="21" height="20" viewBox="0 0 21 20" fill="none" xmlns="http://www.w3.org/2000/svg">
<g clip-path="url(#clip0_258_36506)">
<path d="M20.177 11.1404C20.177 11.1403 20.177 11.1402 20.1769 11.1401L16.4008 1.6587C16.3207 1.45725 16.0923 1.3589 15.8909 1.43904C15.8907 1.43909 15.8906 1.43914 15.8904 1.43924L0.571379 7.53914C0.508906 7.56614 0.454726 7.60923 0.414337 7.66399C0.286936 7.7302 0.206452 7.86123 0.205078 8.00478V18.2125C0.205078 18.4293 0.380867 18.6051 0.597683 18.6051H17.0871C17.3039 18.6051 17.4797 18.4293 17.4797 18.2125V12.6375L19.9578 11.6505C20.1592 11.5702 20.2573 11.3418 20.177 11.1404ZM16.6945 17.8199H0.990289V8.39738H16.6945V17.8199ZM6.7557 7.61413L13.3295 4.99467C13.9162 5.61135 14.7291 5.96185 15.5803 5.96519L16.2359 7.61413H6.7557ZM17.4797 11.7942V8.00478C17.4797 7.78796 17.3039 7.61217 17.0871 7.61217H17.0808L16.2489 5.52272C16.2397 5.5053 16.2289 5.48871 16.2167 5.47326C16.1746 5.28417 15.9995 5.15515 15.8064 5.17095C15.0144 5.24314 14.2397 4.90952 13.748 4.28445C13.6257 4.13344 13.4106 4.0959 13.2443 4.1965C13.2256 4.19871 13.2071 4.20215 13.1889 4.20671L5.16329 7.40252C5.06617 7.4406 4.98848 7.51613 4.94775 7.61217H2.51046L15.8166 2.31396L19.3026 11.0671L17.4797 11.7942Z" fill="#00CC61"/>
<path d="M2.05571 15.1695C2.81795 15.3948 3.41442 15.9905 3.64066 16.7524C3.69027 16.9188 3.84324 17.0327 4.01677 17.0328C4.03714 17.0315 4.05736 17.0284 4.07724 17.0237C4.09485 17.0287 4.11286 17.0324 4.13102 17.0347H13.5535C13.5697 17.0326 13.5857 17.0293 13.6014 17.0249C13.7976 17.0726 13.9953 16.9523 14.043 16.7562C14.0432 16.7554 14.0434 16.7547 14.0435 16.754C14.2692 15.9913 14.8657 15.3947 15.6285 15.1691C15.8134 15.1125 15.9284 14.9282 15.8978 14.7372C15.903 14.7182 15.9068 14.6987 15.9092 14.6791V11.5382C15.9069 11.5186 15.9029 11.4991 15.8974 11.4801C15.9282 11.2891 15.8132 11.1047 15.6281 11.0483C14.8653 10.8227 14.2689 10.2259 14.0439 9.46294C13.9871 9.27669 13.8009 9.16147 13.6089 9.19361C13.5907 9.18856 13.5722 9.18487 13.5535 9.18262H4.13102C4.11124 9.18497 4.09166 9.1889 4.07252 9.19439C3.88157 9.16397 3.69734 9.27885 3.64066 9.46372C3.41486 10.2263 2.81835 10.8227 2.05571 11.0483C1.87074 11.1048 1.75581 11.2891 1.78638 11.4801C1.78128 11.4992 1.7776 11.5186 1.77539 11.5382V14.6791C1.77765 14.6975 1.78133 14.7158 1.78638 14.7337C1.75419 14.9259 1.86937 15.1123 2.05571 15.1695ZM2.5606 11.6976C3.34895 11.381 3.97378 10.7562 4.29042 9.96783H13.3938C13.7105 10.7562 14.3355 11.381 15.124 11.6976V14.5197C14.3359 14.8367 13.7111 15.4614 13.3942 16.2495H4.29042C3.97344 15.4614 3.34871 14.8367 2.5606 14.5197V11.6976Z" fill="#00CC61"/>
<path d="M8.84196 15.4642C10.143 15.4642 11.1976 14.4096 11.1976 13.1086C11.1976 11.8076 10.143 10.7529 8.84196 10.7529C7.54096 10.7529 6.48633 11.8076 6.48633 13.1086C6.4876 14.409 7.5415 15.4629 8.84196 15.4642ZM8.84196 11.5381C9.70927 11.5381 10.4124 12.2412 10.4124 13.1086C10.4124 13.9759 9.70927 14.679 8.84196 14.679C7.97465 14.679 7.27154 13.9759 7.27154 13.1086C7.27154 12.2412 7.97465 11.5381 8.84196 11.5381Z" fill="#00CC61"/>
<path d="M4.52445 13.6978C4.84968 13.6978 5.11336 13.4342 5.11336 13.1089C5.11336 12.7837 4.84968 12.52 4.52445 12.52C4.19923 12.52 3.93555 12.7837 3.93555 13.1089C3.93555 13.4342 4.19923 13.6978 4.52445 13.6978ZM4.52445 12.9126C4.63286 12.9126 4.72076 13.0005 4.72076 13.1089C4.72076 13.2173 4.63286 13.3052 4.52445 13.3052C4.41605 13.3052 4.32815 13.2173 4.32815 13.1089C4.32815 13.0005 4.41605 12.9126 4.52445 12.9126Z" fill="#00CC61"/>
<path d="M13.1612 13.6973C13.4864 13.6973 13.7501 13.4337 13.7501 13.1084C13.7501 12.7832 13.4864 12.5195 13.1612 12.5195C12.8359 12.5195 12.5723 12.7832 12.5723 13.1084C12.5723 13.4337 12.8359 13.6973 13.1612 13.6973ZM13.1612 12.9121C13.2696 12.9121 13.3575 13 13.3575 13.1084C13.3575 13.2168 13.2696 13.3047 13.1612 13.3047C13.0528 13.3047 12.9649 13.2168 12.9649 13.1084C12.9649 13 13.0528 12.9121 13.1612 12.9121Z" fill="#00CC61"/>
</g>
<defs>
<clipPath id="clip0_258_36506">
<rect width="20" height="20" fill="white" transform="translate(0.205078 0.00830078)"/>
</clipPath>
</defs>
</svg>
