<svg width="31" height="31" viewBox="0 0 31 31" fill="none" xmlns="http://www.w3.org/2000/svg">
<g clip-path="url(#clip0_322_40)">
<path d="M1.39746 15.9538H9.96889L13.1832 10.5752L16.3975 22.3609L20.6832 15.9538H29.2546" stroke="white" stroke-linecap="round" stroke-linejoin="round"/>
<path d="M27.6905 9.50403C26.5104 7.2452 24.734 5.35281 22.5543 4.03232C20.3746 2.71182 17.8747 2.01367 15.3262 2.01367C12.7777 2.01367 10.2778 2.71182 8.09811 4.03232C5.91837 5.35281 4.14202 7.2452 2.96191 9.50403" stroke="white" stroke-linecap="round" stroke-linejoin="round"/>
<path d="M2.96191 22.3613C4.14202 24.6202 5.91837 26.5125 8.09811 27.833C10.2778 29.1535 12.7777 29.8517 15.3262 29.8517C17.8747 29.8517 20.3746 29.1535 22.5543 27.833C24.734 26.5125 26.5104 24.6202 27.6905 22.3613" stroke="white" stroke-linecap="round" stroke-linejoin="round"/>
</g>
<defs>
<clipPath id="clip0_322_40">
<rect width="30" height="30" fill="white" transform="translate(0.326172 0.932617)"/>
</clipPath>
</defs>
</svg>
