<svg width="31" height="31" viewBox="0 0 31 31" fill="none" xmlns="http://www.w3.org/2000/svg">
<g clip-path="url(#clip0_258_28015)">
<path d="M15.0469 10.0073V6.79297" stroke="white" stroke-linecap="round" stroke-linejoin="round"/>
<path d="M11.832 18.5783C11.832 20.1854 13.2677 20.7211 15.0463 20.7211C16.8249 20.7211 18.2606 20.7211 18.2606 18.5783C18.2606 15.364 11.832 15.364 11.832 12.1497C11.832 10.0068 13.2677 10.0068 15.0463 10.0068C16.8249 10.0068 18.2606 10.8211 18.2606 12.1497" stroke="white" stroke-linecap="round" stroke-linejoin="round"/>
<path d="M15.0469 20.7207V23.935" stroke="white" stroke-linecap="round" stroke-linejoin="round"/>
<path d="M15.0467 29.2927C22.7393 29.2927 28.9753 23.0567 28.9753 15.3641C28.9753 7.67158 22.7393 1.43555 15.0467 1.43555C7.3542 1.43555 1.11816 7.67158 1.11816 15.3641C1.11816 23.0567 7.3542 29.2927 15.0467 29.2927Z" stroke="white" stroke-linecap="round" stroke-linejoin="round"/>
</g>
<defs>
<clipPath id="clip0_258_28015">
<rect width="30" height="30" fill="white" transform="translate(0.046875 0.364258)"/>
</clipPath>
</defs>
</svg>
