<svg width="21" height="20" viewBox="0 0 21 20" fill="none" xmlns="http://www.w3.org/2000/svg">
<path d="M12.8882 10.0654L9.34662 13.607L7.52197 11.7823C7.27783 11.5382 6.88232 11.5382 6.63818 11.7823C6.39404 12.0265 6.39404 12.422 6.63818 12.6661L8.90472 14.9327C9.02679 15.0547 9.18671 15.1158 9.34662 15.1158C9.50653 15.1158 9.66644 15.0547 9.78851 14.9327L13.772 10.9492C14.0161 10.7051 14.0161 10.3096 13.772 10.0654C13.5278 9.82129 13.1323 9.82129 12.8882 10.0654Z" fill="#00CC61"/>
<path d="M15.8301 2.48328H14.8926V1.8833C14.8926 1.53815 14.6127 1.2583 14.2676 1.2583C13.9224 1.2583 13.6426 1.53815 13.6426 1.8833V2.48328H6.76758V1.8833C6.76758 1.53815 6.48773 1.2583 6.14258 1.2583C5.79742 1.2583 5.51758 1.53815 5.51758 1.8833V2.48328H4.58008C2.85706 2.48328 1.45508 3.88525 1.45508 5.60828V15.6333C1.45508 17.3563 2.85706 18.7583 4.58008 18.7583H15.8301C17.5531 18.7583 18.9551 17.3563 18.9551 15.6333V5.60828C18.9551 3.88525 17.5531 2.48328 15.8301 2.48328ZM2.70508 5.60828C2.70508 4.57434 3.54614 3.73328 4.58008 3.73328H5.51758V4.33295C5.51758 4.6781 5.79742 4.95795 6.14258 4.95795C6.48773 4.95795 6.76758 4.6781 6.76758 4.33295V3.73328H13.6426V4.33295C13.6426 4.6781 13.9224 4.95795 14.2676 4.95795C14.6127 4.95795 14.8926 4.6781 14.8926 4.33295V3.73328H15.8301C16.864 3.73328 17.7051 4.57434 17.7051 5.60828V6.23938H2.70508V5.60828ZM15.8301 17.5083H4.58008C3.54614 17.5083 2.70508 16.6672 2.70508 15.6333V7.48938H17.7051V15.6333C17.7051 16.6672 16.864 17.5083 15.8301 17.5083Z" fill="#00CC61"/>
</svg>
