<svg width="29" height="29" viewBox="0 0 29 29" fill="none" xmlns="http://www.w3.org/2000/svg">
<path d="M19.624 12.7774C16.9826 10.136 12.7005 10.136 10.0591 12.7774C7.41773 15.4188 7.41773 19.7008 10.0591 22.3422C12.7005 24.9836 16.9826 24.9836 19.624 22.3422C22.2599 19.7008 22.2599 15.4188 19.624 12.7774ZM11.8693 24.5516C10.8193 24.1031 9.88413 23.425 9.14038 22.5774L7.42867 25.5414L9.16773 25.268C9.31538 25.2406 9.46851 25.2899 9.56695 25.4156L10.6279 26.7172L11.8693 24.5516ZM20.5427 22.5774C19.7935 23.425 18.8638 24.1031 17.8084 24.5516L19.0552 26.7117L20.1162 25.4102C20.2146 25.2899 20.3677 25.2352 20.5154 25.2625L22.2544 25.536L20.5427 22.5774ZM17.5349 14.8664C16.0474 13.3789 13.6357 13.3789 12.1482 14.8664C10.6607 16.3539 10.6607 18.7656 12.1482 20.2531C13.6357 21.7406 16.0474 21.7406 17.5349 20.2531C19.0224 18.7656 19.0224 16.3539 17.5349 14.8664ZM14.8388 12.9141C17.4037 12.9141 19.4873 14.9922 19.4873 17.5625C19.4873 20.1274 17.4091 22.211 14.8388 22.211C12.274 22.211 10.1904 20.1328 10.1904 17.5625C10.1959 14.9922 12.274 12.9141 14.8388 12.9141ZM12.6732 17.8688C12.5584 17.6664 12.624 17.4149 12.8263 17.3C13.0287 17.1852 13.2802 17.2508 13.3951 17.4531L14.0623 18.607L16.3482 16.3211C16.5123 16.1571 16.7802 16.1571 16.9388 16.3211C17.1029 16.4852 17.1029 16.7477 16.9388 16.9117L14.2701 19.5805C14.0787 19.7719 13.7505 19.7336 13.6138 19.493L12.6732 17.8688ZM24.4912 6.82736L25.3169 8.53908L27.1982 8.79611C27.5209 8.83986 27.6357 9.23361 27.4115 9.45236L26.0388 10.7649L26.3779 12.6352C26.4326 12.9524 26.099 13.1875 25.8201 13.0399L24.1466 12.143L22.4732 13.0399C22.1998 13.1875 21.8443 12.9578 21.9209 12.6133L22.2544 10.7649L20.8818 9.45236C20.6521 9.23361 20.7779 8.83986 21.1005 8.79611L22.9763 8.53908L23.8021 6.82736C23.9388 6.53752 24.349 6.54299 24.4912 6.82736ZM5.87554 6.82736L6.70132 8.53908L8.58257 8.79611C8.89976 8.83986 9.02007 9.23361 8.79585 9.45236L7.4232 10.7649L7.76226 12.6352C7.81695 12.9524 7.48335 13.1875 7.20992 13.0399L5.53648 12.143L3.86304 13.0399C3.5896 13.1875 3.2396 12.9578 3.3107 12.6133L3.64429 10.7649L2.27163 9.45236C2.04195 9.23361 2.16773 8.83986 2.49038 8.79611L4.36617 8.53908L5.19195 6.82736C5.32867 6.53752 5.73882 6.54299 5.87554 6.82736ZM15.1834 2.86252L16.0091 4.57424L17.8904 4.83127C18.2076 4.87502 18.3279 5.26877 18.1037 5.48752L16.731 6.80002L17.0701 8.67033C17.1248 8.98752 16.7912 9.22268 16.5123 9.07502L14.8388 8.17268L13.1654 9.06955C12.8919 9.21721 12.5419 8.98752 12.613 8.64299L12.9466 6.79455L11.574 5.48205C11.3443 5.2633 11.4701 4.86955 11.7927 4.8258L13.6685 4.56877L14.4943 2.85705C14.6365 2.57268 15.0466 2.57814 15.1834 2.86252Z" fill="white"/>
</svg>
