<svg width="41" height="40" viewBox="0 0 41 40" fill="none" xmlns="http://www.w3.org/2000/svg">
<path d="M15.4433 6.42871L16.6719 3.25728C16.8791 2.72032 17.2436 2.25846 17.7178 1.93217C18.1919 1.60589 18.7535 1.43041 19.329 1.42871H21.6719C22.2474 1.43041 22.8091 1.60589 23.2832 1.93217C23.7573 2.25846 24.1218 2.72032 24.329 3.25728L25.5576 6.42871L29.729 8.82871L33.1005 8.31443C33.6618 8.23823 34.2332 8.33064 34.7419 8.57992C35.2507 8.8292 35.6738 9.2241 35.9576 9.71443L37.1005 11.7144C37.3933 12.2126 37.5282 12.7878 37.4874 13.3642C37.4466 13.9406 37.232 14.4911 36.8719 14.943L34.7862 17.6001V22.4001L36.929 25.0573C37.2892 25.5092 37.5038 26.0597 37.5446 26.6361C37.5854 27.2125 37.4505 27.7877 37.1576 28.2859L36.0148 30.2859C35.731 30.7762 35.3078 31.1711 34.7991 31.4204C34.2904 31.6696 33.719 31.7621 33.1576 31.6859L29.7862 31.1716L25.6148 33.5716L24.3862 36.743C24.179 37.28 23.8145 37.7418 23.3403 38.0681C22.8662 38.3944 22.3046 38.5699 21.729 38.5716H19.329C18.7535 38.5699 18.1919 38.3944 17.7178 38.0681C17.2436 37.7418 16.8791 37.28 16.6719 36.743L15.4433 33.5716L11.2719 31.1716L7.90047 31.6859C7.33909 31.7621 6.76773 31.6696 6.25899 31.4204C5.75025 31.1711 5.32711 30.7762 5.04333 30.2859L3.90047 28.2859C3.60762 27.7877 3.47269 27.2125 3.5135 26.6361C3.5543 26.0597 3.76893 25.5092 4.12904 25.0573L6.21475 22.4001V17.6001L4.0719 14.943C3.71178 14.4911 3.49716 13.9406 3.45635 13.3642C3.41555 12.7878 3.55047 12.2126 3.84333 11.7144L4.98618 9.71443C5.26996 9.2241 5.69311 8.8292 6.20185 8.57992C6.71058 8.33064 7.28195 8.23823 7.84333 8.31443L11.2148 8.82871L15.4433 6.42871ZM14.7862 20.0001C14.7862 21.1303 15.1213 22.2351 15.7492 23.1748C16.3771 24.1145 17.2696 24.847 18.3137 25.2795C19.3579 25.712 20.5068 25.8251 21.6153 25.6046C22.7237 25.3841 23.7419 24.8399 24.5411 24.0407C25.3402 23.2416 25.8845 22.2234 26.105 21.1149C26.3254 20.0065 26.2123 18.8575 25.7798 17.8134C25.3473 16.7692 24.6149 15.8768 23.6752 15.2489C22.7354 14.621 21.6306 14.2859 20.5005 14.2859C18.9849 14.2859 17.5315 14.8879 16.4599 15.9595C15.3882 17.0312 14.7862 18.4846 14.7862 20.0001V20.0001Z" stroke="#00CC61" stroke-width="1.5" stroke-linecap="round" stroke-linejoin="round"/>
</svg>
