<svg id="Layer_1" height="512" viewBox="0 0 512 512" width="512" xmlns="http://www.w3.org/2000/svg" data-name="Layer 1"><path d="m420.36 261.062 9.849-27.96c.758.061 1.52.1 2.289.1a27.707 27.707 0 0 0 19.592-47.293 27.7 27.7 0 0 0 -47.29 19.591c0 .773.038 1.539.1 2.3l-27.946 9.851c-17.107-15.037-34.065-27.634-49.294-36.508-25.094-14.625-42.391-17.464-51.409-8.445-51.132 51.161-52.082 133.779-2.864 186.089l-38.534 139.213h-14.93l-23.1-112.329a7.089 7.089 0 0 0 -.152-.737l-5.965-29c-.025-.133-.05-.267-.082-.4l-31.475-153.04a6.93 6.93 0 0 0 -.157-.763l-19.8-96.267a36.164 36.164 0 1 0 -27.93-.309l-19.673 96.574a6.922 6.922 0 0 0 -.155.763l-9.634 47.289a7.056 7.056 0 0 0 -.187.921l-5.513 27.083a6.8 6.8 0 0 0 -.168.829l-15.632 76.727v.017l-29.056 142.642h-21.863a7 7 0 0 0 0 14h390.363a7 7 0 0 0 0-14h-43.344l-28.838-104.211a134.016 134.016 0 0 0 137.738-32.037c9.021-9.021 6.179-26.318-8.444-51.411-8.872-15.225-21.464-32.177-36.496-49.279zm2.449-65.252a13.716 13.716 0 0 1 19.379 0 13.7 13.7 0 1 1 -22.6 14.259l-.007-.024-.011-.027a13.675 13.675 0 0 1 3.235-14.209zm-13.273 25.2a27.941 27.941 0 0 0 7.464 7.458l-7.34 20.837q-5.029-5.341-10.317-10.644t-10.632-10.305zm-88.929-27.771c12.723 7.414 26.773 17.619 41.128 29.773l-26.512 9.345a7 7 0 1 0 4.656 13.207l33.9-11.951q7.846 7.16 15.652 14.947t14.969 15.672l-11.94 33.889a7 7 0 1 0 13.207 4.653l9.333-26.493c12.146 14.349 22.347 28.393 29.758 41.11 13.611 23.357 12.3 32.785 10.645 34.455l-.01.01c-1.681 1.652-11.112 2.946-34.437-10.649-20.864-12.162-45.313-31.809-68.841-55.324a420.4 420.4 0 0 1 -40.51-46.558 6.877 6.877 0 0 0 -.525-.71 247.18 247.18 0 0 1 -14.288-21.56c-13.137-22.542-12.374-32.107-10.815-34.248.059-.06.116-.122.175-.182.042-.041.077-.087.117-.129 1.931-1.602 11.441-2.596 34.338 10.746zm-34.458 158.61c-10.305-10.3-11.571-28.514-4.958-49.886a195.7 195.7 0 0 0 54.856 54.851 83.006 83.006 0 0 1 -24.222 4.08c-10.678-.001-19.568-2.936-25.676-9.045zm29.622-29.622a175.468 175.468 0 0 1 -28.233-36.642 186.9 186.9 0 0 1 18.217-30.8 449.323 449.323 0 0 0 36.454 41 450.209 450.209 0 0 0 41.024 36.463 186.886 186.886 0 0 1 -30.805 18.215 175.424 175.424 0 0 1 -36.657-28.236zm-41.735-120.5a127.5 127.5 0 0 0 10.654 22.381c3.537 6.068 7.682 12.418 12.319 18.936a211.01 211.01 0 0 0 -17.277 26.891 126.77 126.77 0 0 1 -7.82-25c-3.212-16.206-2.426-30.942 2.124-43.207zm120.943 139.273c6.513 4.633 12.858 8.776 18.92 12.309a127.233 127.233 0 0 0 22.395 10.656c-12.268 4.55-27.007 5.335-43.215 2.123a126.9 126.9 0 0 1 -25.031-7.829 212.844 212.844 0 0 0 26.931-17.259zm-138.789-108.208a116.851 116.851 0 0 0 1.985 14.864 146.294 146.294 0 0 0 13.84 38.69c-4.839 11.968-7.708 23.451-8.5 33.972a120.342 120.342 0 0 1 -7.325-87.526zm-153.176-17 10.659 8.057-14.537 10.987zm70.155 124.384-36.4-27.968 26.463-20.341zm-21.65-105.273-14.619-11.048 10.688-8.075zm4.274 20.785 4.3 20.929-34.816 26.762-34.677-26.644 4.309-21.157 30.373-22.948zm-68.302 36.312 26.3 20.209-36.062 27.723zm-21.383 104.984 42.759 20.161-51.845 24.449zm2.878-14.125 4.478-21.988 51.818-39.83 52.2 40.111 4.432 21.548-56.629 26.7zm115.83 13.955 9.26 45.025-52.376-24.694zm-81.38-324.841a22.184 22.184 0 1 1 17.377 21.612c-.016 0-.032-.009-.049-.012h-.017a22.179 22.179 0 0 1 -17.311-21.6zm22.006 36.139 19.019 92.478-19.174 14.488-19.174-14.494 18.838-92.484c.164 0 .326.011.491.012zm-71.909 350.609 71.752-33.835 72.318 34.1 8.023 39.014h-160.092zm288.337 39.279h-92.487l35.517-128.323a133.206 133.206 0 0 0 26.237 17.258zm-21.443-122.143a7 7 0 0 0 -.888-.41c-.6-.284-1.192-.578-1.787-.872a93.654 93.654 0 0 0 13.294-2 129.63 129.63 0 0 0 20.641-6.575 146.314 146.314 0 0 0 38.67 13.824 116.659 116.659 0 0 0 15.095 2 120.591 120.591 0 0 1 -85.025-5.964zm166.645-115.788a7 7 0 0 1 -9.907-9.9 63.153 63.153 0 1 0 -89.306-89.317 7 7 0 1 1 -9.906-9.9 77.155 77.155 0 1 1 109.119 109.117zm-91.624-81.716a7 7 0 0 1 -.008-9.9 52.422 52.422 0 1 1 74.14 74.133 7 7 0 0 1 -9.9-9.9 38.418 38.418 0 1 0 -54.328-54.335 7 7 0 0 1 -9.904.002zm-202.848-166.663a7 7 0 1 1 10.4-9.375 104.167 104.167 0 0 1 0 139.312 7 7 0 0 1 -10.41-9.365 90.167 90.167 0 0 0 0-120.572zm-144.435 129.932a104.169 104.169 0 0 1 0-139.3 7 7 0 0 1 10.415 9.363 90.166 90.166 0 0 0 .005 120.581 7 7 0 1 1 -10.42 9.356zm1.525-69.649a75.77 75.77 0 0 1 19.487-50.773 7 7 0 0 1 10.407 9.369 61.86 61.86 0 0 0 -.006 82.78 7 7 0 1 1 -10.4 9.381 75.623 75.623 0 0 1 -19.488-50.757zm121.9-41.407a7 7 0 0 1 10.41-9.366 75.859 75.859 0 0 1 0 101.53 7 7 0 0 1 -10.4-9.381 61.858 61.858 0 0 0 -.005-82.78z"/></svg>