<?xml version="1.0" encoding="iso-8859-1"?>
<!-- Generator: Adobe Illustrator 19.0.0, SVG Export Plug-In . SVG Version: 6.00 Build 0)  -->
<svg version="1.1" id="Capa_1" xmlns="http://www.w3.org/2000/svg" xmlns:xlink="http://www.w3.org/1999/xlink" x="0px" y="0px"
	 viewBox="0 0 479.975 479.975" style="enable-background:new 0 0 479.975 479.975;" xml:space="preserve">
<g>
	<g>
		<path d="M271.979,228.04V192h8c4.418,0,8-3.582,8-8v-32c0-4.418-3.582-8-8-8h-32v-16h20c33.122-0.035,59.965-26.878,60-60V56
			c0-4.418-3.582-8-8-8h-28c-16.727,0.008-32.686,7.024-44,19.344V32h-16v19.344c-11.314-12.32-27.273-19.336-44-19.344h-28
			c-4.418,0-8,3.582-8,8v12c0.035,33.122,26.878,59.965,60,60h20v32h-32c-4.418,0-8,3.582-8,8v32c0,4.418,3.582,8,8,8h8v36
			c-56.456,14.722-95.889,65.656-96,124c0.014,70.692,57.332,127.989,128.025,127.975s127.989-57.332,127.975-128.025
			C367.968,293.592,328.484,242.63,271.979,228.04z M247.979,108c0.026-24.29,19.71-43.974,44-44h20v4
			c-0.026,24.29-19.71,43.974-44,44h-20V108z M211.979,96c-24.29-0.026-43.974-19.71-44-44v-4h20c24.29,0.026,43.974,19.71,44,44v4
			H211.979z M207.979,160h64v16h-64V160z M217.579,461.714c-60.606-12.371-99.708-71.531-87.337-132.137
			c8.978-43.985,43.352-78.359,87.337-87.337c3.725-0.76,6.401-4.038,6.4-7.84V192h32v42.4c-0.001,3.802,2.675,7.08,6.4,7.84
			c60.606,12.371,99.708,71.531,87.337,132.137C337.345,434.983,278.185,474.085,217.579,461.714z"/>
	</g>
</g>
<g>
	<g>
		<path d="M328.079,344.653c-0.454-0.006-0.908,0.027-1.356,0.099c-12.264,1.917-23.6,7.686-32.368,16.472
			c-16.771,16.728-43.917,16.728-60.688,0c-23.03-22.979-60.319-22.968-83.336,0.024l-2.296,2.296c-1.887,1.883-2.712,4.583-2.2,7.2
			c10.366,51.996,60.921,85.744,112.917,75.377c44.613-8.894,76.858-47.88,77.227-93.369
			C336.034,348.334,332.497,344.708,328.079,344.653z M228.438,431.09c-31.942-4.655-57.957-28.051-65.963-59.322
			c16.884-15.961,43.397-15.606,59.848,0.8h0.008c23.021,22.97,60.291,22.97,83.312,0c3.871-3.875,8.453-6.967,13.496-9.104
			C312.767,407.185,272.158,437.462,228.438,431.09z"/>
	</g>
</g>
<g>
	<g>
		<rect x="183.979" y="376" width="16" height="16"/>
	</g>
</g>
<g>
	<g>
		<rect x="231.979" y="400" width="16" height="16"/>
	</g>
</g>
<g>
	<g>
		<path d="M205.075,262.544c-27.967,10.993-49.217,34.388-57.48,63.28l15.392,4.352c6.889-24.071,24.595-43.56,47.896-52.72
			L205.075,262.544z"/>
	</g>
</g>
<g>
	<g>
		<rect x="231.979" width="16" height="16"/>
	</g>
</g>
<g>
	<g>
		<g>
			<polygon points="356.459,67.664 356.461,67.665 356.467,67.656 			"/>
			<path d="M375.193,81.934c-5.97-5.106-12.224-9.87-18.732-14.268l-8.97,13.239c87.862,59.367,110.962,178.72,51.596,266.582
				c-4.065,6.016-8.468,11.797-13.188,17.314l12.16,10.4C472.728,287.902,462.49,156.603,375.193,81.934z"/>
		</g>
	</g>
</g>
<g>
	<g>
		<path d="M123.483,67.672C66.25,106.349,31.962,170.924,31.979,240c-0.004,49.576,17.7,97.523,49.92,135.2l12.16-10.4
			c-68.925-80.582-59.476-201.782,21.106-270.707c5.511-4.714,11.285-9.112,17.294-13.173L123.483,67.672z"/>
	</g>
</g>
<g>
</g>
<g>
</g>
<g>
</g>
<g>
</g>
<g>
</g>
<g>
</g>
<g>
</g>
<g>
</g>
<g>
</g>
<g>
</g>
<g>
</g>
<g>
</g>
<g>
</g>
<g>
</g>
<g>
</g>
</svg>
