<svg width="167" height="39" viewBox="0 0 167 39" fill="none" xmlns="http://www.w3.org/2000/svg">
<circle cx="19" cy="19.7178" r="19" fill="#00CC61"/>
<g clip-path="url(#clip0_258_27910)">
<mask id="mask0_258_27910" style="mask-type:luminance" maskUnits="userSpaceOnUse" x="10" y="10" width="18" height="19">
<path d="M10 10.7178H28V28.7178H10V10.7178Z" fill="white"/>
</mask>
<g mask="url(#mask0_258_27910)">
<path fill-rule="evenodd" clip-rule="evenodd" d="M27.7803 14.6874C28.0732 14.9803 28.0732 15.4552 27.7803 15.7481L20.6553 22.8731C20.3624 23.166 19.8876 23.166 19.5947 22.8731L16.375 19.6534L11.2803 24.7481C10.9874 25.041 10.5126 25.041 10.2197 24.7481C9.92678 24.4552 9.92678 23.9803 10.2197 23.6874L15.8447 18.0624C16.1376 17.7696 16.6124 17.7696 16.9053 18.0624L20.125 21.2821L26.7197 14.6874C27.0126 14.3946 27.4874 14.3946 27.7803 14.6874Z" fill="white"/>
<path fill-rule="evenodd" clip-rule="evenodd" d="M22 15.2178C22 14.8036 22.3358 14.4678 22.75 14.4678H27.25C27.6642 14.4678 28 14.8036 28 15.2178V19.7178C28 20.132 27.6642 20.4678 27.25 20.4678C26.8358 20.4678 26.5 20.132 26.5 19.7178V15.9678H22.75C22.3358 15.9678 22 15.632 22 15.2178Z" fill="white"/>
</g>
</g>
<path d="M49.8786 29.6191V8.61914H63.5586V11.8891H53.9286V17.4991H61.6386V20.6791H53.9286V29.6191H49.8786ZM66.5485 29.6191V14.4991H70.5985V29.6191H66.5485ZM68.5885 12.4291C67.8685 12.4291 67.2685 12.2191 66.7885 11.7991C66.3285 11.3591 66.0985 10.8091 66.0985 10.1491C66.0985 9.48914 66.3285 8.94914 66.7885 8.52914C67.2685 8.08914 67.8685 7.86914 68.5885 7.86914C69.3285 7.86914 69.9285 8.08914 70.3885 8.52914C70.8685 8.94914 71.1085 9.48914 71.1085 10.1491C71.1085 10.8091 70.8685 11.3591 70.3885 11.7991C69.9285 12.2191 69.3285 12.4291 68.5885 12.4291ZM74.6909 29.6191V14.4991H78.2609L78.5609 16.9591C79.0209 16.1191 79.6709 15.4391 80.5109 14.9191C81.3709 14.3991 82.3909 14.1391 83.5709 14.1391C84.8309 14.1391 85.8909 14.3991 86.7509 14.9191C87.6109 15.4391 88.2609 16.1991 88.7009 17.1991C89.1609 18.1991 89.3909 19.4291 89.3909 20.8891V29.6191H85.3709V21.2791C85.3709 20.0791 85.1109 19.1591 84.5909 18.5191C84.0909 17.8791 83.3109 17.5591 82.2509 17.5591C81.5709 17.5591 80.9609 17.7191 80.4209 18.0391C79.9009 18.3591 79.4909 18.8191 79.1909 19.4191C78.8909 19.9991 78.7409 20.7091 78.7409 21.5491V29.6191H74.6909ZM100.017 29.6191C98.9566 29.6191 98.0266 29.4591 97.2266 29.1391C96.4466 28.7991 95.8366 28.2491 95.3966 27.4891C94.9566 26.7091 94.7366 25.6491 94.7366 24.3091V17.8891H92.1566V14.4991H94.7366L95.1866 10.3891H98.7866V14.4991H102.777V17.8891H98.7866V24.3691C98.7866 25.0491 98.9366 25.5191 99.2366 25.7791C99.5366 26.0391 100.047 26.1691 100.767 26.1691H102.747V29.6191H100.017ZM113.064 29.9791C111.544 29.9791 110.194 29.6591 109.014 29.0191C107.854 28.3591 106.944 27.4491 106.284 26.2891C105.644 25.1091 105.324 23.7491 105.324 22.2091C105.324 20.6291 105.644 19.2391 106.284 18.0391C106.924 16.8191 107.824 15.8691 108.984 15.1891C110.164 14.4891 111.524 14.1391 113.064 14.1391C114.564 14.1391 115.874 14.4691 116.994 15.1291C118.114 15.7891 118.984 16.6791 119.604 17.7991C120.224 18.9191 120.534 20.1891 120.534 21.6091C120.534 21.8091 120.534 22.0391 120.534 22.2991C120.534 22.5391 120.514 22.7891 120.474 23.0491H108.204V20.5891H116.454C116.394 19.6091 116.044 18.8391 115.404 18.2791C114.784 17.7191 114.004 17.4391 113.064 17.4391C112.384 17.4391 111.754 17.5991 111.174 17.9191C110.594 18.2191 110.134 18.6891 109.794 19.3291C109.474 19.9691 109.314 20.7791 109.314 21.7591V22.6291C109.314 23.4491 109.464 24.1691 109.764 24.7891C110.084 25.3891 110.524 25.8591 111.084 26.1991C111.644 26.5191 112.294 26.6791 113.034 26.6791C113.774 26.6791 114.384 26.5191 114.864 26.1991C115.364 25.8791 115.734 25.4691 115.974 24.9691H120.114C119.834 25.9091 119.364 26.7591 118.704 27.5191C118.044 28.2791 117.234 28.8791 116.274 29.3191C115.314 29.7591 114.244 29.9791 113.064 29.9791ZM131.171 29.9791C129.651 29.9791 128.301 29.6391 127.121 28.9591C125.941 28.2791 125.021 27.3491 124.361 26.1691C123.701 24.9891 123.371 23.6391 123.371 22.1191C123.371 20.5591 123.701 19.1891 124.361 18.0091C125.021 16.8091 125.941 15.8691 127.121 15.1891C128.301 14.4891 129.651 14.1391 131.171 14.1391C133.111 14.1391 134.741 14.6491 136.061 15.6691C137.381 16.6891 138.221 18.0891 138.581 19.8691H134.291C134.111 19.1691 133.731 18.6191 133.151 18.2191C132.591 17.8191 131.921 17.6191 131.141 17.6191C130.441 17.6191 129.811 17.7991 129.251 18.1591C128.711 18.4991 128.281 19.0091 127.961 19.6891C127.661 20.3491 127.511 21.1391 127.511 22.0591C127.511 22.7591 127.601 23.3891 127.781 23.9491C127.961 24.4891 128.211 24.9591 128.531 25.3591C128.851 25.7391 129.231 26.0291 129.671 26.2291C130.131 26.4291 130.621 26.5291 131.141 26.5291C131.661 26.5291 132.131 26.4391 132.551 26.2591C132.991 26.0791 133.361 25.8291 133.661 25.5091C133.961 25.1691 134.171 24.7591 134.291 24.2791H138.581C138.221 26.0191 137.371 27.4091 136.031 28.4491C134.711 29.4691 133.091 29.9791 131.171 29.9791ZM142.074 29.6191V8.01914H146.124V16.7491C146.624 15.9691 147.284 15.3391 148.104 14.8591C148.944 14.3791 149.914 14.1391 151.014 14.1391C152.274 14.1391 153.334 14.4091 154.194 14.9491C155.054 15.4691 155.704 16.2291 156.144 17.2291C156.584 18.2291 156.804 19.4691 156.804 20.9491V29.6191H152.784V21.3091C152.784 20.1091 152.534 19.1891 152.034 18.5491C151.534 17.8891 150.744 17.5591 149.664 17.5591C149.004 17.5591 148.404 17.7191 147.864 18.0391C147.324 18.3591 146.894 18.8291 146.574 19.4491C146.274 20.0491 146.124 20.7691 146.124 21.6091V29.6191H142.074Z" fill="white"/>
<path d="M162.449 29.7691C161.689 29.7691 161.079 29.5491 160.619 29.1091C160.159 28.6491 159.929 28.0891 159.929 27.4291C159.929 26.7691 160.159 26.2191 160.619 25.7791C161.079 25.3191 161.689 25.0891 162.449 25.0891C163.169 25.0891 163.759 25.3191 164.219 25.7791C164.679 26.2191 164.909 26.7691 164.909 27.4291C164.909 28.0891 164.679 28.6491 164.219 29.1091C163.759 29.5491 163.169 29.7691 162.449 29.7691Z" fill="#00CC61"/>
<defs>
<clipPath id="clip0_258_27910">
<rect width="18" height="18" fill="white" transform="translate(10 10.7178)"/>
</clipPath>
</defs>
</svg>
