<svg id="Layer_1" viewBox="0 0 512 512" xmlns="http://www.w3.org/2000/svg" data-name="Layer 1"><path d="m35.916 87.234h24.108c1.591 0 3.042-.655 4.097-1.711 1.055-1.055 1.711-2.507 1.711-4.097v-30.439zm207.147 298.77h25.324v-90.233h-25.324zm-71.875 0h25.324v-112.071h-25.324zm-71.874 0h25.324v-68.067h-25.324zm200.525 0c3.528 0 6.388 2.86 6.388 6.388s-2.86 6.388-6.388 6.388h-231.977c-3.528 0-6.388-2.86-6.388-6.388s2.86-6.388 6.388-6.388h18.676v-74.455c0-3.528 2.86-6.388 6.388-6.388h38.1c3.528 0 6.388 2.86 6.388 6.388v74.455h20.998v-118.459c0-3.528 2.86-6.388 6.388-6.388h38.1c3.528 0 6.388 2.86 6.388 6.388v118.459h20.999v-96.621c0-3.528 2.86-6.388 6.388-6.388h38.1c3.528 0 6.388 2.86 6.388 6.388v96.621zm-182.477-131.037c-1.378-1.378-3.283-2.23-5.387-2.23s-4.008.853-5.386 2.23c-1.378 1.378-2.23 3.282-2.23 5.386s.853 4.009 2.23 5.386c1.378 1.378 3.283 2.231 5.386 2.231s4.009-.853 5.387-2.23 2.23-3.283 2.23-5.387-.853-4.009-2.23-5.386zm71.875-57.154c-1.378-1.378-3.283-2.23-5.387-2.23s-4.009.853-5.386 2.23c-1.378 1.378-2.23 3.282-2.23 5.386s.853 4.009 2.23 5.386c1.378 1.378 3.282 2.23 5.386 2.23s4.009-.853 5.387-2.23c1.378-1.378 2.23-3.282 2.23-5.386s-.853-4.009-2.23-5.386zm71.874 43.149c-1.378-1.378-3.282-2.23-5.386-2.23s-4.009.853-5.387 2.23-2.23 3.283-2.23 5.387.853 4.009 2.23 5.386c1.378 1.378 3.283 2.23 5.387 2.23s4.008-.853 5.386-2.23 2.23-3.283 2.23-5.386-.853-4.009-2.23-5.387zm61.56-141.311c15.16-10.748 34.406-15.716 54.142-12.355 19.767 3.366 36.294 14.419 47.034 29.568 10.747 15.158 15.714 34.401 12.356 54.135v.008c-3.367 19.766-14.42 36.293-29.569 47.034-15.158 10.746-34.4 15.714-54.134 12.356h-.008c-19.767-3.367-36.294-14.42-47.034-29.569-10.748-15.16-15.715-34.406-12.355-54.143 3.366-19.767 14.419-36.294 29.568-47.034zm52.047.221c-16.305-2.776-32.178 1.309-44.66 10.159-12.493 8.857-21.606 22.474-24.378 38.75-2.776 16.305 1.309 32.179 10.158 44.661 8.794 12.403 22.28 21.474 38.401 24.316.257.028.509.071.755.128 16.162 2.641 31.876-1.449 44.254-10.225 12.403-8.794 21.474-22.28 24.316-38.401.028-.257.071-.509.128-.755 2.641-16.162-1.449-31.876-10.225-44.255-8.858-12.493-22.474-21.607-38.75-24.378zm60.223 169.971-14.369 8.307c-.55.318-1.051.672-1.5 1.055-.485.414-.917.857-1.295 1.321l-.005.006c-1.304 1.608-2.079 3.596-2.246 5.667-.161 2.005.251 4.06 1.31 5.891l33.007 57.104c1.399 2.421 3.673 4.053 6.208 4.731 2.536.678 5.318.401 7.733-.994l14.37-8.306c2.421-1.399 4.053-3.673 4.731-6.208.678-2.536.401-5.319-.995-7.734l-33.008-57.104c-1.086-1.878-2.693-3.281-4.537-4.131-1.922-.886-4.085-1.182-6.176-.802l-.134.027c-.461.091-.971.239-1.528.444-.553.203-1.077.446-1.565.728zm-57.532-10.86v205.799c0 1.59-.655 3.041-1.711 4.096-1.055 1.055-2.506 1.711-4.097 1.711h-298.523c-1.591 0-3.042-.655-4.097-1.711s-1.711-2.506-1.711-4.096v-14.863h265.842c5.117 0 9.765-2.089 13.13-5.454s5.454-8.013 5.454-13.129v-172.396c8.475 1.102 17.117 1.136 25.713.043zm-110.254-126.207c-6.67 24.945-3.821 52.443 10.13 76.578l.2.35.004-.003c1.044 1.79 2.135 3.534 3.27 5.235l-14.95 13.684c-2.974-1.696-6.416-2.664-10.083-2.664-5.097 0-9.757 1.871-13.332 4.962l-38.652-23.204c.329-1.452.502-2.963.502-4.515 0-5.631-2.283-10.729-5.973-14.419-3.691-3.69-8.789-5.973-14.42-5.973s-10.729 2.283-14.419 5.973c-3.69 3.691-5.973 8.789-5.973 14.419 0 2.485.445 4.867 1.259 7.069l-41.547 33.038c-3.214-2.114-7.06-3.345-11.194-3.345-5.63 0-10.729 2.283-14.419 5.973-.107.106-.212.215-.316.324l-26.52-12.641c-3.183-1.516-6.993-.164-8.509 3.019s-.164 6.993 3.019 8.509l26.513 12.638c-.106.842-.161 1.7-.161 2.571 0 5.631 2.283 10.729 5.973 14.419 3.69 3.691 8.788 5.974 14.419 5.974s10.729-2.283 14.42-5.973c3.69-3.691 5.973-8.789 5.973-14.42 0-2.485-.446-4.867-1.26-7.07l41.547-33.038c3.214 2.115 7.061 3.346 11.195 3.346 5.096 0 9.756-1.871 13.331-4.962l38.652 23.204c-.328 1.452-.502 2.963-.502 4.514 0 5.631 2.283 10.729 5.973 14.419 3.691 3.69 8.789 5.973 14.42 5.973s10.729-2.283 14.419-5.973c3.69-3.691 5.973-8.789 5.973-14.419 0-2.959-.631-5.771-1.765-8.31l14.146-12.948c13.453 15.504 31.026 26.159 50.084 31.255l.337.088v174.902c0 1.59-.655 3.041-1.711 4.096-1.055 1.055-2.506 1.711-4.097 1.711h-298.522c-1.591 0-3.042-.655-4.097-1.711-1.055-1.055-1.711-2.506-1.711-4.096v-331.325h31.244c5.118 0 9.765-2.089 13.13-5.454s5.454-8.012 5.454-13.13v-40.015h254.504c1.59 0 3.041.656 4.096 1.711 1.056 1.056 1.711 2.507 1.711 4.098v14.018c-8.482 2.242-16.811 5.637-24.774 10.239-24.129 13.948-40.32 36.352-46.991 61.298zm53.378-50.27c-21.077 12.183-35.222 31.761-41.052 53.564-5.824 21.78-3.352 45.774 8.794 66.828l.039.069c12.183 21.077 31.76 35.222 53.563 41.052 1.471.393 2.953.748 4.443 1.065.21.033.416.077.618.13 11.487 2.361 23.465 2.449 35.211.073.232-.062.47-.111.712-.147 8.861-1.87 17.58-5.147 25.847-9.915l.068-.039c21.077-12.183 35.222-31.761 41.052-53.563 5.831-21.804 3.347-45.826-8.833-66.897-12.183-21.077-31.761-35.222-53.564-41.052-13.062-3.493-26.919-4.001-40.462-1.229-.237.064-.478.114-.725.15-8.815 1.882-17.488 5.158-25.711 9.911zm84.834 193.826-12.796-20.482c-.794.229-1.589.448-2.386.657v208.275c0 5.117-2.089 9.764-5.454 13.129s-8.012 5.454-13.13 5.454h-298.523c-5.117 0-9.765-2.088-13.13-5.454-3.365-3.365-5.454-8.012-5.454-13.129v-14.863h-19.905c-5.117 0-9.765-2.088-13.13-5.454-3.365-3.365-5.454-8.012-5.454-13.129v-337.714s.002-.162.002-.162v-.002s0-.007 0-.007l.006-.155v-.003s.01-.157.01-.157v-.005c.009-.105.019-.209.032-.312v-.01c.089-.692.288-1.349.579-1.953l.002-.005c.089-.185.187-.366.294-.54.187-.308.398-.598.632-.868s.012-.014.012-.014c.063-.072.128-.144.194-.213s.01-.01.01-.01l.052-.054 48.01-58.169c1.257-1.529 3.079-2.321 4.916-2.322v-.024h262.356c5.118 0 9.765 2.09 13.129 5.454 3.366 3.366 5.454 8.015 5.454 13.131v11.516c13.152-1.699 26.417-.762 39.029 2.611 24.947 6.67 47.351 22.861 61.298 46.991 13.951 24.136 16.801 51.634 10.13 76.579-5.241 19.602-16.363 37.632-32.593 51.224l11.197 19.621c3.092.099 6.134.818 8.928 2.107 4.152 1.915 7.774 5.079 10.226 9.321l33.008 57.104c3.167 5.479 3.809 11.741 2.292 17.415-1.518 5.675-5.196 10.779-10.669 13.943l-14.37 8.306c-5.479 3.167-11.741 3.809-17.415 2.292-5.675-1.517-10.779-5.196-13.943-10.669l-33.007-57.104c-2.418-4.183-3.366-8.81-3.007-13.277.248-3.086 1.122-6.109 2.567-8.869zm-.522-24.907c3.494-1.522 6.938-3.257 10.317-5.209l.35-.2-.003-.004c1.262-.736 2.5-1.496 3.717-2.277l8.784 15.393-13.483 7.794zm-291.578-111.405h68.186c3.528 0 6.388-2.86 6.388-6.388s-2.86-6.388-6.388-6.388h-68.186c-3.528 0-6.388 2.86-6.388 6.388s2.86 6.388 6.388 6.388zm0-29.413h56.19c3.528 0 6.388-2.86 6.388-6.388s-2.86-6.388-6.388-6.388h-56.19c-3.528 0-6.388 2.86-6.388 6.388s2.86 6.388 6.388 6.388zm217.721 54.497 24.261 19.078c2.77 2.177 6.781 1.697 8.958-1.073l.041-.053 34.943-40.362c2.301-2.659 2.011-6.682-.649-8.983s-6.682-2.011-8.983.649l-31.199 36.037-19.487-15.324c-2.77-2.177-6.781-1.697-8.958 1.073s-1.697 6.781 1.073 8.958z" fill-rule="evenodd"/></svg>