<svg id="Layer_1" enable-background="new 0 0 512 512" height="512" viewBox="0 0 512 512" width="512" xmlns="http://www.w3.org/2000/svg"><path d="m247 246.572v-230.299c0-1.937-.802-3.786-2.216-5.109-1.413-1.324-3.309-2.017-5.244-1.875-62.461 4.111-120.543 31.57-163.547 77.317-43.201 45.956-66.993 106.019-66.993 169.123 0 38.253 8.524 74.943 25.336 109.052.856 1.737 2.394 3.041 4.246 3.604.666.202 1.35.302 2.032.302 1.217 0 2.426-.317 3.5-.938l199.386-115.114c2.166-1.251 3.5-3.562 3.5-6.063zm-14-4.041-189.309 109.296c-13.735-30.236-20.691-62.525-20.691-96.098 0-119.82 91.65-220.247 210-231.86zm225.937 140.676-199.437-115.146c-2.166-1.25-4.834-1.25-7 0l-199.437 115.146c-1.679.97-2.88 2.591-3.319 4.479-.438 1.888-.074 3.873 1.006 5.482 46.022 68.604 122.751 109.561 205.25 109.561s159.228-40.957 205.25-109.561c1.08-1.609 1.444-3.595 1.006-5.482-.439-1.888-1.64-3.509-3.319-4.479zm-202.937 105.522c-75.32 0-145.548-36.199-189.349-97.201l189.349-109.321 189.349 109.321c-43.801 61.002-114.029 97.201-189.349 97.201zm180.008-402.123c-43.005-45.747-101.087-73.206-163.548-77.317-1.931-.132-3.831.551-5.244 1.875-1.414 1.323-2.216 3.173-2.216 5.109v230.299c0 2.501 1.334 4.812 3.5 6.062l199.385 115.114c1.075.62 2.283.938 3.5.938.682 0 1.367-.1 2.032-.302 1.853-.562 3.39-1.866 4.246-3.604 16.813-34.107 25.337-70.798 25.337-109.051 0-63.104-23.792-123.167-66.992-169.123zm32.301 265.221-189.309-109.296v-218.662c118.349 11.613 210 112.04 210 231.86 0 33.573-6.956 65.862-20.691 96.098zm-208.861-29.523 52.873 29.921-2.915-11.521c-.948-3.748 1.322-7.555 5.069-8.503 3.749-.943 7.555 1.321 8.503 5.069l6.929 27.393c.948 3.748-1.322 7.555-5.069 8.503l-27.394 6.93c-3.745.948-7.555-1.321-8.503-5.069s1.322-7.555 5.069-8.503l10.47-2.648-48.231-27.294-68.973 44.791c-1.178.765-2.5 1.131-3.806 1.131-2.291 0-4.536-1.124-5.877-3.188-2.105-3.242-1.184-7.577 2.058-9.683l72.536-47.105c2.189-1.425 4.988-1.51 7.261-.224zm-46.476 89.096h-29.514c-3.866 0-7 3.134-7 7v31.888c0 3.866 3.134 7 7 7h29.514c3.866 0 7-3.134 7-7v-31.888c0-3.866-3.135-7-7-7zm-7 31.888h-15.514v-17.888h15.514zm93.056-31.888c-3.866 0-7 3.134-7 7v31.888c0 3.866 3.134 7 7 7h29.514c3.866 0 7-3.134 7-7v-31.888c0-3.866-3.134-7-7-7zm22.514 31.888h-15.514v-17.888h15.514zm-50.785-63.302h-29.514c-3.866 0-7 3.134-7 7v63.302c0 3.866 3.134 7 7 7h29.514c3.866 0 7-3.134 7-7v-63.302c0-3.866-3.134-7-7-7zm-7 63.302h-15.514v-49.302h15.514zm67.215-285.612h-29.514c-3.866 0-7 3.134-7 7v63.302c0 3.866 3.134 7 7 7h29.514c3.866 0 7-3.134 7-7v-63.302c0-3.867-3.135-7-7-7zm-7 63.301h-15.514v-49.302h15.514zm122.57-63.301h-29.514c-3.866 0-7 3.134-7 7v63.302c0 3.866 3.134 7 7 7h29.514c3.866 0 7-3.134 7-7v-63.302c0-3.867-3.134-7-7-7zm-7 63.301h-15.514v-49.302h15.514zm-50.785-31.888h-29.514c-3.866 0-7 3.134-7 7v31.889c0 3.866 3.134 7 7 7h29.514c3.866 0 7-3.134 7-7v-31.889c0-3.867-3.134-7-7-7zm-7 31.888h-15.514v-17.889h15.514zm26.603-80.745 2.055-9.6-42.268 31.094c-1.245.915-2.699 1.361-4.145 1.361-1.944 0-3.87-.807-5.247-2.362l-23.739-26.841-24.92 16.614c-3.216 2.146-7.562 1.275-9.707-1.941-2.145-3.217-1.275-7.562 1.941-9.707l30.001-20.001c2.912-1.939 6.809-1.434 9.126 1.187l23.546 26.622 39.428-29.004-12.408-2.656c-3.78-.81-6.188-4.53-5.379-8.31.809-3.781 4.528-6.188 8.31-5.38l27.63 5.915c1.815.389 3.402 1.482 4.411 3.041s1.357 3.454.969 5.27l-5.916 27.63c-.81 3.78-4.529 6.188-8.31 5.379-3.779-.81-6.188-4.531-5.378-8.311zm-231.372-48.437c1.6-3.519 5.75-5.072 9.27-3.472l25.719 11.702c3.519 1.601 5.073 5.751 3.473 9.27l-11.702 25.72c-1.602 3.52-5.752 5.074-9.271 3.473s-5.073-5.751-3.473-9.27l4.622-10.157-126.194 48.46c-.825.317-1.674.468-2.508.468-2.814 0-5.467-1.709-6.536-4.492-1.386-3.609.417-7.658 4.025-9.044l126.562-48.604-10.515-4.784c-3.519-1.6-5.073-5.751-3.472-9.27zm33.554 65.881h-29.514c-3.866 0-7 3.134-7 7v63.302c0 3.866 3.134 7 7 7h29.514c3.866 0 7-3.134 7-7v-63.302c0-3.867-3.133-7-7-7zm-7 63.301h-15.514v-49.302h15.514zm-50.785-47.594h-29.514c-3.866 0-7 3.134-7 7v47.595c0 3.866 3.134 7 7 7h29.514c3.866 0 7-3.134 7-7v-47.595c0-3.867-3.133-7-7-7zm-7 47.594h-15.514v-33.595h15.514zm-50.785-31.888h-29.514c-3.866 0-7 3.134-7 7v31.889c0 3.866 3.134 7 7 7h29.514c3.866 0 7-3.134 7-7v-31.889c0-3.867-3.134-7-7-7zm-7 31.888h-15.514v-17.889h15.514z"/></svg>