<?xml version="1.0" encoding="UTF-8"?>
<!DOCTYPE svg PUBLIC "-//W3C//DTD SVG 1.1//EN" "http://www.w3.org/Graphics/SVG/1.1/DTD/svg11.dtd">
<!-- Creator: CorelDRAW -->
<svg xmlns="http://www.w3.org/2000/svg" xml:space="preserve" width="1619px" height="1619px" version="1.1" style="shape-rendering:geometricPrecision; text-rendering:geometricPrecision; image-rendering:optimizeQuality; fill-rule:evenodd; clip-rule:evenodd"
viewBox="0 0 387.37 387.37"
 xmlns:xlink="http://www.w3.org/1999/xlink"
 xmlns:xodm="http://www.corel.com/coreldraw/odm/2003">
 <defs>
  <style type="text/css">
   <![CDATA[
    .fil0 {fill:black;fill-rule:nonzero}
   ]]>
  </style>
 </defs>
 <g id="Layer_x0020_1">
  <metadata id="CorelCorpID_0Corel-Layer"/>
  <g id="_2245589944704">
   <path class="fil0" d="M336.31 387.37l-285.24 0c-14.1,0 -26.87,-5.71 -36.11,-14.95 -9.24,-9.25 -14.96,-22.01 -14.96,-36.11l0 -285.24c0,-14.1 5.72,-26.87 14.96,-36.11 9.24,-9.24 22.01,-14.96 36.11,-14.96l285.24 0c14.1,0 26.86,5.72 36.11,14.96 9.24,9.24 14.95,22.01 14.95,36.11l0 285.24c0,14.1 -5.71,26.86 -14.95,36.11 -9.25,9.24 -22.01,14.95 -36.11,14.95zm-285.24 -11.35l285.24 0c10.96,0 20.89,-4.44 28.08,-11.63 7.19,-7.19 11.63,-17.12 11.63,-28.08l0 -285.24c0,-10.97 -4.44,-20.9 -11.63,-28.09 -7.19,-7.19 -17.12,-11.63 -28.08,-11.63l-285.24 0c-10.97,0 -20.9,4.44 -28.09,11.63 -7.19,7.19 -11.63,17.12 -11.63,28.09l0 285.24c0,10.96 4.44,20.89 11.63,28.08 7.19,7.19 17.12,11.63 28.09,11.63z"/>
   <path class="fil0" d="M342.55 265c0,-3.14 2.54,-5.68 5.67,-5.68 3.14,0 5.68,2.54 5.68,5.68l0 52.96c0,3.13 -2.54,5.67 -5.68,5.67 -3.13,0 -5.67,-2.54 -5.67,-5.67l0 -52.96z"/>
   <path class="fil0" d="M266.89 265c0,-3.14 2.54,-5.68 5.67,-5.68 3.14,0 5.68,2.54 5.68,5.68l0 52.96c0,3.13 -2.54,5.67 -5.68,5.67 -3.13,0 -5.67,-2.54 -5.67,-5.67l0 -52.96z"/>
   <path class="fil0" d="M81.29 44.35l59.43 37.3c2.85,1.79 5.09,4.09 6.72,6.69 2.16,3.44 3.24,7.39 3.25,11.34 0,3.95 -1.09,7.9 -3.25,11.34 -1.63,2.6 -3.87,4.91 -6.72,6.69l-59.43 37.3c-3.62,2.27 -7.51,3.31 -11.29,3.31 -3.65,0 -7.2,-0.96 -10.33,-2.69 -3.13,-1.73 -5.83,-4.24 -7.78,-7.34 -2.03,-3.24 -3.24,-7.08 -3.24,-11.31l0 -74.6 0.03 0c0,-4.25 1.19,-8.09 3.21,-11.31 1.95,-3.1 4.65,-5.61 7.78,-7.34 3.1,-1.71 6.66,-2.66 10.33,-2.66 3.81,0 7.7,1.02 11.29,3.28zm53.4 46.88l-59.43 -37.31c-1.7,-1.06 -3.51,-1.55 -5.26,-1.55 -1.69,0 -3.37,0.46 -4.88,1.29 -1.47,0.82 -2.74,1.99 -3.65,3.44 -0.94,1.49 -1.49,3.28 -1.49,5.28l0.02 0 0 74.6c0,2.03 0.55,3.82 1.47,5.28 0.9,1.45 2.18,2.62 3.65,3.44 1.48,0.81 3.16,1.27 4.88,1.27 1.77,0 3.58,-0.48 5.26,-1.53l59.43 -37.3c1.36,-0.85 2.42,-1.94 3.18,-3.15 1.01,-1.61 1.51,-3.46 1.51,-5.31 0,-1.85 -0.5,-3.7 -1.51,-5.31 -0.76,-1.21 -1.82,-2.3 -3.18,-3.14z"/>
   <path class="fil0" d="M81.65 295.16c1.66,2.65 0.87,6.14 -1.78,7.81 -2.64,1.66 -6.13,0.87 -7.8,-1.78l-7.86 -12.52c-0.2,-0.32 -0.45,-0.57 -0.72,-0.74 -0.34,-0.21 -0.77,-0.32 -1.22,-0.32 -0.45,0 -0.87,0.11 -1.21,0.32 -0.28,0.17 -0.53,0.42 -0.73,0.74l-18.94 30.19c-0.24,0.37 -0.35,0.78 -0.35,1.19 0,0.4 0.11,0.79 0.3,1.13 0.19,0.35 0.46,0.64 0.78,0.84 0.31,0.2 0.72,0.31 1.2,0.31l40.44 0c3.13,0 5.67,2.54 5.67,5.68 0,3.13 -2.54,5.67 -5.67,5.67l-40.44 0c-2.69,0 -5.14,-0.77 -7.23,-2.08 -1.98,-1.25 -3.58,-2.97 -4.68,-4.97 -1.1,-1.99 -1.71,-4.26 -1.71,-6.58 0,-2.42 0.66,-4.9 2.11,-7.22l18.95 -30.19c1.13,-1.81 2.6,-3.24 4.27,-4.28 2.22,-1.4 4.74,-2.1 7.24,-2.1 2.5,0 5.02,0.7 7.25,2.1 1.66,1.04 3.13,2.47 4.27,4.28l7.86 12.52z"/>
   <path class="fil0" d="M143.08 266.19c1.67,2.64 0.87,6.14 -1.77,7.8 -2.64,1.67 -6.14,0.87 -7.8,-1.77l-9.61 -15.31c-0.71,-1.13 -1.6,-2 -2.6,-2.63 -1.3,-0.82 -2.83,-1.23 -4.39,-1.23l0 -0.02c-1.53,0 -3.05,0.42 -4.38,1.25 -1,0.63 -1.9,1.5 -2.6,2.63l-33.16 52.82c-0.86,1.39 -1.26,2.88 -1.26,4.35 0,1.42 0.38,2.81 1.05,4.03 0.68,1.22 1.65,2.27 2.84,3.02 1.2,0.75 2.68,1.2 4.36,1.2l66.31 0c1.68,0 3.15,-0.45 4.36,-1.2 1.19,-0.75 2.16,-1.8 2.84,-3.02 0.67,-1.22 1.05,-2.61 1.05,-4.03l0.02 0c0,-1.44 -0.4,-2.94 -1.29,-4.35l-11.47 -18.27c-1.66,-2.65 -0.87,-6.14 1.78,-7.8 2.64,-1.67 6.13,-0.87 7.8,1.77l11.47 18.28c2.07,3.3 3.01,6.87 3.01,10.37l0.03 0c0,3.34 -0.88,6.61 -2.47,9.48 -1.59,2.87 -3.89,5.36 -6.74,7.14 -2.98,1.87 -6.51,2.98 -10.39,2.98l-66.31 0c-3.88,0 -7.41,-1.11 -10.39,-2.98 -2.85,-1.78 -5.15,-4.27 -6.74,-7.14 -1.59,-2.87 -2.47,-6.14 -2.47,-9.48 0,-3.48 0.95,-7.05 3.04,-10.37l33.15 -52.83c1.64,-2.62 3.76,-4.68 6.15,-6.18 3.16,-1.98 6.79,-2.97 10.41,-2.97l0 -0.02c3.61,0 7.23,1 10.42,3 2.39,1.49 4.5,3.55 6.14,6.17l9.61 15.31z"/>
   <path class="fil0" d="M348.22 270.67l-75.66 0c-3.13,0 -5.67,-2.54 -5.67,-5.67l0 -15.14c0,-5.74 2.33,-10.94 6.09,-14.71 3.77,-3.76 8.97,-6.09 14.71,-6.09l45.4 0c5.74,0 10.95,2.33 14.71,6.09 3.77,3.77 6.1,8.97 6.1,14.71l0 15.14c0,3.13 -2.54,5.67 -5.68,5.67zm-69.98 -11.35l64.31 0 0 -9.46c0,-2.61 -1.06,-4.97 -2.77,-6.68 -1.71,-1.71 -4.08,-2.77 -6.69,-2.77l-45.4 0c-2.61,0 -4.97,1.06 -6.68,2.77 -1.71,1.71 -2.77,4.07 -2.77,6.68l0 9.46z"/>
   <path class="fil0" d="M353.9 317.96c0,7.83 -3.18,14.92 -8.31,20.06 -5.14,5.13 -12.23,8.31 -20.07,8.31 -7.83,0 -14.92,-3.18 -20.06,-8.31 -5.13,-5.14 -8.31,-12.23 -8.31,-20.06 0,-7.84 3.18,-14.93 8.31,-20.06 5.14,-5.14 12.23,-8.31 20.06,-8.31 7.84,0 14.93,3.17 20.07,8.31 5.13,5.13 8.31,12.22 8.31,20.06zm-16.34 12.04c3.08,-3.08 4.99,-7.34 4.99,-12.04 0,-4.7 -1.91,-8.96 -4.99,-12.04 -3.08,-3.08 -7.34,-4.99 -12.04,-4.99 -4.7,0 -8.95,1.91 -12.03,4.99 -3.08,3.08 -4.99,7.34 -4.99,12.04 0,4.7 1.91,8.95 4.99,12.04 3.08,3.08 7.33,4.98 12.03,4.98 4.7,0 8.96,-1.9 12.04,-4.98z"/>
   <path class="fil0" d="M278.24 317.96c0,7.83 -3.18,14.92 -8.31,20.06 -5.14,5.13 -12.23,8.31 -20.07,8.31 -7.83,0 -14.92,-3.18 -20.06,-8.31 -5.13,-5.14 -8.31,-12.23 -8.31,-20.06 0,-7.84 3.18,-14.93 8.31,-20.06 5.14,-5.14 12.23,-8.31 20.06,-8.31 7.84,0 14.93,3.17 20.07,8.31 5.13,5.13 8.31,12.22 8.31,20.06zm-16.34 12.04c3.08,-3.08 4.99,-7.34 4.99,-12.04 0,-4.7 -1.91,-8.96 -4.99,-12.04 -3.08,-3.08 -7.33,-4.99 -12.04,-4.99 -4.7,0 -8.95,1.91 -12.03,4.99 -3.08,3.08 -4.99,7.34 -4.99,12.04 0,4.7 1.91,8.95 4.99,12.04 3.08,3.08 7.33,4.98 12.03,4.98 4.71,0 8.96,-1.9 12.04,-4.98z"/>
   <path class="fil0" d="M188.01 6.43c0,-3.13 2.54,-5.67 5.68,-5.67 3.13,0 5.67,2.54 5.67,5.67l0 374.51c0,3.14 -2.54,5.68 -5.67,5.68 -3.14,0 -5.68,-2.54 -5.68,-5.68l0 -374.51z"/>
   <path class="fil0" d="M380.94 188.01c3.14,0 5.68,2.54 5.68,5.68 0,3.13 -2.54,5.67 -5.68,5.67l-374.51 0c-3.13,0 -5.67,-2.54 -5.67,-5.67 0,-3.14 2.54,-5.68 5.67,-5.68l374.51 0z"/>
   <path class="fil0" d="M344.43 75.54c-0.28,-6.23 -1.28,-10.52 -2.73,-14.23 -1.48,-3.94 -3.78,-7.46 -6.78,-10.39 -2.93,-2.98 -6.48,-5.3 -10.37,-6.76 -3.74,-1.45 -8,-2.45 -14.23,-2.73 -6.27,-0.29 -8.26,-0.36 -24.18,-0.36 -15.92,0 -17.92,0.07 -24.17,0.34 -6.23,0.27 -10.51,1.28 -14.22,2.72 -3.94,1.49 -7.47,3.78 -10.4,6.79 -2.98,2.93 -5.29,6.48 -6.76,10.37 -1.44,3.73 -2.45,7.99 -2.72,14.22 -0.3,6.28 -0.37,8.27 -0.37,24.19 0,15.92 0.07,17.91 0.34,24.17 0.28,6.23 1.29,10.51 2.73,14.22 1.49,3.94 3.8,7.47 6.78,10.4 2.93,2.98 6.48,5.29 10.37,6.76 3.74,1.44 8,2.45 14.23,2.72 6.25,0.28 8.25,0.35 24.16,0.35 15.92,0 17.92,-0.07 24.17,-0.35 6.23,-0.27 10.51,-1.28 14.22,-2.72 7.88,-3.05 14.11,-9.28 17.16,-17.16 1.44,-3.73 2.45,-7.99 2.72,-14.22 0.28,-6.26 0.35,-8.25 0.35,-24.17 0,-15.92 -0.03,-17.91 -0.3,-24.16zm-19.95 -7.15c0,3.88 -3.15,7.03 -7.03,7.03 -3.89,0 -7.03,-3.15 -7.03,-7.03 0,-3.88 3.14,-7.03 7.03,-7.03 3.88,0 7.03,3.15 7.03,7.03zm-38.34 1.19c-16.63,0 -30.12,13.49 -30.12,30.12 0,16.63 13.49,30.12 30.12,30.12 16.63,0 30.12,-13.49 30.12,-30.12 0,-16.63 -13.49,-30.12 -30.12,-30.12zm0 49.66c-10.79,0 -19.54,-8.75 -19.54,-19.54 0,-10.79 8.75,-19.54 19.54,-19.54 10.78,0 19.53,8.75 19.53,19.54 0,10.79 -8.75,19.54 -19.53,19.54zm47.73 4.17c-0.25,5.72 -1.21,8.82 -2.02,10.88 -1.97,5.11 -6.02,9.16 -11.13,11.13 -2.06,0.8 -5.17,1.76 -10.88,2.02 -6.18,0.27 -8.04,0.34 -23.68,0.34 -15.64,0 -17.52,-0.07 -23.68,-0.34 -5.73,-0.26 -8.82,-1.22 -10.88,-2.02 -2.55,-0.94 -4.86,-2.43 -6.74,-4.37 -1.94,-1.91 -3.43,-4.2 -4.37,-6.74 -0.8,-2.06 -1.77,-5.18 -2.02,-10.88 -0.27,-6.18 -0.34,-8.04 -0.34,-23.68 0,-15.65 0.07,-17.52 0.34,-23.69 0.25,-5.72 1.22,-8.81 2.02,-10.88 0.94,-2.54 2.43,-4.85 4.4,-6.73 1.9,-1.95 4.19,-3.44 6.73,-4.37 2.06,-0.81 5.18,-1.77 10.88,-2.02 6.18,-0.27 8.04,-0.34 23.68,-0.34 15.67,0 17.52,0.07 23.69,0.34 5.72,0.25 8.81,1.21 10.88,2.02 2.54,0.93 4.85,2.42 6.73,4.37 1.95,1.9 3.44,4.19 4.37,6.73 0.81,2.07 1.77,5.18 2.02,10.88 0.28,6.19 0.34,8.04 0.34,23.69 0,15.64 -0.06,17.47 -0.34,23.66z"/>
  </g>
 </g>
</svg>
