<svg width="140" height="33" viewBox="0 0 140 33" fill="none" xmlns="http://www.w3.org/2000/svg">
<path d="M45.1348 22.0201H54.7352V19.1284H48.547V8.23633H45.1348V22.0201Z" fill="white"/>
<path d="M60.801 20.0933C59.4322 20.0933 58.7189 18.898 58.7189 17.1052C58.7189 15.3123 59.4322 14.0978 60.801 14.0978C62.1697 14.0978 62.9023 15.3123 62.9023 17.1052C62.9023 18.898 62.1697 20.0933 60.801 20.0933ZM60.8203 22.3295C64.0011 22.3295 66.0831 20.074 66.0831 17.1052C66.0831 14.1364 64.0011 11.8809 60.8203 11.8809C57.6587 11.8809 55.5381 14.1364 55.5381 17.1052C55.5381 20.074 57.6587 22.3295 60.8203 22.3295Z" fill="white"/>
<path d="M71.9183 25.4321C73.3834 25.4321 74.675 25.1043 75.5425 24.3332C76.3329 23.6199 76.8534 22.5404 76.8534 21.056V12.1495H73.8461V13.2098H73.8075C73.2292 12.3809 72.3424 11.8604 71.0315 11.8604C68.5832 11.8604 66.8867 13.9038 66.8867 16.7955C66.8867 19.8222 68.9495 21.4801 71.1664 21.4801C72.3617 21.4801 73.1135 20.9981 73.6918 20.3427H73.769V21.3258C73.769 22.5211 73.2099 23.2151 71.8797 23.2151C70.8387 23.2151 70.3182 22.7717 70.1447 22.2512H67.0988C67.4072 24.3139 69.2001 25.4321 71.9183 25.4321ZM71.899 19.1474C70.723 19.1474 69.9519 18.1835 69.9519 16.6991C69.9519 15.1954 70.723 14.2315 71.899 14.2315C73.2099 14.2315 73.9039 15.3497 73.9039 16.6798C73.9039 18.0679 73.2677 19.1474 71.899 19.1474Z" fill="white"/>
<path d="M82.9201 20.0933C81.5514 20.0933 80.8381 18.898 80.8381 17.1052C80.8381 15.3123 81.5514 14.0978 82.9201 14.0978C84.2889 14.0978 85.0214 15.3123 85.0214 17.1052C85.0214 18.898 84.2889 20.0933 82.9201 20.0933ZM82.9394 22.3295C86.1203 22.3295 88.2019 20.074 88.2019 17.1052C88.2019 14.1364 86.1203 11.8809 82.9394 11.8809C79.7778 11.8809 77.6572 14.1364 77.6572 17.1052C77.6572 20.074 79.7778 22.3295 82.9394 22.3295Z" fill="white"/>
<path d="M89.0039 22.0201H92.1462V12.1498H89.0039V22.0201ZM89.0039 10.781H92.1462V8.23633H89.0039V10.781Z" fill="white"/>
<path d="M92.9502 25.2778H96.0925V20.9981H96.1311C96.748 21.8271 97.654 22.3283 98.9264 22.3283C101.51 22.3283 103.225 20.2848 103.225 17.0847C103.225 14.1159 101.625 11.8604 99.0035 11.8604C97.654 11.8604 96.6901 12.458 96.0154 13.3448H95.9576V12.1495H92.9502V25.2778ZM98.1167 19.8993C96.7672 19.8993 95.9961 18.8004 95.9961 17.2004C95.9961 15.6003 96.6901 14.3858 98.0589 14.3858C99.4083 14.3858 100.044 15.5039 100.044 17.2004C100.044 18.8775 99.3119 19.8993 98.1167 19.8993Z" fill="white"/>
<path d="M108.83 22.3283C111.413 22.3283 113.321 21.2102 113.321 19.051C113.321 16.5256 111.278 16.0822 109.543 15.7931C108.29 15.5617 107.172 15.4653 107.172 14.7713C107.172 14.1544 107.769 13.8653 108.54 13.8653C109.408 13.8653 110.005 14.1352 110.121 15.0219H113.013C112.859 13.0749 111.355 11.8604 108.56 11.8604C106.227 11.8604 104.299 12.9399 104.299 15.0219C104.299 17.3353 106.131 17.798 107.846 18.0871C109.157 18.3185 110.352 18.4149 110.352 19.3017C110.352 19.9378 109.755 20.2848 108.81 20.2848C107.769 20.2848 107.114 19.8029 106.998 18.8197H104.029C104.126 20.9981 105.938 22.3283 108.83 22.3283Z" fill="white"/>
<path d="M117.594 22.3104C118.963 22.3104 119.83 21.7706 120.544 20.8067H120.601V22.0212H123.609V12.1509H120.466V17.6644C120.466 18.8403 119.811 19.65 118.731 19.65C117.729 19.65 117.247 19.0524 117.247 17.9728V12.1509H114.124V18.6283C114.124 20.826 115.319 22.3104 117.594 22.3104Z" fill="white"/>
<path d="M124.411 22.0199H127.553V16.4871C127.553 15.3111 128.132 14.4822 129.115 14.4822C130.06 14.4822 130.503 15.0991 130.503 16.1593V22.0199H133.645V16.4871C133.645 15.3111 134.204 14.4822 135.207 14.4822C136.151 14.4822 136.595 15.0991 136.595 16.1593V22.0199H139.737V15.6003C139.737 13.3833 138.619 11.8604 136.383 11.8604C135.11 11.8604 134.05 12.4001 133.279 13.5954H133.24C132.739 12.5351 131.756 11.8604 130.464 11.8604C129.038 11.8604 128.093 12.5351 127.476 13.5568H127.419V12.1495H124.411V22.0199Z" fill="white"/>
<path d="M20.4173 1.61604L17.2581 0.769531L14.5958 10.7054L12.1922 1.73523L9.03298 2.58174L11.6299 12.2733L5.1616 5.80508L2.84889 8.11779L9.94378 15.2127L1.10823 12.8452L0.261719 16.0044L9.91567 18.5912C9.80514 18.1145 9.74666 17.6177 9.74666 17.1074C9.74666 13.4947 12.6753 10.566 16.288 10.566C19.9007 10.566 22.8293 13.4947 22.8293 17.1074C22.8293 17.6144 22.7716 18.1081 22.6624 18.582L31.4361 20.9329L32.2825 17.7737L22.5902 15.1767L31.4264 12.809L30.5798 9.64983L20.8879 12.2467L27.3561 5.77853L25.0434 3.46582L18.047 10.4623L20.4173 1.61604Z" fill="white"/>
<path d="M22.6537 18.6191C22.3828 19.7643 21.811 20.793 21.0264 21.6172L27.3825 27.9734L29.6952 25.6607L22.6537 18.6191Z" fill="white"/>
<path d="M20.962 21.6836C20.1679 22.4946 19.1644 23.0999 18.0391 23.4118L20.3519 32.0435L23.5111 31.197L20.962 21.6836Z" fill="white"/>
<path d="M17.9215 23.4433C17.3994 23.5775 16.8522 23.6488 16.2882 23.6488C15.684 23.6488 15.0989 23.5669 14.5435 23.4136L12.2285 32.0532L15.3877 32.8996L17.9215 23.4433Z" fill="white"/>
<path d="M14.431 23.3817C13.3228 23.0543 12.3371 22.4413 11.5593 21.6279L5.1875 27.9997L7.50021 30.3124L14.431 23.3817Z" fill="white"/>
<path d="M11.507 21.5713C10.7424 20.7528 10.1855 19.7378 9.92046 18.6104L1.11816 20.9689L1.96467 24.1281L11.507 21.5713Z" fill="white"/>
</svg>
