<svg width="140" height="33" viewBox="0 0 140 33" fill="none" xmlns="http://www.w3.org/2000/svg">
<path d="M45.1885 21.3936H54.7889V18.5019H48.6007V7.60986H45.1885V21.3936Z" fill="white"/>
<path d="M60.8557 19.4668C59.4869 19.4668 58.7736 18.2716 58.7736 16.4787C58.7736 14.6859 59.4869 13.4714 60.8557 13.4714C62.2244 13.4714 62.957 14.6859 62.957 16.4787C62.957 18.2716 62.2244 19.4668 60.8557 19.4668ZM60.8749 21.7031C64.0558 21.7031 66.1378 19.4476 66.1378 16.4787C66.1378 13.5099 64.0558 11.2544 60.8749 11.2544C57.7134 11.2544 55.5928 13.5099 55.5928 16.4787C55.5928 19.4476 57.7134 21.7031 60.8749 21.7031Z" fill="white"/>
<path d="M71.972 24.8056C73.4371 24.8056 74.7287 24.4779 75.5963 23.7068C76.3867 22.9935 76.9072 21.9139 76.9072 20.4295V11.5231H73.8998V12.5833H73.8612C73.2829 11.7544 72.3961 11.2339 71.0852 11.2339C68.6369 11.2339 66.9404 13.2774 66.9404 16.1691C66.9404 19.1957 69.0032 20.8536 71.2202 20.8536C72.4154 20.8536 73.1672 20.3717 73.7456 19.7162H73.8227V20.6994C73.8227 21.8946 73.2636 22.5886 71.9334 22.5886C70.8924 22.5886 70.3719 22.1452 70.1984 21.6247H67.1525C67.4609 23.6875 69.2538 24.8056 71.972 24.8056ZM71.9527 18.521C70.7768 18.521 70.0056 17.5571 70.0056 16.0727C70.0056 14.569 70.7768 13.6051 71.9527 13.6051C73.2636 13.6051 73.9576 14.7232 73.9576 16.0534C73.9576 17.4414 73.3215 18.521 71.9527 18.521Z" fill="white"/>
<path d="M82.9738 19.4668C81.6051 19.4668 80.8918 18.2716 80.8918 16.4787C80.8918 14.6859 81.6051 13.4714 82.9738 13.4714C84.3426 13.4714 85.0751 14.6859 85.0751 16.4787C85.0751 18.2716 84.3426 19.4668 82.9738 19.4668ZM82.9931 21.7031C86.174 21.7031 88.2556 19.4476 88.2556 16.4787C88.2556 13.5099 86.174 11.2544 82.9931 11.2544C79.8315 11.2544 77.7109 13.5099 77.7109 16.4787C77.7109 19.4476 79.8315 21.7031 82.9931 21.7031Z" fill="white"/>
<path d="M89.0586 21.3936H92.2009V11.5233H89.0586V21.3936ZM89.0586 10.1546H92.2009V7.60986H89.0586V10.1546Z" fill="white"/>
<path d="M93.0049 24.6514H96.1472V20.3717H96.1858C96.8027 21.2006 97.7087 21.7018 98.9811 21.7018C101.564 21.7018 103.28 19.6584 103.28 16.4582C103.28 13.4894 101.68 11.2339 99.0582 11.2339C97.7087 11.2339 96.7448 11.8315 96.0701 12.7183H96.0122V11.5231H93.0049V24.6514ZM98.1714 19.2728C96.8219 19.2728 96.0508 18.174 96.0508 16.5739C96.0508 14.9738 96.7448 13.7593 98.1136 13.7593C99.463 13.7593 100.099 14.8774 100.099 16.5739C100.099 18.2511 99.3666 19.2728 98.1714 19.2728Z" fill="white"/>
<path d="M108.882 21.7018C111.466 21.7018 113.374 20.5837 113.374 18.4246C113.374 15.8992 111.331 15.4558 109.596 15.1666C108.342 14.9353 107.224 14.8389 107.224 14.1449C107.224 13.528 107.822 13.2388 108.593 13.2388C109.461 13.2388 110.058 13.5087 110.174 14.3955H113.066C112.911 12.4484 111.408 11.2339 108.612 11.2339C106.28 11.2339 104.352 12.3135 104.352 14.3955C104.352 16.7088 106.183 17.1715 107.899 17.4607C109.21 17.692 110.405 17.7884 110.405 18.6752C110.405 19.3114 109.808 19.6584 108.863 19.6584C107.822 19.6584 107.167 19.1764 107.051 18.1933H104.082C104.178 20.3717 105.991 21.7018 108.882 21.7018Z" fill="white"/>
<path d="M117.648 21.6834C119.017 21.6834 119.884 21.1437 120.597 20.1798H120.655V21.3943H123.663V11.5239H120.52V17.0374C120.52 18.2134 119.865 19.0231 118.785 19.0231C117.783 19.0231 117.301 18.4255 117.301 17.3459V11.5239H114.178V18.0013C114.178 20.199 115.373 21.6834 117.648 21.6834Z" fill="white"/>
<path d="M124.467 21.3934H127.609V15.8606C127.609 14.6847 128.187 13.8557 129.171 13.8557C130.115 13.8557 130.559 14.4726 130.559 15.5329V21.3934H133.701V15.8606C133.701 14.6847 134.26 13.8557 135.262 13.8557C136.207 13.8557 136.651 14.4726 136.651 15.5329V21.3934H139.793V14.9738C139.793 12.7569 138.675 11.2339 136.438 11.2339C135.166 11.2339 134.106 11.7737 133.335 12.9689H133.296C132.795 11.9086 131.812 11.2339 130.52 11.2339C129.094 11.2339 128.149 11.9086 127.532 12.9304H127.474V11.5231H124.467V21.3934Z" fill="white"/>
<path fill-rule="evenodd" clip-rule="evenodd" d="M16.2721 32.2726C25.1445 32.2726 32.3371 25.08 32.3371 16.2076C32.3371 7.33513 25.1445 0.142578 16.2721 0.142578C7.39957 0.142578 0.207031 7.33513 0.207031 16.2076C0.207031 25.08 7.39957 32.2726 16.2721 32.2726ZM21.2838 7.62634C21.5277 6.7598 20.6868 6.24739 19.9188 6.79454L9.19791 14.4321C8.36502 15.0254 8.49603 16.2076 9.39471 16.2076H12.2178V16.1857H17.7199L13.2367 17.7676L11.2603 24.7889C11.0164 25.6554 11.8572 26.1678 12.6253 25.6206L23.3462 17.9832C24.1791 17.3898 24.048 16.2076 23.1494 16.2076H18.8682L21.2838 7.62634Z" fill="white"/>
</svg>
