<svg width="1932" height="417" viewBox="0 0 1932 417" fill="none" xmlns="http://www.w3.org/2000/svg">
<g clip-path="url(#clip0_192_357)">
<path fill-rule="evenodd" clip-rule="evenodd" d="M23.1482 107.247C27.0788 110.381 31.3656 112.982 35.8905 115.02L51.9539 119.715C56.8662 120.762 61.8804 120.552 66.884 120.029L23.1482 107.247ZM91.5056 111.799L7.00122 87.0632C7.2181 88.1265 7.59024 88.4872 7.97607 89.192C8.48061 90.1125 9.00647 91.0156 9.55287 91.8996L86.6268 114.425C88.0103 113.974 88.4959 113.497 89.4182 112.993C90.1244 112.608 90.8207 112.211 91.5056 111.799ZM105.4 100.34L1.35759 69.9335C2.16122 71.372 1.86975 72.8044 2.21297 74.2323L102.357 103.499C103.417 102.482 104.431 101.592 105.4 100.34ZM114.387 87.4786L0.920016 54.9138C0.996877 55.6991 0.691714 57.0222 0.644531 58.3467L112.264 90.97C112.939 89.8262 113.576 88.6627 114.387 87.4786ZM85.9252 6.14519L68.6633 1.09987C63.875 0.921393 58.9894 0.617595 54.1189 0.900886L98.2839 13.8085C94.4652 10.7394 90.3078 8.17532 85.9252 6.14519ZM113.267 31.7128C112.557 30.4171 111.806 29.1601 111.017 27.9389L35.7566 5.9462C34.4317 6.55 33.1205 7.20392 31.8245 7.91101C31.4577 8.11228 31.0916 8.31506 30.7294 8.5262L113.857 32.8201C113.667 32.448 113.468 32.0796 113.267 31.7128ZM118.495 44.5854L20.4627 15.9381C19.344 16.9361 18.3554 17.9728 17.2474 19.0475L119.927 48.9373C119.24 47.4799 118.897 46.5821 118.495 44.5854ZM120.635 59.972L10.5072 27.4892C9.76671 28.6133 9.06583 29.7609 8.70587 30.9237L120.55 63.6981C120.624 62.3591 120.651 61.0171 120.635 59.972ZM119.182 73.5168L4.25018 40.2708C3.80423 41.1457 3.40014 42.3776 3.03561 43.6224L118.208 77.2816C118.573 76.0368 118.9 74.7822 119.182 73.5168Z" fill="white" fill-opacity="0.1"/>
</g>
<g clip-path="url(#clip1_192_357)">
<path fill-rule="evenodd" clip-rule="evenodd" d="M1922.05 409.897V413.786C1922.05 414.859 1922.24 415.73 1923.8 415.73C1925.07 415.73 1925.42 414.859 1925.42 413.786V409.897H1929.83C1930.04 409.897 1931.77 409.027 1931.77 407.953C1931.77 406.88 1930.04 406.009 1929.83 406.009H1925.42V402.121C1925.42 401.047 1925.07 400.177 1923.8 400.177C1922.24 400.177 1922.05 401.047 1922.05 402.121V406.009H1918.16C1917.09 406.009 1916.22 406.88 1916.22 407.953C1916.22 409.027 1917.09 409.897 1918.16 409.897H1922.05ZM1906.86 398.589C1907.31 398.589 1908.8 397.719 1908.8 396.645V392.757H1912.69C1913.76 392.757 1914.63 391.886 1914.63 390.813C1914.63 389.739 1913.76 388.868 1912.69 388.868H1908.8V384.98C1908.8 383.906 1907.31 383.036 1906.86 383.036C1905.78 383.036 1904.13 383.906 1904.13 384.98V388.868H1901.02C1899.51 388.868 1899.08 389.739 1899.08 390.812C1899.08 391.886 1899.51 392.757 1901.02 392.757H1904.13V396.645C1904.13 397.718 1905.78 398.589 1906.86 398.589ZM1889.72 381.448C1890.79 381.448 1891.66 380.578 1891.66 379.504V375.616H1895.55C1896.62 375.616 1897.49 374.746 1897.49 373.672C1897.49 372.598 1896.62 371.728 1895.55 371.728H1891.66V367.839C1891.66 366.766 1890.79 365.895 1889.72 365.895C1888.64 365.895 1887.77 366.766 1887.77 367.839V371.728H1883.88C1882.81 371.728 1881.4 372.598 1881.4 373.672C1881.4 374.746 1882.81 375.616 1883.88 375.616H1887.77V379.504C1887.77 380.578 1888.64 381.448 1889.72 381.448ZM1872.58 363.488C1873.65 363.488 1874.52 363.437 1874.52 362.048V358.475H1878.41C1879.48 358.475 1880.35 357.605 1880.35 356.531C1880.35 355.457 1879.48 354.587 1878.41 354.587H1874.52V350.699C1874.52 349.625 1873.65 348.755 1872.58 348.755C1871.5 348.755 1870.63 349.625 1870.63 350.699V354.587H1866.74C1865.67 354.587 1864.8 355.457 1864.8 356.531C1864.8 357.605 1865.67 358.475 1866.74 358.475H1870.63V362.048C1870.63 363.437 1871.5 363.488 1872.58 363.488ZM1855.43 347.167C1856.51 347.167 1857.38 346.296 1857.38 345.223V340.758H1861.27C1862.34 340.758 1863.21 340.464 1863.21 338.598C1863.21 337.588 1862.34 337.446 1861.27 337.446H1857.38V333.558C1857.38 332.484 1856.51 331.614 1855.43 331.614C1854.36 331.614 1853.49 332.484 1853.49 333.558V337.446H1849.6C1848.53 337.446 1847.66 337.588 1847.66 338.598C1847.66 340.464 1848.53 340.758 1849.6 340.758H1853.49V345.223C1853.49 346.296 1854.36 347.167 1855.43 347.167ZM1838.29 330.026C1839.37 330.026 1840.24 329.156 1840.24 328.082V324.194H1844.13C1845.2 324.194 1846.07 322.648 1846.07 322.249C1846.07 321.176 1845.2 319.468 1844.13 319.468H1840.24V316.417C1840.24 314.858 1839.37 314.473 1838.29 314.473C1837.22 314.473 1836.35 314.858 1836.35 316.417V319.468H1832.46C1831.39 319.468 1830.52 321.176 1830.52 322.249C1830.52 322.648 1831.39 324.194 1832.46 324.194H1836.35V328.082C1836.35 329.156 1837.22 330.026 1838.29 330.026ZM1923.8 381.448C1925.07 381.448 1925.42 380.578 1925.42 379.504V375.616H1929.83C1930.04 375.616 1931.77 374.746 1931.77 373.672C1931.77 372.598 1930.04 371.728 1929.83 371.728H1925.42V367.839C1925.42 366.766 1925.07 365.895 1923.8 365.895C1922.24 365.895 1922.05 366.766 1922.05 367.839V371.728H1918.16C1917.09 371.728 1916.22 372.598 1916.22 373.672C1916.22 374.746 1917.09 375.616 1918.16 375.616H1922.05V379.504C1922.05 380.578 1922.24 381.448 1923.8 381.448ZM1906.86 363.488C1907.31 363.488 1908.8 363.437 1908.8 362.048V358.475H1912.69C1913.76 358.475 1914.63 357.605 1914.63 356.531C1914.63 355.457 1913.76 354.587 1912.69 354.587H1908.8V350.699C1908.8 349.625 1907.31 348.755 1906.86 348.755C1905.78 348.755 1904.13 349.625 1904.13 350.699V354.587H1901.02C1899.51 354.587 1899.08 355.457 1899.08 356.531C1899.08 357.605 1899.51 358.475 1901.02 358.475H1904.13V362.048C1904.13 363.437 1905.78 363.488 1906.86 363.488ZM1889.72 347.167C1890.79 347.167 1891.66 346.296 1891.66 345.223V340.758H1895.55C1896.62 340.758 1897.49 340.464 1897.49 338.598C1897.49 337.588 1896.62 337.446 1895.55 337.446H1891.66V333.558C1891.66 332.484 1890.79 331.614 1889.72 331.614C1888.64 331.614 1887.77 332.484 1887.77 333.558V337.446H1883.88C1882.81 337.446 1881.4 337.588 1881.4 338.598C1881.4 340.464 1882.81 340.758 1883.88 340.758H1887.77V345.223C1887.77 346.296 1888.64 347.167 1889.72 347.167ZM1872.58 330.026C1873.65 330.026 1874.52 329.156 1874.52 328.082V324.194H1878.41C1879.48 324.194 1880.35 322.648 1880.35 322.249C1880.35 321.176 1879.48 319.468 1878.41 319.468H1874.52V316.417C1874.52 314.858 1873.65 314.473 1872.58 314.473C1871.5 314.473 1870.63 314.858 1870.63 316.417V319.468L1866.74 319.478C1865.67 319.468 1864.8 321.176 1864.8 322.249C1864.8 322.648 1865.67 324.194 1866.74 324.194H1870.63V328.082C1870.63 329.156 1871.5 330.026 1872.58 330.026ZM1855.43 312.885C1856.51 312.885 1857.38 312.015 1857.38 310.941V307.053H1861.27C1862.34 307.053 1863.21 306.182 1863.21 305.109C1863.21 304.035 1862.34 303.165 1861.27 303.165H1857.38V299.276C1857.38 298.203 1856.51 296.738 1855.43 296.738C1854.36 296.738 1853.49 298.203 1853.49 299.276V303.165H1849.6C1848.53 303.165 1847.66 304.035 1847.66 305.109C1847.66 306.182 1848.53 307.053 1849.6 307.053H1853.49V310.941C1853.49 312.015 1854.36 312.885 1855.43 312.885ZM1923.8 347.167C1925.07 347.167 1925.42 346.296 1925.42 345.223V340.758H1929.83C1930.04 340.758 1931.77 340.464 1931.77 338.598C1931.77 337.588 1930.04 337.446 1929.83 337.446H1925.42V333.558C1925.42 332.484 1925.07 331.614 1923.8 331.614C1922.24 331.614 1922.05 332.484 1922.05 333.558V337.446H1918.16C1917.09 337.446 1916.22 337.588 1916.22 338.598C1916.22 340.464 1917.09 340.758 1918.16 340.758H1922.05V345.223C1922.05 346.296 1922.24 347.167 1923.8 347.167ZM1906.86 330.026C1907.31 330.026 1908.8 329.156 1908.8 328.082V324.194H1912.69C1913.76 324.194 1914.63 322.648 1914.63 322.249C1914.63 321.176 1913.76 319.468 1912.69 319.468H1908.8V316.417C1908.8 314.858 1907.31 314.473 1906.86 314.473C1905.78 314.473 1904.13 314.858 1904.13 316.417V319.468H1901.02C1899.51 319.468 1899.08 321.176 1899.08 322.249C1899.08 322.648 1899.51 324.194 1901.02 324.194H1904.13V328.082C1904.13 329.156 1905.78 330.026 1906.86 330.026ZM1889.72 312.885C1890.79 312.885 1891.66 312.015 1891.66 310.941V307.053H1895.55C1896.62 307.053 1897.49 306.183 1897.49 305.109C1897.49 304.035 1896.62 303.165 1895.55 303.165H1891.66V299.276C1891.66 298.203 1890.79 296.738 1889.72 296.738C1888.64 296.738 1887.77 298.203 1887.77 299.277V303.165H1883.88C1882.81 303.165 1881.4 304.035 1881.4 305.109C1881.4 306.183 1882.81 307.053 1883.88 307.053H1887.77V310.941C1887.77 312.015 1888.64 312.885 1889.72 312.885ZM1872.58 295.744C1873.65 295.744 1874.52 294.874 1874.52 293.8V289.912H1878.41C1879.48 289.912 1880.35 289.042 1880.35 287.968C1880.35 286.894 1879.48 286.024 1878.41 286.024H1874.52V282.136C1874.52 281.062 1873.65 280.192 1872.58 280.192C1871.5 280.192 1870.63 281.062 1870.63 282.136V286.024H1866.74C1865.67 286.024 1864.8 286.894 1864.8 287.968C1864.8 289.042 1865.67 289.912 1866.74 289.912H1870.63V293.8C1870.63 294.874 1871.5 295.744 1872.58 295.744ZM1923.8 312.885C1925.07 312.885 1925.42 312.015 1925.42 310.941V307.053H1929.83C1930.04 307.053 1931.77 306.183 1931.77 305.109C1931.77 304.035 1930.04 303.165 1929.83 303.165H1925.42V299.277C1925.42 298.203 1925.07 296.738 1923.8 296.738C1922.24 296.738 1922.05 298.203 1922.05 299.277V303.165H1918.16C1917.09 303.165 1916.22 304.035 1916.22 305.109C1916.22 306.183 1917.09 307.053 1918.16 307.053H1922.05V310.941C1922.05 312.015 1922.24 312.885 1923.8 312.885ZM1906.86 295.745C1907.31 295.745 1908.8 294.874 1908.8 293.8V289.912H1912.69C1913.76 289.912 1914.63 289.042 1914.63 287.968C1914.63 286.894 1913.76 286.024 1912.69 286.024H1908.8V282.136C1908.8 281.062 1907.31 280.192 1906.86 280.192C1905.78 280.192 1904.13 281.062 1904.13 282.136V286.024H1901.02C1899.51 286.024 1899.08 286.894 1899.08 287.968C1899.08 289.042 1899.51 289.912 1901.02 289.912H1904.13V293.8C1904.13 294.874 1905.78 295.744 1906.86 295.745ZM1889.72 278.604C1890.79 278.604 1891.66 277.733 1891.66 276.66V272.771H1895.55C1896.62 272.771 1897.49 271.901 1897.49 270.827C1897.49 269.754 1896.62 268.883 1895.55 268.883H1891.66V264.995C1891.66 263.921 1890.79 263.051 1889.72 263.051C1888.64 263.051 1887.77 263.921 1887.77 264.995V268.883H1883.88C1882.81 268.883 1881.4 269.754 1881.4 270.827C1881.4 271.901 1882.81 272.771 1883.88 272.771H1887.77V276.66C1887.77 277.733 1888.64 278.604 1889.72 278.604ZM1923.8 278.604C1925.07 278.604 1925.42 277.733 1925.42 276.66V272.771H1929.83C1930.04 272.771 1931.77 271.901 1931.77 270.827C1931.77 269.754 1930.04 268.883 1929.83 268.883H1925.42V264.995C1925.42 263.921 1925.07 263.051 1923.8 263.051C1922.24 263.051 1922.05 263.921 1922.05 264.995V268.883H1918.16C1917.09 268.883 1916.22 269.754 1916.22 270.827C1916.22 271.901 1917.09 272.771 1918.16 272.771H1922.05V276.66C1922.05 277.733 1922.24 278.604 1923.8 278.604ZM1906.86 261.463C1907.31 261.463 1908.8 260.593 1908.8 259.519V255.631H1912.69C1913.76 255.631 1914.63 254.76 1914.63 253.687C1914.63 252.613 1913.76 251.742 1912.69 251.742H1908.8V247.854C1908.8 246.781 1907.31 245.91 1906.86 245.91C1905.78 245.91 1904.13 246.78 1904.13 247.854V251.742H1901.02C1899.51 251.742 1899.08 252.613 1899.08 253.687C1899.08 254.76 1899.51 255.631 1901.02 255.631H1904.13V259.519C1904.13 260.593 1905.78 261.463 1906.86 261.463ZM1923.8 243.638C1925.07 243.638 1925.42 243.452 1925.42 242.198V238.49H1929.83C1930.04 238.49 1931.77 237.62 1931.77 236.546C1931.77 235.472 1930.04 234.602 1929.83 234.602H1925.42V230.713C1925.42 229.64 1925.07 228.769 1923.8 228.769C1922.24 228.769 1922.05 229.64 1922.05 230.713V234.602H1918.16C1917.09 234.602 1916.22 235.472 1916.22 236.546C1916.22 237.619 1917.09 238.49 1918.16 238.49H1922.05V242.198C1922.05 243.452 1922.24 243.638 1923.8 243.638Z" fill="white" fill-opacity="0.1"/>
</g>
<defs>
<clipPath id="clip0_192_357">
<rect width="121" height="120" fill="white" transform="translate(0 0.398438)"/>
</clipPath>
<clipPath id="clip1_192_357">
<rect width="102" height="188" fill="white" transform="matrix(-1 0 0 -1 1932 416.398)"/>
</clipPath>
</defs>
</svg>
