<svg width="1920" height="1200" viewBox="0 0 1920 1200" fill="none" xmlns="http://www.w3.org/2000/svg">
<g clip-path="url(#clip0_182_409)">
<g clip-path="url(#clip1_182_409)">
<path fill-rule="evenodd" clip-rule="evenodd" d="M111.148 219.973C115.079 223.108 119.366 225.708 123.891 227.747L139.954 232.441C144.866 233.488 149.88 233.279 154.884 232.756L111.148 219.973ZM179.506 224.526L95.0012 199.79C95.2181 200.853 95.5902 201.214 95.9761 201.919C96.4806 202.839 97.0065 203.742 97.5529 204.626L174.627 227.151C176.01 226.701 176.496 226.224 177.418 225.72C178.124 225.335 178.821 224.937 179.506 224.526ZM193.4 213.066L89.3576 182.66C90.1612 184.099 89.8698 185.531 90.213 186.959L190.357 216.226C191.417 215.208 192.431 214.319 193.4 213.066ZM202.387 200.205L88.92 167.64C88.9969 168.426 88.6917 169.749 88.6445 171.073L200.264 203.697C200.939 202.553 201.576 201.389 202.387 200.205ZM173.925 118.872L156.663 113.826C151.875 113.648 146.989 113.344 142.119 113.627L186.284 126.535C182.465 123.466 178.308 120.902 173.925 118.872ZM201.267 144.439C200.557 143.144 199.806 141.887 199.017 140.665L123.757 118.673C122.432 119.277 121.12 119.93 119.824 120.638C119.458 120.839 119.092 121.042 118.729 121.253L201.857 145.547C201.667 145.175 201.468 144.806 201.267 144.439ZM206.495 157.312L108.463 128.665C107.344 129.663 106.355 130.699 105.247 131.774L207.927 161.664C207.24 160.206 206.897 159.309 206.495 157.312ZM208.635 172.699L98.5072 140.216C97.7667 141.34 97.0658 142.487 96.7059 143.65L208.55 176.425C208.624 175.086 208.651 173.744 208.635 172.699ZM207.182 186.243L92.2502 152.997C91.8042 153.872 91.4001 155.104 91.0356 156.349L206.208 190.008C206.573 188.763 206.9 187.509 207.182 186.243Z" fill="white" fill-opacity="0.1"/>
</g>
<g clip-path="url(#clip2_182_409)">
<path fill-rule="evenodd" clip-rule="evenodd" d="M333.874 1171.87C338.458 1173.93 343.255 1175.39 348.144 1176.25L364.869 1176.82C369.888 1176.62 374.694 1175.17 379.412 1173.43L333.874 1171.87ZM401.231 1159.36L313.233 1156.31C313.707 1157.29 314.156 1157.54 314.705 1158.13C315.421 1158.9 316.154 1159.64 316.903 1160.36L397.154 1163.11C398.383 1162.33 398.735 1161.75 399.504 1161.03C400.093 1160.48 400.669 1159.93 401.231 1159.36ZM411.856 1144.82L303.525 1141.11C304.66 1142.3 304.732 1143.76 305.418 1145.06L409.69 1148.63C410.465 1147.38 411.227 1146.27 411.856 1144.82ZM417.38 1130.13L299.384 1126.67C299.652 1127.41 299.684 1128.76 299.966 1130.06L416.188 1134.04C416.559 1132.76 416.888 1131.48 417.38 1130.13ZM369.672 1058.37L351.699 1057.76C347.015 1058.77 342.207 1059.69 337.558 1061.17L383.543 1062.74C379.084 1060.71 374.421 1059.26 369.672 1058.37ZM402.492 1076.38C401.484 1075.3 400.445 1074.27 399.378 1073.28L321.016 1070.6C319.881 1071.51 318.773 1072.47 317.692 1073.48C317.387 1073.76 317.082 1074.05 316.784 1074.34L403.338 1077.3C403.061 1076.99 402.778 1076.68 402.492 1076.38ZM410.743 1087.56L308.671 1084.07C307.834 1085.31 307.133 1086.56 306.325 1087.87L413.208 1091.42C412.182 1090.18 411.628 1089.39 410.743 1087.56ZM416.625 1101.93L301.884 1097.72C301.445 1098.99 301.05 1100.28 300.989 1101.49L417.466 1105.57C417.206 1104.25 416.899 1102.94 416.625 1101.93ZM418.57 1115.42L298.986 1111.65C298.77 1112.61 298.684 1113.91 298.639 1115.2L418.558 1119.31C418.604 1118.01 418.61 1116.71 418.57 1115.42Z" fill="white" fill-opacity="0.1"/>
</g>
<g clip-path="url(#clip3_182_409)">
<path fill-rule="evenodd" clip-rule="evenodd" d="M1899.93 985.721C1904.81 983.679 1909.38 981.036 1913.56 977.89L1926.13 965.435C1929.16 961.264 1931.8 956.693 1933.84 951.809L1899.93 985.721ZM1938.66 924.912L1873.35 990.542C1873.87 990.577 1874.72 990.593 1875.56 990.593C1876.67 990.593 1877.77 990.565 1878.87 990.507L1938.63 930.745C1938.69 929.651 1938.71 928.55 1938.71 927.443C1938.71 926.596 1938.7 925.752 1938.66 924.912ZM1935.81 906.284L1854.41 986.958C1855.85 987.475 1857.32 987.938 1858.81 988.344L1936.47 910.693C1936.61 909.865 1935.6 907.731 1935.81 906.284ZM1927.61 891.675L1839.8 979.492C1840.95 980.285 1842.12 981.04 1843.33 981.753L1929.88 895.925C1929.16 894.003 1928.41 892.826 1927.61 891.675ZM1838.1 876.6L1824.72 889.984C1821.7 894.076 1819.16 898.548 1817.19 903.312L1851.43 869.067C1846.67 871.039 1842.19 873.58 1838.1 876.6ZM1875.56 864.293C1874.8 864.293 1872.47 864.35 1870.94 864.461L1812.58 922.819C1812.47 924.347 1812.41 925.889 1812.41 927.443C1812.41 927.884 1812.42 928.325 1812.43 928.766L1876.89 864.309C1876.45 864.296 1876.7 864.293 1875.56 864.293ZM1890.11 865.981L1814.1 941.995C1814.46 943.533 1814.88 945.046 1815.35 946.537L1894.66 867.233C1893.17 866.758 1891.65 866.339 1890.11 865.981ZM1905.15 871.639L1819.76 957.033C1820.43 958.285 1821.13 959.513 1821.88 960.712L1908.83 873.754C1907.63 873.009 1906.4 872.305 1905.15 871.639ZM1917.23 879.987L1828.11 969.104C1829.1 970.825 1829.94 971.425 1830.91 972.095L1920.22 882.791C1919.25 881.824 1918.25 880.888 1917.23 879.987Z" fill="white" fill-opacity="0.1"/>
</g>
<g clip-path="url(#clip4_182_409)">
<path fill-rule="evenodd" clip-rule="evenodd" d="M3.94656 589.626V585.737C3.94656 584.664 3.76056 583.793 2.20056 583.793C0.929562 583.793 0.580563 584.664 0.580563 585.737V589.626H-3.82944C-4.03944 589.626 -5.77344 590.496 -5.77344 591.57C-5.77344 592.643 -4.03944 593.514 -3.82944 593.514H0.580563V597.402C0.580563 598.476 0.929562 599.346 2.20056 599.346C3.76056 599.346 3.94656 598.476 3.94656 597.402V593.514H7.83556C8.90856 593.514 9.77956 592.643 9.77956 591.57C9.77956 590.496 8.90856 589.626 7.83556 589.626H3.94656ZM19.1436 600.934C18.6906 600.934 17.1996 601.804 17.1996 602.878V606.766H13.3116C12.2376 606.766 11.3676 607.637 11.3676 608.71C11.3676 609.784 12.2376 610.655 13.3116 610.655H17.1996V614.543C17.1996 615.617 18.6906 616.487 19.1436 616.487C20.2176 616.487 21.8706 615.617 21.8706 614.543V610.655H24.9756C26.4906 610.655 26.9196 609.784 26.9196 608.711C26.9196 607.637 26.4906 606.766 24.9756 606.766H21.8706V602.878C21.8706 601.805 20.2176 600.934 19.1436 600.934ZM36.2846 618.075C35.2106 618.075 34.3406 618.945 34.3406 620.019V623.907H30.4516C29.3786 623.907 28.5076 624.777 28.5076 625.851C28.5076 626.925 29.3786 627.795 30.4516 627.795H34.3406V631.684C34.3406 632.757 35.2106 633.628 36.2846 633.628C37.3576 633.628 38.2286 632.757 38.2286 631.684V627.795H42.1166C43.1906 627.795 44.6006 626.925 44.6006 625.851C44.6006 624.777 43.1906 623.907 42.1166 623.907H38.2286V620.019C38.2286 618.945 37.3576 618.075 36.2846 618.075ZM53.4246 636.035C52.3516 636.035 51.4806 636.086 51.4806 637.475V641.048H47.5926C46.5196 641.048 45.6486 641.918 45.6486 642.992C45.6486 644.066 46.5196 644.936 47.5926 644.936H51.4806V648.824C51.4806 649.898 52.3516 650.768 53.4246 650.768C54.4986 650.768 55.3696 649.898 55.3696 648.824V644.936H59.2576C60.3316 644.936 61.2016 644.066 61.2016 642.992C61.2016 641.918 60.3306 641.048 59.2576 641.048H55.3696V637.475C55.3696 636.086 54.4986 636.035 53.4246 636.035ZM70.5656 652.356C69.4926 652.356 68.6216 653.227 68.6216 654.3V658.765H64.7336C63.6596 658.765 62.7896 659.059 62.7896 660.925C62.7896 661.935 63.6596 662.077 64.7336 662.077H68.6216V665.965C68.6216 667.039 69.4916 667.909 70.5656 667.909C71.6396 667.909 72.5096 667.039 72.5096 665.965V662.077H76.3986C77.4716 662.077 78.3426 661.935 78.3426 660.925C78.3426 659.059 77.4716 658.765 76.3986 658.765H72.5096V654.3C72.5096 653.227 71.6396 652.356 70.5656 652.356ZM87.7066 669.497C86.6326 669.497 85.7626 670.367 85.7626 671.441V675.329H81.8746C80.8006 675.329 79.9306 676.875 79.9306 677.274C79.9306 678.347 80.8006 680.055 81.8746 680.055H85.7626V683.106C85.7626 684.665 86.6326 685.05 87.7066 685.05C88.7806 685.05 89.6506 684.665 89.6506 683.106V680.055H93.5386C94.6126 680.055 95.4826 678.347 95.4826 677.274C95.4826 676.875 94.6126 675.329 93.5386 675.329H89.6506V671.441C89.6506 670.367 88.7806 669.497 87.7066 669.497ZM2.20056 618.075C0.929562 618.075 0.580563 618.945 0.580563 620.019V623.907H-3.82944C-4.03944 623.907 -5.77344 624.777 -5.77344 625.851C-5.77344 626.925 -4.03944 627.795 -3.82944 627.795H0.580563V631.684C0.580563 632.757 0.929562 633.628 2.20056 633.628C3.76056 633.628 3.94656 632.757 3.94656 631.684V627.795H7.83556C8.90856 627.795 9.77956 626.925 9.77956 625.851C9.77956 624.777 8.90856 623.907 7.83556 623.907H3.94656V620.019C3.94656 618.945 3.76056 618.075 2.20056 618.075ZM19.1436 636.035C18.6906 636.035 17.1996 636.086 17.1996 637.475V641.048H13.3116C12.2376 641.048 11.3666 641.918 11.3676 642.992C11.3676 644.066 12.2376 644.936 13.3116 644.936H17.1996V648.824C17.1996 649.898 18.6906 650.768 19.1436 650.768C20.2176 650.768 21.8706 649.898 21.8706 648.824V644.936H24.9756C26.4906 644.936 26.9196 644.066 26.9196 642.992C26.9196 641.918 26.4906 641.048 24.9756 641.048H21.8706V637.475C21.8706 636.086 20.2176 636.035 19.1436 636.035ZM36.2846 652.356C35.2106 652.356 34.3406 653.227 34.3406 654.3V658.765H30.4516C29.3786 658.765 28.5076 659.059 28.5076 660.925C28.5076 661.935 29.3786 662.077 30.4516 662.077H34.3406V665.965C34.3406 667.039 35.2106 667.909 36.2846 667.909C37.3576 667.909 38.2286 667.039 38.2286 665.965V662.077H42.1166C43.1906 662.077 44.6006 661.935 44.6006 660.925C44.6006 659.059 43.1906 658.765 42.1166 658.765H38.2286V654.3C38.2286 653.227 37.3576 652.356 36.2846 652.356ZM53.4246 669.497C52.3516 669.497 51.4806 670.367 51.4806 671.441V675.329H47.5926C46.5196 675.329 45.6486 676.875 45.6486 677.274C45.6486 678.347 46.5196 680.055 47.5926 680.055H51.4806V683.106C51.4806 684.665 52.3516 685.05 53.4246 685.05C54.4986 685.05 55.3696 684.665 55.3696 683.106V680.055L59.2576 680.045C60.3316 680.055 61.2016 678.347 61.2016 677.274C61.2016 676.875 60.3316 675.329 59.2576 675.329H55.3696V671.441C55.3696 670.367 54.4986 669.497 53.4246 669.497ZM70.5656 686.638C69.4926 686.638 68.6216 687.508 68.6216 688.582V692.47H64.7336C63.6596 692.47 62.7896 693.341 62.7896 694.414C62.7896 695.488 63.6596 696.358 64.7336 696.358H68.6216V700.247C68.6216 701.32 69.4926 702.785 70.5656 702.785C71.6396 702.785 72.5096 701.32 72.5096 700.247V696.358H76.3986C77.4716 696.358 78.3426 695.488 78.3426 694.414C78.3426 693.341 77.4716 692.47 76.3986 692.47H72.5096V688.582C72.5096 687.508 71.6396 686.638 70.5656 686.638ZM2.20056 652.356C0.929562 652.356 0.580563 653.227 0.580563 654.3V658.765H-3.82944C-4.03944 658.765 -5.77344 659.059 -5.77344 660.925C-5.77344 661.935 -4.03944 662.077 -3.82944 662.077H0.580563V665.965C0.580563 667.039 0.929562 667.909 2.20056 667.909C3.76056 667.909 3.94656 667.039 3.94656 665.965V662.077H7.83556C8.90856 662.077 9.77956 661.935 9.77956 660.925C9.77956 659.059 8.90856 658.765 7.83556 658.765H3.94656V654.3C3.94656 653.227 3.76056 652.356 2.20056 652.356ZM19.1436 669.497C18.6906 669.497 17.1996 670.367 17.1996 671.441V675.329H13.3116C12.2376 675.329 11.3676 676.875 11.3666 677.274C11.3676 678.347 12.2376 680.055 13.3116 680.055H17.1996V683.106C17.1996 684.665 18.6906 685.05 19.1436 685.05C20.2176 685.05 21.8706 684.665 21.8706 683.106V680.055H24.9756C26.4906 680.055 26.9196 678.347 26.9196 677.274C26.9196 676.875 26.4906 675.329 24.9756 675.329H21.8706V671.441C21.8706 670.367 20.2176 669.497 19.1436 669.497ZM36.2846 686.638C35.2106 686.638 34.3406 687.508 34.3406 688.582V692.47H30.4516C29.3786 692.47 28.5076 693.34 28.5076 694.414C28.5076 695.488 29.3786 696.358 30.4516 696.358H34.3406V700.247C34.3406 701.32 35.2106 702.785 36.2846 702.785C37.3576 702.785 38.2286 701.32 38.2286 700.246V696.358H42.1166C43.1906 696.358 44.6006 695.488 44.6006 694.414C44.6006 693.34 43.1906 692.47 42.1166 692.47H38.2286V688.582C38.2286 687.508 37.3576 686.638 36.2846 686.638ZM53.4246 703.779C52.3516 703.779 51.4806 704.649 51.4806 705.723V709.611H47.5926C46.5196 709.611 45.6486 710.481 45.6486 711.555C45.6486 712.629 46.5196 713.499 47.5926 713.499H51.4806V717.387C51.4806 718.461 52.3516 719.331 53.4246 719.331C54.4986 719.331 55.3696 718.461 55.3696 717.387V713.499H59.2576C60.3316 713.499 61.2016 712.629 61.2016 711.555C61.2016 710.481 60.3316 709.611 59.2576 709.611H55.3696V705.723C55.3696 704.649 54.4986 703.779 53.4246 703.779ZM2.20056 686.638C0.929562 686.638 0.580563 687.508 0.580563 688.582V692.47H-3.82944C-4.03944 692.47 -5.77344 693.34 -5.77344 694.414C-5.77344 695.488 -4.03944 696.358 -3.82944 696.358H0.580563V700.246C0.580563 701.32 0.929562 702.785 2.20056 702.785C3.76056 702.785 3.94656 701.32 3.94656 700.246V696.358H7.83556C8.90856 696.358 9.77956 695.488 9.77956 694.414C9.77956 693.34 8.90856 692.47 7.83556 692.47H3.94656V688.582C3.94656 687.508 3.76056 686.638 2.20056 686.638ZM19.1436 703.778C18.6906 703.778 17.1996 704.649 17.1996 705.723V709.611H13.3116C12.2376 709.611 11.3676 710.481 11.3676 711.555C11.3676 712.629 12.2376 713.499 13.3116 713.499H17.1996V717.387C17.1996 718.461 18.6906 719.331 19.1436 719.331C20.2176 719.331 21.8706 718.461 21.8706 717.387V713.499H24.9756C26.4906 713.499 26.9196 712.629 26.9196 711.555C26.9196 710.481 26.4906 709.611 24.9756 709.611H21.8706V705.723C21.8706 704.649 20.2176 703.779 19.1436 703.778ZM36.2846 720.919C35.2106 720.919 34.3406 721.79 34.3406 722.863V726.752H30.4526C29.3786 726.752 28.5076 727.622 28.5076 728.696C28.5076 729.769 29.3786 730.64 30.4526 730.64H34.3406V734.528C34.3406 735.602 35.2106 736.472 36.2846 736.472C37.3576 736.472 38.2286 735.602 38.2286 734.528V730.64H42.1166C43.1906 730.64 44.6006 729.769 44.6006 728.696C44.6006 727.622 43.1906 726.752 42.1166 726.752H38.2286V722.863C38.2286 721.79 37.3576 720.919 36.2846 720.919ZM2.20056 720.919C0.929562 720.919 0.580563 721.79 0.580563 722.863V726.752H-3.82944C-4.03944 726.752 -5.77344 727.622 -5.77344 728.696C-5.77344 729.769 -4.03944 730.64 -3.82944 730.64H0.580563V734.528C0.580563 735.602 0.929562 736.472 2.20056 736.472C3.76056 736.472 3.94656 735.602 3.94656 734.528V730.64H7.83556C8.90856 730.64 9.77956 729.769 9.77956 728.696C9.77956 727.622 8.90856 726.752 7.83556 726.752H3.94656V722.863C3.94656 721.79 3.76056 720.919 2.20056 720.919ZM19.1436 738.06C18.6906 738.06 17.1996 738.93 17.1996 740.004V743.892H13.3116C12.2376 743.892 11.3676 744.763 11.3676 745.836C11.3676 746.91 12.2376 747.781 13.3116 747.781H17.1996V751.669C17.1996 752.742 18.6906 753.613 19.1436 753.613C20.2176 753.613 21.8706 752.743 21.8706 751.669V747.781H24.9756C26.4906 747.781 26.9206 746.91 26.9196 745.836C26.9206 744.763 26.4906 743.892 24.9756 743.892H21.8706V740.004C21.8706 738.93 20.2176 738.06 19.1436 738.06ZM2.20056 755.885C0.929562 755.885 0.580563 756.071 0.580563 757.325V761.033H-3.82944C-4.03944 761.033 -5.77344 761.903 -5.77344 762.977C-5.77344 764.051 -4.03944 764.921 -3.82944 764.921H0.580563V768.81C0.580563 769.883 0.929562 770.754 2.20056 770.754C3.76056 770.754 3.94656 769.883 3.94656 768.81V764.921H7.83556C8.90856 764.921 9.77956 764.051 9.77956 762.977C9.77956 761.904 8.90856 761.033 7.83556 761.033H3.94656V757.325C3.94656 756.071 3.76056 755.885 2.20056 755.885Z" fill="white" fill-opacity="0.1"/>
</g>
<g clip-path="url(#clip5_182_409)">
<path fill-rule="evenodd" clip-rule="evenodd" d="M1909.05 304.624V308.513C1909.05 309.586 1909.24 310.457 1910.8 310.457C1912.07 310.457 1912.42 309.586 1912.42 308.513V304.624H1916.83C1917.04 304.624 1918.77 303.754 1918.77 302.68C1918.77 301.607 1917.04 300.736 1916.83 300.736H1912.42V296.848C1912.42 295.774 1912.07 294.904 1910.8 294.904C1909.24 294.904 1909.05 295.774 1909.05 296.848V300.736H1905.16C1904.09 300.736 1903.22 301.607 1903.22 302.68C1903.22 303.754 1904.09 304.624 1905.16 304.624H1909.05ZM1893.86 293.316C1894.31 293.316 1895.8 292.446 1895.8 291.372V287.484H1899.69C1900.76 287.484 1901.63 286.613 1901.63 285.54C1901.63 284.466 1900.76 283.595 1899.69 283.595H1895.8V279.707C1895.8 278.633 1894.31 277.763 1893.86 277.763C1892.78 277.763 1891.13 278.633 1891.13 279.707V283.595H1888.02C1886.51 283.595 1886.08 284.466 1886.08 285.539C1886.08 286.613 1886.51 287.484 1888.02 287.484H1891.13V291.372C1891.13 292.445 1892.78 293.316 1893.86 293.316ZM1876.72 276.175C1877.79 276.175 1878.66 275.305 1878.66 274.231V270.343H1882.55C1883.62 270.343 1884.49 269.473 1884.49 268.399C1884.49 267.325 1883.62 266.455 1882.55 266.455H1878.66V262.566C1878.66 261.493 1877.79 260.622 1876.72 260.622C1875.64 260.622 1874.77 261.493 1874.77 262.566V266.455H1870.88C1869.81 266.455 1868.4 267.325 1868.4 268.399C1868.4 269.473 1869.81 270.343 1870.88 270.343H1874.77V274.231C1874.77 275.305 1875.64 276.175 1876.72 276.175ZM1859.58 258.215C1860.65 258.215 1861.52 258.164 1861.52 256.775V253.202H1865.41C1866.48 253.202 1867.35 252.332 1867.35 251.258C1867.35 250.184 1866.48 249.314 1865.41 249.314H1861.52V245.426C1861.52 244.352 1860.65 243.482 1859.58 243.482C1858.5 243.482 1857.63 244.352 1857.63 245.426V249.314H1853.74C1852.67 249.314 1851.8 250.184 1851.8 251.258C1851.8 252.332 1852.67 253.202 1853.74 253.202H1857.63V256.775C1857.63 258.164 1858.5 258.215 1859.58 258.215ZM1842.43 241.894C1843.51 241.894 1844.38 241.023 1844.38 239.95V235.485H1848.27C1849.34 235.485 1850.21 235.191 1850.21 233.325C1850.21 232.315 1849.34 232.173 1848.27 232.173H1844.38V228.285C1844.38 227.211 1843.51 226.341 1842.43 226.341C1841.36 226.341 1840.49 227.211 1840.49 228.285V232.173H1836.6C1835.53 232.173 1834.66 232.315 1834.66 233.325C1834.66 235.191 1835.53 235.485 1836.6 235.485H1840.49V239.95C1840.49 241.023 1841.36 241.894 1842.43 241.894ZM1825.29 224.753C1826.37 224.753 1827.24 223.883 1827.24 222.809V218.921H1831.13C1832.2 218.921 1833.07 217.375 1833.07 216.976C1833.07 215.903 1832.2 214.195 1831.13 214.195H1827.24V211.144C1827.24 209.585 1826.37 209.2 1825.29 209.2C1824.22 209.2 1823.35 209.585 1823.35 211.144V214.195H1819.46C1818.39 214.195 1817.52 215.903 1817.52 216.976C1817.52 217.375 1818.39 218.921 1819.46 218.921H1823.35V222.809C1823.35 223.883 1824.22 224.753 1825.29 224.753ZM1910.8 276.175C1912.07 276.175 1912.42 275.305 1912.42 274.231V270.343H1916.83C1917.04 270.343 1918.77 269.473 1918.77 268.399C1918.77 267.325 1917.04 266.455 1916.83 266.455H1912.42V262.566C1912.42 261.493 1912.07 260.622 1910.8 260.622C1909.24 260.622 1909.05 261.493 1909.05 262.566V266.455H1905.16C1904.09 266.455 1903.22 267.325 1903.22 268.399C1903.22 269.473 1904.09 270.343 1905.16 270.343H1909.05V274.231C1909.05 275.305 1909.24 276.175 1910.8 276.175ZM1893.86 258.215C1894.31 258.215 1895.8 258.164 1895.8 256.775V253.202H1899.69C1900.76 253.202 1901.63 252.332 1901.63 251.258C1901.63 250.184 1900.76 249.314 1899.69 249.314H1895.8V245.426C1895.8 244.352 1894.31 243.482 1893.86 243.482C1892.78 243.482 1891.13 244.352 1891.13 245.426V249.314H1888.02C1886.51 249.314 1886.08 250.184 1886.08 251.258C1886.08 252.332 1886.51 253.202 1888.02 253.202H1891.13V256.775C1891.13 258.164 1892.78 258.215 1893.86 258.215ZM1876.72 241.894C1877.79 241.894 1878.66 241.023 1878.66 239.95V235.485H1882.55C1883.62 235.485 1884.49 235.191 1884.49 233.325C1884.49 232.315 1883.62 232.173 1882.55 232.173H1878.66V228.285C1878.66 227.211 1877.79 226.341 1876.72 226.341C1875.64 226.341 1874.77 227.211 1874.77 228.285V232.173H1870.88C1869.81 232.173 1868.4 232.315 1868.4 233.325C1868.4 235.191 1869.81 235.485 1870.88 235.485H1874.77V239.95C1874.77 241.023 1875.64 241.894 1876.72 241.894ZM1859.58 224.753C1860.65 224.753 1861.52 223.883 1861.52 222.809V218.921H1865.41C1866.48 218.921 1867.35 217.375 1867.35 216.976C1867.35 215.903 1866.48 214.195 1865.41 214.195H1861.52V211.144C1861.52 209.585 1860.65 209.2 1859.58 209.2C1858.5 209.2 1857.63 209.585 1857.63 211.144V214.195L1853.74 214.205C1852.67 214.195 1851.8 215.903 1851.8 216.976C1851.8 217.375 1852.67 218.921 1853.74 218.921H1857.63V222.809C1857.63 223.883 1858.5 224.753 1859.58 224.753ZM1842.43 207.612C1843.51 207.612 1844.38 206.742 1844.38 205.668V201.78H1848.27C1849.34 201.78 1850.21 200.909 1850.21 199.836C1850.21 198.762 1849.34 197.892 1848.27 197.892H1844.38V194.003C1844.38 192.93 1843.51 191.465 1842.43 191.465C1841.36 191.465 1840.49 192.93 1840.49 194.003V197.892H1836.6C1835.53 197.892 1834.66 198.762 1834.66 199.836C1834.66 200.909 1835.53 201.78 1836.6 201.78H1840.49V205.668C1840.49 206.742 1841.36 207.612 1842.43 207.612ZM1910.8 241.894C1912.07 241.894 1912.42 241.023 1912.42 239.95V235.485H1916.83C1917.04 235.485 1918.77 235.191 1918.77 233.325C1918.77 232.315 1917.04 232.173 1916.83 232.173H1912.42V228.285C1912.42 227.211 1912.07 226.341 1910.8 226.341C1909.24 226.341 1909.05 227.211 1909.05 228.285V232.173H1905.16C1904.09 232.173 1903.22 232.315 1903.22 233.325C1903.22 235.191 1904.09 235.485 1905.16 235.485H1909.05V239.95C1909.05 241.023 1909.24 241.894 1910.8 241.894ZM1893.86 224.753C1894.31 224.753 1895.8 223.883 1895.8 222.809V218.921H1899.69C1900.76 218.921 1901.63 217.375 1901.63 216.976C1901.63 215.903 1900.76 214.195 1899.69 214.195H1895.8V211.144C1895.8 209.585 1894.31 209.2 1893.86 209.2C1892.78 209.2 1891.13 209.585 1891.13 211.144V214.195H1888.02C1886.51 214.195 1886.08 215.903 1886.08 216.976C1886.08 217.375 1886.51 218.921 1888.02 218.921H1891.13V222.809C1891.13 223.883 1892.78 224.753 1893.86 224.753ZM1876.72 207.612C1877.79 207.612 1878.66 206.742 1878.66 205.668V201.78H1882.55C1883.62 201.78 1884.49 200.91 1884.49 199.836C1884.49 198.762 1883.62 197.892 1882.55 197.892H1878.66V194.003C1878.66 192.93 1877.79 191.465 1876.72 191.465C1875.64 191.465 1874.77 192.93 1874.77 194.004V197.892H1870.88C1869.81 197.892 1868.4 198.762 1868.4 199.836C1868.4 200.91 1869.81 201.78 1870.88 201.78H1874.77V205.668C1874.77 206.742 1875.64 207.612 1876.72 207.612ZM1859.58 190.471C1860.65 190.471 1861.52 189.601 1861.52 188.527V184.639H1865.41C1866.48 184.639 1867.35 183.769 1867.35 182.695C1867.35 181.621 1866.48 180.751 1865.41 180.751H1861.52V176.863C1861.52 175.789 1860.65 174.919 1859.58 174.919C1858.5 174.919 1857.63 175.789 1857.63 176.863V180.751H1853.74C1852.67 180.751 1851.8 181.621 1851.8 182.695C1851.8 183.769 1852.67 184.639 1853.74 184.639H1857.63V188.527C1857.63 189.601 1858.5 190.471 1859.58 190.471ZM1910.8 207.612C1912.07 207.612 1912.42 206.742 1912.42 205.668V201.78H1916.83C1917.04 201.78 1918.77 200.91 1918.77 199.836C1918.77 198.762 1917.04 197.892 1916.83 197.892H1912.42V194.004C1912.42 192.93 1912.07 191.465 1910.8 191.465C1909.24 191.465 1909.05 192.93 1909.05 194.004V197.892H1905.16C1904.09 197.892 1903.22 198.762 1903.22 199.836C1903.22 200.91 1904.09 201.78 1905.16 201.78H1909.05V205.668C1909.05 206.742 1909.24 207.612 1910.8 207.612ZM1893.86 190.472C1894.31 190.472 1895.8 189.601 1895.8 188.527V184.639H1899.69C1900.76 184.639 1901.63 183.769 1901.63 182.695C1901.63 181.621 1900.76 180.751 1899.69 180.751H1895.8V176.863C1895.8 175.789 1894.31 174.919 1893.86 174.919C1892.78 174.919 1891.13 175.789 1891.13 176.863V180.751H1888.02C1886.51 180.751 1886.08 181.621 1886.08 182.695C1886.08 183.769 1886.51 184.639 1888.02 184.639H1891.13V188.527C1891.13 189.601 1892.78 190.471 1893.86 190.472ZM1876.72 173.331C1877.79 173.331 1878.66 172.46 1878.66 171.387V167.498H1882.55C1883.62 167.498 1884.49 166.628 1884.49 165.554C1884.49 164.481 1883.62 163.61 1882.55 163.61H1878.66V159.722C1878.66 158.648 1877.79 157.778 1876.72 157.778C1875.64 157.778 1874.77 158.648 1874.77 159.722V163.61H1870.88C1869.81 163.61 1868.4 164.481 1868.4 165.554C1868.4 166.628 1869.81 167.498 1870.88 167.498H1874.77V171.387C1874.77 172.46 1875.64 173.331 1876.72 173.331ZM1910.8 173.331C1912.07 173.331 1912.42 172.46 1912.42 171.387V167.498H1916.83C1917.04 167.498 1918.77 166.628 1918.77 165.554C1918.77 164.481 1917.04 163.61 1916.83 163.61H1912.42V159.722C1912.42 158.648 1912.07 157.778 1910.8 157.778C1909.24 157.778 1909.05 158.648 1909.05 159.722V163.61H1905.16C1904.09 163.61 1903.22 164.481 1903.22 165.554C1903.22 166.628 1904.09 167.498 1905.16 167.498H1909.05V171.387C1909.05 172.46 1909.24 173.331 1910.8 173.331ZM1893.86 156.19C1894.31 156.19 1895.8 155.32 1895.8 154.246V150.358H1899.69C1900.76 150.358 1901.63 149.487 1901.63 148.414C1901.63 147.34 1900.76 146.469 1899.69 146.469H1895.8V142.581C1895.8 141.508 1894.31 140.637 1893.86 140.637C1892.78 140.637 1891.13 141.507 1891.13 142.581V146.469H1888.02C1886.51 146.469 1886.08 147.34 1886.08 148.414C1886.08 149.487 1886.51 150.358 1888.02 150.358H1891.13V154.246C1891.13 155.32 1892.78 156.19 1893.86 156.19ZM1910.8 138.365C1912.07 138.365 1912.42 138.179 1912.42 136.925V133.217H1916.83C1917.04 133.217 1918.77 132.347 1918.77 131.273C1918.77 130.199 1917.04 129.329 1916.83 129.329H1912.42V125.44C1912.42 124.367 1912.07 123.496 1910.8 123.496C1909.24 123.496 1909.05 124.367 1909.05 125.44V129.329H1905.16C1904.09 129.329 1903.22 130.199 1903.22 131.273C1903.22 132.346 1904.09 133.217 1905.16 133.217H1909.05V136.925C1909.05 138.179 1909.24 138.365 1910.8 138.365Z" fill="white" fill-opacity="0.1"/>
</g>
<g clip-path="url(#clip6_182_409)">
<path fill-rule="evenodd" clip-rule="evenodd" d="M1152.05 161.573H1153.66C1154.11 161.573 1154.47 161.496 1154.47 160.854C1154.47 160.33 1154.11 160.187 1153.66 160.187H1152.05V158.371C1152.05 158.284 1151.69 157.57 1151.24 157.57C1150.8 157.57 1150.44 158.284 1150.44 158.371V160.187H1148.82C1148.38 160.187 1148.02 160.33 1148.02 160.854C1148.02 161.496 1148.38 161.573 1148.82 161.573H1150.44V163.174C1150.44 163.616 1150.8 163.974 1151.24 163.974C1151.69 163.974 1152.05 163.616 1152.05 163.174V161.573ZM1147.36 167.83C1147.36 167.644 1147 167.03 1146.55 167.03H1144.94V165.429C1144.94 164.987 1144.58 164.628 1144.13 164.628C1143.69 164.628 1143.32 164.987 1143.32 165.429V167.03H1141.71C1141.27 167.03 1140.9 167.644 1140.9 167.83C1140.9 168.272 1141.27 168.953 1141.71 168.953H1143.32V170.232C1143.32 170.855 1143.69 171.032 1144.13 171.032C1144.58 171.032 1144.94 170.855 1144.94 170.232V168.953H1146.55C1147 168.953 1147.36 168.272 1147.36 167.83ZM1140.25 174.888C1140.25 174.446 1139.88 174.088 1139.44 174.088H1137.83V172.486C1137.83 172.045 1137.46 171.686 1137.02 171.686C1136.57 171.686 1136.21 172.045 1136.21 172.486V174.088H1134.6C1134.15 174.088 1133.79 174.446 1133.79 174.888C1133.79 175.33 1134.15 175.689 1134.6 175.689H1136.21V177.29C1136.21 177.732 1136.57 178.313 1137.02 178.313C1137.46 178.313 1137.83 177.732 1137.83 177.29L1137.83 175.689H1139.44C1139.88 175.689 1140.25 175.33 1140.25 174.888ZM1132.79 181.946C1132.79 181.504 1132.77 181.145 1132.2 181.145H1130.71V179.545C1130.71 179.103 1130.35 178.744 1129.91 178.744C1129.46 178.744 1129.1 179.103 1129.1 179.545V181.145H1127.49C1127.04 181.145 1126.68 181.504 1126.68 181.946C1126.68 182.388 1127.04 182.747 1127.49 182.747H1129.1V184.348C1129.1 184.79 1129.46 185.148 1129.91 185.148C1130.35 185.148 1130.71 184.79 1130.71 184.348V182.747H1132.2C1132.77 182.747 1132.79 182.388 1132.79 181.946ZM1126.02 189.004C1126.02 188.562 1125.66 188.204 1125.22 188.204H1123.36V186.603C1123.36 186.16 1123.24 185.802 1122.47 185.802C1122.05 185.802 1121.99 186.16 1121.99 186.603V188.204H1120.38C1119.93 188.204 1119.57 188.562 1119.57 189.004C1119.57 189.446 1119.93 189.804 1120.38 189.804H1121.99V191.406C1121.99 191.848 1122.05 192.206 1122.47 192.206C1123.24 192.206 1123.36 191.848 1123.36 191.406V189.804H1125.22C1125.66 189.804 1126.02 189.446 1126.02 189.004ZM1118.91 196.062C1118.91 195.62 1118.55 195.262 1118.1 195.262H1116.49V193.661C1116.49 193.218 1115.85 192.86 1115.68 192.86C1115.24 192.86 1114.53 193.218 1114.53 193.661V195.262H1113.26C1112.62 195.262 1112.46 195.62 1112.46 196.062C1112.46 196.504 1112.62 196.863 1113.26 196.863H1114.53V198.463C1114.53 198.906 1115.24 199.264 1115.68 199.264C1115.85 199.264 1116.49 198.906 1116.49 198.463V196.863H1118.1C1118.55 196.863 1118.91 196.504 1118.91 196.062ZM1140.25 160.854C1140.25 160.33 1139.88 160.187 1139.44 160.187H1137.83V158.371C1137.83 158.284 1137.46 157.57 1137.02 157.57C1136.57 157.57 1136.21 158.284 1136.21 158.371V160.187H1134.6C1134.15 160.187 1133.79 160.33 1133.79 160.854C1133.79 161.496 1134.15 161.573 1134.6 161.573H1136.21V163.174C1136.21 163.616 1136.57 163.974 1137.02 163.974C1137.46 163.974 1137.83 163.616 1137.83 163.174V161.573H1139.44C1139.88 161.573 1140.25 161.496 1140.25 160.854ZM1132.79 167.83C1132.79 167.644 1132.77 167.03 1132.2 167.03H1130.71V165.429C1130.71 164.987 1130.35 164.628 1129.91 164.628C1129.46 164.628 1129.1 164.987 1129.1 165.429V167.03H1127.49C1127.04 167.03 1126.68 167.644 1126.68 167.83C1126.68 168.272 1127.04 168.953 1127.49 168.953H1129.1V170.232C1129.1 170.855 1129.46 171.032 1129.91 171.032C1130.35 171.032 1130.71 170.855 1130.71 170.232V168.953H1132.2C1132.77 168.953 1132.79 168.272 1132.79 167.83ZM1126.02 174.888C1126.02 174.446 1125.66 174.088 1125.22 174.088H1123.36V172.486C1123.36 172.045 1123.24 171.686 1122.47 171.686C1122.05 171.686 1121.99 172.045 1121.99 172.486V174.088H1120.38C1119.93 174.088 1119.57 174.446 1119.57 174.888C1119.57 175.33 1119.93 175.689 1120.38 175.689H1121.99V177.29C1121.99 177.732 1122.05 178.313 1122.47 178.313C1123.24 178.313 1123.36 177.732 1123.36 177.29V175.689H1125.22C1125.66 175.689 1126.02 175.33 1126.02 174.888ZM1118.91 181.946C1118.91 181.504 1118.55 181.145 1118.1 181.145H1116.49V179.545C1116.49 179.103 1115.85 178.744 1115.68 178.744C1115.24 178.744 1114.53 179.103 1114.53 179.545V181.145H1113.26C1112.62 181.145 1112.46 181.504 1112.46 181.946C1112.46 182.388 1112.62 182.747 1113.26 182.747H1114.53L1114.53 184.348C1114.53 184.79 1115.24 185.148 1115.68 185.148C1115.85 185.148 1116.49 184.79 1116.49 184.348V182.747H1118.1C1118.55 182.747 1118.91 182.388 1118.91 181.946ZM1111.8 189.004C1111.8 188.562 1111.44 188.204 1110.99 188.204H1109.38V186.603C1109.38 186.16 1109.02 185.802 1108.57 185.802C1108.13 185.802 1107.77 186.16 1107.77 186.603V188.204H1106.15C1105.71 188.204 1105.1 188.562 1105.1 189.004C1105.1 189.446 1105.71 189.804 1106.15 189.804H1107.77V191.406C1107.77 191.848 1108.13 192.206 1108.57 192.206C1109.02 192.206 1109.38 191.848 1109.38 191.406V189.804H1110.99C1111.44 189.804 1111.8 189.446 1111.8 189.004ZM1126.02 160.854C1126.02 160.33 1125.66 160.187 1125.22 160.187H1123.36V158.371C1123.36 158.284 1123.24 157.57 1122.47 157.57C1122.05 157.57 1121.99 158.284 1121.99 158.371V160.187H1120.38C1119.93 160.187 1119.57 160.33 1119.57 160.854C1119.57 161.496 1119.93 161.573 1120.38 161.573H1121.99V163.174C1121.99 163.616 1122.05 163.974 1122.47 163.974C1123.24 163.974 1123.36 163.616 1123.36 163.174V161.573H1125.22C1125.66 161.573 1126.02 161.496 1126.02 160.854ZM1118.91 167.83C1118.91 167.644 1118.55 167.03 1118.1 167.03H1116.49V165.429C1116.49 164.987 1115.85 164.628 1115.68 164.628C1115.24 164.628 1114.53 164.987 1114.53 165.429V167.03H1113.26C1112.62 167.03 1112.46 167.644 1112.46 167.83C1112.46 168.272 1112.62 168.953 1113.26 168.953H1114.53V170.232C1114.53 170.855 1115.24 171.032 1115.68 171.032C1115.85 171.032 1116.49 170.855 1116.49 170.232V168.953H1118.1C1118.55 168.953 1118.91 168.272 1118.91 167.83ZM1111.8 174.888C1111.8 174.446 1111.44 174.088 1110.99 174.088H1109.38V172.486C1109.38 172.045 1109.02 171.686 1108.57 171.686C1108.13 171.686 1107.77 172.045 1107.77 172.486V174.088H1106.15C1105.71 174.088 1105.1 174.446 1105.1 174.888C1105.1 175.33 1105.71 175.689 1106.15 175.689H1107.77V177.29C1107.77 177.732 1108.13 178.313 1108.57 178.313C1109.02 178.313 1109.38 177.732 1109.38 177.29V175.689H1110.99C1111.44 175.689 1111.8 175.33 1111.8 174.888ZM1104.69 181.946C1104.69 181.504 1104.33 181.145 1103.88 181.145H1102.27V179.545C1102.27 179.103 1101.91 178.744 1101.46 178.744C1101.02 178.744 1100.65 179.103 1100.65 179.545V181.145H1099.04C1098.6 181.145 1098.23 181.504 1098.23 181.946C1098.23 182.388 1098.6 182.747 1099.04 182.747H1100.65V184.348C1100.65 184.79 1101.02 185.148 1101.46 185.148C1101.91 185.148 1102.27 184.79 1102.27 184.348V182.747H1103.88C1104.33 182.747 1104.69 182.388 1104.69 181.946ZM1111.8 160.854C1111.8 160.33 1111.44 160.187 1110.99 160.187H1109.38V158.371C1109.38 158.284 1109.02 157.57 1108.57 157.57C1108.13 157.57 1107.77 158.284 1107.77 158.371V160.187H1106.15C1105.71 160.187 1105.1 160.33 1105.1 160.854C1105.1 161.496 1105.71 161.573 1106.15 161.573H1107.77V163.174C1107.77 163.616 1108.13 163.974 1108.57 163.974C1109.02 163.974 1109.38 163.616 1109.38 163.174V161.573H1110.99C1111.44 161.573 1111.8 161.496 1111.8 160.854ZM1104.69 167.83C1104.69 167.644 1104.33 167.03 1103.88 167.03H1102.27V165.429C1102.27 164.987 1101.91 164.628 1101.46 164.628C1101.02 164.628 1100.65 164.987 1100.65 165.429V167.03H1099.04C1098.6 167.03 1098.23 167.644 1098.23 167.83C1098.23 168.272 1098.6 168.953 1099.04 168.953H1100.65V170.232C1100.65 170.855 1101.02 171.032 1101.46 171.032C1101.91 171.032 1102.27 170.855 1102.27 170.232V168.953H1103.88C1104.33 168.953 1104.69 168.272 1104.69 167.83ZM1097.58 174.888C1097.58 174.446 1097.21 174.088 1096.77 174.088H1095.16V172.487C1095.16 172.045 1094.8 171.686 1094.35 171.686C1093.9 171.686 1093.54 172.045 1093.54 172.487V174.088H1091.93C1091.48 174.088 1091.12 174.446 1091.12 174.888C1091.12 175.33 1091.48 175.689 1091.93 175.689H1093.54V177.29C1093.54 177.732 1093.9 178.313 1094.35 178.313C1094.8 178.313 1095.16 177.732 1095.16 177.29V175.689H1096.77C1097.21 175.689 1097.58 175.33 1097.58 174.888ZM1097.58 160.854C1097.58 160.33 1097.21 160.187 1096.77 160.187H1095.16V158.371C1095.16 158.284 1094.8 157.57 1094.35 157.57C1093.9 157.57 1093.54 158.284 1093.54 158.371V160.187H1091.93C1091.48 160.187 1091.12 160.33 1091.12 160.854C1091.12 161.496 1091.48 161.573 1091.93 161.573H1093.54V163.174C1093.54 163.616 1093.9 163.974 1094.35 163.974C1094.8 163.974 1095.16 163.616 1095.16 163.174V161.573H1096.77C1097.21 161.573 1097.58 161.496 1097.58 160.854ZM1090.46 167.83C1090.46 167.644 1090.1 167.03 1089.66 167.03H1088.04V165.429C1088.04 164.987 1087.68 164.628 1087.24 164.628C1086.79 164.628 1086.43 164.987 1086.43 165.429V167.03H1084.82C1084.37 167.03 1084.01 167.644 1084.01 167.83C1084.01 168.272 1084.37 168.953 1084.82 168.953H1086.43V170.232C1086.43 170.855 1086.79 171.033 1087.24 171.032C1087.68 171.033 1088.04 170.855 1088.04 170.232V168.953H1089.66C1090.1 168.953 1090.46 168.272 1090.46 167.83ZM1083.07 160.854C1083.07 160.33 1082.99 160.187 1082.47 160.187H1080.93V158.371C1080.93 158.284 1080.57 157.57 1080.13 157.57C1079.68 157.57 1079.32 158.284 1079.32 158.371V160.187H1077.71C1077.26 160.187 1076.9 160.33 1076.9 160.854C1076.9 161.496 1077.26 161.573 1077.71 161.573H1079.32V163.174C1079.32 163.616 1079.68 163.974 1080.13 163.974C1080.57 163.974 1080.93 163.616 1080.93 163.174V161.573H1082.47C1082.99 161.573 1083.07 161.496 1083.07 160.854Z" fill="white" fill-opacity="0.1"/>
</g>
<g clip-path="url(#clip7_182_409)">
<path fill-rule="evenodd" clip-rule="evenodd" d="M1079.44 151.38H1077.83C1077.38 151.38 1077.02 151.457 1077.02 152.099C1077.02 152.623 1077.38 152.766 1077.83 152.766H1079.44V154.582C1079.44 154.669 1079.8 155.383 1080.25 155.383C1080.7 155.383 1081.06 154.669 1081.06 154.582V152.766H1082.67C1083.12 152.766 1083.48 152.623 1083.48 152.099C1083.48 151.457 1083.12 151.38 1082.67 151.38H1081.06V149.779C1081.06 149.337 1080.7 148.979 1080.25 148.979C1079.8 148.979 1079.44 149.337 1079.44 149.779V151.38ZM1084.14 145.123C1084.14 145.309 1084.5 145.923 1084.94 145.923H1086.55V147.524C1086.55 147.967 1086.92 148.325 1087.36 148.325C1087.81 148.325 1088.17 147.967 1088.17 147.524V145.923H1089.78C1090.23 145.923 1090.59 145.309 1090.59 145.123C1090.59 144.681 1090.23 144 1089.78 144H1088.17V142.721C1088.17 142.098 1087.81 141.921 1087.36 141.921C1086.92 141.921 1086.55 142.098 1086.55 142.721V144H1084.94C1084.5 144 1084.14 144.681 1084.14 145.123ZM1091.25 138.065C1091.25 138.507 1091.61 138.865 1092.05 138.865H1093.67V140.467C1093.67 140.908 1094.03 141.267 1094.47 141.267C1094.92 141.267 1095.28 140.908 1095.28 140.467V138.865H1096.89C1097.34 138.865 1097.7 138.507 1097.7 138.065C1097.7 137.623 1097.34 137.264 1096.89 137.264H1095.28V135.663C1095.28 135.221 1094.92 134.641 1094.47 134.641C1094.03 134.641 1093.67 135.221 1093.67 135.663L1093.67 137.264H1092.05C1091.61 137.264 1091.25 137.623 1091.25 138.065ZM1098.7 131.007C1098.7 131.449 1098.72 131.808 1099.3 131.808H1100.78V133.409C1100.78 133.85 1101.14 134.209 1101.58 134.209C1102.03 134.209 1102.39 133.85 1102.39 133.409V131.808H1104C1104.45 131.808 1104.81 131.449 1104.81 131.007C1104.81 130.565 1104.45 130.206 1104 130.206H1102.39V128.605C1102.39 128.163 1102.03 127.805 1101.58 127.805C1101.14 127.805 1100.78 128.164 1100.78 128.605V130.206H1099.3C1098.72 130.206 1098.7 130.565 1098.7 131.007ZM1105.47 123.949C1105.47 124.391 1105.83 124.75 1106.28 124.75H1108.13V126.351C1108.13 126.793 1108.25 127.151 1109.03 127.151C1109.44 127.151 1109.5 126.793 1109.5 126.351V124.75H1111.12C1111.56 124.75 1111.92 124.391 1111.92 123.949C1111.92 123.507 1111.56 123.149 1111.12 123.149H1109.5V121.547C1109.5 121.105 1109.44 120.747 1109.03 120.747C1108.25 120.747 1108.13 121.105 1108.13 121.547V123.149H1106.28C1105.83 123.149 1105.47 123.507 1105.47 123.949ZM1112.58 116.891C1112.58 117.333 1112.94 117.692 1113.39 117.692H1115V119.292C1115 119.735 1115.64 120.093 1115.81 120.093C1116.25 120.093 1116.96 119.735 1116.96 119.292V117.692H1118.23C1118.87 117.692 1119.03 117.333 1119.03 116.891C1119.03 116.449 1118.87 116.091 1118.23 116.091H1116.96V114.49C1116.96 114.047 1116.25 113.689 1115.81 113.689C1115.64 113.689 1115 114.047 1115 114.49V116.091H1113.39C1112.94 116.091 1112.58 116.449 1112.58 116.891ZM1091.25 152.099C1091.25 152.623 1091.61 152.766 1092.05 152.766H1093.67V154.582C1093.67 154.669 1094.03 155.383 1094.47 155.383C1094.92 155.383 1095.28 154.669 1095.28 154.582V152.766H1096.89C1097.34 152.766 1097.7 152.623 1097.7 152.099C1097.7 151.457 1097.34 151.38 1096.89 151.38H1095.28V149.779C1095.28 149.337 1094.92 148.979 1094.47 148.979C1094.03 148.979 1093.67 149.337 1093.67 149.779V151.38H1092.05C1091.61 151.38 1091.25 151.457 1091.25 152.099ZM1098.7 145.123C1098.7 145.309 1098.72 145.923 1099.3 145.923H1100.78V147.524C1100.78 147.967 1101.14 148.325 1101.58 148.325C1102.03 148.325 1102.39 147.967 1102.39 147.524V145.923H1104C1104.45 145.923 1104.81 145.309 1104.81 145.123C1104.81 144.681 1104.45 144 1104 144H1102.39V142.721C1102.39 142.098 1102.03 141.921 1101.58 141.921C1101.14 141.921 1100.78 142.098 1100.78 142.721V144H1099.3C1098.72 144 1098.7 144.681 1098.7 145.123ZM1105.47 138.065C1105.47 138.507 1105.83 138.865 1106.28 138.865H1108.13V140.467C1108.13 140.908 1108.25 141.267 1109.03 141.267C1109.44 141.267 1109.5 140.908 1109.5 140.467V138.865H1111.12C1111.56 138.865 1111.92 138.507 1111.92 138.065C1111.92 137.623 1111.56 137.264 1111.12 137.264H1109.5V135.663C1109.5 135.221 1109.44 134.641 1109.03 134.641C1108.25 134.641 1108.13 135.221 1108.13 135.663V137.264H1106.28C1105.83 137.264 1105.47 137.623 1105.47 138.065ZM1112.58 131.007C1112.58 131.449 1112.94 131.808 1113.39 131.808H1115V133.409C1115 133.85 1115.64 134.209 1115.81 134.209C1116.25 134.209 1116.96 133.85 1116.96 133.409V131.808H1118.23C1118.87 131.808 1119.03 131.449 1119.03 131.007C1119.03 130.565 1118.87 130.206 1118.23 130.206H1116.96L1116.96 128.605C1116.96 128.163 1116.25 127.805 1115.81 127.805C1115.64 127.805 1115 128.163 1115 128.605V130.206H1113.39C1112.94 130.206 1112.58 130.565 1112.58 131.007ZM1119.69 123.949C1119.69 124.391 1120.05 124.75 1120.5 124.75H1122.11V126.351C1122.11 126.793 1122.47 127.151 1122.92 127.151C1123.36 127.151 1123.73 126.793 1123.73 126.351V124.75H1125.34C1125.78 124.75 1126.39 124.391 1126.39 123.949C1126.39 123.507 1125.78 123.149 1125.34 123.149H1123.73V121.547C1123.73 121.105 1123.36 120.747 1122.92 120.747C1122.47 120.747 1122.11 121.105 1122.11 121.547V123.149H1120.5C1120.05 123.149 1119.69 123.507 1119.69 123.949ZM1105.47 152.099C1105.47 152.623 1105.83 152.766 1106.28 152.766H1108.13V154.582C1108.13 154.669 1108.25 155.383 1109.03 155.383C1109.44 155.383 1109.5 154.669 1109.5 154.582V152.766H1111.12C1111.56 152.766 1111.92 152.623 1111.92 152.099C1111.92 151.457 1111.56 151.38 1111.12 151.38H1109.5V149.779C1109.5 149.337 1109.44 148.979 1109.03 148.979C1108.25 148.979 1108.13 149.337 1108.13 149.779V151.38H1106.28C1105.83 151.38 1105.47 151.457 1105.47 152.099ZM1112.58 145.123C1112.58 145.309 1112.94 145.923 1113.39 145.923H1115V147.524C1115 147.967 1115.64 148.325 1115.81 148.325C1116.25 148.325 1116.96 147.967 1116.96 147.524V145.923H1118.23C1118.87 145.923 1119.03 145.309 1119.03 145.123C1119.03 144.681 1118.87 144 1118.23 144H1116.96V142.721C1116.96 142.098 1116.25 141.921 1115.81 141.921C1115.64 141.921 1115 142.098 1115 142.721V144H1113.39C1112.94 144 1112.58 144.681 1112.58 145.123ZM1119.69 138.065C1119.69 138.507 1120.05 138.865 1120.5 138.865H1122.11V140.467C1122.11 140.908 1122.47 141.267 1122.92 141.267C1123.36 141.267 1123.73 140.908 1123.73 140.467V138.865H1125.34C1125.78 138.865 1126.39 138.507 1126.39 138.065C1126.39 137.623 1125.78 137.264 1125.34 137.264H1123.73V135.663C1123.73 135.221 1123.36 134.641 1122.92 134.641C1122.47 134.641 1122.11 135.221 1122.11 135.663V137.264H1120.5C1120.05 137.264 1119.69 137.623 1119.69 138.065ZM1126.8 131.007C1126.8 131.449 1127.17 131.808 1127.61 131.808H1129.22V133.409C1129.22 133.85 1129.59 134.209 1130.03 134.209C1130.48 134.209 1130.84 133.85 1130.84 133.409V131.808H1132.45C1132.9 131.808 1133.26 131.449 1133.26 131.007C1133.26 130.565 1132.9 130.206 1132.45 130.206H1130.84V128.605C1130.84 128.163 1130.48 127.805 1130.03 127.805C1129.59 127.805 1129.22 128.163 1129.22 128.605V130.206H1127.61C1127.17 130.206 1126.8 130.565 1126.8 131.007ZM1119.69 152.099C1119.69 152.623 1120.05 152.766 1120.5 152.766H1122.11V154.582C1122.11 154.669 1122.47 155.383 1122.92 155.383C1123.36 155.383 1123.73 154.669 1123.73 154.582V152.766H1125.34C1125.78 152.766 1126.39 152.623 1126.39 152.099C1126.39 151.457 1125.78 151.38 1125.34 151.38H1123.73V149.779C1123.73 149.337 1123.36 148.979 1122.92 148.979C1122.47 148.979 1122.11 149.337 1122.11 149.779V151.38H1120.5C1120.05 151.38 1119.69 151.457 1119.69 152.099ZM1126.8 145.123C1126.8 145.309 1127.17 145.923 1127.61 145.923H1129.22V147.524C1129.22 147.967 1129.59 148.325 1130.03 148.325C1130.48 148.325 1130.84 147.967 1130.84 147.524V145.923H1132.45C1132.9 145.923 1133.26 145.309 1133.26 145.123C1133.26 144.681 1132.9 144 1132.45 144H1130.84V142.721C1130.84 142.098 1130.48 141.921 1130.03 141.921C1129.59 141.921 1129.22 142.098 1129.22 142.721V144H1127.61C1127.17 144 1126.8 144.681 1126.8 145.123ZM1133.92 138.065C1133.92 138.507 1134.28 138.865 1134.72 138.865H1136.34V140.466C1136.34 140.908 1136.7 141.267 1137.14 141.267C1137.59 141.267 1137.95 140.908 1137.95 140.466V138.865H1139.56C1140.01 138.865 1140.37 138.507 1140.37 138.065C1140.37 137.623 1140.01 137.264 1139.56 137.264H1137.95V135.663C1137.95 135.221 1137.59 134.641 1137.14 134.641C1136.7 134.641 1136.34 135.221 1136.34 135.663V137.264H1134.72C1134.28 137.264 1133.92 137.623 1133.92 138.065ZM1133.92 152.099C1133.92 152.623 1134.28 152.766 1134.72 152.766H1136.34V154.582C1136.34 154.669 1136.7 155.383 1137.14 155.383C1137.59 155.383 1137.95 154.669 1137.95 154.582V152.766H1139.56C1140.01 152.766 1140.37 152.623 1140.37 152.099C1140.37 151.457 1140.01 151.38 1139.56 151.38H1137.95V149.779C1137.95 149.337 1137.59 148.979 1137.14 148.979C1136.7 148.979 1136.34 149.337 1136.34 149.779V151.38H1134.72C1134.28 151.38 1133.92 151.457 1133.92 152.099ZM1141.03 145.123C1141.03 145.309 1141.39 145.923 1141.83 145.923H1143.45V147.524C1143.45 147.967 1143.81 148.325 1144.25 148.325C1144.7 148.325 1145.06 147.967 1145.06 147.524V145.923H1146.67C1147.12 145.923 1147.48 145.309 1147.48 145.123C1147.48 144.681 1147.12 144 1146.67 144H1145.06V142.721C1145.06 142.098 1144.7 141.921 1144.25 141.921C1143.81 141.921 1143.45 142.098 1143.45 142.721V144H1141.83C1141.39 144 1141.03 144.681 1141.03 145.123ZM1148.42 152.099C1148.42 152.623 1148.5 152.766 1149.02 152.766H1150.56V154.582C1150.56 154.669 1150.92 155.383 1151.37 155.383C1151.81 155.383 1152.17 154.669 1152.17 154.582V152.766H1153.79C1154.23 152.766 1154.59 152.623 1154.59 152.099C1154.59 151.457 1154.23 151.38 1153.79 151.38H1152.17V149.779C1152.17 149.337 1151.81 148.979 1151.37 148.979C1150.92 148.979 1150.56 149.337 1150.56 149.779V151.38H1149.02C1148.5 151.38 1148.42 151.457 1148.42 152.099Z" fill="white" fill-opacity="0.1"/>
</g>
</g>
<defs>
<clipPath id="clip0_182_409">
<rect width="1920" height="1200" fill="white"/>
</clipPath>
<clipPath id="clip1_182_409">
<rect width="121" height="120" fill="white" transform="translate(88 113.125)"/>
</clipPath>
<clipPath id="clip2_182_409">
<rect width="121" height="120" fill="white" transform="translate(285 1074.07) rotate(-14.3308)"/>
</clipPath>
<clipPath id="clip3_182_409">
<rect width="127" height="127" fill="white" transform="translate(1812 864.125)"/>
</clipPath>
<clipPath id="clip4_182_409">
<rect width="102" height="188" fill="white" transform="translate(-6 583.125)"/>
</clipPath>
<clipPath id="clip5_182_409">
<rect width="102" height="188" fill="white" transform="matrix(-1 0 0 -1 1919 311.125)"/>
</clipPath>
<clipPath id="clip6_182_409">
<rect width="42" height="78" fill="white" transform="matrix(0 1 -1 0 1154.75 157.477)"/>
</clipPath>
<clipPath id="clip7_182_409">
<rect width="42" height="78" fill="white" transform="matrix(0 -1 1 0 1076.75 155.477)"/>
</clipPath>
</defs>
</svg>
