<svg width="140" height="33" viewBox="0 0 140 33" fill="none" xmlns="http://www.w3.org/2000/svg">
<path d="M45.0889 22.1095H54.6893V19.2178H48.5011V8.32568H45.0889V22.1095Z" fill="white"/>
<path d="M60.7551 20.1826C59.3863 20.1826 58.6731 18.9874 58.6731 17.1946C58.6731 15.4017 59.3863 14.1872 60.7551 14.1872C62.1238 14.1872 62.8564 15.4017 62.8564 17.1946C62.8564 18.9874 62.1238 20.1826 60.7551 20.1826ZM60.7744 22.4189C63.9552 22.4189 66.0373 20.1634 66.0373 17.1946C66.0373 14.2257 63.9552 11.9702 60.7744 11.9702C57.6128 11.9702 55.4922 14.2257 55.4922 17.1946C55.4922 20.1634 57.6128 22.4189 60.7744 22.4189Z" fill="white"/>
<path d="M71.8724 25.5214C73.3375 25.5214 74.6291 25.1937 75.4966 24.4226C76.287 23.7093 76.8076 22.6297 76.8076 21.1453V12.2389H73.8002V13.2992H73.7616C73.1833 12.4702 72.2965 11.9497 70.9856 11.9497C68.5373 11.9497 66.8408 13.9932 66.8408 16.8849C66.8408 19.9115 68.9036 21.5694 71.1205 21.5694C72.3158 21.5694 73.0676 21.0875 73.646 20.432H73.7231V21.4152C73.7231 22.6104 73.164 23.3045 71.8338 23.3045C70.7928 23.3045 70.2723 22.8611 70.0988 22.3406H67.0529C67.3613 24.4033 69.1542 25.5214 71.8724 25.5214ZM71.8531 19.2368C70.6771 19.2368 69.906 18.2729 69.906 16.7885C69.906 15.2848 70.6771 14.3209 71.8531 14.3209C73.164 14.3209 73.858 15.439 73.858 16.7692C73.858 18.1572 73.2218 19.2368 71.8531 19.2368Z" fill="white"/>
<path d="M82.8742 20.1826C81.5055 20.1826 80.7922 18.9874 80.7922 17.1946C80.7922 15.4017 81.5055 14.1872 82.8742 14.1872C84.243 14.1872 84.9755 15.4017 84.9755 17.1946C84.9755 18.9874 84.243 20.1826 82.8742 20.1826ZM82.8935 22.4189C86.0744 22.4189 88.156 20.1634 88.156 17.1946C88.156 14.2257 86.0744 11.9702 82.8935 11.9702C79.7319 11.9702 77.6113 14.2257 77.6113 17.1946C77.6113 20.1634 79.7319 22.4189 82.8935 22.4189Z" fill="white"/>
<path d="M88.959 22.1095H92.1013V12.2391H88.959V22.1095ZM88.959 10.8704H92.1013V8.32568H88.959V10.8704Z" fill="white"/>
<path d="M92.9053 25.3672H96.0476V21.0875H96.0861C96.703 21.9164 97.6091 22.4177 98.8815 22.4177C101.465 22.4177 103.18 20.3742 103.18 17.174C103.18 14.2052 101.58 11.9497 98.9586 11.9497C97.6091 11.9497 96.6452 12.5473 95.9705 13.4341H95.9126V12.2389H92.9053V25.3672ZM98.0718 19.9886C96.7223 19.9886 95.9512 18.8898 95.9512 17.2897C95.9512 15.6896 96.6452 14.4751 98.0139 14.4751C99.3634 14.4751 99.9996 15.5933 99.9996 17.2897C99.9996 18.9669 99.267 19.9886 98.0718 19.9886Z" fill="white"/>
<path d="M108.783 22.4177C111.366 22.4177 113.274 21.2995 113.274 19.1404C113.274 16.615 111.231 16.1716 109.496 15.8824C108.243 15.6511 107.125 15.5547 107.125 14.8607C107.125 14.2438 107.722 13.9546 108.493 13.9546C109.361 13.9546 109.959 14.2245 110.074 15.1113H112.966C112.812 13.1642 111.308 11.9497 108.513 11.9497C106.18 11.9497 104.252 13.0293 104.252 15.1113C104.252 17.4247 106.084 17.8873 107.799 18.1765C109.11 18.4078 110.306 18.5042 110.306 19.391C110.306 20.0272 109.708 20.3742 108.763 20.3742C107.722 20.3742 107.067 19.8922 106.951 18.9091H103.982C104.079 21.0875 105.891 22.4177 108.783 22.4177Z" fill="white"/>
<path d="M117.548 22.3997C118.917 22.3997 119.784 21.86 120.498 20.8961H120.556V22.1106H123.563V12.2402H120.421V17.7537C120.421 18.9297 119.765 19.7394 118.686 19.7394C117.683 19.7394 117.201 19.1418 117.201 18.0622V12.2402H114.078V18.7176C114.078 20.9153 115.273 22.3997 117.548 22.3997Z" fill="white"/>
<path d="M124.366 22.1092H127.509V16.5764C127.509 15.4005 128.087 14.5715 129.07 14.5715C130.015 14.5715 130.458 15.1884 130.458 16.2487V22.1092H133.6V16.5764C133.6 15.4005 134.159 14.5715 135.162 14.5715C136.107 14.5715 136.55 15.1884 136.55 16.2487V22.1092H139.692V15.6896C139.692 13.4727 138.574 11.9497 136.338 11.9497C135.066 11.9497 134.005 12.4895 133.234 13.6847H133.196C132.694 12.6244 131.711 11.9497 130.42 11.9497C128.993 11.9497 128.048 12.6244 127.431 13.6462H127.374V12.2389H124.366V22.1092Z" fill="white"/>
<path fill-rule="evenodd" clip-rule="evenodd" d="M7.1776 3.74887C6.02842 4.55241 4.98926 5.50246 4.08717 6.57192C7.77353 6.22968 12.4569 6.78852 17.8943 9.50722C23.7006 12.4103 28.3762 12.5085 31.6302 11.8808C31.3349 10.9869 30.9632 10.1277 30.5229 9.31099C26.798 9.70386 22.0227 9.18384 16.4574 6.4013C12.9234 4.63431 9.80827 3.90642 7.1776 3.74887ZM28.347 6.21387C25.4054 2.92725 21.1306 0.858887 16.3726 0.858887C14.9753 0.858887 13.6196 1.03729 12.3272 1.37255C14.0776 1.85017 15.9372 2.54891 17.8943 3.5275C21.9688 5.56475 25.4866 6.22071 28.347 6.21387ZM32.3259 15.0186C28.3948 15.7949 22.9663 15.6355 16.4574 12.381C10.3723 9.33846 5.52909 9.37678 2.26265 10.1027C2.09405 10.1401 1.92941 10.1795 1.76875 10.2204C1.3411 11.1505 0.999725 12.1286 0.754788 13.1442C1.01639 13.0743 1.28672 13.0079 1.56564 12.9459C5.5284 12.0653 11.1274 12.1035 17.8943 15.4869C23.9795 18.5295 28.8227 18.4912 32.0892 17.7653C32.201 17.7405 32.3113 17.7148 32.4198 17.6882C32.4317 17.435 32.4376 17.1801 32.4376 16.9239C32.4376 16.2793 32.3997 15.6435 32.3259 15.0186ZM31.8953 21.0785C28.0023 21.7591 22.7319 21.4979 16.4574 18.3607C10.3723 15.3182 5.52909 15.3565 2.26265 16.0824C1.53759 16.2434 0.885346 16.4397 0.309971 16.6468C0.308402 16.739 0.307617 16.8313 0.307617 16.9239C0.307617 25.7963 7.50016 32.9889 16.3726 32.9889C23.8084 32.9889 30.0642 27.9372 31.8953 21.0785Z" fill="white"/>
</svg>
