<svg width="140" height="33" viewBox="0 0 140 33" fill="none" xmlns="http://www.w3.org/2000/svg">
<path fill-rule="evenodd" clip-rule="evenodd" d="M20.7312 10.1554C19.4102 9.27276 17.8571 8.80162 16.2683 8.80162V0.768555C19.4458 0.768555 22.5521 1.71082 25.1941 3.47619C27.8362 5.24155 29.8954 7.75074 31.1115 10.6864C32.3274 13.6221 32.6456 16.8525 32.0257 19.969C31.4058 23.0855 29.8757 25.9483 27.6287 28.1951C25.3819 30.4421 22.5191 31.9722 19.4026 32.5921C16.2861 33.212 13.0557 32.8938 10.12 31.6779C7.18433 30.4618 4.67515 28.4026 2.90978 25.7606C1.14441 23.1185 0.202148 20.0123 0.202148 16.8347H8.23522C8.23522 18.4235 8.70636 19.9766 9.58903 21.2976C10.4717 22.6187 11.7263 23.6483 13.1942 24.2563C14.662 24.8643 16.2772 25.0234 17.8355 24.7134C19.3937 24.4034 20.825 23.6384 21.9485 22.515C23.072 21.3914 23.837 19.9601 24.147 18.4019C24.457 16.8436 24.2979 15.2284 23.6899 13.7606C23.0819 12.2927 22.0523 11.0381 20.7312 10.1554Z" fill="white"/>
<path fill-rule="evenodd" clip-rule="evenodd" d="M8.23521 0.768559C8.23521 1.82348 8.02744 2.86806 7.62373 3.84268C7.22003 4.8173 6.62833 5.70285 5.88238 6.4488C5.13645 7.19474 4.25089 7.78645 3.27627 8.19015C2.30165 8.59384 1.25706 8.80163 0.202149 8.80163L0.202148 16.8347C2.31198 16.8347 4.40116 16.4191 6.3504 15.6117C8.29964 14.8043 10.0708 13.6209 11.5626 12.129C13.0545 10.6372 14.2379 8.86605 15.0453 6.9168C15.8527 4.96756 16.2683 2.87839 16.2683 0.768555L8.23521 0.768559Z" fill="white"/>
<path d="M45.1865 22.0211H54.7876V19.1292H48.599V8.23633H45.1865V22.0211Z" fill="white"/>
<path d="M60.8551 20.0939C59.4862 20.0939 58.7729 18.8985 58.7729 17.1056C58.7729 15.3126 59.4862 14.098 60.8551 14.098C62.2239 14.098 62.9565 15.3126 62.9565 17.1056C62.9565 18.8985 62.2239 20.0939 60.8551 20.0939ZM60.8743 22.3303C64.0554 22.3303 66.1376 20.0746 66.1376 17.1056C66.1376 14.1365 64.0554 11.8809 60.8743 11.8809C57.7125 11.8809 55.5918 14.1365 55.5918 17.1056C55.5918 20.0746 57.7125 22.3303 60.8743 22.3303Z" fill="white"/>
<path d="M71.9723 25.433C73.4376 25.433 74.7293 25.1053 75.5969 24.3341C76.3873 23.6208 76.9079 22.5411 76.9079 21.0566V12.1495H73.9003V13.2099H73.8617C73.2833 12.3809 72.3965 11.8604 71.0855 11.8604C68.637 11.8604 66.9404 13.904 66.9404 16.7959C66.9404 19.8227 69.0033 21.4808 71.2205 21.4808C72.4158 21.4808 73.1677 20.9988 73.746 20.3433H73.8232V21.3265C73.8232 22.5218 73.2641 23.2159 71.9338 23.2159C70.8927 23.2159 70.3722 22.7725 70.1986 22.2519H67.1525C67.461 24.3148 69.254 25.433 71.9723 25.433ZM71.9531 19.148C70.777 19.148 70.0059 18.184 70.0059 16.6995C70.0059 15.1957 70.777 14.2317 71.9531 14.2317C73.2641 14.2317 73.9581 15.3499 73.9581 16.6802C73.9581 18.0683 73.3219 19.148 71.9531 19.148Z" fill="white"/>
<path d="M82.9742 20.0939C81.6054 20.0939 80.892 18.8985 80.892 17.1056C80.892 15.3126 81.6054 14.098 82.9742 14.098C84.343 14.098 85.0757 15.3126 85.0757 17.1056C85.0757 18.8985 84.343 20.0939 82.9742 20.0939ZM82.9935 22.3303C86.1746 22.3303 88.2563 20.0746 88.2563 17.1056C88.2563 14.1365 86.1746 11.8809 82.9935 11.8809C79.8317 11.8809 77.7109 14.1365 77.7109 17.1056C77.7109 20.0746 79.8317 22.3303 82.9935 22.3303Z" fill="white"/>
<path d="M89.0596 22.0211H92.2021V12.15H89.0596V22.0211ZM89.0596 10.7812H92.2021V8.23633H89.0596V10.7812Z" fill="white"/>
<path d="M93.0059 25.2788H96.1484V20.9988H96.187C96.8039 21.8278 97.71 22.329 98.9825 22.329C101.566 22.329 103.282 20.2854 103.282 17.0851C103.282 14.116 101.682 11.8604 99.0596 11.8604C97.71 11.8604 96.7461 12.458 96.0713 13.3449H96.0134V12.1495H93.0059V25.2788ZM98.1727 19.8998C96.8232 19.8998 96.052 18.8009 96.052 17.2007C96.052 15.6005 96.7461 14.3859 98.1149 14.3859C99.4644 14.3859 100.101 15.5042 100.101 17.2007C100.101 18.878 99.368 19.8998 98.1727 19.8998Z" fill="white"/>
<path d="M108.887 22.329C111.47 22.329 113.379 21.2108 113.379 19.0516C113.379 16.526 111.335 16.0825 109.6 15.7933C108.347 15.562 107.228 15.4656 107.228 14.7715C107.228 14.1546 107.826 13.8654 108.597 13.8654C109.465 13.8654 110.063 14.1353 110.178 15.0222H113.07C112.916 13.075 111.412 11.8604 108.617 11.8604C106.284 11.8604 104.356 12.94 104.356 15.0222C104.356 17.3357 106.187 17.7984 107.903 18.0876C109.214 18.3189 110.41 18.4153 110.41 19.3022C110.41 19.9384 109.812 20.2854 108.867 20.2854C107.826 20.2854 107.171 19.8034 107.055 18.8202H104.086C104.182 20.9988 105.995 22.329 108.887 22.329Z" fill="white"/>
<path d="M117.651 22.3111C119.02 22.3111 119.887 21.7713 120.601 20.8073H120.659V22.0219H123.666V12.1509H120.524V17.6648C120.524 18.8408 119.868 19.6506 118.788 19.6506C117.786 19.6506 117.304 19.0529 117.304 17.9732V12.1509H114.181V18.6287C114.181 20.8266 115.376 22.3111 117.651 22.3111Z" fill="white"/>
<path d="M124.47 22.0206H127.612V16.4874C127.612 15.3114 128.191 14.4823 129.174 14.4823C130.119 14.4823 130.562 15.0993 130.562 16.1597V22.0206H133.705V16.4874C133.705 15.3114 134.264 14.4823 135.266 14.4823C136.211 14.4823 136.654 15.0993 136.654 16.1597V22.0206H139.797V15.6005C139.797 13.3834 138.679 11.8604 136.442 11.8604C135.17 11.8604 134.109 12.4002 133.338 13.5955H133.3C132.798 12.5351 131.815 11.8604 130.523 11.8604C129.097 11.8604 128.152 12.5351 127.535 13.5569H127.477V12.1495H124.47V22.0206Z" fill="white"/>
</svg>
