<svg width="1920" height="410" viewBox="0 0 1920 410" fill="none" xmlns="http://www.w3.org/2000/svg">
<g clip-path="url(#clip0_186_359)">
<path d="M356.579 354.969H354.789V350.492H356.579V354.969Z" fill="white" fill-opacity="0.1"/>
<path d="M320.992 390.555H316.516V388.764H320.992V390.555Z" fill="white" fill-opacity="0.1"/>
<path d="M320.992 390.555H316.516V388.764H320.992V390.555Z" fill="white" fill-opacity="0.1"/>
<path d="M394.851 390.555H390.375V388.764H394.851V390.555Z" fill="white" fill-opacity="0.1"/>
<path d="M380.852 365.739L379.586 364.473L382.751 361.307L384.017 362.573L380.852 365.739Z" fill="white" fill-opacity="0.1"/>
<path d="M330.517 365.764L327.352 362.598L328.618 361.332L331.783 364.498L330.517 365.764Z" fill="white" fill-opacity="0.1"/>
<path d="M330.517 365.764L327.352 362.598L328.618 361.332L331.783 364.498L330.517 365.764Z" fill="white" fill-opacity="0.1"/>
<path d="M364.47 356.092L362.727 355.684L363.747 351.325L365.49 351.733L364.47 356.092Z" fill="white" fill-opacity="0.1"/>
<path d="M321.687 382.627L317.328 381.605L317.737 379.862L322.095 380.883L321.687 382.627Z" fill="white" fill-opacity="0.1"/>
<path d="M321.687 382.627L317.328 381.605L317.737 379.862L322.095 380.883L321.687 382.627Z" fill="white" fill-opacity="0.1"/>
<path d="M393.605 399.47L389.246 398.449L389.654 396.706L394.013 397.727L393.605 399.47Z" fill="white" fill-opacity="0.1"/>
<path d="M322.878 411.08L321.934 409.559L325.737 407.198L326.681 408.719L322.878 411.08Z" fill="white" fill-opacity="0.1"/>
<path d="M322.878 411.08L321.934 409.559L325.737 407.198L326.681 408.719L322.878 411.08Z" fill="white" fill-opacity="0.1"/>
<path d="M385.635 372.131L384.691 370.609L388.495 368.249L389.439 369.77L385.635 372.131Z" fill="white" fill-opacity="0.1"/>
<path d="M336.615 360.663L334.254 356.859L335.775 355.915L338.136 359.718L336.615 360.663Z" fill="white" fill-opacity="0.1"/>
<path d="M336.615 360.663L334.254 356.859L335.775 355.915L338.136 359.718L336.615 360.663Z" fill="white" fill-opacity="0.1"/>
<path d="M369.325 357.751L367.66 357.09L369.312 352.929L370.976 353.59L369.325 357.751Z" fill="white" fill-opacity="0.1"/>
<path d="M323.118 377.69L318.957 376.039L319.618 374.375L323.779 376.026L323.118 377.69Z" fill="white" fill-opacity="0.1"/>
<path d="M323.118 377.69L318.957 376.039L319.618 374.375L323.779 376.026L323.118 377.69Z" fill="white" fill-opacity="0.1"/>
<path d="M391.77 404.929L387.609 403.277L388.27 401.613L392.431 403.265L391.77 404.929Z" fill="white" fill-opacity="0.1"/>
<path d="M320.073 406.019L319.363 404.375L323.473 402.601L324.182 404.244L320.073 406.019Z" fill="white" fill-opacity="0.1"/>
<path d="M320.073 406.019L319.363 404.375L323.473 402.601L324.182 404.244L320.073 406.019Z" fill="white" fill-opacity="0.1"/>
<path d="M387.882 376.745L387.172 375.102L391.281 373.327L391.991 374.971L387.882 376.745Z" fill="white" fill-opacity="0.1"/>
<path d="M341.102 358.16L339.328 354.051L340.972 353.341L342.746 357.451L341.102 358.16Z" fill="white" fill-opacity="0.1"/>
<path d="M341.102 358.16L339.328 354.051L340.972 353.341L342.746 357.451L341.102 358.16Z" fill="white" fill-opacity="0.1"/>
<path d="M376.243 361.686L374.773 360.664L377.33 356.989L378.799 358.011L376.243 361.686Z" fill="white" fill-opacity="0.1"/>
<path d="M326.698 370.6L323.023 368.043L324.046 366.573L327.721 369.13L326.698 370.6Z" fill="white" fill-opacity="0.1"/>
<path d="M326.698 370.6L323.023 368.043L324.046 366.573L327.721 369.13L326.698 370.6Z" fill="white" fill-opacity="0.1"/>
<path d="M387.311 412.751L383.637 410.195L384.659 408.726L388.333 411.281L387.311 412.751Z" fill="white" fill-opacity="0.1"/>
<path d="M317.297 397.465L316.98 395.703L321.387 394.912L321.703 396.674L317.297 397.465Z" fill="white" fill-opacity="0.1"/>
<path d="M317.297 397.465L316.98 395.703L321.387 394.912L321.703 396.674L317.297 397.465Z" fill="white" fill-opacity="0.1"/>
<path d="M389.988 384.419L389.672 382.656L394.078 381.865L394.395 383.628L389.988 384.419Z" fill="white" fill-opacity="0.1"/>
<path d="M348.662 355.688L347.871 351.281L349.633 350.965L350.424 355.371L348.662 355.688Z" fill="white" fill-opacity="0.1"/>
<path d="M348.662 355.688L347.871 351.281L349.633 350.965L350.424 355.371L348.662 355.688Z" fill="white" fill-opacity="0.1"/>
<g clip-path="url(#clip1_186_359)">
<path fill-rule="evenodd" clip-rule="evenodd" d="M1915.15 309.123V311.44C1915.15 312.079 1915.26 312.598 1916.18 312.598C1916.92 312.598 1917.13 312.079 1917.13 311.44V309.123H1919.72C1919.85 309.123 1920.87 308.604 1920.87 307.965C1920.87 307.325 1919.85 306.806 1919.72 306.806H1917.13V304.49C1917.13 303.85 1916.92 303.332 1916.18 303.332C1915.26 303.332 1915.15 303.85 1915.15 304.49V306.806H1912.86C1912.23 306.806 1911.72 307.325 1911.72 307.965C1911.72 308.604 1912.23 309.123 1912.86 309.123H1915.15ZM1906.21 302.386C1906.48 302.386 1907.35 301.868 1907.35 301.228V298.912H1909.64C1910.27 298.912 1910.78 298.393 1910.78 297.753C1910.78 297.114 1910.27 296.595 1909.64 296.595H1907.35V294.279C1907.35 293.639 1906.48 293.12 1906.21 293.12C1905.58 293.12 1904.61 293.639 1904.61 294.279V296.595H1902.78C1901.89 296.595 1901.64 297.114 1901.64 297.753C1901.64 298.393 1901.89 298.912 1902.78 298.912H1904.61V301.228C1904.61 301.867 1905.58 302.386 1906.21 302.386ZM1896.13 292.174C1896.76 292.174 1897.27 291.656 1897.27 291.016V288.7H1899.56C1900.19 288.7 1900.7 288.182 1900.7 287.542C1900.7 286.902 1900.19 286.384 1899.56 286.384H1897.27V284.067C1897.27 283.428 1896.76 282.909 1896.13 282.909C1895.5 282.909 1894.98 283.428 1894.98 284.067V286.384H1892.7C1892.06 286.384 1891.24 286.902 1891.24 287.542C1891.24 288.182 1892.06 288.7 1892.7 288.7H1894.98V291.016C1894.98 291.656 1895.5 292.174 1896.13 292.174ZM1886.04 281.475C1886.68 281.475 1887.19 281.444 1887.19 280.617V278.488H1889.48C1890.11 278.488 1890.62 277.97 1890.62 277.33C1890.62 276.69 1890.11 276.172 1889.48 276.172H1887.19V273.856C1887.19 273.216 1886.68 272.698 1886.04 272.698C1885.41 272.698 1884.9 273.216 1884.9 273.856V276.172H1882.61C1881.98 276.172 1881.47 276.69 1881.47 277.33C1881.47 277.97 1881.98 278.488 1882.61 278.488H1884.9V280.617C1884.9 281.444 1885.41 281.475 1886.04 281.475ZM1875.96 271.752C1876.59 271.752 1877.11 271.233 1877.11 270.593V267.933H1879.39C1880.02 267.933 1880.54 267.758 1880.54 266.647C1880.54 266.045 1880.02 265.96 1879.39 265.96H1877.11V263.644C1877.11 263.004 1876.59 262.486 1875.96 262.486C1875.33 262.486 1874.82 263.004 1874.82 263.644V265.96H1872.53C1871.9 265.96 1871.39 266.045 1871.39 266.647C1871.39 267.758 1871.9 267.933 1872.53 267.933H1874.82V270.593C1874.82 271.233 1875.33 271.752 1875.96 271.752ZM1865.88 261.54C1866.51 261.54 1867.02 261.022 1867.02 260.382V258.066H1869.31C1869.94 258.066 1870.45 257.145 1870.45 256.907C1870.45 256.268 1869.94 255.25 1869.31 255.25H1867.02V253.432C1867.02 252.504 1866.51 252.274 1865.88 252.274C1865.25 252.274 1864.74 252.504 1864.74 253.432V255.25H1862.45C1861.82 255.25 1861.3 256.268 1861.3 256.907C1861.3 257.145 1861.82 258.066 1862.45 258.066H1864.74V260.382C1864.74 261.022 1865.25 261.54 1865.88 261.54ZM1916.18 292.174C1916.92 292.174 1917.13 291.656 1917.13 291.016V288.7H1919.72C1919.85 288.7 1920.87 288.182 1920.87 287.542C1920.87 286.902 1919.85 286.384 1919.72 286.384H1917.13V284.067C1917.13 283.428 1916.92 282.909 1916.18 282.909C1915.26 282.909 1915.15 283.428 1915.15 284.067V286.384H1912.86C1912.23 286.384 1911.72 286.902 1911.72 287.542C1911.72 288.182 1912.23 288.7 1912.86 288.7H1915.15V291.016C1915.15 291.656 1915.26 292.174 1916.18 292.174ZM1906.21 281.475C1906.48 281.475 1907.35 281.444 1907.35 280.617V278.488H1909.64C1910.27 278.488 1910.78 277.97 1910.78 277.33C1910.78 276.69 1910.27 276.172 1909.64 276.172H1907.35V273.856C1907.35 273.216 1906.48 272.698 1906.21 272.698C1905.58 272.698 1904.61 273.216 1904.61 273.856V276.172H1902.78C1901.89 276.172 1901.64 276.69 1901.64 277.33C1901.64 277.97 1901.89 278.488 1902.78 278.488H1904.61V280.617C1904.61 281.444 1905.58 281.475 1906.21 281.475ZM1896.13 271.752C1896.76 271.752 1897.27 271.233 1897.27 270.593V267.933H1899.56C1900.19 267.933 1900.7 267.758 1900.7 266.647C1900.7 266.045 1900.19 265.96 1899.56 265.96H1897.27V263.644C1897.27 263.004 1896.76 262.486 1896.13 262.486C1895.5 262.486 1894.98 263.004 1894.98 263.644V265.96H1892.7C1892.06 265.96 1891.24 266.045 1891.24 266.647C1891.24 267.758 1892.06 267.933 1892.7 267.933H1894.98V270.593C1894.98 271.233 1895.5 271.752 1896.13 271.752ZM1886.04 261.54C1886.68 261.54 1887.19 261.022 1887.19 260.382V258.066H1889.48C1890.11 258.066 1890.62 257.145 1890.62 256.907C1890.62 256.268 1890.11 255.25 1889.48 255.25H1887.19V253.432C1887.19 252.504 1886.68 252.274 1886.04 252.274C1885.41 252.274 1884.9 252.504 1884.9 253.432V255.25L1882.61 255.256C1881.98 255.25 1881.47 256.268 1881.47 256.907C1881.47 257.145 1881.98 258.066 1882.61 258.066H1884.9V260.382C1884.9 261.022 1885.41 261.54 1886.04 261.54ZM1875.96 251.328C1876.59 251.328 1877.11 250.81 1877.11 250.17V247.854H1879.39C1880.02 247.854 1880.54 247.335 1880.54 246.696C1880.54 246.056 1880.02 245.538 1879.39 245.538H1877.11V243.221C1877.11 242.582 1876.59 241.709 1875.96 241.709C1875.33 241.709 1874.82 242.582 1874.82 243.221V245.538H1872.53C1871.9 245.538 1871.39 246.056 1871.39 246.696C1871.39 247.335 1871.9 247.854 1872.53 247.854H1874.82V250.17C1874.82 250.81 1875.33 251.328 1875.96 251.328ZM1916.18 271.752C1916.92 271.752 1917.13 271.233 1917.13 270.593V267.933H1919.72C1919.85 267.933 1920.87 267.758 1920.87 266.647C1920.87 266.045 1919.85 265.96 1919.72 265.96H1917.13V263.644C1917.13 263.004 1916.92 262.486 1916.18 262.486C1915.26 262.486 1915.15 263.004 1915.15 263.644V265.96H1912.86C1912.23 265.96 1911.72 266.045 1911.72 266.647C1911.72 267.758 1912.23 267.933 1912.86 267.933H1915.15V270.593C1915.15 271.233 1915.26 271.752 1916.18 271.752ZM1906.21 261.54C1906.48 261.54 1907.35 261.022 1907.35 260.382V258.066H1909.64C1910.27 258.066 1910.78 257.145 1910.78 256.907C1910.78 256.268 1910.27 255.25 1909.64 255.25H1907.35V253.432C1907.35 252.504 1906.48 252.274 1906.21 252.274C1905.58 252.274 1904.61 252.504 1904.61 253.432V255.25H1902.78C1901.89 255.25 1901.64 256.268 1901.64 256.907C1901.64 257.145 1901.89 258.066 1902.78 258.066H1904.61V260.382C1904.61 261.022 1905.58 261.54 1906.21 261.54ZM1896.13 251.328C1896.76 251.328 1897.27 250.81 1897.27 250.17V247.854H1899.56C1900.19 247.854 1900.7 247.336 1900.7 246.696C1900.7 246.056 1900.19 245.538 1899.56 245.538H1897.27V243.221C1897.27 242.582 1896.76 241.709 1896.13 241.709C1895.5 241.709 1894.98 242.582 1894.98 243.221V245.538H1892.7C1892.06 245.538 1891.24 246.056 1891.24 246.696C1891.24 247.336 1892.06 247.854 1892.7 247.854H1894.98V250.17C1894.98 250.81 1895.5 251.328 1896.13 251.328ZM1886.04 241.117C1886.68 241.117 1887.19 240.598 1887.19 239.959V237.642H1889.48C1890.11 237.642 1890.62 237.124 1890.62 236.484C1890.62 235.844 1890.11 235.326 1889.48 235.326H1887.19V233.01C1887.19 232.37 1886.68 231.852 1886.04 231.852C1885.41 231.852 1884.9 232.37 1884.9 233.01V235.326H1882.61C1881.98 235.326 1881.47 235.844 1881.47 236.484C1881.47 237.124 1881.98 237.642 1882.61 237.642H1884.9V239.959C1884.9 240.598 1885.41 241.117 1886.04 241.117ZM1916.18 251.328C1916.92 251.328 1917.13 250.81 1917.13 250.17V247.854H1919.72C1919.85 247.854 1920.87 247.336 1920.87 246.696C1920.87 246.056 1919.85 245.538 1919.72 245.538H1917.13V243.221C1917.13 242.582 1916.92 241.709 1916.18 241.709C1915.26 241.709 1915.15 242.582 1915.15 243.221V245.538H1912.86C1912.23 245.538 1911.72 246.056 1911.72 246.696C1911.72 247.336 1912.23 247.854 1912.86 247.854H1915.15V250.17C1915.15 250.81 1915.26 251.328 1916.18 251.328ZM1906.21 241.117C1906.48 241.117 1907.35 240.598 1907.35 239.959V237.642H1909.64C1910.27 237.642 1910.78 237.124 1910.78 236.484C1910.78 235.844 1910.27 235.326 1909.64 235.326H1907.35V233.01C1907.35 232.37 1906.48 231.852 1906.21 231.852C1905.58 231.852 1904.61 232.37 1904.61 233.01V235.326H1902.78C1901.89 235.326 1901.64 235.844 1901.64 236.484C1901.64 237.124 1901.89 237.642 1902.78 237.642H1904.61V239.959C1904.61 240.598 1905.58 241.117 1906.21 241.117ZM1896.13 230.906C1896.76 230.906 1897.27 230.387 1897.27 229.747V227.431H1899.56C1900.19 227.431 1900.7 226.912 1900.7 226.272C1900.7 225.633 1900.19 225.114 1899.56 225.114H1897.27V222.798C1897.27 222.158 1896.76 221.64 1896.13 221.64C1895.5 221.64 1894.98 222.158 1894.98 222.798V225.114H1892.7C1892.06 225.114 1891.24 225.633 1891.24 226.272C1891.24 226.912 1892.06 227.431 1892.7 227.431H1894.98V229.747C1894.98 230.387 1895.5 230.906 1896.13 230.906ZM1916.18 230.906C1916.92 230.906 1917.13 230.387 1917.13 229.747V227.431H1919.72C1919.85 227.431 1920.87 226.912 1920.87 226.272C1920.87 225.633 1919.85 225.114 1919.72 225.114H1917.13V222.798C1917.13 222.158 1916.92 221.64 1916.18 221.64C1915.26 221.64 1915.15 222.158 1915.15 222.798V225.114H1912.86C1912.23 225.114 1911.72 225.633 1911.72 226.272C1911.72 226.912 1912.23 227.431 1912.86 227.431H1915.15V229.747C1915.15 230.387 1915.26 230.906 1916.18 230.906ZM1906.21 220.694C1906.48 220.694 1907.35 220.176 1907.35 219.536V217.22H1909.64C1910.27 217.22 1910.78 216.701 1910.78 216.061C1910.78 215.422 1910.27 214.903 1909.64 214.903H1907.35V212.586C1907.35 211.947 1906.48 211.428 1906.21 211.428C1905.58 211.428 1904.61 211.947 1904.61 212.586V214.903H1902.78C1901.89 214.903 1901.64 215.422 1901.64 216.061C1901.64 216.701 1901.89 217.22 1902.78 217.22H1904.61V219.536C1904.61 220.176 1905.58 220.694 1906.21 220.694ZM1916.18 210.075C1916.92 210.075 1917.13 209.964 1917.13 209.217V207.008H1919.72C1919.85 207.008 1920.87 206.49 1920.87 205.85C1920.87 205.21 1919.85 204.692 1919.72 204.692H1917.13V202.375C1917.13 201.736 1916.92 201.217 1916.18 201.217C1915.26 201.217 1915.15 201.736 1915.15 202.375V204.692H1912.86C1912.23 204.692 1911.72 205.21 1911.72 205.85C1911.72 206.489 1912.23 207.008 1912.86 207.008H1915.15V209.217C1915.15 209.964 1915.26 210.075 1916.18 210.075Z" fill="white" fill-opacity="0.1"/>
</g>
<path d="M1562.07 195.171L1557.89 201.583L1553.72 207.994L1550.26 201.175L1546.79 194.355L1554.43 194.763L1562.07 195.171Z" fill="white" fill-opacity="0.1"/>
<path d="M1566.15 202.792L1558.32 187.375L1575.59 188.296L1566.15 202.792ZM1560.25 188.632L1566.28 200.491L1573.53 189.341L1560.25 188.632Z" fill="white" fill-opacity="0.1"/>
<path d="M1587.57 182.202L1583.4 188.614L1579.23 195.026L1575.76 188.206L1572.29 181.387L1579.93 181.794L1587.57 182.202Z" fill="white" fill-opacity="0.1"/>
<path d="M1591.66 189.824L1583.82 174.406L1601.09 175.327L1591.66 189.824ZM1585.76 175.662L1591.78 187.522L1599.04 176.371L1585.76 175.662Z" fill="white" fill-opacity="0.1"/>
<path d="M1613.08 169.237L1608.91 175.649L1604.73 182.061L1601.27 175.241L1597.8 168.422L1605.44 168.829L1613.08 169.237Z" fill="white" fill-opacity="0.1"/>
<path d="M1617.17 176.859L1609.33 161.441L1626.6 162.363L1617.17 176.859ZM1611.26 162.698L1617.29 174.558L1624.55 163.407L1611.26 162.698Z" fill="white" fill-opacity="0.1"/>
<g clip-path="url(#clip2_186_359)">
<path fill-rule="evenodd" clip-rule="evenodd" d="M6.14825 263.844C10.0788 266.979 14.3656 269.579 18.8905 271.618L34.9539 276.312C39.8662 277.36 44.8804 277.15 49.884 276.627L6.14825 263.844ZM74.5056 268.397L-9.99878 243.661C-9.7819 244.724 -9.40976 245.085 -9.02393 245.79C-8.51939 246.71 -7.99353 247.613 -7.44713 248.497L69.6268 271.022C71.0103 270.572 71.4959 270.095 72.4182 269.591C73.1244 269.206 73.8207 268.808 74.5056 268.397ZM88.4001 256.938L-15.6424 226.531C-14.8388 227.97 -15.1302 229.402 -14.787 230.83L85.3568 260.097C86.4169 259.079 87.4306 258.19 88.4001 256.938ZM97.3868 244.076L-16.08 211.511C-16.0031 212.297 -16.3083 213.62 -16.3555 214.944L95.2644 247.568C95.9394 246.424 96.5763 245.26 97.3868 244.076ZM68.9252 162.743L51.6633 157.698C46.875 157.519 41.9894 157.215 37.1189 157.499L81.2839 170.406C77.4652 167.337 73.3078 164.773 68.9252 162.743ZM96.2674 188.31C95.5574 187.015 94.8062 185.758 94.0171 184.537L18.7566 162.544C17.4317 163.148 16.1205 163.802 14.8245 164.509C14.4577 164.71 14.0916 164.913 13.7294 165.124L96.8572 189.418C96.6669 189.046 96.4683 188.677 96.2674 188.31ZM101.495 201.183L3.46266 172.536C2.34398 173.534 1.35543 174.57 0.247405 175.645L102.927 205.535C102.24 204.078 101.897 203.18 101.495 201.183ZM103.635 216.57L-6.49283 184.087C-7.23329 185.211 -7.93417 186.359 -8.29413 187.521L103.55 220.296C103.624 218.957 103.651 217.615 103.635 216.57ZM102.182 230.114L-12.7498 196.868C-13.1958 197.743 -13.5999 198.975 -13.9644 200.22L101.208 233.879C101.573 232.634 101.9 231.38 102.182 230.114Z" fill="white" fill-opacity="0.1"/>
</g>
</g>
<defs>
<clipPath id="clip0_186_359">
<rect width="1920" height="410" fill="white"/>
</clipPath>
<clipPath id="clip1_186_359">
<rect width="60" height="112" fill="white" transform="matrix(-1 0 0 -1 1921 312.996)"/>
</clipPath>
<clipPath id="clip2_186_359">
<rect width="121" height="120" fill="white" transform="translate(-17 156.996)"/>
</clipPath>
</defs>
</svg>
