<svg id="Layer_1" enable-background="new 0 0 512 512" viewBox="0 0 512 512" xmlns="http://www.w3.org/2000/svg"><path d="m289.759 147.843c4.91-4.91 7.311-11.171 6.943-18.104l-1.903-35.974c4.816-.098 9.686-.391 14.53-.893 36.874-3.82 73.005-19.254 70.715-41.359-2.291-22.105-40.817-29.802-77.693-25.981-6.102.632-12.083 1.561-17.853 2.77-.984-1.31-2.078-2.591-3.314-3.827-9.312-9.312-21.053-11.062-30.242-11.549l-75.022-3.968c-6.933-.386-13.193 2.033-18.103 6.942l-142.853 142.855c-9.287 9.288-9.287 24.4 0 33.688l98.254 98.254c4.491 4.49 10.473 6.964 16.844 6.964s12.353-2.474 16.844-6.964zm14.242-106.398c16.734-1.733 32.605-.869 44.688 2.437 11.787 3.224 15.254 7.479 15.44 9.279s-2.334 6.677-13.21 12.249c-11.149 5.713-26.505 9.813-43.24 11.548-4.665.483-9.258.757-13.725.839l-1.221-23.082c-.187-3.524-.565-7.424-1.479-11.418 4.154-.769 8.406-1.402 12.747-1.852zm-173.939 240.215c-2.098 0-4.062-.81-5.531-2.278l-98.254-98.254c-3.049-3.049-3.049-8.011 0-11.06l142.854-142.853c1.557-1.558 3.292-2.294 5.426-2.294.17 0 .342.005.517.015l75.024 3.968c9.665.51 15.394 2.505 19.773 6.884 4.378 4.379 6.373 10.107 6.885 19.774l1.144 21.625c-5.184-.525-10.016-1.373-14.376-2.53.967-2.685 1.497-5.577 1.497-8.591 0-14.021-11.407-25.428-25.427-25.428-6.792 0-13.177 2.645-17.98 7.447-4.803 4.804-7.448 11.188-7.447 17.98 0 14.021 11.407 25.427 25.427 25.427 4.714 0 9.129-1.294 12.918-3.539 7.498 2.786 16.519 4.545 26.24 5.346l1.972 37.287c.126 2.373-.599 4.262-2.279 5.942l-142.852 142.854c-1.469 1.469-3.433 2.278-5.531 2.278zm118.959-215.595c0 .52-.053 1.026-.134 1.522-.882-.955-1.276-1.775-1.335-2.347-.066-.635.17-1.519.819-2.592.414 1.062.65 2.212.65 3.417zm-17.385.825c.232 2.243.845 4.334 1.784 6.283-1.989-1.729-3.254-4.271-3.254-7.107 0-2.123.704-4.133 1.989-5.78-.633 2.46-.716 4.703-.519 6.604zm-45.17 63.618-1.432 1.432c3.853 6.648 5.261 15.062 1.625 23.963-1.671 4.09-6.341 6.055-10.432 4.38-4.09-1.671-6.051-6.341-4.38-10.431 2.937-7.188-2.05-12.743-5.46-14.892-1.53-.966-6.805-3.799-10.45.218-.984 1.085-3.6 3.967 3.125 13.335 9.682 13.484 10.831 25.121 3.416 34.586-3.745 4.779-8.805 7.529-14.633 7.951-.503.036-1.012.055-1.523.055-5.073 0-10.506-1.775-15.47-4.983l-1.282 1.282c-3.124 3.123-8.189 3.123-11.313 0-3.124-3.125-3.124-8.189 0-11.314l1.379-1.379c-5.371-8.874-5.792-19.297-.647-27.861 2.275-3.786 7.189-5.015 10.978-2.737 3.787 2.275 5.013 7.19 2.737 10.978-3.269 5.44-.063 11.531 3.675 15.096 3.246 3.094 7.488 5.115 10.31 4.907.91-.066 2.001-.339 3.194-1.86 1.129-1.441 3.772-4.815-3.818-15.388-12.414-17.292-6.566-28.36-1.977-33.418 7.445-8.206 19.182-9.638 29.58-3.749l1.483-1.483c3.124-3.123 8.189-3.123 11.313 0 3.126 3.122 3.126 8.187.002 11.312zm-34.105-48.786c-39.467 0-71.576 32.109-71.576 71.577 0 39.467 32.109 71.576 71.576 71.576s71.577-32.109 71.577-71.576c0-39.468-32.109-71.577-71.577-71.577zm0 127.153c-30.645 0-55.576-24.932-55.576-55.576 0-30.646 24.931-55.577 55.576-55.577s55.577 24.932 55.577 55.577c0 30.644-24.932 55.576-55.577 55.576zm144.364 106.931h-53.66c-4.418 0-8 3.582-8 8v171.272c0 4.418 3.582 8 8 8h53.66c4.418 0 8-3.582 8-8v-171.272c0-4.418-3.581-8-8-8zm-8 171.272h-37.66v-155.272h37.66zm107.638-148.907h-53.66c-4.418 0-8 3.582-8 8v148.908c0 4.418 3.582 8 8 8h53.66c4.418 0 8-3.582 8-8v-148.908c0-4.418-3.581-8-8-8zm-8 148.908h-37.66v-132.908h37.66zm107.637-241.662h-53.66c-4.418 0-8 3.582-8 8v241.661c0 4.418 3.582 8 8 8h53.66c4.418 0 8-3.582 8-8v-241.661c0-4.418-3.582-8-8-8zm-8 241.661h-37.66v-225.661h37.66zm-290.913-104.836h-53.66c-4.418 0-8 3.582-8 8v104.836c0 4.418 3.582 8 8 8h53.66c4.418 0 8-3.582 8-8v-104.836c0-4.418-3.581-8-8-8zm-8 104.836h-37.66v-88.836h37.66zm239.679-313.146c-.386-4.401 2.869-8.282 7.271-8.669l32.435-2.845c2.386-.21 4.747.664 6.423 2.381 1.676 1.716 2.493 4.094 2.226 6.478l-3.618 32.357c-.457 4.089-3.92 7.112-7.94 7.112-.297 0-.597-.017-.898-.051-4.391-.49-7.553-4.448-7.062-8.839l1.108-9.909-83.785 84.5c-2.126 2.145-5.278 2.907-8.149 1.977l-95.315-30.924-96.29 74.978c-1.46 1.137-3.191 1.688-4.91 1.688-2.382 0-4.74-1.06-6.317-3.085-2.714-3.486-2.089-8.513 1.397-11.228l99.638-77.584c2.094-1.631 4.86-2.116 7.384-1.297l94.666 30.715 80.698-81.387-10.294.903c-4.403.38-8.282-2.87-8.668-7.271z"/></svg>