<?xml version="1.0" encoding="UTF-8"?>
<!DOCTYPE svg PUBLIC "-//W3C//DTD SVG 1.1//EN" "http://www.w3.org/Graphics/SVG/1.1/DTD/svg11.dtd">
<!-- Creator: CorelDRAW -->
<svg xmlns="http://www.w3.org/2000/svg" xml:space="preserve" width="660px" height="660px" version="1.1" style="shape-rendering:geometricPrecision; text-rendering:geometricPrecision; image-rendering:optimizeQuality; fill-rule:evenodd; clip-rule:evenodd"
viewBox="0 0 307.1 307.1"
 xmlns:xlink="http://www.w3.org/1999/xlink"
 xmlns:xodm="http://www.corel.com/coreldraw/odm/2003">
 <defs>
  <style type="text/css">
   <![CDATA[
    .fil0 {fill:black;fill-rule:nonzero}
   ]]>
  </style>
 </defs>
 <g id="Layer_x0020_1">
  <metadata id="CorelCorpID_0Corel-Layer"/>
  <path class="fil0" d="M99.06 183.27c0,-19.12 -15.55,-34.67 -34.67,-34.67 -19.12,0 -34.67,15.55 -34.67,34.67 0,19.11 15.55,34.67 34.67,34.67 19.12,0 34.67,-15.56 34.67,-34.67zm-34.67 24.76c-13.65,0 -24.76,-11.11 -24.76,-24.76 0,-13.66 11.11,-24.77 24.76,-24.77 13.66,0 24.77,11.11 24.77,24.77 0,13.65 -11.11,24.76 -24.77,24.76z"/>
  <path class="fil0" d="M64.39 168.41c-8.19,0 -14.86,6.67 -14.86,14.86 0,8.19 6.67,14.86 14.86,14.86 8.19,0 14.86,-6.67 14.86,-14.86 0,-8.19 -6.67,-14.86 -14.86,-14.86zm0 19.81c-2.73,0 -4.95,-2.22 -4.95,-4.95 0,-2.74 2.22,-4.95 4.95,-4.95 2.73,0 4.95,2.21 4.95,4.95 0,2.73 -2.22,4.95 -4.95,4.95z"/>
  <path class="fil0" d="M267.47 193.17l-29.72 0 0 84.21 -9.9 0 0 -39.63 -29.72 0 0 39.63 -9.91 0 0 -19.81 -29.72 0 0 19.81 -9.9 0 0 9.91 128.78 -0.01 0 -9.9 -9.91 0 0 -84.21zm-19.81 9.91l9.91 0 0 74.3 -9.91 0 0 -74.3zm-39.63 44.58l9.91 0 0 29.72 -9.91 0 0 -29.72zm-39.62 19.81l9.9 0 0 9.91 -9.9 0 0 -9.91z"/>
  <polygon class="fil0" points="79.25,257.57 99.06,257.57 99.06,267.47 79.25,267.47 "/>
  <polygon class="fil0" points="108.97,257.57 138.69,257.57 138.69,267.47 108.97,267.47 "/>
  <polygon class="fil0" points="79.25,277.38 138.69,277.38 138.69,287.29 79.25,287.28 "/>
  <polygon class="fil0" points="128.78,29.72 148.6,29.72 148.6,39.63 128.78,39.63 "/>
  <polygon class="fil0" points="158.5,29.72 188.22,29.72 188.22,39.63 158.5,39.63 "/>
  <polygon class="fil0" points="128.78,49.53 188.22,49.53 188.22,59.44 128.78,59.44 "/>
  <polygon class="fil0" points="79.25,69.34 148.6,69.34 148.6,79.25 79.25,79.25 "/>
  <polygon class="fil0" points="158.5,69.34 188.22,69.34 188.22,79.25 158.5,79.25 "/>
  <polygon class="fil0" points="178.31,99.06 188.22,99.06 188.22,108.97 178.31,108.97 "/>
  <polygon class="fil0" points="158.5,99.06 168.41,99.06 168.41,108.97 158.5,108.97 "/>
  <polygon class="fil0" points="138.69,99.06 148.6,99.06 148.6,108.97 138.69,108.97 "/>
  <path class="fil0" d="M307.1 54.49c0,-30.05 -24.45,-54.49 -54.49,-54.49 -11.62,0 -22.37,3.69 -31.23,9.91l-109.2 0 -52.74 42.2 0 66.77 -4.95 0 -4.96 0.16 0 4.95c0,3.92 -2.34,7.42 -5.96,8.92 -3.65,1.53 -7.83,0.7 -10.71,-2.18l-3.5 -3.5 -17.51 17.51 -3.41 3.6 3.51 3.5c2.79,2.79 3.61,6.94 2.1,10.58 -1.51,3.64 -5.03,5.99 -9.1,5.99l-4.95 0 0 24.76 0.13 4.96 4.96 0c3.93,0 7.45,2.35 8.96,5.99 1.51,3.63 0.69,7.79 -2.24,10.71l-3.41 3.51 17.46 17.46 3.6 3.41 3.5 -3.5c2.79,-2.79 6.94,-3.61 10.59,-2.1 3.63,1.51 5.98,5.03 5.98,9.1l0 4.95 9.91 0 0 59.44 237.75 0 0 -221.39c6.22,-8.85 9.91,-19.6 9.91,-31.22l0 0zm-9.91 0c0,24.58 -20,44.57 -44.58,44.57 -24.58,0 -44.58,-19.99 -44.58,-44.57 0,-24.59 20,-44.58 44.58,-44.58 24.58,0 44.58,19.99 44.58,44.58zm-188.22 -29.33l0 24.37 -30.46 0 30.46 -24.37zm-61.62 199.3c-5.82,-2.42 -12.29,-1.88 -17.56,1.26l-7.85 -7.85c3.14,-5.24 3.68,-11.72 1.26,-17.56 -2.41,-5.79 -7.34,-9.97 -13.29,-11.47l0 -11.12c5.91,-1.49 10.87,-5.68 13.29,-11.5 2.42,-5.82 1.88,-12.28 -1.26,-17.55l7.85 -7.86c5.26,3.14 11.75,3.67 17.59,1.26 5.78,-2.4 9.95,-7.33 11.45,-13.29l11.11 0c1.49,5.92 5.68,10.88 11.5,13.3 5.81,2.4 12.27,1.88 17.55,-1.27l7.86 7.85c-3.14,5.25 -3.68,11.73 -1.26,17.56 2.4,5.8 7.34,9.98 13.29,11.48l0 11.12c-5.91,1.49 -10.88,5.67 -13.29,11.49 -2.42,5.82 -1.88,12.29 1.26,17.56l-7.85 7.85c-5.25,-3.14 -11.71,-3.68 -17.54,-1.27 -5.81,2.41 -9.99,7.35 -11.5,13.3l-11.12 0c-1.49,-5.91 -5.68,-10.87 -11.49,-13.29l0 0zm21.99 72.73l0 -49.53 4.96 0 4.95 -0.12 0 -4.95c0,-3.95 2.35,-7.47 6,-8.98 3.63,-1.52 7.78,-0.7 10.66,2.19l3.51 3.5 17.51 -17.51 3.41 -3.6 -3.5 -3.5c-2.79,-2.79 -3.62,-6.94 -2.1,-10.58 1.5,-3.63 5.02,-5.98 8.96,-5.98l5.08 0 0 -24.77 -0.13 -4.95 -4.95 0c-3.94,0 -7.46,-2.35 -8.97,-5.99 -1.51,-3.64 -0.68,-7.79 2.24,-10.72l3.41 -3.5 -17.47 -17.47 -3.59 -3.4 -3.51 3.5c-2.78,2.79 -6.93,3.61 -10.58,2.1 -3.63,-1.51 -5.98,-5.03 -5.98,-9.1l0 -4.95 -9.91 0 0 -59.44 49.54 0 0 -39.63 91.73 0c-7.79,9.43 -12.48,21.51 -12.48,34.68 0,29.38 23.4,53.34 52.53,54.38l-21.36 21.36 7 7.01 10.72 -10.72c-6.33,62.38 -59.16,111.23 -123.19,111.23l-4.95 0 0 9.91 4.95 0c69.88,0 127.39,-53.9 133.22,-122.3l11.87 11.88 7.01 -7.01 -21.37 -21.36c12.4,-0.44 23.77,-4.98 32.72,-12.39l0 200.71 -217.94 0z"/>
  <path class="fil0" d="M254.63 22.65l0 3.71c2.45,0.26 4.56,0.76 6.3,1.51 1.76,0.76 3.28,1.9 4.59,3.43 1.03,1.17 1.83,2.38 2.39,3.61 0.56,1.24 0.84,2.36 0.84,3.39 0,1.15 -0.42,2.15 -1.25,2.98 -0.84,0.83 -1.85,1.25 -3.04,1.25 -2.25,0 -3.72,-1.22 -4.37,-3.64 -0.76,-2.86 -2.58,-4.77 -5.46,-5.7l0 14.27c2.84,0.77 5.11,1.49 6.78,2.13 1.69,0.63 3.2,1.56 4.52,2.78 1.42,1.25 2.52,2.76 3.29,4.5 0.76,1.76 1.15,3.67 1.15,5.75 0,2.61 -0.61,5.05 -1.84,7.32 -1.23,2.28 -3.03,4.13 -5.41,5.58 -2.39,1.44 -5.21,2.3 -8.49,2.57l0 8.54c0,1.35 -0.13,2.33 -0.39,2.95 -0.26,0.63 -0.84,0.93 -1.74,0.93 -0.82,0 -1.39,-0.25 -1.73,-0.75 -0.33,-0.5 -0.49,-1.29 -0.49,-2.34l0 -9.26c-2.67,-0.29 -5.01,-0.93 -7.02,-1.89 -2,-0.96 -3.67,-2.15 -5.01,-3.58 -1.33,-1.44 -2.33,-2.93 -2.96,-4.46 -0.64,-1.55 -0.96,-3.07 -0.96,-4.55 0,-1.09 0.42,-2.09 1.29,-2.97 0.85,-0.87 1.92,-1.32 3.2,-1.32 1.03,0 1.89,0.23 2.61,0.71 0.7,0.48 1.19,1.16 1.47,2.03 0.61,1.87 1.15,3.31 1.61,4.31 0.46,0.99 1.15,1.91 2.08,2.73 0.92,0.82 2.15,1.45 3.69,1.88l0 -15.95c-3.07,-0.85 -5.62,-1.79 -7.68,-2.83 -2.06,-1.04 -3.74,-2.52 -5.01,-4.44 -1.28,-1.92 -1.92,-4.39 -1.92,-7.41 0,-3.93 1.25,-7.16 3.75,-9.67 2.51,-2.51 6.13,-3.98 10.86,-4.39l0 -3.64c0,-1.92 0.72,-2.88 2.16,-2.88 1.47,0 2.19,0.94 2.19,2.81zm-4.35 23.53l0 -13.13c-1.92,0.57 -3.42,1.32 -4.5,2.26 -1.08,0.93 -1.61,2.36 -1.61,4.26 0,1.8 0.5,3.17 1.51,4.1 1,0.92 2.54,1.76 4.6,2.51zm4.35 10.19l0 15.03c2.31,-0.45 4.09,-1.38 5.35,-2.77 1.26,-1.41 1.89,-3.02 1.89,-4.88 0,-1.99 -0.61,-3.53 -1.84,-4.62 -1.22,-1.09 -3.02,-2.01 -5.4,-2.76z"/>
 </g>
</svg>
