<svg id="Layer_1" viewBox="0 0 512 512" xmlns="http://www.w3.org/2000/svg" data-name="Layer 1"><path d="m114.323 269.946h22.9a7 7 0 0 0 7-7v-22.933a7 7 0 0 0 -7-7h-22.9a7 7 0 0 0 -7 7v22.931a7 7 0 0 0 7 7.002zm7-22.931h8.9v8.927h-8.9zm-7 68.967h22.9a7 7 0 0 0 7-7v-22.935a7 7 0 0 0 -7-7h-22.9a7 7 0 0 0 -7 7v22.933a7 7 0 0 0 7 7.002zm7-22.933h8.9v8.929h-8.9zm-7-69.137h22.9a7 7 0 0 0 7-7v-22.935a7 7 0 0 0 -7-7h-22.9a7 7 0 0 0 -7 7v22.933a7 7 0 0 0 7 7.002zm7-22.933h8.9v8.929h-8.9zm253.449 68.967h22.9a7 7 0 0 0 7-7v-22.933a7 7 0 0 0 -7-7h-22.9a7 7 0 0 0 -7 7v22.931a7 7 0 0 0 7.001 7.002zm7-22.931h8.9v8.927h-8.9zm-7 68.967h22.9a7 7 0 0 0 7-7v-22.935a7 7 0 0 0 -7-7h-22.9a7 7 0 0 0 -7 7v22.933a7 7 0 0 0 7.001 7.002zm7-22.933h8.9v8.929h-8.9zm-7-69.137h22.9a7 7 0 0 0 7-7v-22.935a7 7 0 0 0 -7-7h-22.9a7 7 0 0 0 -7 7v22.933a7 7 0 0 0 7.001 7.002zm7-22.933h8.9v8.929h-8.9zm52.158-58.764h-75.882v-23.584a7 7 0 0 0 -3.5-6.063l-91.548-52.859v-20.562h44.249a7 7 0 0 0 7-7v-25.147a7 7 0 0 0 -7-7h-51.249a7 7 0 0 0 -7 7v52.709l-91.547 52.859a7 7 0 0 0 -3.5 6.063v23.584h-75.886a18.3 18.3 0 1 0 0 36.6h5.533v198.37a7 7 0 0 0 7 7h23.245a43.386 43.386 0 0 0 25.215 18.51h-8.547c-21.744 0-39.4 17.277-42.931 42l-4.591 31.833a19.387 19.387 0 0 0 4.258 15.534 17.969 17.969 0 0 0 13.84 6.132h83.147a19.155 19.155 0 0 0 3.923 7.355 18.9 18.9 0 0 0 14.549 6.451h106.584a18.9 18.9 0 0 0 14.553-6.45 19.148 19.148 0 0 0 3.923-7.355h83.175a17.935 17.935 0 0 0 13.81-6.124 19.4 19.4 0 0 0 4.261-15.534l-4.564-31.837c-3.569-24.729-21.234-42-42.959-42h-8.547a43.386 43.386 0 0 0 25.215-18.51h23.241a7 7 0 0 0 7-7v-198.378h5.528a18.3 18.3 0 1 0 0-36.6zm-170.93-128.215h37.247v11.143h-37.247zm-95.045 108.673 88.045-50.836 88.045 50.836v19.542h-176.09zm-70.355 247.507v-191.368h56.354v139.037c-1.216-.1-2.443-.168-3.685-.168a43.265 43.265 0 0 0 -42.232 52.5zm220.879-9.24a43.224 43.224 0 0 0 1 9.24h-17.649a46.248 46.248 0 1 0 -91.631 0h-17.673a43.247 43.247 0 0 0 -24.571-48.7v-142.668h176.09v142.667a43.307 43.307 0 0 0 -25.568 39.461zm-11.058 61.016a42.2 42.2 0 0 0 -29.989-12.2h-15.232a46.372 46.372 0 0 0 35.387-25.568h27.7a43.409 43.409 0 0 0 25.23 18.51h-8.567c-14.094-.004-26.513 7.058-34.531 19.258zm-102.83-.007c-7.982-12.2-20.375-19.255-34.537-19.255h-8.567a43.409 43.409 0 0 0 25.23-18.51h27.727a46.346 46.346 0 0 0 35.366 25.568h-15.24a42.192 42.192 0 0 0 -29.981 12.197zm51.409-25.775a32.245 32.245 0 1 1 32.259-32.229 32.267 32.267 0 0 1 -32.259 32.229zm-134.959-35.234a29.24 29.24 0 1 1 29.226 29.225 29.273 29.273 0 0 1 -29.226-29.225zm-23.21 121.96a5.468 5.468 0 0 1 -.985-4.367l4.593-31.843c2.133-14.927 11.949-29.989 29.07-29.989h39.543c10.973 0 20.119 6.35 25.348 17.479a61.428 61.428 0 0 0 -6.736 20.552l-4.264 29.459h-83.315a4.087 4.087 0 0 1 -3.254-1.291zm215.428 13.486a4.984 4.984 0 0 1 -3.967 1.614h-106.584a4.984 4.984 0 0 1 -3.967-1.613 6.437 6.437 0 0 1 -1.207-5.152l4.99-34.5c2.362-16.412 13.188-32.973 32.046-32.973h42.86c18.858 0 29.684 16.561 32.047 32.977l4.989 34.5a6.44 6.44 0 0 1 -1.207 5.144zm68.232-79.686c17.111 0 26.945 15.067 29.1 29.992l4.565 31.841a5.483 5.483 0 0 1 -.987 4.374 4.053 4.053 0 0 1 -3.224 1.286h-83.345l-4.26-29.458a61.459 61.459 0 0 0 -6.739-20.561c5.274-11.116 14.441-17.474 25.35-17.474zm-19.758-26.533a29.24 29.24 0 1 1 29.226-29.225 29.273 29.273 0 0 1 -29.226 29.223zm52.667-19.987h-10.435a43.265 43.265 0 0 0 -42.232-52.5c-1.242 0-2.469.065-3.685.168v-139.036h56.352zm19.531-205.372h-355.864a4.294 4.294 0 1 1 0-8.588h355.866a4.294 4.294 0 1 1 0 8.588zm-166.479 22.167h-22.9a7 7 0 0 0 -7 7v22.935a7 7 0 0 0 7 7h22.9a7 7 0 0 0 7-7v-22.933a7 7 0 0 0 -7-7.002zm-7 22.933h-8.9v-8.929h8.9zm-45.836-22.933h-22.935a7 7 0 0 0 -7 7v22.935a7 7 0 0 0 7 7h22.933a7 7 0 0 0 7-7v-22.933a7 7 0 0 0 -7-7.002zm-7 22.933h-8.929v-8.929h8.929zm112.707-22.933h-22.937a7 7 0 0 0 -7 7v22.935a7 7 0 0 0 7 7h22.933a7 7 0 0 0 7-7v-22.933a7 7 0 0 0 -7-7.002zm-7 22.933h-8.929v-8.929h8.929zm-98.7 23.1h-22.942a7 7 0 0 0 -7 7v22.931a7 7 0 0 0 7 7h22.933a7 7 0 0 0 7-7v-22.926a7 7 0 0 0 -7-7.003zm-7 22.932h-8.929v-8.927h8.929zm59.84-22.932h-22.9a7 7 0 0 0 -7 7v22.931a7 7 0 0 0 7 7h22.9a7 7 0 0 0 7-7v-22.926a7 7 0 0 0 -7.011-7.003zm-7 22.932h-8.9v-8.927h8.9zm59.869-22.932h-22.946a7 7 0 0 0 -7 7v22.931a7 7 0 0 0 7 7h22.933a7 7 0 0 0 7-7v-22.926a7 7 0 0 0 -7-7.003zm-7 22.932h-8.929v-8.927h8.929zm-57.332-167.81a22.593 22.593 0 1 0 22.592 22.592 22.618 22.618 0 0 0 -22.592-22.592zm0 31.181a8.589 8.589 0 1 1 8.589-8.589 8.6 8.6 0 0 1 -8.589 8.589zm11.452 159.734h-22.9a7 7 0 0 0 -7 7v22.935a7 7 0 0 0 7 7h22.9a7 7 0 0 0 7-7v-22.933a7 7 0 0 0 -7-7.002zm-7 22.933h-8.9v-8.929h8.9zm59.869-22.933h-22.935a7 7 0 0 0 -7 7v22.935a7 7 0 0 0 7 7h22.933a7 7 0 0 0 7-7v-22.933a7 7 0 0 0 -7-7.002zm-7 22.933h-8.929v-8.929h8.929zm-98.7-22.933h-22.94a7 7 0 0 0 -7 7v22.935a7 7 0 0 0 7 7h22.933a7 7 0 0 0 7-7v-22.933a7 7 0 0 0 -7-7.002zm-7 22.933h-8.929v-8.929h8.929z"/></svg>