<svg id="Layer_1" viewBox="0 0 512 512" xmlns="http://www.w3.org/2000/svg" data-name="Layer 1"><path d="m293.97 118.205c1.019.707 2.215 1.071 3.423 1.071.705 0 1.415-.125 2.095-.378l24.296-9.058c2.348-.875 3.904-3.117 3.904-5.622v-42.831c0-2.018-1.014-3.899-2.698-5.01-1.686-1.11-3.816-1.301-5.667-.504l-24.303 10.427c-2.206.946-3.635 3.115-3.635 5.515l.007 41.463c0 1.966.964 3.807 2.578 4.928zm21.718-47.715v29.562l-12.297 4.585-.005-28.869 12.302-5.277zm9.495 55.124c-1.57-1.125-3.587-1.429-5.422-.805l-24.296 8.239c-2.436.825-4.073 3.11-4.073 5.682v44.271c0 1.878.879 3.647 2.375 4.781 1.056.8 2.331 1.219 3.625 1.219.542 0 1.087-.073 1.62-.223l24.296-6.815c2.59-.727 4.38-3.088 4.38-5.777v-45.695c0-1.935-.933-3.75-2.505-4.877zm-9.495 46.023-12.296 3.449v-32.056l12.296-4.17v32.776zm9.905 98.271c-1.329-1.141-3.087-1.638-4.821-1.375l-24.296 3.753c-2.925.452-5.084 2.97-5.084 5.93v44.271c0 1.69.714 3.304 1.965 4.44 1.109 1.008 2.55 1.56 4.035 1.56.19 0 .382-.009.572-.027l24.296-2.329c3.078-.295 5.428-2.881 5.428-5.973v-45.695c0-1.751-.766-3.415-2.095-4.555zm-9.905 44.798-12.296 1.179v-32.524l12.296-1.899v33.245zm9.699-116.935c-1.452-1.138-3.345-1.544-5.137-1.102l-24.296 5.995c-2.68.661-4.562 3.065-4.562 5.825v44.236c0 1.785.795 3.479 2.17 4.618 1.085.9 2.442 1.382 3.83 1.382.369 0 .741-.034 1.109-.104l24.296-4.572c2.836-.534 4.891-3.011 4.891-5.896v-45.659c0-1.845-.849-3.586-2.301-4.724zm-9.699 45.406-12.296 2.314v-32.303l12.296-3.034v33.022zm-65.527 22.369c1.086.901 2.443 1.383 3.831 1.383.368 0 .739-.034 1.107-.104l21.568-4.052c2.837-.532 4.893-3.01 4.893-5.896v-43.026c0-1.844-.848-3.586-2.3-4.723-1.451-1.138-3.346-1.545-5.136-1.103l-21.568 5.316c-2.681.66-4.564 3.064-4.564 5.825v41.762c0 1.785.795 3.478 2.169 4.617zm9.831-41.679 9.568-2.358v30.391l-9.568 1.797v-29.829zm-6 108.749c.189 0 .381-.009.572-.027l21.562-2.064c3.078-.295 5.428-2.881 5.428-5.973v-42.923c0-1.751-.765-3.415-2.094-4.555-1.329-1.139-3.087-1.641-4.82-1.375l-21.562 3.325c-2.927.451-5.086 2.969-5.086 5.93v41.662c0 1.69.714 3.303 1.965 4.44 1.109 1.008 2.55 1.56 4.035 1.56zm6-42.517 9.562-1.475v30.474l-9.562.916zm-9.626-90.11c1.056.801 2.331 1.22 3.626 1.22.541 0 1.086-.073 1.618-.223l21.568-6.042c2.591-.726 4.382-3.087 4.382-5.777v-43.025c0-1.934-.932-3.749-2.504-4.876-1.57-1.126-3.588-1.429-5.421-.807l-21.568 7.305c-2.436.825-4.075 3.11-4.075 5.683v41.763c0 1.877.879 3.646 2.374 4.78zm9.626-42.24 9.568-3.24v30.108l-9.568 2.68zm-9.427-23.402c1.02.71 2.218 1.075 3.428 1.075.702 0 1.408-.123 2.085-.374l21.568-7.998c2.353-.873 3.914-3.116 3.914-5.625l.007-40.265c0-2.017-1.013-3.899-2.697-5.01-1.684-1.11-3.812-1.3-5.667-.506l-21.575 9.248c-2.205.945-3.636 3.114-3.636 5.515v39.015c0 1.964.961 3.804 2.573 4.925zm9.427-39.983 9.573-4.104-.004 26.989-9.569 3.549v-26.435zm-185.024 143.24c1.026.726 2.239 1.101 3.464 1.101.673 0 1.35-.113 2-.344l17.555-6.208c2.397-.848 4-3.113 4-5.655l.005-32.739c0-2.011-1.006-3.888-2.682-4.999-1.675-1.113-3.796-1.312-5.647-.531l-17.56 7.396c-2.225.937-3.671 3.115-3.671 5.529v31.551c0 1.948.945 3.774 2.536 4.899zm9.464-32.467 5.559-2.342-.003 19.459-5.556 1.964zm26.033 19.88c1.025.724 2.236 1.098 3.459 1.098.677 0 1.357-.114 2.012-.348l20.218-7.196c2.392-.851 3.988-3.114 3.988-5.652v-35.271c0-2.013-1.009-3.891-2.687-5.002-1.68-1.112-3.803-1.307-5.654-.522l-20.218 8.567c-2.219.939-3.659 3.115-3.659 5.524v33.9c0 1.95.948 3.778 2.541 4.902zm9.459-34.829 8.218-3.482v21.979l-8.218 2.926zm18.008 98.968c-1.399-1.14-3.239-1.589-5.003-1.225l-20.211 4.171c-2.787.575-4.787 3.029-4.787 5.876v36.178c0 1.734.75 3.384 2.058 4.523 1.1.958 2.502 1.477 3.942 1.477.272 0 .546-.019.819-.057l20.211-2.785c2.969-.409 5.181-2.946 5.181-5.943v-37.563c0-1.804-.812-3.512-2.21-4.651zm-9.79 36.985-8.211 1.131v-24.406l8.211-1.694v24.97zm-48.896 18.846 17.549-2.403c2.971-.407 5.186-2.945 5.186-5.944v-34.981c0-1.803-.811-3.511-2.208-4.649-1.397-1.142-3.237-1.594-4.999-1.228l-17.549 3.604c-2.79.573-4.793 3.028-4.793 5.877v33.78c0 1.733.75 3.382 2.056 4.521 1.1.959 2.503 1.479 3.944 1.479.271 0 .543-.019.814-.056zm5.186-34.832 5.549-1.14v22.39l-5.549.76zm-9.701-19.538c1.066.837 2.373 1.278 3.701 1.278.479 0 .959-.058 1.433-.174l17.549-4.316c2.683-.659 4.567-3.064 4.567-5.826v-34.981c0-1.91-.91-3.707-2.45-4.837-1.54-1.131-3.527-1.462-5.35-.887l-17.549 5.518c-2.5.786-4.2 3.104-4.2 5.724v33.78c0 1.844.848 3.585 2.299 4.722zm9.701-34.099 5.549-1.745v22.103l-5.549 1.365zm53.256-26.81c-1.543-1.13-3.53-1.458-5.354-.881l-20.211 6.388c-2.495.788-4.191 3.104-4.191 5.721v36.199c0 1.844.848 3.586 2.3 4.723 1.066.836 2.372 1.277 3.7 1.277.479 0 .961-.058 1.436-.174l20.211-4.979c2.681-.661 4.564-3.065 4.564-5.826v-37.607c0-1.912-.911-3.71-2.454-4.84zm-9.546 37.746-8.211 2.023v-24.146l8.211-2.596v24.718zm372.304 202.535h-35.498v-410.226c0-2.402-1.433-4.573-3.642-5.517l-114.071-48.763c-1.506-.645-3.211-.645-4.717 0l-114.072 48.763c-2.209.943-3.642 3.114-3.642 5.517v85.121l-50.608-21.634c-1.506-.645-3.211-.645-4.717 0l-118.785 50.777c-2.209.943-3.642 3.114-3.642 5.517v290.445h-35.498c-3.313 0-6 2.687-6 6v25.011c0 3.313 2.687 6 6 6h488.892c3.313 0 6-2.687 6-6v-25.011c0-3.313-2.687-6-6-6zm-47.498 0h-102.071v-449.899l102.071 43.632zm-114.072-449.899v449.899h-22.729v-95.769l3.167-.301c3.299-.313 5.719-3.242 5.404-6.541-.313-3.299-3.231-5.718-6.541-5.404l-61.812 5.883c-3.299.313-5.719 3.242-5.404 6.541.295 3.105 2.908 5.432 5.966 5.432.189 0 .382-.009.575-.027l2.031-.193v90.381h-22.729v-406.268l102.072-43.632zm-34.729 355.272v94.627h-32.613v-91.523zm-79.343 94.627h-46.967v-332.132l46.967 20.077zm-165.752-286.485 106.785-45.647v332.132h-25.086v-76.769l3.168-.302c3.299-.313 5.719-3.242 5.404-6.541-.313-3.299-3.246-5.727-6.541-5.404l-61.812 5.884c-3.299.313-5.719 3.242-5.404 6.541.295 3.105 2.908 5.432 5.966 5.432.19 0 .382-.009.575-.027l2.031-.193v71.38h-25.086zm69.699 210.859v75.626h-32.613v-72.522zm365.694 100.637h-476.891v-13.011h476.892v13.011zm-98.534-49.997v-369.405c0-3.313 2.687-6 6-6s6 2.687 6 6v369.405c0 3.313-2.687 6-6 6s-6-2.687-6-6zm28.519 0v-357.214c0-3.313 2.687-6 6-6s6 2.687 6 6v357.214c0 3.313-2.687 6-6 6s-6-2.687-6-6zm-57.036 0v-381.595c0-3.313 2.687-6 6-6s6 2.687 6 6v381.595c0 3.313-2.687 6-6 6s-6-2.687-6-6z"/></svg>