<?xml version="1.0" encoding="UTF-8"?>
<!DOCTYPE svg PUBLIC "-//W3C//DTD SVG 1.1//EN" "http://www.w3.org/Graphics/SVG/1.1/DTD/svg11.dtd">
<!-- Creator: CorelDRAW -->
<svg xmlns="http://www.w3.org/2000/svg" xml:space="preserve" width="1350px" height="1500px" version="1.1" style="shape-rendering:geometricPrecision; text-rendering:geometricPrecision; image-rendering:optimizeQuality; fill-rule:evenodd; clip-rule:evenodd"
viewBox="0 0 169.75 188.61"
 xmlns:xlink="http://www.w3.org/1999/xlink"
 xmlns:xodm="http://www.corel.com/coreldraw/odm/2003">
 <defs>
  <style type="text/css">
   <![CDATA[
    .fil0 {fill:black;fill-rule:nonzero}
   ]]>
  </style>
 </defs>
 <g id="Layer_x0020_1">
  <metadata id="CorelCorpID_0Corel-Layer"/>
  <path class="fil0" d="M122.59 150.89c-1.73,0 -3.14,1.4 -3.14,3.14l0 3.14 -113.16 0 0 -141.45c0,-5.21 4.22,-9.43 9.43,-9.43l22 0 0 3.14c0.01,5.21 4.23,9.43 9.43,9.43l31.44 0c5.2,0 9.42,-4.22 9.43,-9.43l0 -3.14 22 0c5.21,0 9.43,4.22 9.43,9.43l0 6.28c0,1.74 1.41,3.15 3.14,3.15 1.74,0 3.15,-1.41 3.15,-3.15l0 -6.28c-0.01,-8.68 -7.04,-15.71 -15.72,-15.72l-94.3 0c-8.68,0.01 -15.71,7.04 -15.72,15.72l0 157.17c0.01,8.68 7.04,15.71 15.72,15.72l94.3 0c8.68,-0.01 15.71,-7.04 15.72,-15.72l0 -18.86c0,-1.74 -1.41,-3.14 -3.15,-3.14l0 0zm-40.86 -141.46c0,1.74 -1.41,3.14 -3.14,3.14l-31.44 0c-1.73,0 -3.14,-1.4 -3.14,-3.14l0 -3.14 37.72 0 0 3.14zm28.29 172.89l-94.3 0c-5.21,0 -9.43,-4.22 -9.43,-9.43l0 -9.43 113.16 0 0 9.43c0,5.21 -4.22,9.43 -9.43,9.43l0 0zm-34.58 -9.43c0,1.74 -1.4,3.14 -3.14,3.14l-18.86 0c-1.74,0 -3.14,-1.4 -3.14,-3.14 0,-1.74 1.4,-3.14 3.14,-3.14l18.86 0c1.74,0 3.14,1.4 3.14,3.14l0 0z"/>
  <path class="fil0" d="M100.32 118.59c0.01,0 0.01,0 0.01,0l10.39 0c0,0 0,0 0,0 0.01,0 0.01,0 0.01,0l10.14 0c0.78,0 1.44,-0.54 1.59,-1.3l3.5 -17.33c0.22,-0.97 -0.6,-1.97 -1.59,-1.95l-36.62 0c-0.48,-2.84 -2.99,-4.98 -5.88,-4.98l-2.77 0c-0.9,0 -1.62,0.73 -1.62,1.63 0,0.9 0.72,1.62 1.62,1.62l2.77 0c1.27,0 2.39,0.91 2.65,2.15l4.83 22.8c0.45,2.16 2.07,3.84 4.1,4.46 -0.24,0.58 -0.38,1.22 -0.38,1.89 0,2.69 2.19,4.87 4.87,4.87 2.69,0 4.88,-2.18 4.88,-4.87 0,-0.57 -0.1,-1.12 -0.28,-1.62l7.27 0c-0.18,0.5 -0.28,1.05 -0.28,1.62 0,2.69 2.19,4.87 4.87,4.87 2.69,0 4.88,-2.18 4.88,-4.87 0,-0.57 -0.1,-1.12 -0.28,-1.62l0.39 0c0.89,0 1.62,-0.73 1.62,-1.63 0,-0.9 -0.73,-1.62 -1.62,-1.62l-24.22 0c-1.27,0 -2.38,-0.91 -2.65,-2.15l-0.41 -1.97 8.21 0c0,0 0,0 0,0l0 0zm-0.75 8.99c0,0.9 -0.73,1.62 -1.63,1.62 -0.89,0 -1.62,-0.72 -1.62,-1.62 0,-0.9 0.73,-1.62 1.62,-1.62 0.9,0 1.63,0.72 1.63,1.62zm16.46 0c0,0.9 -0.73,1.62 -1.63,1.62 -0.89,0 -1.62,-0.72 -1.62,-1.62 0,-0.9 0.73,-1.62 1.62,-1.62 0.9,0 1.63,0.72 1.63,1.62zm-6.06 -17.65l-0.68 5.41 -7.53 0 -0.68 -5.41 8.89 0zm-9.29 -3.25l-0.68 -5.42 11.05 0 -0.68 5.42 -9.69 0zm11.88 8.66l0.68 -5.41 7.4 0 -1.1 5.41 -6.98 0zm8.73 -8.66l-7.64 0 0.67 -5.42 8.06 0 -1.09 5.42zm-24.56 -5.42l0.67 5.42 -7.81 0 -1.15 -5.42 8.29 0zm-6.46 8.67l7.54 0 0.68 5.41 -7.07 0 -1.15 -5.41z"/>
  <path class="fil0" d="M169.35 61.34l-13.92 -25.05c-1.66,-3 -4.82,-4.86 -8.24,-4.86l-86.91 0c-3.42,0 -6.58,1.86 -8.24,4.86l-13.92 25.05c-0.26,0.47 -0.4,1 -0.4,1.53l0 9.43c0.01,7.46 5.27,13.9 12.58,15.4l0 47.47c0,5.2 4.22,9.42 9.43,9.43l88.01 0c5.21,-0.01 9.43,-4.23 9.43,-9.43l0 -47.47c7.31,-1.5 12.57,-7.94 12.58,-15.4l0 -9.43c0,-0.53 -0.14,-1.06 -0.4,-1.53l0 0zm-19.42 -22l0 0 11.33 20.39 -17.54 0 -7.33 -22.01 10.8 0c0,0 0,0 0,0 1.14,0 2.19,0.62 2.74,1.62l0 0zm-11.62 32.96c0,5.21 -4.22,9.43 -9.43,9.43 -5.21,0 -9.43,-4.22 -9.43,-9.43l0 -6.29 18.86 0 0 6.29zm-69.15 -6.29l18.86 0 0 6.29c0,5.21 -4.23,9.43 -9.43,9.43 -5.21,0 -9.43,-4.22 -9.43,-9.43l0 -6.29zm49.96 -6.28l-2.44 -22.01 13.08 0 7.33 22.01 -17.97 0zm-6.32 0l-18.13 0 2.45 -22.01 13.23 0 2.45 22.01zm-24.45 0l-17.98 0 7.34 -22.01 13.08 0 -2.44 22.01zm5.95 6.28l18.86 0 0 6.29c0,5.21 -4.22,9.43 -9.43,9.43 -5.2,0 -9.43,-4.22 -9.43,-9.43l0 -6.29zm-36.76 -26.67c0.55,-1 1.6,-1.62 2.74,-1.62 0,0 0,0 0,0l10.8 0 -7.33 22.01 -17.54 0 11.33 -20.39zm-13.53 32.96l0 -6.29 18.86 0 0 6.29c0,5.21 -4.22,9.43 -9.43,9.43 -5.21,0 -9.43,-4.22 -9.43,-9.43l0 0zm103.73 66.01c-29.69,0 -58.32,0 -88.01,0 -1.74,0 -3.15,-1.41 -3.15,-3.14l0 -47.49c3.77,-0.77 7.12,-2.89 9.43,-5.96 2.97,3.96 7.63,6.3 12.58,6.3 4.94,0 9.61,-2.34 12.57,-6.3 2.96,3.96 7.63,6.3 12.57,6.3 4.95,0 9.61,-2.34 12.58,-6.3 2.96,3.96 7.62,6.3 12.57,6.3 4.95,0 9.61,-2.34 12.58,-6.3 2.3,3.07 5.66,5.19 9.43,5.96l0 47.49c-0.01,1.73 -1.41,3.14 -3.15,3.14l0 0zm6.29 -56.58c-5.21,0 -9.43,-4.23 -9.43,-9.43l0 -6.29 18.86 0 0 6.29c0,5.2 -4.23,9.43 -9.43,9.43l0 0z"/>
 </g>
</svg>
