<?xml version="1.0" encoding="UTF-8"?>
<svg version="1.1" xmlns="http://www.w3.org/2000/svg" width="130" height="130">
<path d="M0 0 C1.98 0 3.96 0 6 0 C6 4.62 6 9.24 6 14 C10.62 14 15.24 14 20 14 C20 9.38 20 4.76 20 0 C21.98 0 23.96 0 26 0 C26 4.62 26 9.24 26 14 C30.62 14 35.24 14 40 14 C40 9.38 40 4.76 40 0 C41.98 0 43.96 0 46 0 C46 4.62 46 9.24 46 14 C50.29 14 54.58 14 59 14 C59 9.38 59 4.76 59 0 C60.98 0 62.96 0 65 0 C65 4.62 65 9.24 65 14 C71.27 14 77.54 14 84 14 C84 19.94 84 25.88 84 32 C88.62 32 93.24 32 98 32 C98 33.98 98 35.96 98 38 C93.38 38 88.76 38 84 38 C84 42.62 84 47.24 84 52 C88.62 52 93.24 52 98 52 C98 53.98 98 55.96 98 58 C93.38 58 88.76 58 84 58 C84 62.62 84 67.24 84 72 C88.62 72 93.24 72 98 72 C98 73.98 98 75.96 98 78 C93.38 78 88.76 78 84 78 C84 82.29 84 86.58 84 91 C88.62 91 93.24 91 98 91 C98 92.98 98 94.96 98 97 C93.38 97 88.76 97 84 97 C84 103.27 84 109.54 84 116 C77.73 116 71.46 116 65 116 C65 120.62 65 125.24 65 130 C63.02 130 61.04 130 59 130 C59 125.38 59 120.76 59 116 C54.71 116 50.42 116 46 116 C46 120.62 46 125.24 46 130 C44.02 130 42.04 130 40 130 C40 125.38 40 120.76 40 116 C35.38 116 30.76 116 26 116 C26 120.62 26 125.24 26 130 C24.02 130 22.04 130 20 130 C20 125.38 20 120.76 20 116 C15.38 116 10.76 116 6 116 C6 120.62 6 125.24 6 130 C4.02 130 2.04 130 0 130 C0 125.38 0 120.76 0 116 C-6.27 116 -12.54 116 -19 116 C-19 109.73 -19 103.46 -19 97 C-23.29 97 -27.58 97 -32 97 C-32 95.02 -32 93.04 -32 91 C-27.71 91 -23.42 91 -19 91 C-19 86.71 -19 82.42 -19 78 C-23.29 78 -27.58 78 -32 78 C-32 76.02 -32 74.04 -32 72 C-27.71 72 -23.42 72 -19 72 C-19 67.38 -19 62.76 -19 58 C-23.29 58 -27.58 58 -32 58 C-32 56.02 -32 54.04 -32 52 C-27.71 52 -23.42 52 -19 52 C-19 47.38 -19 42.76 -19 38 C-23.29 38 -27.58 38 -32 38 C-32 36.02 -32 34.04 -32 32 C-27.71 32 -23.42 32 -19 32 C-19 26.06 -19 20.12 -19 14 C-12.73 14 -6.46 14 0 14 C0 9.38 0 4.76 0 0 Z M-13 20 C-13 49.7 -13 79.4 -13 110 C-8.38 110 -3.76 110 1 110 C1.0093457 108.76137207 1.01869141 107.52274414 1.02832031 106.24658203 C1.0688113 101.56069623 1.13471926 96.87542717 1.20751953 92.18994141 C1.23539205 90.17895554 1.25677031 88.16786698 1.27099609 86.15673828 C1.36013701 74.25345436 2.12010021 63.24759007 5.15136719 51.71044922 C5.93411788 48.2880542 6.28722659 45.48895828 6 42 C5.505 41.38125 5.01 40.7625 4.5 40.125 C2.52200065 37.32283425 2.50052518 35.27763476 2.6640625 31.90625 C3 30 3 30 4.4375 27.5 C8.25682396 25.26429817 11.68518361 25.23995895 16 26 C18.5625 27.5 18.5625 27.5 20 30 C20.45451667 33.18161667 20.70692538 34.98658079 20 38 C17.55701712 41.03722197 15.2336335 42.84424433 12 45 C4.39933655 65.55390679 6.51105839 88.49108263 7 110 C10.96 110 14.92 110 19 110 C18.99887207 109.11554199 18.99774414 108.23108398 18.99658203 107.31982422 C19.05119134 89.01146012 19.8871707 72.4785792 26 55 C25.01 54.34 24.02 53.68 23 53 C22.41796875 50.9765625 22.41796875 50.9765625 22.1875 48.625 C22.09855469 47.85414062 22.00960937 47.08328125 21.91796875 46.2890625 C22.01239047 43.65424689 22.58493614 42.20923236 24 40 C28.13086537 37.52148078 31.4071226 37.89430729 36 39 C37.875 40.125 37.875 40.125 39 42 C39.9212719 46.14572355 40.60638289 49.98404279 39 54 C36.625 55.1875 36.625 55.1875 34 56 C28.29407034 59.80395311 26.99508547 68.09930226 25.54052734 74.55371094 C23.71895005 86.16770602 24.70412678 98.36232 25 110 C42.49 110 59.98 110 78 110 C78 101.09 78 92.18 78 83 C73.31104076 87.48976784 73.31104076 87.48976784 70.81640625 90.78125 C66.69158096 94.03076562 63.04065433 93.59566115 57.9375 93.5 C52.94112278 93.38817172 52.94112278 93.38817172 48 94 C45.58587898 96.34957344 45.58587898 96.34957344 44 99 C41.34881827 100.09631372 38.85217157 100.20938561 36 100 C33.00204165 98.66048669 31.47220125 97.9444025 30 95 C29.55400697 88.08710801 29.55400697 88.08710801 31 84.5625 C34.04351448 82.18475431 37.24443913 81.8023389 41 82 C43.9375 83.25 43.9375 83.25 46 85 C46.33 85.99 46.66 86.98 47 88 C57.32908133 89.56210798 57.32908133 89.56210798 67.12841797 86.81933594 C72.6814756 82.53116447 77.26637676 77.3320228 78.79296875 70.3984375 C78.81044455 67.4694933 78.61269817 64.85925813 78 62 C75.36384897 62.95194343 73.29280347 63.74519869 71.1640625 65.59765625 C67.57856478 67.92111055 63.46046275 67.43552513 59.3125 67.43945312 C57.09973694 67.46297713 57.09973694 67.46297713 54 68 C52.56061583 69.87216 52.56061583 69.87216 52 72 C48.56199608 74.54666957 45.14893725 74.50951861 41 74 C38.0625 71.9375 38.0625 71.9375 36 69 C35.34377763 64.91683857 35.62218323 62.77206035 37.4375 59.0625 C40.70057147 56.4361254 42.75073621 56.29325054 46.85546875 56.4921875 C49 57 49 57 51.25 59.5 C55.11307005 63.01188186 58.19284782 62.72336081 63.2578125 62.95703125 C69.38954551 61.38889494 74.02360173 59.0242911 78 54 C79.35125817 48.10247716 79.04796309 42.50235973 78.6875 36.5 C78.63225158 34.89860589 78.58207384 33.29702835 78.53710938 31.6953125 C78.41656504 27.79230595 78.2272672 23.8981888 78 20 C73.71 20 69.42 20 65 20 C64.86451185 22.73083902 64.76570145 25.45491807 64.6875 28.1875 C64.64560547 28.95642578 64.60371094 29.72535156 64.56054688 30.51757812 C64.46714106 34.870289 64.46012059 36.40266863 67.49609375 39.76171875 C68.32238281 40.50035156 69.14867188 41.23898438 70 42 C70.5234375 44.3515625 70.5234375 44.3515625 70.375 46.625 C70.34148437 47.38039063 70.30796875 48.13578125 70.2734375 48.9140625 C70 51 70 51 69 54 C60.36871508 55.39106145 60.36871508 55.39106145 55.9375 54.125 C53.35329914 51.29071519 53.19584889 48.99539449 52.84765625 45.25390625 C53.02564674 42.6205597 53.51382466 41.1806498 55 39 C56.32 38.34 57.64 37.68 59 37 C59 31.39 59 25.78 59 20 C35.24 20 11.48 20 -13 20 Z M10 31 C9.34 31.66 8.68 32.32 8 33 C8.3185177 35.10820797 8.3185177 35.10820797 9 37 C10.89179203 37.6814823 10.89179203 37.6814823 13 38 C13.66 37.34 14.32 36.68 15 36 C14.67958603 33.39719432 14.67958603 33.39719432 14 31 C12.68 31 11.36 31 10 31 Z M60 43 C59.34 44.32 58.68 45.64 58 47 C58.99 47.99 59.98 48.98 61 50 C62.32 49.34 63.64 48.68 65 48 C64.67 46.35 64.34 44.7 64 43 C62.68 43 61.36 43 60 43 Z M29 44 C28.34 45.32 27.68 46.64 27 48 C27.99 48.99 28.98 49.98 30 51 C31.32 50.34 32.64 49.68 34 49 C33.67 47.35 33.34 45.7 33 44 C31.68 44 30.36 44 29 44 Z M43 62 C42.34 63.32 41.68 64.64 41 66 C41.99 67.485 41.99 67.485 43 69 C44.65 68.67 46.3 68.34 48 68 C48 66.35 48 64.7 48 63 C46.35 62.67 44.7 62.34 43 62 Z M37 87 C36.34 87.66 35.68 88.32 35 89 C35.32041397 91.60280568 35.32041397 91.60280568 36 94 C36.99 94.33 37.98 94.66 39 95 C40.64555699 93.77190909 40.64555699 93.77190909 42 92 C41.77242269 89.83700789 41.77242269 89.83700789 41 88 C39.10820797 87.3185177 39.10820797 87.3185177 37 87 Z " fill="#000000" transform="translate(32,0)"/>
</svg>
