<?xml version="1.0" encoding="UTF-8"?>
<svg id="c" data-name="Text" xmlns="http://www.w3.org/2000/svg" viewBox="0 0 50 50">
  <defs>
    <style>
      .e {
        fill: #046489;
      }
    </style>
  </defs>
  <path class="e" d="m25,1.5c7.6,0,13.7,6.1,13.7,13.7s-2.3,8.9-6.1,11.4c-.3.2-.5.6-.4,1,0,.4.3.7.7.8,8.5,3.1,14.3,11.1,14.7,20.1h-1.9c-.5-10.9-9.6-19.6-20.6-19.6S4.9,37.6,4.4,48.5h-1.9c.4-9,6.2-17,14.7-20.1.4-.1.6-.5.7-.8,0-.4-.1-.8-.4-1-3.8-2.6-6.1-6.8-6.1-11.4,0-7.6,6.1-13.7,13.7-13.7m0,25.5c6.5,0,11.8-5.3,11.8-11.8S31.5,3.4,25,3.4s-11.8,5.3-11.8,11.8,5.3,11.8,11.8,11.8"/>
</svg>