<?xml version="1.0" encoding="UTF-8"?>
<svg xmlns="http://www.w3.org/2000/svg" id="Layer_1" data-name="Layer 1" viewBox="0 0 64 64" width="512" height="512"><path d="M14.042,58.537l4.17,4.17a1,1,0,0,0,1.414,0l2.5-2.5a1,1,0,0,0,0-1.414l-4.17-4.17a1.029,1.029,0,0,0-1.414,0L16,55.165l-1.558-1.558a7.5,7.5,0,1,0-1.413,1.414l1.557,1.558-.544.544A1,1,0,0,0,14.042,58.537Zm3.209-1.8L20.007,59.5l-1.088,1.088L16.163,57.83Zm-4.877-3.789a5.485,5.485,0,1,1,0-7.761A5.451,5.451,0,0,1,12.374,52.953Z"/><path d="M59,49H57.794a4.5,4.5,0,1,0-5.588,0H51a4,4,0,0,0-4,4v9a1,1,0,0,0,1,1H62a1,1,0,0,0,1-1V53A4,4,0,0,0,59,49Zm-4-6a2.5,2.5,0,1,1-2.5,2.5A2.5,2.5,0,0,1,55,43Zm6,18H49V53a2,2,0,0,1,2-2h8a2,2,0,0,1,2,2Z"/><path d="M13.281,13.954A26.006,26.006,0,0,0,7,39.282l1.918-.564a24.008,24.008,0,0,1,5.8-23.372Z"/><path d="M44.481,54.827l-.962-1.753A24.075,24.075,0,0,1,31.97,56.03a23.723,23.723,0,0,1-6.688-.949L24.718,57a25.71,25.71,0,0,0,7.252,1.03A26.071,26.071,0,0,0,44.481,54.827Z"/><path d="M57.21,38.244a25.554,25.554,0,0,0,.76-6.214,25.825,25.825,0,0,0-7.249-18l-1.442,1.387A23.834,23.834,0,0,1,55.97,32.03a23.584,23.584,0,0,1-.7,5.726Z"/><path d="M26.289,42.892l.485-.276a8.864,8.864,0,0,0,1.872,1.045v.475A1.887,1.887,0,0,0,30.551,46h2.9a1.887,1.887,0,0,0,1.905-1.864V43.66a7.1,7.1,0,0,0,1.827-1.06l.53.292a1.936,1.936,0,0,0,2.573-.675l1.451-2.4a1.821,1.821,0,0,0,.2-1.422,1.855,1.855,0,0,0-.907-1.15L40.586,37a7.813,7.813,0,0,0,0-2l.445-.246a1.855,1.855,0,0,0,.907-1.15,1.82,1.82,0,0,0-.2-1.423l-1.449-2.4a1.933,1.933,0,0,0-2.574-.676l-.485.276a8.864,8.864,0,0,0-1.872-1.045v-.475A1.887,1.887,0,0,0,33.449,26h-2.9a1.887,1.887,0,0,0-1.9,1.864v.476a7.1,7.1,0,0,0-1.827,1.06l-.53-.292a1.936,1.936,0,0,0-2.573.675l-1.451,2.4a1.821,1.821,0,0,0-.2,1.422,1.855,1.855,0,0,0,.907,1.15l.445.246a7.813,7.813,0,0,0,0,2l-.445.246a1.855,1.855,0,0,0-.907,1.15,1.82,1.82,0,0,0,.2,1.423l1.449,2.4A1.936,1.936,0,0,0,26.289,42.892ZM25.35,36a5.818,5.818,0,0,1,.062-.847,1.846,1.846,0,0,0-.953-1.859l-.4-.218,1.32-2.184.471.259a1.966,1.966,0,0,0,2.1-.152,6.715,6.715,0,0,1,1.472-.818,1.882,1.882,0,0,0,1.218-1.738V28h2.708v.443a1.883,1.883,0,0,0,1.217,1.738A6.737,6.737,0,0,1,36.044,31a1.965,1.965,0,0,0,2.1.153l.471-.259,1.32,2.184-.4.218a1.843,1.843,0,0,0-.953,1.86A5.934,5.934,0,0,1,38.65,36a5.818,5.818,0,0,1-.062.847,1.846,1.846,0,0,0,.953,1.859l.4.218-1.32,2.184-.471-.259a1.967,1.967,0,0,0-2.1.152,6.715,6.715,0,0,1-1.472.818,1.882,1.882,0,0,0-1.218,1.738V44H30.646v-.443a1.883,1.883,0,0,0-1.217-1.738A6.737,6.737,0,0,1,27.956,41a1.965,1.965,0,0,0-2.1-.153l-.471.259-1.32-2.184.4-.218a1.843,1.843,0,0,0,.953-1.86A5.934,5.934,0,0,1,25.35,36Z"/><path d="M32,40a4,4,0,1,0-4-4A4,4,0,0,0,32,40Zm0-6a2,2,0,1,1-2,2A2,2,0,0,1,32,34Z"/><rect x="15" y="5" width="5" height="2"/><rect x="17" y="9" width="5" height="2"/><path d="M41.781,4.375A1,1,0,0,0,41,4H36V2a1,1,0,0,0-1-1H19a1,1,0,0,0-1,1V4h2V3H34V18H27.816a2.982,2.982,0,0,0-5.632,0H20V12H18v7a1,1,0,0,0,1,1h3.184a2.982,2.982,0,0,0,5.632,0h9.368a2.982,2.982,0,0,0,5.632,0H45a1,1,0,0,0,1-1V10a1,1,0,0,0-.219-.625ZM25,20a1,1,0,1,1,1-1A1,1,0,0,1,25,20ZM39,6h1.52l2.4,3H39Zm1,14a1,1,0,1,1,1-1A1,1,0,0,1,40,20Zm4-2H42.816a2.982,2.982,0,0,0-5.632,0H36V6h1v4a1,1,0,0,0,1,1h6Z"/></svg>
