<svg id="Layer_1" enable-background="new 0 0 512 512" height="512" viewBox="0 0 512 512" width="512" xmlns="http://www.w3.org/2000/svg"><path d="m99.256 195.423c1.718 0 3.449-.551 4.91-1.688l76.854-59.843c4.057 2.726 8.936 4.318 14.181 4.318 8.426 0 15.907-4.111 20.553-10.429l49.902 16.174c.08 13.993 11.485 25.353 25.497 25.353 14.061 0 25.5-11.439 25.5-25.5 0-4.157-1.007-8.082-2.779-11.553l62.722-63.257-.93 8.314c-.491 4.391 2.67 8.348 7.061 8.839.302.034.602.051.899.051 4.02 0 7.483-3.023 7.94-7.112l3.484-31.159c.267-2.384-.55-4.762-2.226-6.478-1.676-1.717-4.036-2.59-6.423-2.381l-31.234 2.739c-4.401.387-7.657 4.268-7.271 8.669s4.269 7.643 8.668 7.271l9.475-.831-63.526 64.069c-3.424-1.711-7.28-2.68-11.361-2.68-8.427 0-15.908 4.111-20.554 10.43l-49.901-16.174c-.08-13.993-11.485-25.354-25.496-25.354-14.061 0-25.5 11.439-25.5 25.5 0 3.003.526 5.884 1.483 8.562l-76.849 59.837c-3.486 2.715-4.111 7.741-1.397 11.228 1.578 2.025 3.936 3.085 6.318 3.085zm191.895-61.114c5.238 0 9.5 4.262 9.5 9.5s-4.262 9.5-9.5 9.5c-5.239 0-9.5-4.262-9.5-9.5s4.262-9.5 9.5-9.5zm-95.951-31.098c5.238 0 9.5 4.262 9.5 9.5s-4.262 9.5-9.5 9.5-9.5-4.262-9.5-9.5 4.262-9.5 9.5-9.5zm-121.786 246.703h51.673c4.418 0 8-3.582 8-8v-100.955c0-4.418-3.582-8-8-8h-51.673c-4.418 0-8 3.582-8 8v100.955c0 4.418 3.582 8 8 8zm8-100.955h35.673v84.955h-35.673zm417.496 205.92-49.977-48.496c3.069-1.119 5.265-4.054 5.265-7.51v-23.107c0-4.418-3.582-8-8-8h-33.364c5.751-12.961 8.954-27.294 8.954-42.362 0-4.534-.29-9.002-.852-13.386v-202.82c0-4.418-3.582-8-8-8h-51.674c-4.418 0-8 3.582-8 8v117.88c-8.921-3.302-18.408-5.425-28.274-6.173v-22.385c0-4.418-3.582-8-8-8h-51.674c-4.418 0-8 3.582-8 8v40.783c-11.209 7.793-20.832 17.713-28.276 29.175v-91.495c0-4.418-3.582-8-8-8h-51.673c-4.418 0-8 3.582-8 8v164.933c0 4.418 3.582 8 8 8h45.726c1.487 6.18 3.521 12.148 6.052 17.851h-174.035v-351.27c0-4.418-3.582-8-8-8h-23.108c-4.418 0-8 3.582-8 8v382.376c0 4.418 3.582 8 8 8h235.146c18.007 14.581 40.92 23.33 65.841 23.33 23.69 0 45.567-7.906 63.139-21.211l19.554 18.974c-1.079 2.289-1.646 4.808-1.607 7.418.067 4.494 1.875 8.688 5.088 11.805l53.159 51.583c3.259 3.161 7.48 4.734 11.698 4.734 4.387 0 8.77-1.703 12.058-5.092l19.191-19.779c6.45-6.647 6.291-17.303-.357-23.756zm-88.745-39.034-18.02-17.486c1.957-2.015 3.838-4.104 5.629-6.27l18.254 17.713zm28.033-24.972h-18.702l-7.325-7.107h26.026v7.107zm-68.936-273.675h35.674v151.277c-9.036-13.912-21.278-25.558-35.674-33.878zm-95.949 89.322h35.674v14.386c-12.646.959-24.67 4.177-35.674 9.243zm-95.949 127.395v-148.933h35.673v127.049c-.56 4.38-.85 8.843-.85 13.372 0 2.866.12 5.704.347 8.512zm-153.364-309.418h7.108v351.269c0 4.418 3.582 8 8 8h190.876c1.645 2.445 3.395 4.814 5.235 7.107h-211.219zm204.188 300.906c0-48.965 39.835-88.801 88.8-88.801s88.8 39.836 88.8 88.801-39.835 88.8-88.8 88.8-88.8-39.835-88.8-88.8zm259.597 142.089-19.191 19.779c-.292.301-.832.309-1.132.017l-53.159-51.583c-.188-.181-.229-.405-.231-.562-.002-.156.033-.382.215-.569l19.191-19.779c.182-.188.407-.229.563-.231.005-.001.01-.001.014-.001.156 0 .373.039.555.216l53.157 51.582c.3.291.309.83.018 1.131zm-170.798-219.597c-42.738 0-77.508 34.771-77.508 77.509s34.77 77.508 77.508 77.508 77.508-34.77 77.508-77.508-34.77-77.509-77.508-77.509zm0 139.016c-33.916 0-61.508-27.592-61.508-61.508s27.592-61.509 61.508-61.509 61.508 27.593 61.508 61.509-27.592 61.508-61.508 61.508z"/></svg>