<?xml version="1.0" encoding="UTF-8"?>
<svg xmlns="http://www.w3.org/2000/svg" xmlns:xlink="http://www.w3.org/1999/xlink" version="1.1" id="Capa_1" x="0px" y="0px" viewBox="0 0 512 512" style="enable-background:new 0 0 512 512;" xml:space="preserve" width="512" height="512">
<g>
	<path style="fill-rule:evenodd;clip-rule:evenodd;fill:none;stroke:#000000;stroke-width:15.0001;stroke-miterlimit:22.9256;" d="&#10;&#9;&#9;M381.454,470.535C344.632,492.118,301.764,504.5,256,504.5C118.758,504.5,7.5,393.242,7.5,256&#10;&#9;&#9;c0-81.297,39.043-153.472,99.398-198.809 M119.58,48.283C158.741,22.51,205.614,7.5,256,7.5c137.242,0,248.5,111.258,248.5,248.5&#10;&#9;&#9;c0,75.299-33.496,142.771-86.396,188.342 M394.313,462.617l12.185-8.747"/>
	<path style="fill-rule:evenodd;clip-rule:evenodd;fill:none;stroke:#000000;stroke-width:15.0001;stroke-miterlimit:22.9256;" d="&#10;&#9;&#9;M54.736,401.757c36.46-16.854,91.277-28.951,154.609-32.987 M302.655,368.771c63.333,4.036,118.149,16.132,154.609,32.987&#10;&#9;&#9; M54.736,110.243c36.46,16.854,91.277,28.951,154.609,32.986 M302.655,143.229c63.333-4.036,118.149-16.132,154.609-32.986"/>
	<path style="fill-rule:evenodd;clip-rule:evenodd;fill:none;stroke:#000000;stroke-width:15.0001;stroke-miterlimit:22.9256;" d="&#10;&#9;&#9;M256,7.5v126.483 M256,378.017V504.5"/>
	<path style="fill-rule:evenodd;clip-rule:evenodd;fill:none;stroke:#000000;stroke-width:15.0001;stroke-miterlimit:22.9256;" d="&#10;&#9;&#9;M7.5,256h126.483 M378.017,256H504.5"/>
	
		<ellipse style="fill-rule:evenodd;clip-rule:evenodd;fill:none;stroke:#000000;stroke-width:15.0001;stroke-miterlimit:22.9256;" cx="256" cy="256" rx="122.017" ry="248.5"/>
	
		<circle style="fill-rule:evenodd;clip-rule:evenodd;fill:none;stroke:#000000;stroke-width:15.0001;stroke-miterlimit:22.9256;" cx="256" cy="256" r="122.016"/>
	<path style="fill-rule:evenodd;clip-rule:evenodd;fill:none;stroke:#000000;stroke-width:15.0001;stroke-miterlimit:22.9256;" d="&#10;&#9;&#9;M452.001,181.001h15 M437,151.001h15"/>
	<path style="fill-rule:evenodd;clip-rule:evenodd;fill:none;stroke:#000000;stroke-width:15.0001;stroke-miterlimit:22.9256;" d="&#10;&#9;&#9;M196,316h120.001c8.249,0,15-6.75,15-15v-90H181v90C181,309.249,187.75,316,196,316z"/>
	<path style="fill-rule:evenodd;clip-rule:evenodd;fill:none;stroke:#000000;stroke-width:15.0001;stroke-miterlimit:22.9256;" d="&#10;&#9;&#9;M229.75,211v-15c0-8.249,6.752-15,15-15h22.5c8.248,0,15,6.75,15,15v15"/>
	<path style="fill-rule:evenodd;clip-rule:evenodd;fill:none;stroke:#000000;stroke-width:15.0001;stroke-miterlimit:22.9256;" d="&#10;&#9;&#9;M181,255.999h150 M301,278.499v-45 M211,278.499v-45"/>
</g>















</svg>
