<?xml version="1.0" encoding="UTF-8"?>
<!DOCTYPE svg PUBLIC "-//W3C//DTD SVG 1.1//EN" "http://www.w3.org/Graphics/SVG/1.1/DTD/svg11.dtd">
<!-- Creator: CorelDRAW -->
<svg xmlns="http://www.w3.org/2000/svg" xml:space="preserve" width="2133px" height="2315px" version="1.1" style="shape-rendering:geometricPrecision; text-rendering:geometricPrecision; image-rendering:optimizeQuality; fill-rule:evenodd; clip-rule:evenodd"
viewBox="0 0 924.44 1003.22"
 xmlns:xlink="http://www.w3.org/1999/xlink"
 xmlns:xodm="http://www.corel.com/coreldraw/odm/2003">
 <defs>
  <style type="text/css">
   <![CDATA[
    .fil0 {fill:black;fill-rule:nonzero}
   ]]>
  </style>
 </defs>
 <g id="Layer_x0020_1">
  <metadata id="CorelCorpID_0Corel-Layer"/>
  <path class="fil0" d="M636.59 74.44l25.89 -38.91c0.36,-0.54 0.67,-1.11 0.92,-1.7 1.19,-2.93 1.8,-6.08 1.8,-9.25 0,-12.33 -9.08,-22.78 -21.29,-24.5 -0.41,-0.05 -0.83,-0.08 -1.25,-0.08 -0.34,0 -0.69,0.02 -1.03,0.05l-38.25 3.75c-0.93,-0.08 -1.87,-0.12 -2.81,-0.12 -5.63,0 -11.16,1.48 -16.04,4.28l-26.73 15.46 -91.27 -20.29c-0.75,-0.16 -1.53,-0.25 -2.3,-0.25 -2.09,0 -4.14,0.63 -5.88,1.79l-30.74 20.56c-2.94,1.97 -4.7,5.27 -4.7,8.8 0,3.75 1.99,7.23 5.22,9.13l59.83 35.17 -36.77 29.42 -37.2 -9.81c-0.88,-0.23 -1.79,-0.35 -2.7,-0.35 -1.48,0 -2.95,0.32 -4.3,0.92l-21.18 9.43c-3.82,1.7 -6.28,5.49 -6.28,9.67 0,2.75 1.07,5.39 2.98,7.36l52.94 54.76c1.99,2.06 4.74,3.22 7.61,3.22 1.81,0 3.6,-0.46 5.18,-1.35l184.72 -103.79c1.46,-0.82 2.7,-1.98 3.63,-3.37zm-191.6 84.69l-36.75 -38 3.96 -1.76 38.75 10.22c0.88,0.23 1.79,0.35 2.7,0.35 2.4,0 4.73,-0.82 6.61,-2.32l52.94 -42.36c2.51,-2 3.97,-5.05 3.97,-8.26 0,-3.76 -1.99,-7.23 -5.22,-9.13l-58.55 -34.42 12.96 -8.66 90.87 20.19c0.75,0.17 1.52,0.25 2.29,0.25 1.86,0 3.69,-0.49 5.3,-1.42l30.3 -17.51c1.68,-0.95 3.58,-1.45 5.51,-1.45 0.5,0 1,0.04 1.49,0.1 0.42,0.05 0.84,0.08 1.26,0.08 0.34,0 0.69,-0.02 1.03,-0.05l37.62 -3.69c0.64,0.35 1.16,0.87 1.51,1.5 0.36,0.58 0.55,1.25 0.55,1.94 0,0.08 -0.01,0.16 -0.01,0.24l-23.71 35.62 -175.38 98.54z"/>
 </g>
 <g id="Layer_x0020_1_2">
  <metadata id="CorelCorpID_1Corel-Layer"/>
  <path class="fil0" d="M188.7 245.03c0,7.48 -6.07,13.54 -13.54,13.54 -7.48,0 -13.55,-6.06 -13.55,-13.54l0 -61.42c0,-12.79 5.19,-24.36 13.57,-32.74 8.37,-8.38 19.95,-13.56 32.73,-13.56l86.07 0c12.79,0 24.36,5.18 32.74,13.56 8.38,8.38 13.56,19.95 13.56,32.74l0 61.42c0,7.48 -6.06,13.54 -13.54,13.54 -7.48,0 -13.54,-6.06 -13.54,-13.54l0 -61.42c0,-5.31 -2.16,-10.11 -5.63,-13.59 -3.48,-3.48 -8.28,-5.63 -13.59,-5.63l-86.07 0c-5.31,0 -10.11,2.15 -13.59,5.63 -3.47,3.48 -5.62,8.28 -5.62,13.59l0 61.42z"/>
  <path class="fil0" d="M280.08 345.54c0,-7.47 6.06,-13.54 13.54,-13.54 7.48,0 13.54,6.07 13.54,13.54l0 26.69c0,1.68 0.57,3.23 1.53,4.42 0.96,1.2 2.34,2.08 3.94,2.43l75.77 16.67c17.25,3.79 32.03,13.33 42.51,26.35 10.47,13.03 16.63,29.5 16.63,47.12l0 55.71c0,7.47 -6.06,13.54 -13.54,13.54 -7.48,0 -13.54,-6.07 -13.54,-13.54l0 -55.71c0,-11.33 -3.93,-21.88 -10.61,-30.19 -6.68,-8.31 -16.13,-14.41 -27.17,-16.83l-75.76 -16.67c-7.82,-1.7 -14.53,-6.03 -19.28,-11.95 -4.76,-5.91 -7.56,-13.37 -7.56,-21.35l0 -26.69z"/>
  <path class="fil0" d="M194.73 345.53c0,-7.48 6.06,-13.55 13.54,-13.55 7.48,0 13.54,6.07 13.54,13.55l0 26.7c0,7.98 -2.79,15.44 -7.55,21.36 -4.76,5.91 -11.47,10.24 -19.29,11.94l-75.76 16.67c-11.04,2.42 -20.49,8.52 -27.17,16.83 -6.68,8.31 -10.61,18.86 -10.61,30.19l0 55.71c0,7.47 -6.06,13.54 -13.54,13.54 -7.48,0 -13.54,-6.07 -13.54,-13.54l0 -55.71c0,-17.62 6.16,-34.09 16.63,-47.12 10.47,-13.02 25.26,-22.56 42.51,-26.35l75.77 -16.67c1.61,-0.35 2.98,-1.23 3.94,-2.42 0.96,-1.19 1.53,-2.74 1.53,-4.43l0 -26.7z"/>
  <path class="fil0" d="M188.7 249.13l0 33.77c0,17.19 6.97,32.75 18.23,44.01 11.26,11.27 26.83,18.24 44.02,18.24 17.19,0 32.75,-6.97 44.01,-18.24 11.27,-11.26 18.24,-26.82 18.24,-44.01l0.05 0 0 -35.65 -28.66 -12.45c-3.88,-1.68 -7.99,-2.72 -12.17,-3.1 -4.11,-0.38 -8.35,-0.08 -12.54,0.89l-71.18 16.54zm-27.09 33.77l0 -44.49 0.03 0c0,-6.17 4.24,-11.74 10.5,-13.17l81.71 -18.99c6.87,-1.6 13.96,-2.06 21.01,-1.42 6.98,0.63 13.88,2.38 20.41,5.22l36.36 15.79c5.03,1.96 8.6,6.85 8.6,12.57l0 44.49 0.05 0c0,24.66 -10,47 -26.17,63.16 -16.16,16.17 -38.5,26.17 -63.16,26.17 -24.67,0 -47,-10 -63.17,-26.17 -16.17,-16.16 -26.17,-38.5 -26.17,-63.16z"/>
  <path class="fil0" d="M54.17 989.67c0,7.48 -6.07,13.55 -13.54,13.55 -7.48,0 -13.55,-6.07 -13.55,-13.55l0 -355.73c0,-7.47 6.07,-13.54 13.55,-13.54 7.47,0 13.54,6.07 13.54,13.54l0 355.73z"/>
  <path class="fil0" d="M187.11 976.13c7.48,0 13.54,6.07 13.54,13.54 0,7.48 -6.06,13.55 -13.54,13.55l-146.48 0c-7.48,0 -13.55,-6.07 -13.55,-13.55 0,-7.47 6.07,-13.54 13.55,-13.54l146.48 0z"/>
  <path class="fil0" d="M532.07 620.4c7.48,0 13.55,6.07 13.55,13.54 0,7.48 -6.07,13.55 -13.55,13.55l-491.44 0c-11.22,0 -21.37,-4.55 -28.73,-11.91 -7.35,-7.35 -11.9,-17.51 -11.9,-28.72l0 -54.85c0,-11.21 4.55,-21.37 11.9,-28.72 7.36,-7.36 17.51,-11.91 28.73,-11.91l0 0.06 490.53 0c7.45,0 13.48,6.04 13.48,13.49 0,7.45 -6.03,13.48 -13.48,13.48l-490.53 0 0 0.06c-3.74,0 -7.13,1.51 -9.58,3.97 -2.45,2.45 -3.97,5.83 -3.97,9.57l0 54.85c0,3.74 1.52,7.12 3.97,9.57 2.45,2.46 5.84,3.97 9.58,3.97l491.44 0z"/>
  <path class="fil0" d="M491.78 1003.22l-208.28 0c-11.5,0 -21.91,-4.66 -29.44,-12.2 -7.53,-7.53 -12.19,-17.94 -12.19,-29.43l0 -127.79c0,-11.49 4.66,-21.9 12.19,-29.43 7.53,-7.53 17.94,-12.19 29.44,-12.19l208.28 0c11.49,0 21.9,4.66 29.44,12.19 7.53,7.53 12.19,17.94 12.19,29.43l0 127.79c0,11.49 -4.66,21.9 -12.19,29.43 -7.54,7.54 -17.94,12.2 -29.44,12.2zm-208.28 -27.09l208.28 0c4.02,0 7.66,-1.63 10.29,-4.26 2.63,-2.63 4.26,-6.26 4.26,-10.28l0 -127.79c0,-4.01 -1.63,-7.65 -4.26,-10.28 -2.63,-2.63 -6.27,-4.26 -10.29,-4.26l-208.28 0c-4.02,0 -7.66,1.63 -10.29,4.26 -2.63,2.63 -4.26,6.27 -4.26,10.28l0 127.79c0,4.02 1.63,7.65 4.26,10.28 2.63,2.63 6.27,4.26 10.29,4.26z"/>
  <path class="fil0" d="M342.69 805.72c0,7.48 -6.06,13.54 -13.54,13.54 -7.48,0 -13.54,-6.06 -13.54,-13.54l0 -63.47c0,-8.73 3.53,-16.63 9.25,-22.35 5.72,-5.71 13.62,-9.25 22.34,-9.25l80.87 0c8.73,0 16.63,3.54 22.34,9.25 5.72,5.72 9.26,13.62 9.26,22.35l0 63.47c0,7.48 -6.06,13.54 -13.54,13.54 -7.48,0 -13.54,-6.06 -13.54,-13.54l0 -63.47c0,-1.25 -0.51,-2.38 -1.32,-3.2 -0.82,-0.81 -1.95,-1.32 -3.2,-1.32l-80.87 0c-1.24,0 -2.37,0.51 -3.19,1.32 -0.81,0.82 -1.32,1.95 -1.32,3.2l0 63.47z"/>
  <path class="fil0" d="M897.36 555.44c0,-7.48 6.06,-13.54 13.54,-13.54 7.48,0 13.54,6.06 13.54,13.54l0 84.03c0,13.08 -5.3,24.93 -13.88,33.51 -8.58,8.58 -20.43,13.89 -33.51,13.89 -6.34,0 -12.45,-1.29 -18.08,-3.63 -5.89,-2.43 -11.13,-5.94 -15.44,-10.25 -0.29,-0.29 -0.55,-0.58 -0.81,-0.89 -3.97,-4.18 -7.19,-9.1 -9.45,-14.56 -2.33,-5.63 -3.62,-11.74 -3.62,-18.07l0 -20.31c0,-7.48 6.06,-13.54 13.54,-13.54 7.48,0 13.54,6.06 13.54,13.54l0 20.31c0,2.84 0.54,5.47 1.51,7.81 0.92,2.22 2.24,4.26 3.89,6.04 0.19,0.16 0.37,0.34 0.55,0.52 1.93,1.92 4.15,3.44 6.55,4.44 2.34,0.97 4.98,1.5 7.82,1.5 5.61,0 10.68,-2.27 14.36,-5.95 3.67,-3.67 5.95,-8.75 5.95,-14.36l0 -84.03z"/>
  <path class="fil0" d="M761.94 276.14c0,-7.48 6.06,-13.54 13.54,-13.54 7.48,0 13.55,6.06 13.55,13.54l0 20.65c0,4.64 1.4,9.03 3.87,12.68 0.16,0.23 0.3,0.46 0.44,0.7 2.45,3.33 5.82,6 9.86,7.62l67.33 26.92c16.29,6.52 29.77,17.66 39.17,31.55 0.22,0.32 0.42,0.66 0.61,0.99 9.03,13.74 14.13,30 14.13,47.05l0 138.53c0,7.48 -6.06,13.54 -13.54,13.54 -7.48,0 -13.54,-6.06 -13.54,-13.54l0 -138.53c0,-11.72 -3.43,-22.81 -9.5,-32.11 -0.2,-0.26 -0.4,-0.53 -0.59,-0.81 -6.44,-9.52 -15.66,-17.14 -26.79,-21.6l-67.33 -26.92c-8.98,-3.6 -16.49,-9.65 -21.9,-17.22 -0.27,-0.33 -0.53,-0.68 -0.77,-1.04 -5.45,-8.04 -8.54,-17.67 -8.54,-27.81l0 -20.65z"/>
  <path class="fil0" d="M666.57 276.14c0,-7.48 6.07,-13.54 13.54,-13.54 7.48,0 13.55,6.06 13.55,13.54l0 20.65c0,10.14 -3.09,19.77 -8.54,27.81 -5.44,8.03 -13.24,14.48 -22.67,18.26l-67.33 26.92c-11.18,4.48 -20.42,12.1 -26.85,21.6 -6.4,9.46 -10.03,20.86 -10.03,32.92l0 215.17c0,2.83 0.53,5.47 1.5,7.8 1.02,2.46 2.53,4.69 4.42,6.59l0.02 -0.02c3.68,3.67 8.76,5.94 14.37,5.94 5.61,0 10.69,-2.27 14.36,-5.95 3.68,-3.68 5.95,-8.76 5.95,-14.36l0 -20.31c0,-7.48 6.07,-13.55 13.55,-13.55 7.47,0 13.54,6.07 13.54,13.55l0 20.31c0,13.08 -5.31,24.93 -13.89,33.51 -8.58,8.58 -20.43,13.89 -33.51,13.89 -13.09,0 -24.94,-5.31 -33.51,-13.88l0.02 -0.03 -0.02 -0.03c-4.34,-4.35 -7.85,-9.57 -10.27,-15.39 -2.33,-5.64 -3.61,-11.74 -3.61,-18.07l0 -215.17c0,-17.46 5.35,-34.1 14.79,-48.04 9.41,-13.91 22.88,-25.05 39.12,-31.55l67.32 -26.92c4.28,-1.71 7.82,-4.65 10.3,-8.32 2.48,-3.65 3.88,-8.04 3.88,-12.68l0 -20.65z"/>
  <path class="fil0" d="M843.19 632.7c-7.48,0 -13.54,-6.07 -13.54,-13.54 0,-7.48 6.06,-13.55 13.54,-13.55l67.71 0c7.48,0 13.54,6.07 13.54,13.55 0,7.47 -6.06,13.54 -13.54,13.54l-67.71 0z"/>
  <path class="fil0" d="M612.4 605.61c7.48,0 13.55,6.07 13.55,13.55 0,7.47 -6.07,13.54 -13.55,13.54l-67.7 0c-7.48,0 -13.55,-6.07 -13.55,-13.54 0,-7.48 6.07,-13.55 13.55,-13.55l67.7 0z"/>
  <path class="fil0" d="M650.67 937.18c0.67,7.42 -4.8,13.98 -12.22,14.65 -7.42,0.67 -13.98,-4.8 -14.65,-12.22l-24.83 -265.07c-0.04,-0.41 -0.05,-0.81 -0.06,-1.22l-0.05 0 0 -27.08c0,-7.48 6.07,-13.54 13.55,-13.54 0.4,0 0.8,0.02 1.19,0.05l229.59 0c7.45,0 13.49,6.04 13.49,13.49l0.05 0 0 27.08c0,0.84 -0.07,1.66 -0.22,2.45l-24.71 263.84c-0.67,7.42 -7.23,12.89 -14.65,12.22 -7.42,-0.67 -12.89,-7.23 -12.22,-14.65l24.72 -263.94 0 -13.51 -203.7 0 0 13.51 24.72 263.94z"/>
  <path class="fil0" d="M856.73 646.24c0,7.48 -6.06,13.54 -13.54,13.54 -7.48,0 -13.54,-6.06 -13.54,-13.54l0 -162.5c0,-7.48 6.06,-13.54 13.54,-13.54 7.48,0 13.54,6.06 13.54,13.54l0 162.5z"/>
  <path class="fil0" d="M598.86 483.74c0,-7.48 6.07,-13.54 13.54,-13.54 7.48,0 13.55,6.06 13.55,13.54l0 162.5c0,7.48 -6.07,13.54 -13.55,13.54 -7.47,0 -13.54,-6.06 -13.54,-13.54l0 -162.5z"/>
  <path class="fil0" d="M741.34 962.59c0,7.48 -6.06,13.54 -13.54,13.54 -7.48,0 -13.54,-6.06 -13.54,-13.54l0 -225.11c0,-7.48 6.06,-13.54 13.54,-13.54 7.48,0 13.54,6.06 13.54,13.54l0 225.11z"/>
  <path class="fil0" d="M828.69 1003.22l-86.4 0c-7.74,0 -14.75,-3.14 -19.82,-8.22 -5.08,-5.07 -8.22,-12.08 -8.22,-19.82 0,-14.7 5.96,-28 15.59,-37.63 9.63,-9.63 22.93,-15.58 37.63,-15.58l36.05 0c14.69,0 28,5.95 37.63,15.58 9.63,9.63 15.58,22.93 15.58,37.63 0,7.74 -3.14,14.75 -8.21,19.82 -5.08,5.08 -12.08,8.22 -19.83,8.22zm-86.4 -27.09l86.4 0c0.27,0 0.51,-0.11 0.68,-0.28 0.17,-0.17 0.28,-0.41 0.28,-0.67 0,-7.22 -2.92,-13.75 -7.65,-18.48 -4.73,-4.73 -11.26,-7.65 -18.48,-7.65l-36.05 0c-7.22,0 -13.75,2.92 -18.48,7.65 -4.73,4.73 -7.65,11.26 -7.65,18.48 0,0.26 0.11,0.5 0.28,0.67 0.17,0.17 0.41,0.28 0.67,0.28z"/>
  <path class="fil0" d="M713.3 1003.22l-86.4 0c-7.74,0 -14.75,-3.14 -19.82,-8.22 -5.08,-5.07 -8.22,-12.08 -8.22,-19.82 0,-14.7 5.96,-28 15.59,-37.63 9.63,-9.63 22.93,-15.58 37.62,-15.58l36.06 0c14.69,0 27.99,5.95 37.62,15.58 9.63,9.63 15.59,22.93 15.59,37.63 0,7.74 -3.14,14.75 -8.22,19.82 -5.07,5.08 -12.08,8.22 -19.82,8.22zm-86.4 -27.09l86.4 0c0.26,0 0.5,-0.11 0.68,-0.28 0.17,-0.17 0.27,-0.41 0.27,-0.67 0,-7.22 -2.92,-13.75 -7.65,-18.48 -4.72,-4.73 -11.26,-7.65 -18.47,-7.65l-36.06 0c-7.21,0 -13.75,2.92 -18.47,7.65 -4.73,4.73 -7.65,11.26 -7.65,18.48 0,0.26 0.1,0.5 0.27,0.67 0.18,0.17 0.42,0.28 0.68,0.28z"/>
  <path class="fil0" d="M727.8 306.26c-24.98,0 -47.59,-10.12 -63.96,-26.49 -16.36,-16.37 -26.49,-38.98 -26.49,-63.95l0 -78.37c0,-16.2 6.57,-30.87 17.19,-41.49 10.62,-10.62 25.29,-17.19 41.49,-17.19l63.53 0c16.2,0 30.88,6.57 41.5,17.19 10.62,10.62 17.18,25.29 17.18,41.49l0 78.37c0,24.97 -10.12,47.58 -26.49,63.95 -16.37,16.37 -38.98,26.49 -63.95,26.49zm-44.81 -45.64c11.47,11.47 27.31,18.56 44.81,18.56 17.49,0 33.34,-7.09 44.8,-18.56 11.47,-11.46 18.56,-27.3 18.56,-44.8l0 -78.37c0,-8.72 -3.54,-16.62 -9.25,-22.34 -5.72,-5.72 -13.62,-9.25 -22.35,-9.25l-63.53 0c-8.72,0 -16.62,3.53 -22.34,9.25 -5.72,5.72 -9.25,13.62 -9.25,22.34l0 78.37c0,17.5 7.09,33.34 18.55,44.8z"/>
  <path class="fil0" d="M638.41 176.09c-2.89,-6.89 0.35,-14.82 7.25,-17.72 6.89,-2.89 14.83,0.36 17.72,7.25l10.41 24.81c2.69,6.41 7.14,11.67 12.62,15.32 5.51,3.66 12.1,5.73 19.06,5.73l44.66 0c6.95,0 13.54,-2.07 19.05,-5.73 5.49,-3.65 9.93,-8.91 12.62,-15.32l10.42 -24.81c2.89,-6.89 10.83,-10.14 17.72,-7.25 6.89,2.9 10.14,10.83 7.25,17.72l-10.42 24.82c-4.78,11.38 -12.77,20.79 -22.67,27.37 -9.88,6.57 -21.64,10.29 -33.97,10.29l-44.66 0c-12.34,0 -24.09,-3.72 -33.97,-10.29 -9.91,-6.58 -17.9,-15.99 -22.67,-27.37l-10.42 -24.82z"/>
  <path class="fil0" d="M654.24 343.44c-7.25,-1.75 -11.7,-9.05 -9.95,-16.29 1.76,-7.25 9.05,-11.7 16.3,-9.95 9.06,2.22 19.63,4.34 31.44,5.84 11.88,1.52 25.08,2.44 39.39,2.25 12.54,-0.16 24.27,-1.16 34.99,-2.64l0 -0.01c10.75,-1.48 20.31,-3.41 28.6,-5.44 7.25,-1.75 14.54,2.7 16.29,9.95 1.75,7.24 -2.7,14.54 -9.94,16.29 -9.19,2.25 -19.68,4.37 -31.24,5.97l-0.01 -0.01 -0.05 0.01c-11.57,1.6 -24.38,2.68 -38.33,2.86 -15.65,0.2 -30.09,-0.8 -43.08,-2.46 -13.06,-1.67 -24.6,-3.97 -34.41,-6.37z"/>
  <path class="fil0" d="M287.42 373.92c5.29,-5.29 13.86,-5.29 19.15,0 5.29,5.29 5.29,13.86 0,19.15l-36.47 36.47 13.84 13.84 52.64 -52.64c5.29,-5.29 13.87,-5.29 19.15,0 5.29,5.28 5.29,13.86 0,19.15l-53.97 53.97 -0.03 -0.03 -0.02 0.03c-4.93,4.92 -11.36,7.38 -17.77,7.38 -5.98,0 -11.98,-2.14 -16.75,-6.42 -0.37,-0.3 -0.73,-0.62 -1.07,-0.96l-24.75 -24.74c-5.29,-5.29 -5.29,-13.87 0,-19.15l46.05 -46.05z"/>
  <path class="fil0" d="M146.16 409.89c-5.29,-5.29 -5.29,-13.86 0,-19.15 5.29,-5.29 13.86,-5.29 19.15,0l52.65 52.64 13.84 -13.84 -36.48 -36.47c-5.28,-5.29 -5.28,-13.86 0,-19.15 5.29,-5.29 13.87,-5.29 19.15,0l46.05 46.05c5.29,5.28 5.29,13.86 0,19.14l-24.74 24.75c-4.92,4.92 -11.38,7.38 -17.82,7.38 -5.95,0 -11.92,-2.13 -16.71,-6.38 -0.39,-0.31 -0.76,-0.64 -1.12,-1l-53.97 -53.97z"/>
 </g>
</svg>
