<svg height="512" viewBox="0 0 64 64" width="512" xmlns="http://www.w3.org/2000/svg"><g id="_20-Education" data-name="20-Education"><path d="m36 47h2v2h-2z"/><path d="m38 52h-22a7 7 0 0 1 0-14h42a1 1 0 0 1 1 1v3a1 1 0 0 1 -1 1h-41a2 2 0 0 0 0 4h17v2h-17a4 4 0 0 1 0-8h40v-1h-41a5 5 0 0 0 0 10h22z"/><path d="m58 52h-8v-2h7v-1h-7v-2h8a1 1 0 0 1 1 1v3a1 1 0 0 1 -1 1z"/><path d="m55 42h2v6h-2z"/><path d="m54 40h-42a7 7 0 0 1 0-14v2a5 5 0 0 0 0 10h41v-1h-40a4 4 0 0 1 0-8h9v2h-9a2 2 0 0 0 0 4h41a1 1 0 0 1 1 1v3a1 1 0 0 1 -1 1z"/><path d="m54 31h-12v-2h11v-1h-1v-2h2a1 1 0 0 1 1 1v3a1 1 0 0 1 -1 1z"/><path d="m51 30h2v6h-2z"/><path d="m54 64h-42a7 7 0 0 1 0-14h26v2h-26a5 5 0 0 0 0 10h41v-1h-40a4 4 0 0 1 0-8h40v-1h-3v-2h4a1 1 0 0 1 1 1v3a1 1 0 0 1 -1 1h-41a2 2 0 0 0 0 4h41a1 1 0 0 1 1 1v3a1 1 0 0 1 -1 1z"/><path d="m51 54h2v6h-2z"/><path d="m32 22a1.014 1.014 0 0 1 -.326-.055l-29-10a1 1 0 0 1 0-1.89l29-10a1 1 0 0 1 .652 0l29 10a1 1 0 0 1 0 1.89l-29 10a1.014 1.014 0 0 1 -.326.055zm-25.933-11 25.933 8.942 25.933-8.942-25.933-8.942z"/><path d="m32 32c-15.094 0-18.691-5.229-18.837-5.452a1.007 1.007 0 0 1 -.163-.548v-11h2v10.643c.808.857 4.837 4.357 17 4.357 12.135 0 16.173-3.479 17-4.36v-10.64h2v11a1.007 1.007 0 0 1 -.163.548c-.146.223-3.743 5.452-18.837 5.452z"/><path d="m59 11h2v8h-2z"/><path d="m61.255 30h-2.51a2.751 2.751 0 0 1 -2.2-1.066 2.6 2.6 0 0 1 -.465-2.258c.009-.032.019-.065.03-.1l2.947-7.929a1 1 0 0 1 1.875 0l2.948 7.929c.011.031.021.064.03.1a2.6 2.6 0 0 1 -.465 2.258 2.751 2.751 0 0 1 -2.19 1.066zm-3.243-2.781a.608.608 0 0 0 .121.493.763.763 0 0 0 .612.288h2.51a.763.763 0 0 0 .612-.288.608.608 0 0 0 .121-.493l-1.988-5.349z"/><path d="m48 52a1 1 0 0 1 -.6-.2l-3.4-2.55-3.4 2.55a1 1 0 0 1 -1.6-.8v-6a1 1 0 0 1 1-1h8a1 1 0 0 1 1 1v6a1 1 0 0 1 -1 1zm-4-5a1 1 0 0 1 .6.2l2.4 1.8v-3h-6v3l2.4-1.8a1 1 0 0 1 .6-.2z"/></g></svg>