<?xml version="1.0" encoding="utf-8"?>
<!-- Generator: Adobe Illustrator 23.0.1, SVG Export Plug-In . SVG Version: 6.00 Build 0)  -->
<svg version="1.1" id="Layer_1" xmlns="http://www.w3.org/2000/svg" xmlns:xlink="http://www.w3.org/1999/xlink" x="0px" y="0px"
	 viewBox="0 0 115.74 362.1" style="enable-background:new 0 0 115.74 362.1;" xml:space="preserve">
<style type="text/css">
	.st0{opacity:0.51;}
	.st1{fill:#CCCCCC;stroke:#CCCCCC;stroke-width:0.25;stroke-miterlimit:10;}
	.st2{fill:#CCCCCC;stroke:#CCCCCC;stroke-miterlimit:10;}
	.st3{fill:#4D4D4D;stroke:#4D4D4D;stroke-width:0.25;stroke-miterlimit:10;}
	.st4{fill:#4D4D4D;stroke:#4D4D4D;stroke-miterlimit:10;}
	.st5{fill:#4D4D4D;}
	.st6{fill:#1B99C1;}
</style>
<g class="st0">
	<g>
		<g>
			<g>
				<line class="st1" x1="21.04" y1="317.98" x2="13.16" y2="342.67"/>
				<g>
					<path class="st2" d="M19.64,317.58c0.21-0.65,1-1,1.77-0.78c0.77,0.22,1.23,0.93,1.02,1.58c-0.21,0.65-1,1-1.77,0.78
						C19.89,318.94,19.43,318.23,19.64,317.58z"/>
				</g>
			</g>
		</g>
	</g>
	<g>
		<g>
			<g>
				<line class="st1" x1="47.85" y1="321.8" x2="43.24" y2="347.28"/>
				<g>
					<path class="st2" d="M46.42,321.53c0.12-0.67,0.86-1.1,1.65-0.95c0.79,0.15,1.33,0.81,1.21,1.48c-0.12,0.67-0.86,1.1-1.65,0.95
						C46.84,322.86,46.3,322.2,46.42,321.53z"/>
				</g>
			</g>
		</g>
	</g>
	<g>
		<g>
			<g>
				<line class="st1" x1="54.5" y1="293.77" x2="49.88" y2="314.26"/>
				<g>
					<path class="st2" d="M53.08,293.46c0.15-0.67,0.91-1.07,1.69-0.89c0.79,0.17,1.3,0.85,1.15,1.51
						c-0.15,0.67-0.91,1.07-1.69,0.89C53.44,294.8,52.93,294.12,53.08,293.46z"/>
				</g>
			</g>
		</g>
	</g>
	<g>
		<g>
			<g>
				<line class="st1" x1="63.59" y1="258.3" x2="54.39" y2="294.91"/>
				<g>
					<path class="st2" d="M62.17,257.96c0.17-0.66,0.93-1.05,1.72-0.86c0.78,0.19,1.28,0.87,1.12,1.53
						c-0.17,0.66-0.94,1.05-1.72,0.86C62.5,259.31,62.01,258.62,62.17,257.96z"/>
				</g>
			</g>
		</g>
	</g>
	<g>
		<g>
			<g>
				<line class="st1" x1="53.76" y1="232.39" x2="63.59" y2="258.3"/>
				<g>
					<path class="st2" d="M52.39,232.71c-0.25-0.66,0.16-1.34,0.92-1.52c0.76-0.17,1.58,0.22,1.83,0.89
						c0.25,0.66-0.16,1.34-0.92,1.52C53.46,233.77,52.64,233.37,52.39,232.71z"/>
				</g>
			</g>
		</g>
	</g>
	<g>
		<g>
			<g>
				<line class="st1" x1="44.97" y1="149.43" x2="53.76" y2="232.39"/>
				<g>
					<path class="st2" d="M43.53,149.47c-0.07-0.69,0.51-1.26,1.31-1.28c0.8-0.02,1.5,0.52,1.57,1.21c0.07,0.69-0.51,1.26-1.31,1.28
						C44.3,150.69,43.6,150.15,43.53,149.47z"/>
				</g>
			</g>
		</g>
	</g>
	<g>
		<g>
			<g>
				<line class="st1" x1="35.22" y1="115.96" x2="44.97" y2="149.43"/>
				<g>
					<path class="st2" d="M33.82,116.19c-0.2-0.68,0.27-1.32,1.05-1.45c0.78-0.13,1.56,0.32,1.76,0.99c0.2,0.67-0.27,1.32-1.05,1.45
						S34.01,116.86,33.82,116.19z"/>
				</g>
			</g>
		</g>
	</g>
	<g>
		<g>
			<g>
				<line class="st1" x1="9.01" y1="89.66" x2="35.22" y2="115.96"/>
				<g>
					<path class="st2" d="M7.94,90.43c-0.54-0.54-0.49-1.32,0.1-1.75c0.59-0.43,1.51-0.34,2.05,0.2c0.54,0.54,0.49,1.32-0.1,1.75
						C9.39,91.06,8.48,90.97,7.94,90.43z"/>
				</g>
			</g>
		</g>
	</g>
	<g>
		<g>
			<g>
				<line class="st1" x1="46.71" y1="114.79" x2="77.42" y2="146.42"/>
				<g>
					<path class="st2" d="M45.62,115.55c-0.53-0.54-0.47-1.32,0.13-1.74c0.6-0.42,1.52-0.32,2.04,0.23
						c0.53,0.54,0.47,1.32-0.13,1.74C47.06,116.19,46.15,116.09,45.62,115.55z"/>
				</g>
			</g>
		</g>
	</g>
	<g>
		<g>
			<g>
				<line class="st1" x1="42.89" y1="25.44" x2="27.37" y2="8.78"/>
				<g>
					<path class="st2" d="M44,24.7c0.52,0.55,0.44,1.33-0.18,1.74c-0.61,0.41-1.53,0.29-2.04-0.26c-0.51-0.55-0.44-1.33,0.18-1.74
						C42.57,24.03,43.49,24.14,44,24.7z"/>
				</g>
			</g>
		</g>
	</g>
	<g>
		<g>
			<g>
				<line class="st1" x1="46.71" y1="114.79" x2="42.89" y2="25.44"/>
				<g>
					<path class="st2" d="M48.16,114.82c0.03,0.69-0.59,1.23-1.39,1.21c-0.8-0.02-1.47-0.59-1.5-1.28
						c-0.03-0.69,0.59-1.23,1.39-1.21C47.45,113.57,48.13,114.14,48.16,114.82z"/>
				</g>
			</g>
		</g>
	</g>
	<g>
		<g>
			<g>
				<line class="st1" x1="76.28" y1="321.87" x2="75.98" y2="339.97"/>
				<g>
					<path class="st2" d="M74.84,321.77c0.01-0.68,0.67-1.2,1.47-1.14c0.8,0.05,1.44,0.65,1.43,1.34c-0.01,0.68-0.67,1.2-1.47,1.14
						C75.46,323.06,74.82,322.46,74.84,321.77z"/>
				</g>
			</g>
		</g>
	</g>
	<g>
		<g>
			<g>
				<line class="st1" x1="87.68" y1="307.88" x2="87.6" y2="322.64"/>
				<g>
					<path class="st2" d="M86.23,307.8c0-0.69,0.65-1.2,1.45-1.16c0.8,0.05,1.45,0.64,1.44,1.33c0,0.69-0.65,1.2-1.45,1.16
						S86.23,308.48,86.23,307.8z"/>
				</g>
			</g>
		</g>
	</g>
	<g>
		<g>
			<g>
				<line class="st1" x1="55.14" y1="335.69" x2="55.11" y2="343.37"/>
				<g>
					<path class="st2" d="M53.7,335.61c0-0.69,0.65-1.2,1.45-1.16c0.8,0.05,1.44,0.64,1.44,1.33c0,0.69-0.66,1.2-1.45,1.16
						C54.34,336.88,53.69,336.29,53.7,335.61z"/>
				</g>
			</g>
		</g>
	</g>
	<g>
		<g>
			<g>
				<line class="st1" x1="105.25" y1="305.03" x2="106.62" y2="309.22"/>
				<g>
					<path class="st2" d="M103.85,305.29c-0.22-0.67,0.23-1.33,1-1.48c0.77-0.15,1.57,0.28,1.79,0.95c0.22,0.67-0.23,1.33-0.99,1.48
						C104.87,306.39,104.07,305.97,103.85,305.29z"/>
				</g>
			</g>
		</g>
	</g>
	<g>
		<g>
			<g>
				<line class="st1" x1="79.05" y1="196.85" x2="53.76" y2="232.39"/>
				<g>
					<path class="st2" d="M77.8,196.15c0.4-0.57,1.29-0.72,1.98-0.33c0.69,0.38,0.92,1.16,0.52,1.73c-0.4,0.57-1.29,0.72-1.98,0.33
						C77.63,197.49,77.39,196.72,77.8,196.15z"/>
				</g>
			</g>
		</g>
	</g>
	<g>
		<g>
			<g>
				<line class="st1" x1="79.05" y1="196.85" x2="78.25" y2="147.39"/>
				<g>
					<path class="st2" d="M80.5,196.91c0.01,0.69-0.63,1.21-1.43,1.18c-0.8-0.03-1.46-0.62-1.47-1.3c-0.01-0.69,0.63-1.21,1.43-1.18
						C79.83,195.64,80.48,196.22,80.5,196.91z"/>
				</g>
				<g>
					<path class="st2" d="M80.67,147.49c-0.02-1.14-1.11-2.12-2.45-2.17c-1.33-0.06-2.4,0.82-2.38,1.97
						c0.02,1.14,1.11,2.12,2.45,2.17C79.62,149.52,80.69,148.63,80.67,147.49z"/>
				</g>
			</g>
		</g>
	</g>
</g>
<g>
	<g>
		<g>
			<line class="st3" x1="48.16" y1="13.15" x2="16.39" y2="80.3"/>
			<g>
				<path class="st4" d="M46.96,12.43c0.36-0.77,1.19-1.07,1.85-0.67c0.66,0.4,0.9,1.35,0.54,2.11c-0.36,0.77-1.19,1.07-1.85,0.67
					C46.84,14.14,46.6,13.19,46.96,12.43z"/>
			</g>
		</g>
	</g>
</g>
<g>
	<path class="st5" d="M53.75,14.53c2.51-2.01,2.91-5.67,0.91-8.18c-2.01-2.51-5.67-2.91-8.18-0.91c-2.51,2.01-2.91,5.67-0.91,8.18
		C47.58,16.13,51.24,16.54,53.75,14.53z"/>
</g>
<g>
	<g>
		<g>
			<line class="st3" x1="18.44" y1="84.48" x2="88.2" y2="110.02"/>
			<g>
				<path class="st4" d="M17.83,85.74c-0.8-0.29-1.17-1.09-0.83-1.79c0.34-0.69,1.26-1.02,2.06-0.73c0.8,0.29,1.17,1.09,0.83,1.79
					C19.55,85.7,18.63,86.03,17.83,85.74z"/>
			</g>
		</g>
	</g>
</g>
<g>
	<g>
		<g>
			<line class="st3" x1="90.32" y1="113.94" x2="16.99" y2="216.31"/>
			<g>
				<path class="st4" d="M89.84,111.75c0.84-1.17,1.73-1.14,2,0.07c0.27,1.21-0.2,3.14-1.04,4.31c-0.84,1.17-1.73,1.14-2-0.07
					C88.54,114.85,89,112.93,89.84,111.75z"/>
			</g>
		</g>
	</g>
</g>
<g>
	<g>
		<g>
			<line class="st3" x1="89.4" y1="261.71" x2="20.41" y2="218.92"/>
			<g>
				<path class="st4" d="M90.11,260.38c0.79,0.49,1.11,1.48,0.72,2.22c-0.39,0.73-1.35,0.93-2.14,0.45
					c-0.79-0.49-1.11-1.48-0.72-2.22C88.36,260.09,89.32,259.89,90.11,260.38z"/>
			</g>
		</g>
	</g>
</g>
<g>
	<path class="st5" d="M48.58,346.62c-3.11,0.8-4.98,3.98-4.18,7.09c0.8,3.11,3.98,4.98,7.09,4.18c3.11-0.8,4.98-3.98,4.18-7.09
		C54.87,347.68,51.69,345.81,48.58,346.62z"/>
</g>
<g>
	<g>
		<g>
			<line class="st3" x1="50.55" y1="349.72" x2="88.57" y2="258.63"/>
			<g>
				<path class="st4" d="M53.2,348.86c-0.44,1.04-1.97,2.27-3.44,2.75c-1.46,0.48-2.3,0.02-1.86-1.02c0.44-1.04,1.97-2.27,3.44-2.75
					C52.8,347.36,53.64,347.81,53.2,348.86z"/>
			</g>
		</g>
	</g>
</g>
<g>
	<path class="st6" d="M18.75,87.53c2.51-2.01,2.91-5.67,0.91-8.18c-2.01-2.51-5.67-2.91-8.18-0.91c-2.51,2.01-2.91,5.67-0.91,8.18
		C12.58,89.13,16.24,89.54,18.75,87.53z"/>
</g>
<g>
	<path class="st6" d="M95.18,108.01c-2.23-2.32-5.91-2.39-8.23-0.16c-2.32,2.23-2.39,5.91-0.16,8.23c2.23,2.32,5.91,2.39,8.23,0.16
		C97.34,114.01,97.41,110.33,95.18,108.01z"/>
</g>
<g>
	<path class="st6" d="M19.11,220.89c2.92-1.35,4.19-4.81,2.84-7.72c-1.35-2.92-4.81-4.19-7.72-2.84c-2.92,1.35-4.19,4.81-2.84,7.72
		C12.74,220.97,16.2,222.24,19.11,220.89z"/>
</g>
<g>
	<path class="st6" d="M86.58,255.62c-3.11,0.8-4.98,3.98-4.18,7.09c0.8,3.11,3.98,4.98,7.09,4.18c3.11-0.8,4.98-3.98,4.18-7.09
		C92.87,256.68,89.69,254.81,86.58,255.62z"/>
</g>
</svg>
